G04 #@! TF.GenerationSoftware,KiCad,Pcbnew,7.0.9*
G04 #@! TF.CreationDate,2024-04-05T11:45:32+01:00*
G04 #@! TF.ProjectId,mcpBacklight,6d637042-6163-46b6-9c69-6768742e6b69,rev?*
G04 #@! TF.SameCoordinates,Original*
G04 #@! TF.FileFunction,Profile,NP*
%FSLAX46Y46*%
G04 Gerber Fmt 4.6, Leading zero omitted, Abs format (unit mm)*
G04 Created by KiCad (PCBNEW 7.0.9) date 2024-04-05 11:45:32*
%MOMM*%
%LPD*%
G01*
G04 APERTURE LIST*
G04 #@! TA.AperFunction,Profile*
%ADD10C,0.100000*%
G04 #@! TD*
G04 APERTURE END LIST*
D10*
X434250000Y-333000000D02*
X434250000Y-298500000D01*
X87000000Y-282000000D02*
X87000000Y-326000000D01*
X329850000Y-299400000D02*
G75*
G03*
X329850000Y-299400000I-1600000J0D01*
G01*
X472750000Y-296500000D02*
X472750000Y-276500000D01*
X367750000Y-337000000D02*
X367750000Y-317000000D01*
X514250000Y-301000000D02*
G75*
G03*
X514250000Y-301000000I-4000000J0D01*
G01*
X497500000Y-338500000D02*
G75*
G03*
X498000000Y-339000000I500000J0D01*
G01*
X284250000Y-337000000D02*
X284250000Y-317000000D01*
X452750000Y-296500000D02*
X452750000Y-276500000D01*
X497500000Y-328000000D02*
X455500000Y-328000000D01*
X132500000Y-329000000D02*
G75*
G03*
X136000000Y-329000000I1750000J0D01*
G01*
X101000000Y-269000000D02*
G75*
G03*
X99500000Y-270500000I0J-1500000D01*
G01*
X296750000Y-271000000D02*
X316750000Y-271000000D01*
X479750000Y-296500000D02*
X479750000Y-276500000D01*
X543000000Y-339000000D02*
G75*
G03*
X544500000Y-337500000I0J1500000D01*
G01*
X169000000Y-291000000D02*
X224000000Y-291000000D01*
X296750000Y-294000000D02*
X316750000Y-294000000D01*
X367750000Y-317000000D02*
X387750000Y-317000000D01*
X214500000Y-310950000D02*
G75*
G03*
X214500000Y-310950000I-4250000J0D01*
G01*
X549500000Y-327500000D02*
X555500000Y-327500000D01*
X316750000Y-337000000D02*
X316750000Y-317000000D01*
X389250000Y-291000000D02*
X444250000Y-291000000D01*
X97600000Y-298000000D02*
G75*
G03*
X97600000Y-298000000I-1600000J0D01*
G01*
X379250000Y-291000000D02*
X379250000Y-275000000D01*
X296750000Y-337000000D02*
X296750000Y-317000000D01*
X155200000Y-290500000D02*
X155200000Y-295500000D01*
X548600000Y-298000000D02*
G75*
G03*
X548600000Y-298000000I-1600000J0D01*
G01*
X166750000Y-337000000D02*
X146750000Y-337000000D01*
X499750000Y-320500000D02*
X479750000Y-320500000D01*
X166750000Y-337000000D02*
X166750000Y-317000000D01*
X251750000Y-337000000D02*
X231750000Y-337000000D01*
X289250000Y-275000000D02*
X289250000Y-291000000D01*
X99500000Y-270500000D02*
X99500000Y-275500000D01*
X289250000Y-291000000D02*
X259250000Y-291000000D01*
X101000000Y-269000000D02*
X543000000Y-269000000D01*
X549500000Y-280500000D02*
X555500000Y-280500000D01*
X549500000Y-327500000D02*
G75*
G03*
X544500000Y-332500000I0J-5000000D01*
G01*
X259250000Y-291000000D02*
X259250000Y-275000000D01*
X424250000Y-298500000D02*
X434250000Y-298500000D01*
X538250000Y-275000000D02*
X538250000Y-291000000D01*
X434250000Y-333000000D02*
X424250000Y-333000000D01*
X508250000Y-291000000D02*
X508250000Y-275000000D01*
X138000000Y-301000000D02*
G75*
G03*
X138000000Y-301000000I-4000000J0D01*
G01*
X452750000Y-300500000D02*
X472750000Y-300500000D01*
X499750000Y-320500000D02*
X499750000Y-300500000D01*
X324250000Y-291000000D02*
X379250000Y-291000000D01*
X389250000Y-275000000D02*
X444250000Y-275000000D01*
X251750000Y-291000000D02*
X231750000Y-291000000D01*
X99500000Y-332500000D02*
G75*
G03*
X94500000Y-327500000I-5000000J0D01*
G01*
X389250000Y-291000000D02*
X389250000Y-275000000D01*
X354850403Y-304000000D02*
G75*
G03*
X354850403Y-304000000I-3100403J0D01*
G01*
X341750000Y-337000000D02*
X341750000Y-317000000D01*
X455500000Y-338500000D02*
X455500000Y-328000000D01*
X544500000Y-337500000D02*
X544500000Y-332500000D01*
X512000000Y-325000000D02*
X512000000Y-329000000D01*
X106000000Y-291000000D02*
X106000000Y-275000000D01*
X136000000Y-275000000D02*
X136000000Y-291000000D01*
X106000000Y-275000000D02*
X136000000Y-275000000D01*
X408250000Y-307000000D02*
G75*
G03*
X408250000Y-307000000I-1600000J0D01*
G01*
X316750000Y-291000000D02*
X316750000Y-271000000D01*
X544500000Y-270500000D02*
G75*
G03*
X543000000Y-269000000I-1500000J0D01*
G01*
X231750000Y-317000000D02*
X251750000Y-317000000D01*
X278500000Y-304000000D02*
G75*
G03*
X278500000Y-304000000I-4250000J0D01*
G01*
X361750000Y-337000000D02*
X341750000Y-337000000D01*
X136000000Y-325000000D02*
X136000000Y-329000000D01*
X189750000Y-337000000D02*
X189750000Y-317000000D01*
X264250000Y-317000000D02*
X284250000Y-317000000D01*
X452750000Y-320500000D02*
X452750000Y-300500000D01*
X544500000Y-275500000D02*
G75*
G03*
X549500000Y-280500000I5000000J0D01*
G01*
X169750000Y-317000000D02*
X189750000Y-317000000D01*
X264250000Y-337000000D02*
X264250000Y-317000000D01*
X132500000Y-325000000D02*
X132500000Y-329000000D01*
X149500000Y-278500000D02*
G75*
G03*
X149500000Y-281000000I0J-1250000D01*
G01*
X532350000Y-307750000D02*
G75*
G03*
X532350000Y-307750000I-3100000J0D01*
G01*
X508500000Y-329000000D02*
G75*
G03*
X512000000Y-329000000I1750000J0D01*
G01*
X387750000Y-337000000D02*
X387750000Y-317000000D01*
X225850000Y-331000000D02*
G75*
G03*
X225850000Y-331000000I-1600000J0D01*
G01*
X544500000Y-275500000D02*
X544500000Y-270500000D01*
X557000000Y-326000000D02*
X557000000Y-282000000D01*
X284250000Y-337000000D02*
X264250000Y-337000000D01*
X512000000Y-325000000D02*
G75*
G03*
X508500000Y-325000000I-1750000J0D01*
G01*
X479750000Y-276500000D02*
X499750000Y-276500000D01*
X149500000Y-281000000D02*
X155500000Y-281000000D01*
X234000000Y-304000000D02*
G75*
G03*
X234000000Y-304000000I-3000000J0D01*
G01*
X88500000Y-280500000D02*
G75*
G03*
X87000000Y-282000000I0J-1500000D01*
G01*
X508500000Y-325000000D02*
X508500000Y-329000000D01*
X136000000Y-325000000D02*
G75*
G03*
X132500000Y-325000000I-1750000J0D01*
G01*
X424250000Y-298500000D02*
X424250000Y-333000000D01*
X538250000Y-291000000D02*
X508250000Y-291000000D01*
X192000000Y-304000000D02*
G75*
G03*
X192000000Y-304000000I-3000000J0D01*
G01*
X94500000Y-280500000D02*
X88500000Y-280500000D01*
X378250000Y-304000000D02*
G75*
G03*
X378250000Y-304000000I-3000000J0D01*
G01*
X231750000Y-337000000D02*
X231750000Y-317000000D01*
X240550000Y-297000000D02*
G75*
G03*
X240550000Y-297000000I-550000J0D01*
G01*
X499750000Y-296500000D02*
X499750000Y-276500000D01*
X118100000Y-304000000D02*
G75*
G03*
X118100000Y-304000000I-3100000J0D01*
G01*
X479750000Y-300500000D02*
X499750000Y-300500000D01*
X472750000Y-320500000D02*
X472750000Y-300500000D01*
X259250000Y-275000000D02*
X289250000Y-275000000D01*
X508250000Y-275000000D02*
X538250000Y-275000000D01*
X324250000Y-291000000D02*
X324250000Y-275000000D01*
X387750000Y-337000000D02*
X367750000Y-337000000D01*
X296750000Y-291000000D02*
X296750000Y-271000000D01*
X555500000Y-327500000D02*
G75*
G03*
X557000000Y-326000000I0J1500000D01*
G01*
X149800000Y-290500000D02*
X149800000Y-295500000D01*
X170600000Y-303000000D02*
G75*
G03*
X170600000Y-303000000I-1600000J0D01*
G01*
X231750000Y-271000000D02*
X251750000Y-271000000D01*
X94500000Y-280500000D02*
G75*
G03*
X99500000Y-275500000I0J5000000D01*
G01*
X472750000Y-296500000D02*
X452750000Y-296500000D01*
X155200000Y-290500000D02*
G75*
G03*
X149800000Y-290500000I-2700000J0D01*
G01*
X316750000Y-314000000D02*
X316750000Y-294000000D01*
X169750000Y-337000000D02*
X169750000Y-317000000D01*
X136000000Y-291000000D02*
X106000000Y-291000000D01*
X452750000Y-276500000D02*
X472750000Y-276500000D01*
X543000000Y-339000000D02*
X498000000Y-339000000D01*
X455000000Y-339000000D02*
X101000000Y-339000000D01*
X296750000Y-314000000D02*
X296750000Y-294000000D01*
X455000000Y-339000000D02*
G75*
G03*
X455500000Y-338500000I0J500000D01*
G01*
X94500000Y-327500000D02*
X88500000Y-327500000D01*
X224000000Y-291000000D02*
X224000000Y-275000000D01*
X189750000Y-337000000D02*
X169750000Y-337000000D01*
X231750000Y-291000000D02*
X231750000Y-271000000D01*
X296750000Y-317000000D02*
X316750000Y-317000000D01*
X479750000Y-320500000D02*
X479750000Y-300500000D01*
X444250000Y-291000000D02*
X444250000Y-275000000D01*
X384800000Y-297000000D02*
G75*
G03*
X384800000Y-297000000I-550000J0D01*
G01*
X341750000Y-317000000D02*
X361750000Y-317000000D01*
X497500000Y-338500000D02*
X497500000Y-328000000D01*
X499750000Y-296500000D02*
X479750000Y-296500000D01*
X146750000Y-337000000D02*
X146750000Y-317000000D01*
X316750000Y-291000000D02*
X296750000Y-291000000D01*
X251750000Y-337000000D02*
X251750000Y-317000000D01*
X324250000Y-275000000D02*
X379250000Y-275000000D01*
X169000000Y-275000000D02*
X224000000Y-275000000D01*
X166750000Y-317000000D02*
X146750000Y-317000000D01*
X149800000Y-295500000D02*
G75*
G03*
X155200000Y-295500000I2700000J0D01*
G01*
X169000000Y-291000000D02*
X169000000Y-275000000D01*
X251750000Y-291000000D02*
X251750000Y-271000000D01*
X316750000Y-314000000D02*
X296750000Y-314000000D01*
X87000000Y-326000000D02*
G75*
G03*
X88500000Y-327500000I1500000J0D01*
G01*
X316750000Y-337000000D02*
X296750000Y-337000000D01*
X361750000Y-337000000D02*
X361750000Y-317000000D01*
X557000000Y-282000000D02*
G75*
G03*
X555500000Y-280500000I-1500000J0D01*
G01*
X99500000Y-332500000D02*
X99500000Y-337500000D01*
X99500000Y-337500000D02*
G75*
G03*
X101000000Y-339000000I1500000J0D01*
G01*
X149500000Y-278500000D02*
X155500000Y-278500000D01*
X155500000Y-281000000D02*
G75*
G03*
X155500000Y-278500000I0J1250000D01*
G01*
X472750000Y-320500000D02*
X452750000Y-320500000D01*
M02*
