G04 #@! TF.GenerationSoftware,KiCad,Pcbnew,7.0.9*
G04 #@! TF.CreationDate,2024-04-05T11:45:32+01:00*
G04 #@! TF.ProjectId,mcpBacklight,6d637042-6163-46b6-9c69-6768742e6b69,rev?*
G04 #@! TF.SameCoordinates,Original*
G04 #@! TF.FileFunction,Copper,L2,Bot*
G04 #@! TF.FilePolarity,Positive*
%FSLAX46Y46*%
G04 Gerber Fmt 4.6, Leading zero omitted, Abs format (unit mm)*
G04 Created by KiCad (PCBNEW 7.0.9) date 2024-04-05 11:45:32*
%MOMM*%
%LPD*%
G01*
G04 APERTURE LIST*
G04 Aperture macros list*
%AMRoundRect*
0 Rectangle with rounded corners*
0 $1 Rounding radius*
0 $2 $3 $4 $5 $6 $7 $8 $9 X,Y pos of 4 corners*
0 Add a 4 corners polygon primitive as box body*
4,1,4,$2,$3,$4,$5,$6,$7,$8,$9,$2,$3,0*
0 Add four circle primitives for the rounded corners*
1,1,$1+$1,$2,$3*
1,1,$1+$1,$4,$5*
1,1,$1+$1,$6,$7*
1,1,$1+$1,$8,$9*
0 Add four rect primitives between the rounded corners*
20,1,$1+$1,$2,$3,$4,$5,0*
20,1,$1+$1,$4,$5,$6,$7,0*
20,1,$1+$1,$6,$7,$8,$9,0*
20,1,$1+$1,$8,$9,$2,$3,0*%
G04 Aperture macros list end*
G04 #@! TA.AperFunction,ComponentPad*
%ADD10RoundRect,0.250000X-0.600000X-0.750000X0.600000X-0.750000X0.600000X0.750000X-0.600000X0.750000X0*%
G04 #@! TD*
G04 #@! TA.AperFunction,ComponentPad*
%ADD11O,1.700000X2.000000*%
G04 #@! TD*
G04 #@! TA.AperFunction,ViaPad*
%ADD12C,0.500000*%
G04 #@! TD*
G04 APERTURE END LIST*
D10*
X500700000Y-326275000D03*
D11*
X503200000Y-326275000D03*
D12*
X499050000Y-326100000D03*
X499050000Y-324950000D03*
X499050000Y-327350000D03*
X504500000Y-327400000D03*
X504550000Y-324600000D03*
X504950000Y-326200000D03*
G04 #@! TA.AperFunction,Conductor*
G36*
X505443039Y-324119685D02*
G01*
X505488794Y-324172489D01*
X505500000Y-324224000D01*
X505500000Y-327976000D01*
X505480315Y-328043039D01*
X505427511Y-328088794D01*
X505376000Y-328100000D01*
X502479500Y-328100000D01*
X502412461Y-328080315D01*
X502366706Y-328027511D01*
X502355500Y-327976000D01*
X502355500Y-326481366D01*
X502355000Y-326469908D01*
X502355000Y-326080094D01*
X502355500Y-326068638D01*
X502355500Y-324224000D01*
X502375185Y-324156961D01*
X502427989Y-324111206D01*
X502479500Y-324100000D01*
X505376000Y-324100000D01*
X505443039Y-324119685D01*
G37*
G04 #@! TD.AperFunction*
G04 #@! TA.AperFunction,Conductor*
G36*
X501793039Y-324119685D02*
G01*
X501838794Y-324172489D01*
X501850000Y-324224000D01*
X501850000Y-326057611D01*
X501849764Y-326063018D01*
X501849500Y-326066035D01*
X501849500Y-326483965D01*
X501849764Y-326486979D01*
X501850000Y-326492388D01*
X501850000Y-327976000D01*
X501830315Y-328043039D01*
X501777511Y-328088794D01*
X501726000Y-328100000D01*
X498124500Y-328100000D01*
X498057461Y-328080315D01*
X498011706Y-328027511D01*
X498000500Y-327976000D01*
X498000500Y-327922683D01*
X498000000Y-327915693D01*
X498000000Y-324273724D01*
X498019685Y-324206685D01*
X498072489Y-324160930D01*
X498141647Y-324150986D01*
X498205203Y-324180011D01*
X498242977Y-324238789D01*
X498247818Y-324267011D01*
X498255755Y-324413406D01*
X498255755Y-324413411D01*
X498305244Y-324591656D01*
X498305247Y-324591662D01*
X498391898Y-324755102D01*
X498454540Y-324828850D01*
X498511663Y-324896100D01*
X498658936Y-325008054D01*
X498826833Y-325085732D01*
X498826834Y-325085732D01*
X498826836Y-325085733D01*
X498881648Y-325097797D01*
X499007503Y-325125500D01*
X499007506Y-325125500D01*
X499146107Y-325125500D01*
X499146113Y-325125500D01*
X499283910Y-325110514D01*
X499459221Y-325051444D01*
X499617736Y-324956070D01*
X499752041Y-324828849D01*
X499855858Y-324675730D01*
X499924331Y-324503875D01*
X499954260Y-324321317D01*
X499949348Y-324230713D01*
X499965374Y-324162706D01*
X500015624Y-324114160D01*
X500073166Y-324100000D01*
X501726000Y-324100000D01*
X501793039Y-324119685D01*
G37*
G04 #@! TD.AperFunction*
M02*
