G04 #@! TF.GenerationSoftware,KiCad,Pcbnew,7.0.9*
G04 #@! TF.CreationDate,2024-04-05T19:00:48+01:00*
G04 #@! TF.ProjectId,mcpBacklight,6d637042-6163-46b6-9c69-6768742e6b69,rev?*
G04 #@! TF.SameCoordinates,Original*
G04 #@! TF.FileFunction,Soldermask,Top*
G04 #@! TF.FilePolarity,Negative*
%FSLAX46Y46*%
G04 Gerber Fmt 4.6, Leading zero omitted, Abs format (unit mm)*
G04 Created by KiCad (PCBNEW 7.0.9) date 2024-04-05 19:00:48*
%MOMM*%
%LPD*%
G01*
G04 APERTURE LIST*
G04 Aperture macros list*
%AMRoundRect*
0 Rectangle with rounded corners*
0 $1 Rounding radius*
0 $2 $3 $4 $5 $6 $7 $8 $9 X,Y pos of 4 corners*
0 Add a 4 corners polygon primitive as box body*
4,1,4,$2,$3,$4,$5,$6,$7,$8,$9,$2,$3,0*
0 Add four circle primitives for the rounded corners*
1,1,$1+$1,$2,$3*
1,1,$1+$1,$4,$5*
1,1,$1+$1,$6,$7*
1,1,$1+$1,$8,$9*
0 Add four rect primitives between the rounded corners*
20,1,$1+$1,$2,$3,$4,$5,0*
20,1,$1+$1,$4,$5,$6,$7,0*
20,1,$1+$1,$6,$7,$8,$9,0*
20,1,$1+$1,$8,$9,$2,$3,0*%
G04 Aperture macros list end*
%ADD10C,1.200000*%
%ADD11RoundRect,0.250000X-0.600000X-0.750000X0.600000X-0.750000X0.600000X0.750000X-0.600000X0.750000X0*%
%ADD12O,1.700000X2.000000*%
G04 APERTURE END LIST*
D10*
X499100000Y-324275000D03*
D11*
X500700000Y-326275000D03*
D12*
X503200000Y-326275000D03*
G36*
X543002426Y-269000191D02*
G01*
X543224923Y-269017701D01*
X543244142Y-269020745D01*
X543454035Y-269071136D01*
X543472541Y-269077149D01*
X543671971Y-269159756D01*
X543689308Y-269168590D01*
X543873355Y-269281375D01*
X543889096Y-269292812D01*
X544053238Y-269433002D01*
X544066997Y-269446761D01*
X544207187Y-269610903D01*
X544218624Y-269626644D01*
X544331409Y-269810691D01*
X544340243Y-269828028D01*
X544422850Y-270027458D01*
X544428863Y-270045964D01*
X544479254Y-270255857D01*
X544482298Y-270275075D01*
X544499809Y-270497574D01*
X544500000Y-270502440D01*
X544500000Y-275500000D01*
X544519027Y-275935775D01*
X544575961Y-276368237D01*
X544575960Y-276368237D01*
X544670372Y-276794101D01*
X544801537Y-277210099D01*
X544968462Y-277613093D01*
X545169871Y-277999995D01*
X545169870Y-277999995D01*
X545404240Y-278367882D01*
X545669773Y-278713932D01*
X545964466Y-279035534D01*
X546286068Y-279330227D01*
X546632118Y-279595760D01*
X547000005Y-279830130D01*
X547000005Y-279830129D01*
X547386907Y-280031538D01*
X547789901Y-280198463D01*
X548205899Y-280329628D01*
X548631763Y-280424040D01*
X548631763Y-280424039D01*
X549064225Y-280480973D01*
X549500000Y-280500000D01*
X555497560Y-280500000D01*
X555502426Y-280500191D01*
X555724923Y-280517701D01*
X555744142Y-280520745D01*
X555954035Y-280571136D01*
X555972541Y-280577149D01*
X556171971Y-280659756D01*
X556189308Y-280668590D01*
X556373355Y-280781375D01*
X556389096Y-280792812D01*
X556553238Y-280933002D01*
X556566997Y-280946761D01*
X556707187Y-281110903D01*
X556718624Y-281126644D01*
X556831409Y-281310691D01*
X556840243Y-281328028D01*
X556922850Y-281527458D01*
X556928863Y-281545964D01*
X556979254Y-281755857D01*
X556982298Y-281775075D01*
X556999809Y-281997574D01*
X557000000Y-282002440D01*
X557000000Y-325997559D01*
X556999809Y-326002425D01*
X556982298Y-326224924D01*
X556979254Y-326244142D01*
X556928863Y-326454035D01*
X556922850Y-326472541D01*
X556840243Y-326671971D01*
X556831409Y-326689308D01*
X556718624Y-326873355D01*
X556707187Y-326889096D01*
X556566997Y-327053238D01*
X556553238Y-327066997D01*
X556389096Y-327207187D01*
X556373355Y-327218624D01*
X556189308Y-327331409D01*
X556171971Y-327340243D01*
X555972541Y-327422850D01*
X555954035Y-327428863D01*
X555744142Y-327479254D01*
X555724924Y-327482298D01*
X555502426Y-327499809D01*
X555497560Y-327500000D01*
X549500000Y-327500000D01*
X549064225Y-327519027D01*
X548631763Y-327575961D01*
X548631763Y-327575960D01*
X548205899Y-327670372D01*
X547789901Y-327801537D01*
X547386907Y-327968462D01*
X547000005Y-328169871D01*
X547000005Y-328169870D01*
X546632118Y-328404240D01*
X546286068Y-328669773D01*
X545964466Y-328964466D01*
X545669773Y-329286068D01*
X545404240Y-329632118D01*
X545169870Y-330000005D01*
X545169871Y-330000005D01*
X544968462Y-330386907D01*
X544801537Y-330789901D01*
X544670372Y-331205899D01*
X544575960Y-331631763D01*
X544575961Y-331631763D01*
X544519027Y-332064225D01*
X544500000Y-332500000D01*
X544500000Y-337497559D01*
X544499809Y-337502425D01*
X544482298Y-337724924D01*
X544479254Y-337744142D01*
X544428863Y-337954035D01*
X544422850Y-337972541D01*
X544340243Y-338171971D01*
X544331409Y-338189308D01*
X544218624Y-338373355D01*
X544207187Y-338389096D01*
X544066997Y-338553238D01*
X544053238Y-338566997D01*
X543889096Y-338707187D01*
X543873355Y-338718624D01*
X543689308Y-338831409D01*
X543671971Y-338840243D01*
X543472541Y-338922850D01*
X543454035Y-338928863D01*
X543244142Y-338979254D01*
X543224924Y-338982298D01*
X543002426Y-338999809D01*
X542997560Y-339000000D01*
X498004066Y-339000000D01*
X497995965Y-338999469D01*
X497886775Y-338985093D01*
X497855508Y-338976715D01*
X497765081Y-338939259D01*
X497737048Y-338923074D01*
X497659398Y-338863491D01*
X497636508Y-338840601D01*
X497576925Y-338762951D01*
X497560740Y-338734918D01*
X497523284Y-338644491D01*
X497514906Y-338613223D01*
X497500531Y-338504035D01*
X497500000Y-338495933D01*
X497500000Y-329000006D01*
X508500000Y-329000006D01*
X508519544Y-329260815D01*
X508519545Y-329260819D01*
X508577747Y-329515824D01*
X508673304Y-329759297D01*
X508673303Y-329759297D01*
X508804082Y-329985809D01*
X508967162Y-330190306D01*
X509158892Y-330368204D01*
X509375004Y-330515546D01*
X509610652Y-330629028D01*
X509860579Y-330706121D01*
X509860585Y-330706122D01*
X510119216Y-330745106D01*
X510119223Y-330745107D01*
X510380777Y-330745107D01*
X510380783Y-330745106D01*
X510639414Y-330706122D01*
X510639420Y-330706121D01*
X510889347Y-330629028D01*
X511124995Y-330515546D01*
X511341107Y-330368204D01*
X511532837Y-330190306D01*
X511695917Y-329985809D01*
X511826695Y-329759297D01*
X511922252Y-329515824D01*
X511980454Y-329260819D01*
X511980455Y-329260815D01*
X512000000Y-329000006D01*
X512000000Y-324999994D01*
X511980455Y-324739184D01*
X511980454Y-324739180D01*
X511922252Y-324484175D01*
X511826695Y-324240702D01*
X511826696Y-324240702D01*
X511695917Y-324014190D01*
X511532837Y-323809693D01*
X511341107Y-323631795D01*
X511124995Y-323484453D01*
X510889347Y-323370971D01*
X510639420Y-323293878D01*
X510639414Y-323293877D01*
X510380783Y-323254893D01*
X510119216Y-323254893D01*
X509860585Y-323293877D01*
X509860579Y-323293878D01*
X509610652Y-323370971D01*
X509375004Y-323484453D01*
X509158892Y-323631795D01*
X508967162Y-323809693D01*
X508804082Y-324014190D01*
X508673304Y-324240702D01*
X508577747Y-324484175D01*
X508519545Y-324739180D01*
X508519544Y-324739184D01*
X508500000Y-324999994D01*
X508500000Y-329000006D01*
X497500000Y-329000006D01*
X497500000Y-328000000D01*
X455500000Y-328000000D01*
X455500000Y-338495934D01*
X455499469Y-338504035D01*
X455485093Y-338613224D01*
X455476715Y-338644491D01*
X455439259Y-338734918D01*
X455423074Y-338762951D01*
X455363491Y-338840601D01*
X455340601Y-338863491D01*
X455262951Y-338923074D01*
X455234918Y-338939259D01*
X455144491Y-338976715D01*
X455113224Y-338985093D01*
X455004035Y-338999469D01*
X454995934Y-339000000D01*
X101002440Y-339000000D01*
X100997574Y-338999809D01*
X100775075Y-338982298D01*
X100755857Y-338979254D01*
X100545964Y-338928863D01*
X100527458Y-338922850D01*
X100328028Y-338840243D01*
X100310691Y-338831409D01*
X100126644Y-338718624D01*
X100110903Y-338707187D01*
X99946761Y-338566997D01*
X99933002Y-338553238D01*
X99792812Y-338389096D01*
X99781375Y-338373355D01*
X99668590Y-338189308D01*
X99659756Y-338171971D01*
X99577149Y-337972541D01*
X99571136Y-337954035D01*
X99520745Y-337744142D01*
X99517701Y-337724923D01*
X99500191Y-337502425D01*
X99500000Y-337497559D01*
X99500000Y-332500000D01*
X99480973Y-332064225D01*
X99424039Y-331631763D01*
X99424040Y-331631763D01*
X99329628Y-331205899D01*
X99198463Y-330789901D01*
X99031538Y-330386907D01*
X98830129Y-330000005D01*
X98830130Y-330000005D01*
X98595760Y-329632118D01*
X98330227Y-329286068D01*
X98068100Y-329000006D01*
X132500000Y-329000006D01*
X132519544Y-329260815D01*
X132519545Y-329260819D01*
X132577747Y-329515824D01*
X132673304Y-329759297D01*
X132673303Y-329759297D01*
X132804082Y-329985809D01*
X132967162Y-330190306D01*
X133158892Y-330368204D01*
X133375004Y-330515546D01*
X133610652Y-330629028D01*
X133860579Y-330706121D01*
X133860585Y-330706122D01*
X134119216Y-330745106D01*
X134119223Y-330745107D01*
X134380777Y-330745107D01*
X134380783Y-330745106D01*
X134639414Y-330706122D01*
X134639420Y-330706121D01*
X134889347Y-330629028D01*
X135124995Y-330515546D01*
X135341107Y-330368204D01*
X135532837Y-330190306D01*
X135695917Y-329985809D01*
X135826695Y-329759297D01*
X135922252Y-329515824D01*
X135980454Y-329260819D01*
X135980455Y-329260815D01*
X136000000Y-329000006D01*
X136000000Y-324999994D01*
X135980455Y-324739184D01*
X135980454Y-324739180D01*
X135922252Y-324484175D01*
X135826695Y-324240702D01*
X135826696Y-324240702D01*
X135695917Y-324014190D01*
X135532837Y-323809693D01*
X135341107Y-323631795D01*
X135124995Y-323484453D01*
X134889347Y-323370971D01*
X134639420Y-323293878D01*
X134639414Y-323293877D01*
X134380783Y-323254893D01*
X134119216Y-323254893D01*
X133860585Y-323293877D01*
X133860579Y-323293878D01*
X133610652Y-323370971D01*
X133375004Y-323484453D01*
X133158892Y-323631795D01*
X132967162Y-323809693D01*
X132804082Y-324014190D01*
X132673304Y-324240702D01*
X132577747Y-324484175D01*
X132519545Y-324739180D01*
X132519544Y-324739184D01*
X132500000Y-324999994D01*
X132500000Y-329000006D01*
X98068100Y-329000006D01*
X98035534Y-328964466D01*
X97713932Y-328669773D01*
X97367882Y-328404240D01*
X96999995Y-328169870D01*
X96999995Y-328169871D01*
X96613093Y-327968462D01*
X96210099Y-327801537D01*
X95794101Y-327670372D01*
X95368237Y-327575960D01*
X95368237Y-327575961D01*
X94935775Y-327519027D01*
X94500000Y-327500000D01*
X88502440Y-327500000D01*
X88497574Y-327499809D01*
X88275075Y-327482298D01*
X88255857Y-327479254D01*
X88045964Y-327428863D01*
X88027458Y-327422850D01*
X87828028Y-327340243D01*
X87810691Y-327331409D01*
X87626644Y-327218624D01*
X87610903Y-327207187D01*
X87446761Y-327066997D01*
X87433002Y-327053238D01*
X87292812Y-326889096D01*
X87281375Y-326873355D01*
X87168590Y-326689308D01*
X87159756Y-326671971D01*
X87077149Y-326472541D01*
X87071136Y-326454035D01*
X87020745Y-326244142D01*
X87017701Y-326224923D01*
X87000191Y-326002425D01*
X87000000Y-325997559D01*
X87000000Y-317000000D01*
X146750000Y-317000000D01*
X146750000Y-337000000D01*
X166750000Y-337000000D01*
X166750000Y-317000000D01*
X169750000Y-317000000D01*
X169750000Y-337000000D01*
X189750000Y-337000000D01*
X189750000Y-331125734D01*
X222652466Y-331125734D01*
X222691801Y-331374090D01*
X222769508Y-331613244D01*
X222883668Y-331837293D01*
X223031463Y-332040717D01*
X223031467Y-332040722D01*
X223209277Y-332218532D01*
X223209282Y-332218536D01*
X223412706Y-332366331D01*
X223636755Y-332480491D01*
X223875909Y-332558198D01*
X224124266Y-332597534D01*
X224375734Y-332597534D01*
X224624090Y-332558198D01*
X224863244Y-332480491D01*
X225087293Y-332366331D01*
X225290717Y-332218536D01*
X225290722Y-332218532D01*
X225468532Y-332040722D01*
X225468536Y-332040717D01*
X225616331Y-331837293D01*
X225730491Y-331613244D01*
X225808197Y-331374090D01*
X225847534Y-331125725D01*
X225850000Y-331000000D01*
X225847534Y-330874274D01*
X225808197Y-330625909D01*
X225730491Y-330386755D01*
X225616331Y-330162706D01*
X225468536Y-329959282D01*
X225468532Y-329959277D01*
X225290722Y-329781467D01*
X225290717Y-329781463D01*
X225087293Y-329633668D01*
X224863244Y-329519508D01*
X224624090Y-329441801D01*
X224375734Y-329402466D01*
X224124266Y-329402466D01*
X223875909Y-329441801D01*
X223636755Y-329519508D01*
X223412706Y-329633668D01*
X223209282Y-329781463D01*
X223209277Y-329781467D01*
X223031467Y-329959277D01*
X223031463Y-329959282D01*
X222883668Y-330162706D01*
X222769508Y-330386755D01*
X222691801Y-330625909D01*
X222652466Y-330874265D01*
X222652466Y-331125734D01*
X189750000Y-331125734D01*
X189750000Y-317000000D01*
X231750000Y-317000000D01*
X231750000Y-337000000D01*
X251750000Y-337000000D01*
X251750000Y-317000000D01*
X264250000Y-317000000D01*
X264250000Y-337000000D01*
X284250000Y-337000000D01*
X284250000Y-317000000D01*
X296750000Y-317000000D01*
X296750000Y-337000000D01*
X316750000Y-337000000D01*
X316750000Y-317000000D01*
X341750000Y-317000000D01*
X341750000Y-337000000D01*
X361750000Y-337000000D01*
X361750000Y-317000000D01*
X367750000Y-317000000D01*
X367750000Y-337000000D01*
X387750000Y-337000000D01*
X387750000Y-317000000D01*
X367750000Y-317000000D01*
X361750000Y-317000000D01*
X341750000Y-317000000D01*
X316750000Y-317000000D01*
X296750000Y-317000000D01*
X284250000Y-317000000D01*
X264250000Y-317000000D01*
X251750000Y-317000000D01*
X231750000Y-317000000D01*
X189750000Y-317000000D01*
X169750000Y-317000000D01*
X166750000Y-317000000D01*
X146750000Y-317000000D01*
X87000000Y-317000000D01*
X87000000Y-310950000D01*
X205997516Y-310950000D01*
X206017368Y-311360425D01*
X206076738Y-311767014D01*
X206175070Y-312165967D01*
X206311458Y-312553592D01*
X206484610Y-312926225D01*
X206484620Y-312926243D01*
X206692915Y-313280401D01*
X206692926Y-313280418D01*
X206934455Y-313612853D01*
X207206917Y-313920398D01*
X207206929Y-313920411D01*
X207507821Y-314200243D01*
X207834318Y-314449729D01*
X208183369Y-314666539D01*
X208551708Y-314848644D01*
X208935901Y-314994350D01*
X209332381Y-315102300D01*
X209332383Y-315102301D01*
X209737416Y-315171478D01*
X210147240Y-315201242D01*
X210558023Y-315191313D01*
X210558039Y-315191312D01*
X210965926Y-315141786D01*
X211367155Y-315053118D01*
X211367164Y-315053116D01*
X211757948Y-314926143D01*
X212134669Y-314762039D01*
X212493783Y-314562347D01*
X212493792Y-314562342D01*
X212831950Y-314328927D01*
X213146013Y-314063956D01*
X213433026Y-313769923D01*
X213433030Y-313769917D01*
X213690338Y-313449538D01*
X213915507Y-313105847D01*
X214106468Y-312742000D01*
X214261419Y-312361430D01*
X214378912Y-311967697D01*
X214457861Y-311564436D01*
X214457861Y-311564433D01*
X214497519Y-311155452D01*
X214500000Y-310950000D01*
X214497519Y-310744548D01*
X214457861Y-310335566D01*
X214457861Y-310335563D01*
X214378912Y-309932302D01*
X214261419Y-309538569D01*
X214106468Y-309157999D01*
X213915507Y-308794152D01*
X213690338Y-308450461D01*
X213433030Y-308130082D01*
X213433026Y-308130076D01*
X213146012Y-307836043D01*
X213146013Y-307836043D01*
X212831950Y-307571072D01*
X212493792Y-307337657D01*
X212493783Y-307337652D01*
X212134669Y-307137960D01*
X211757948Y-306973856D01*
X211367164Y-306846883D01*
X211367155Y-306846881D01*
X210965926Y-306758213D01*
X210558039Y-306708687D01*
X210558023Y-306708686D01*
X210147246Y-306698757D01*
X210147234Y-306698757D01*
X209737416Y-306728521D01*
X209332383Y-306797698D01*
X209332381Y-306797699D01*
X208935901Y-306905649D01*
X208551708Y-307051355D01*
X208183369Y-307233460D01*
X207834318Y-307450270D01*
X207507821Y-307699756D01*
X207206929Y-307979588D01*
X207206917Y-307979601D01*
X206934455Y-308287146D01*
X206692926Y-308619581D01*
X206692915Y-308619598D01*
X206484620Y-308973756D01*
X206484610Y-308973774D01*
X206311458Y-309346407D01*
X206175070Y-309734032D01*
X206076738Y-310132985D01*
X206017368Y-310539574D01*
X205997516Y-310949996D01*
X205997516Y-310950000D01*
X87000000Y-310950000D01*
X87000000Y-304000000D01*
X111897468Y-304000000D01*
X111917690Y-304353658D01*
X111978095Y-304702704D01*
X111978099Y-304702721D01*
X112077897Y-305042603D01*
X112077898Y-305042604D01*
X112215787Y-305368889D01*
X112215792Y-305368900D01*
X112389983Y-305677354D01*
X112389991Y-305677365D01*
X112598197Y-305963936D01*
X112598198Y-305963937D01*
X112837729Y-306224923D01*
X112837730Y-306224924D01*
X113105439Y-306456897D01*
X113397863Y-306656851D01*
X113711157Y-306822159D01*
X113711167Y-306822164D01*
X114041270Y-306950685D01*
X114383863Y-307040737D01*
X114734493Y-307091149D01*
X114734513Y-307091151D01*
X115088584Y-307101267D01*
X115088591Y-307101267D01*
X115441538Y-307070952D01*
X115788708Y-307000607D01*
X115788730Y-307000601D01*
X116125626Y-306891136D01*
X116447851Y-306743980D01*
X116447855Y-306743978D01*
X116751189Y-306561061D01*
X116751209Y-306561047D01*
X117031717Y-306344744D01*
X117031722Y-306344740D01*
X117285761Y-306097855D01*
X117285762Y-306097855D01*
X117509999Y-305823624D01*
X117510002Y-305823620D01*
X117701517Y-305525618D01*
X117857810Y-305207735D01*
X117857815Y-305207721D01*
X117976859Y-304874079D01*
X118057091Y-304529057D01*
X118097472Y-304177113D01*
X118100000Y-304000000D01*
X118097472Y-303822886D01*
X118057091Y-303470942D01*
X117976859Y-303125920D01*
X117857815Y-302792278D01*
X117857810Y-302792264D01*
X117701517Y-302474381D01*
X117510002Y-302176379D01*
X117509999Y-302176375D01*
X117285761Y-301902144D01*
X117031722Y-301655259D01*
X117031717Y-301655255D01*
X116751209Y-301438952D01*
X116751189Y-301438938D01*
X116447855Y-301256021D01*
X116447851Y-301256019D01*
X116125626Y-301108863D01*
X115790583Y-301000000D01*
X129997511Y-301000000D01*
X130017399Y-301398518D01*
X130076870Y-301793077D01*
X130175330Y-302179755D01*
X130311804Y-302554714D01*
X130484926Y-302914206D01*
X130484928Y-302914210D01*
X130692984Y-303254678D01*
X130692992Y-303254689D01*
X130933907Y-303572741D01*
X130933926Y-303572763D01*
X131205304Y-303865240D01*
X131205315Y-303865250D01*
X131504493Y-304129275D01*
X131828449Y-304362184D01*
X131828475Y-304362201D01*
X132174019Y-304561701D01*
X132537726Y-304725812D01*
X132915961Y-304852892D01*
X132915965Y-304852893D01*
X133304971Y-304941682D01*
X133700901Y-304991298D01*
X134099768Y-305001245D01*
X134099782Y-305001245D01*
X134497675Y-304971427D01*
X134497691Y-304971425D01*
X134890643Y-304902138D01*
X135274730Y-304794071D01*
X135274744Y-304794067D01*
X135646159Y-304648298D01*
X135646171Y-304648293D01*
X136001236Y-304466262D01*
X136001255Y-304466251D01*
X136336426Y-304249774D01*
X136648396Y-304000985D01*
X136934033Y-303722382D01*
X137190517Y-303416715D01*
X137388905Y-303125734D01*
X167402466Y-303125734D01*
X167441801Y-303374090D01*
X167519508Y-303613244D01*
X167633668Y-303837293D01*
X167781463Y-304040717D01*
X167781467Y-304040722D01*
X167959277Y-304218532D01*
X167959282Y-304218536D01*
X168162706Y-304366331D01*
X168386755Y-304480491D01*
X168625909Y-304558198D01*
X168874266Y-304597534D01*
X169125734Y-304597534D01*
X169374090Y-304558198D01*
X169613244Y-304480491D01*
X169837293Y-304366331D01*
X170040717Y-304218536D01*
X170040722Y-304218532D01*
X170084679Y-304174575D01*
X186002538Y-304174575D01*
X186043073Y-304521386D01*
X186043075Y-304521401D01*
X186123594Y-304861130D01*
X186123598Y-304861145D01*
X186243020Y-305189252D01*
X186243021Y-305189253D01*
X186399720Y-305501267D01*
X186591593Y-305792997D01*
X186816022Y-306060460D01*
X186816032Y-306060470D01*
X187070000Y-306300079D01*
X187070003Y-306300081D01*
X187350080Y-306508589D01*
X187652457Y-306683167D01*
X187652470Y-306683173D01*
X187973068Y-306821466D01*
X188307567Y-306921608D01*
X188307575Y-306921610D01*
X188651414Y-306982238D01*
X188651425Y-306982239D01*
X188999996Y-307002542D01*
X189000004Y-307002542D01*
X189348574Y-306982239D01*
X189348585Y-306982238D01*
X189692424Y-306921610D01*
X189692432Y-306921608D01*
X190026931Y-306821466D01*
X190347529Y-306683173D01*
X190347542Y-306683167D01*
X190649919Y-306508589D01*
X190929996Y-306300081D01*
X190929999Y-306300079D01*
X191183967Y-306060470D01*
X191183977Y-306060460D01*
X191408406Y-305792997D01*
X191600279Y-305501267D01*
X191756978Y-305189253D01*
X191756979Y-305189252D01*
X191876401Y-304861145D01*
X191876405Y-304861130D01*
X191956924Y-304521401D01*
X191956926Y-304521386D01*
X191997461Y-304174578D01*
X191997461Y-304174575D01*
X228002538Y-304174575D01*
X228043073Y-304521386D01*
X228043075Y-304521401D01*
X228123594Y-304861130D01*
X228123598Y-304861145D01*
X228243020Y-305189252D01*
X228243021Y-305189253D01*
X228399720Y-305501267D01*
X228591593Y-305792997D01*
X228816022Y-306060460D01*
X228816032Y-306060470D01*
X229070000Y-306300079D01*
X229070003Y-306300081D01*
X229350080Y-306508589D01*
X229652457Y-306683167D01*
X229652470Y-306683173D01*
X229973068Y-306821466D01*
X230307567Y-306921608D01*
X230307575Y-306921610D01*
X230651414Y-306982238D01*
X230651425Y-306982239D01*
X230999996Y-307002542D01*
X231000004Y-307002542D01*
X231348574Y-306982239D01*
X231348585Y-306982238D01*
X231692424Y-306921610D01*
X231692432Y-306921608D01*
X232026931Y-306821466D01*
X232347529Y-306683173D01*
X232347542Y-306683167D01*
X232649919Y-306508589D01*
X232929996Y-306300081D01*
X232929999Y-306300079D01*
X233183967Y-306060470D01*
X233183977Y-306060460D01*
X233408406Y-305792997D01*
X233600279Y-305501267D01*
X233756978Y-305189253D01*
X233756979Y-305189252D01*
X233876401Y-304861145D01*
X233876405Y-304861130D01*
X233956924Y-304521401D01*
X233956926Y-304521386D01*
X233997461Y-304174578D01*
X234000000Y-304000000D01*
X269997516Y-304000000D01*
X270017368Y-304410425D01*
X270076738Y-304817014D01*
X270175070Y-305215967D01*
X270311458Y-305603592D01*
X270484610Y-305976225D01*
X270484620Y-305976243D01*
X270692915Y-306330401D01*
X270692926Y-306330418D01*
X270934455Y-306662853D01*
X271206917Y-306970398D01*
X271206929Y-306970411D01*
X271507821Y-307250243D01*
X271834318Y-307499729D01*
X272183369Y-307716539D01*
X272551708Y-307898644D01*
X272935901Y-308044350D01*
X273332381Y-308152300D01*
X273332383Y-308152301D01*
X273737416Y-308221478D01*
X274147240Y-308251242D01*
X274558023Y-308241313D01*
X274558039Y-308241312D01*
X274965926Y-308191786D01*
X275367155Y-308103118D01*
X275367164Y-308103116D01*
X275757948Y-307976143D01*
X276134669Y-307812039D01*
X276493783Y-307612347D01*
X276493792Y-307612342D01*
X276831950Y-307378927D01*
X277146013Y-307113956D01*
X277433026Y-306819923D01*
X277433030Y-306819917D01*
X277690338Y-306499538D01*
X277915507Y-306155847D01*
X278106468Y-305792000D01*
X278261419Y-305411430D01*
X278378912Y-305017697D01*
X278457861Y-304614436D01*
X278457861Y-304614433D01*
X278497519Y-304205452D01*
X278500000Y-304000000D01*
X278497519Y-303794548D01*
X278457861Y-303385566D01*
X278457861Y-303385563D01*
X278378912Y-302982302D01*
X278261419Y-302588569D01*
X278106468Y-302207999D01*
X277915507Y-301844152D01*
X277690338Y-301500461D01*
X277433030Y-301180082D01*
X277433026Y-301180076D01*
X277146012Y-300886043D01*
X277146013Y-300886043D01*
X276831950Y-300621072D01*
X276493792Y-300387657D01*
X276493783Y-300387652D01*
X276134669Y-300187960D01*
X275757948Y-300023856D01*
X275367164Y-299896883D01*
X275367155Y-299896881D01*
X274965926Y-299808213D01*
X274558039Y-299758687D01*
X274558023Y-299758686D01*
X274147246Y-299748757D01*
X274147234Y-299748757D01*
X273737416Y-299778521D01*
X273332383Y-299847698D01*
X273332381Y-299847699D01*
X272935901Y-299955649D01*
X272551708Y-300101355D01*
X272183369Y-300283460D01*
X271834318Y-300500270D01*
X271507821Y-300749756D01*
X271206929Y-301029588D01*
X271206917Y-301029601D01*
X270934455Y-301337146D01*
X270692926Y-301669581D01*
X270692915Y-301669598D01*
X270484620Y-302023756D01*
X270484610Y-302023774D01*
X270311458Y-302396407D01*
X270175070Y-302784032D01*
X270076738Y-303182985D01*
X270017368Y-303589574D01*
X269997516Y-303999996D01*
X269997516Y-304000000D01*
X234000000Y-304000000D01*
X233997461Y-303825421D01*
X233956926Y-303478613D01*
X233956924Y-303478598D01*
X233876405Y-303138869D01*
X233876401Y-303138854D01*
X233756979Y-302810747D01*
X233756978Y-302810746D01*
X233600279Y-302498732D01*
X233408406Y-302207002D01*
X233183977Y-301939539D01*
X233183967Y-301939529D01*
X232929999Y-301699920D01*
X232929996Y-301699918D01*
X232649919Y-301491410D01*
X232347542Y-301316832D01*
X232347529Y-301316826D01*
X232026931Y-301178533D01*
X231692432Y-301078391D01*
X231692424Y-301078389D01*
X231348585Y-301017761D01*
X231348574Y-301017760D01*
X231000004Y-300997458D01*
X230999996Y-300997458D01*
X230651425Y-301017760D01*
X230651414Y-301017761D01*
X230307575Y-301078389D01*
X230307567Y-301078391D01*
X229973068Y-301178533D01*
X229652470Y-301316826D01*
X229652457Y-301316832D01*
X229350080Y-301491410D01*
X229070003Y-301699918D01*
X229070000Y-301699920D01*
X228816032Y-301939529D01*
X228816022Y-301939539D01*
X228591593Y-302207002D01*
X228399720Y-302498732D01*
X228243021Y-302810746D01*
X228243020Y-302810747D01*
X228123598Y-303138854D01*
X228123594Y-303138869D01*
X228043075Y-303478598D01*
X228043073Y-303478613D01*
X228002538Y-303825424D01*
X228002538Y-304174575D01*
X191997461Y-304174575D01*
X192000000Y-304000000D01*
X191997461Y-303825421D01*
X191956926Y-303478613D01*
X191956924Y-303478598D01*
X191876405Y-303138869D01*
X191876401Y-303138854D01*
X191756979Y-302810747D01*
X191756978Y-302810746D01*
X191600279Y-302498732D01*
X191408406Y-302207002D01*
X191183977Y-301939539D01*
X191183967Y-301939529D01*
X190929999Y-301699920D01*
X190929996Y-301699918D01*
X190649919Y-301491410D01*
X190347542Y-301316832D01*
X190347529Y-301316826D01*
X190026931Y-301178533D01*
X189692432Y-301078391D01*
X189692424Y-301078389D01*
X189348585Y-301017761D01*
X189348574Y-301017760D01*
X189000004Y-300997458D01*
X188999996Y-300997458D01*
X188651425Y-301017760D01*
X188651414Y-301017761D01*
X188307575Y-301078389D01*
X188307567Y-301078391D01*
X187973068Y-301178533D01*
X187652470Y-301316826D01*
X187652457Y-301316832D01*
X187350080Y-301491410D01*
X187070003Y-301699918D01*
X187070000Y-301699920D01*
X186816032Y-301939529D01*
X186816022Y-301939539D01*
X186591593Y-302207002D01*
X186399720Y-302498732D01*
X186243021Y-302810746D01*
X186243020Y-302810747D01*
X186123598Y-303138854D01*
X186123594Y-303138869D01*
X186043075Y-303478598D01*
X186043073Y-303478613D01*
X186002538Y-303825424D01*
X186002538Y-304174575D01*
X170084679Y-304174575D01*
X170218532Y-304040722D01*
X170218536Y-304040717D01*
X170366331Y-303837293D01*
X170480491Y-303613244D01*
X170558197Y-303374090D01*
X170597534Y-303125725D01*
X170600000Y-303000000D01*
X170597534Y-302874274D01*
X170558197Y-302625909D01*
X170480491Y-302386755D01*
X170366331Y-302162706D01*
X170218536Y-301959282D01*
X170218532Y-301959277D01*
X170040722Y-301781467D01*
X170040717Y-301781463D01*
X169837293Y-301633668D01*
X169613244Y-301519508D01*
X169374090Y-301441801D01*
X169125734Y-301402466D01*
X168874266Y-301402466D01*
X168625909Y-301441801D01*
X168386755Y-301519508D01*
X168162706Y-301633668D01*
X167959282Y-301781463D01*
X167959277Y-301781467D01*
X167781467Y-301959277D01*
X167781463Y-301959282D01*
X167633668Y-302162706D01*
X167519508Y-302386755D01*
X167441801Y-302625909D01*
X167402466Y-302874265D01*
X167402466Y-303125734D01*
X137388905Y-303125734D01*
X137415288Y-303087038D01*
X137606121Y-302736607D01*
X137761111Y-302368927D01*
X137878721Y-301987648D01*
X137878724Y-301987635D01*
X137957782Y-301596554D01*
X137957785Y-301596533D01*
X137997514Y-301199501D01*
X137997514Y-301199502D01*
X138000000Y-301000000D01*
X137997514Y-300800498D01*
X137997514Y-300800499D01*
X137957785Y-300403466D01*
X137957782Y-300403445D01*
X137878724Y-300012364D01*
X137878721Y-300012351D01*
X137761111Y-299631072D01*
X137606121Y-299263392D01*
X137415288Y-298912961D01*
X137190517Y-298583284D01*
X136934033Y-298277617D01*
X136648396Y-297999014D01*
X136336426Y-297750225D01*
X136001255Y-297533748D01*
X136001236Y-297533737D01*
X135646171Y-297351706D01*
X135646159Y-297351701D01*
X135274744Y-297205932D01*
X135274730Y-297205928D01*
X134890643Y-297097861D01*
X134497691Y-297028574D01*
X134497675Y-297028572D01*
X134099775Y-296998754D01*
X133700901Y-297008701D01*
X133304971Y-297058317D01*
X132915965Y-297147106D01*
X132915961Y-297147107D01*
X132537726Y-297274187D01*
X132174019Y-297438298D01*
X131828475Y-297637798D01*
X131828449Y-297637815D01*
X131504493Y-297870724D01*
X131205315Y-298134749D01*
X131205304Y-298134759D01*
X130933926Y-298427236D01*
X130933907Y-298427258D01*
X130692992Y-298745310D01*
X130692984Y-298745321D01*
X130484928Y-299085789D01*
X130484926Y-299085793D01*
X130311804Y-299445285D01*
X130175330Y-299820244D01*
X130076870Y-300206922D01*
X130017399Y-300601481D01*
X129997511Y-301000000D01*
X115790583Y-301000000D01*
X115788730Y-300999398D01*
X115788708Y-300999392D01*
X115441538Y-300929047D01*
X115088587Y-300898732D01*
X114734513Y-300908848D01*
X114734493Y-300908850D01*
X114383863Y-300959262D01*
X114041270Y-301049314D01*
X113711171Y-301177834D01*
X113711157Y-301177840D01*
X113397863Y-301343148D01*
X113105439Y-301543102D01*
X112837730Y-301775075D01*
X112837729Y-301775076D01*
X112598198Y-302036062D01*
X112598197Y-302036063D01*
X112389991Y-302322634D01*
X112389983Y-302322645D01*
X112215792Y-302631099D01*
X112215787Y-302631110D01*
X112077898Y-302957395D01*
X112077897Y-302957396D01*
X111978099Y-303297278D01*
X111978095Y-303297295D01*
X111917690Y-303646341D01*
X111897468Y-304000000D01*
X87000000Y-304000000D01*
X87000000Y-298125734D01*
X94402466Y-298125734D01*
X94441801Y-298374090D01*
X94519508Y-298613244D01*
X94633668Y-298837293D01*
X94781463Y-299040717D01*
X94781467Y-299040722D01*
X94959277Y-299218532D01*
X94959282Y-299218536D01*
X95162706Y-299366331D01*
X95386755Y-299480491D01*
X95625909Y-299558198D01*
X95874266Y-299597534D01*
X96125734Y-299597534D01*
X96374090Y-299558198D01*
X96613244Y-299480491D01*
X96837293Y-299366331D01*
X97040717Y-299218536D01*
X97040722Y-299218532D01*
X97218532Y-299040722D01*
X97218536Y-299040717D01*
X97366331Y-298837293D01*
X97480491Y-298613244D01*
X97558197Y-298374090D01*
X97597534Y-298125725D01*
X97600000Y-298000000D01*
X97597534Y-297874274D01*
X97558197Y-297625909D01*
X97480491Y-297386755D01*
X97366331Y-297162706D01*
X97218536Y-296959282D01*
X97218532Y-296959277D01*
X97040722Y-296781467D01*
X97040717Y-296781463D01*
X96837293Y-296633668D01*
X96613244Y-296519508D01*
X96374090Y-296441801D01*
X96125734Y-296402466D01*
X95874266Y-296402466D01*
X95625909Y-296441801D01*
X95386755Y-296519508D01*
X95162706Y-296633668D01*
X94959282Y-296781463D01*
X94959277Y-296781467D01*
X94781467Y-296959277D01*
X94781463Y-296959282D01*
X94633668Y-297162706D01*
X94519508Y-297386755D01*
X94441801Y-297625909D01*
X94402466Y-297874265D01*
X94402466Y-298125734D01*
X87000000Y-298125734D01*
X87000000Y-295500002D01*
X149800000Y-295500002D01*
X149819685Y-295825443D01*
X149878459Y-296146160D01*
X149975449Y-296457414D01*
X149975453Y-296457425D01*
X150109267Y-296754748D01*
X150109268Y-296754750D01*
X150277949Y-297033783D01*
X150479023Y-297290434D01*
X150709565Y-297520976D01*
X150966216Y-297722050D01*
X151245249Y-297890731D01*
X151245251Y-297890732D01*
X151542574Y-298024546D01*
X151542585Y-298024550D01*
X151853839Y-298121540D01*
X152174556Y-298180314D01*
X152500000Y-298199999D01*
X152825443Y-298180314D01*
X153146160Y-298121540D01*
X153457414Y-298024550D01*
X153457425Y-298024546D01*
X153754748Y-297890732D01*
X153754750Y-297890731D01*
X154033783Y-297722050D01*
X154290434Y-297520976D01*
X154520976Y-297290434D01*
X154722050Y-297033783D01*
X154742473Y-296999999D01*
X239447415Y-296999999D01*
X239467906Y-297149087D01*
X239527859Y-297287114D01*
X239527861Y-297287116D01*
X239622828Y-297403845D01*
X239622836Y-297403853D01*
X239745771Y-297490630D01*
X239745775Y-297490632D01*
X239887571Y-297541027D01*
X240037707Y-297551296D01*
X240185048Y-297520680D01*
X240318668Y-297451442D01*
X240318669Y-297451442D01*
X240428647Y-297348728D01*
X240506836Y-297220153D01*
X240547439Y-297075239D01*
X240550000Y-297000001D01*
X240550000Y-296999999D01*
X240547439Y-296924760D01*
X240506836Y-296779846D01*
X240428647Y-296651271D01*
X240318669Y-296548557D01*
X240185048Y-296479319D01*
X240037707Y-296448703D01*
X239887571Y-296458972D01*
X239745775Y-296509367D01*
X239745771Y-296509369D01*
X239622836Y-296596146D01*
X239622828Y-296596154D01*
X239527861Y-296712883D01*
X239527859Y-296712885D01*
X239467906Y-296850912D01*
X239447415Y-296999999D01*
X154742473Y-296999999D01*
X154890731Y-296754750D01*
X154890732Y-296754748D01*
X155024546Y-296457425D01*
X155024550Y-296457414D01*
X155121540Y-296146160D01*
X155180314Y-295825443D01*
X155200000Y-295500002D01*
X155200000Y-294000000D01*
X296750000Y-294000000D01*
X296750000Y-314000000D01*
X316750000Y-314000000D01*
X316750000Y-307125734D01*
X405052466Y-307125734D01*
X405091801Y-307374090D01*
X405169508Y-307613244D01*
X405283668Y-307837293D01*
X405431463Y-308040717D01*
X405431467Y-308040722D01*
X405609277Y-308218532D01*
X405609282Y-308218536D01*
X405812706Y-308366331D01*
X406036755Y-308480491D01*
X406275909Y-308558198D01*
X406524266Y-308597534D01*
X406775734Y-308597534D01*
X407024090Y-308558198D01*
X407263244Y-308480491D01*
X407487293Y-308366331D01*
X407690717Y-308218536D01*
X407690722Y-308218532D01*
X407868532Y-308040722D01*
X407868536Y-308040717D01*
X408016331Y-307837293D01*
X408130491Y-307613244D01*
X408208197Y-307374090D01*
X408247534Y-307125725D01*
X408250000Y-307000000D01*
X408247534Y-306874274D01*
X408208197Y-306625909D01*
X408130491Y-306386755D01*
X408016331Y-306162706D01*
X407868536Y-305959282D01*
X407868532Y-305959277D01*
X407690722Y-305781467D01*
X407690717Y-305781463D01*
X407487293Y-305633668D01*
X407263244Y-305519508D01*
X407024090Y-305441801D01*
X406775734Y-305402466D01*
X406524266Y-305402466D01*
X406275909Y-305441801D01*
X406036755Y-305519508D01*
X405812706Y-305633668D01*
X405609282Y-305781463D01*
X405609277Y-305781467D01*
X405431467Y-305959277D01*
X405431463Y-305959282D01*
X405283668Y-306162706D01*
X405169508Y-306386755D01*
X405091801Y-306625909D01*
X405052466Y-306874265D01*
X405052466Y-307125734D01*
X316750000Y-307125734D01*
X316750000Y-304000000D01*
X348647065Y-304000000D01*
X348667289Y-304353705D01*
X348727702Y-304702796D01*
X348727706Y-304702813D01*
X348827517Y-305042740D01*
X348965427Y-305369073D01*
X349139644Y-305677573D01*
X349139652Y-305677584D01*
X349347885Y-305964192D01*
X349347886Y-305964193D01*
X349587448Y-306225213D01*
X349587449Y-306225214D01*
X349855193Y-306457217D01*
X350147655Y-306657197D01*
X350460989Y-306822526D01*
X350461003Y-306822532D01*
X350791145Y-306951069D01*
X351133783Y-307041132D01*
X351484458Y-307091551D01*
X351484478Y-307091553D01*
X351838596Y-307101670D01*
X351838603Y-307101670D01*
X352191596Y-307071351D01*
X352538810Y-307000997D01*
X352538832Y-307000991D01*
X352875775Y-306891511D01*
X353198034Y-306744340D01*
X353198044Y-306744335D01*
X353501417Y-306561394D01*
X353501437Y-306561380D01*
X353781982Y-306345049D01*
X353781996Y-306345037D01*
X354036051Y-306098135D01*
X354036064Y-306098121D01*
X354260326Y-305823861D01*
X354260335Y-305823849D01*
X354451862Y-305525826D01*
X354451868Y-305525816D01*
X354608188Y-305207875D01*
X354727244Y-304874199D01*
X354807488Y-304529118D01*
X354847875Y-304177137D01*
X354847912Y-304174575D01*
X372252538Y-304174575D01*
X372293073Y-304521386D01*
X372293075Y-304521401D01*
X372373594Y-304861130D01*
X372373598Y-304861145D01*
X372493020Y-305189252D01*
X372493021Y-305189253D01*
X372649720Y-305501267D01*
X372841593Y-305792997D01*
X373066022Y-306060460D01*
X373066032Y-306060470D01*
X373320000Y-306300079D01*
X373320003Y-306300081D01*
X373600080Y-306508589D01*
X373902457Y-306683167D01*
X373902470Y-306683173D01*
X374223068Y-306821466D01*
X374557567Y-306921608D01*
X374557575Y-306921610D01*
X374901414Y-306982238D01*
X374901425Y-306982239D01*
X375249996Y-307002542D01*
X375250004Y-307002542D01*
X375598574Y-306982239D01*
X375598585Y-306982238D01*
X375942424Y-306921610D01*
X375942432Y-306921608D01*
X376276931Y-306821466D01*
X376597529Y-306683173D01*
X376597542Y-306683167D01*
X376899919Y-306508589D01*
X377179996Y-306300081D01*
X377179999Y-306300079D01*
X377433967Y-306060470D01*
X377433977Y-306060460D01*
X377658406Y-305792997D01*
X377850279Y-305501267D01*
X378006978Y-305189253D01*
X378006979Y-305189252D01*
X378126401Y-304861145D01*
X378126405Y-304861130D01*
X378206924Y-304521401D01*
X378206926Y-304521386D01*
X378247461Y-304174578D01*
X378250000Y-304000000D01*
X378247461Y-303825421D01*
X378206926Y-303478613D01*
X378206924Y-303478598D01*
X378126405Y-303138869D01*
X378126401Y-303138854D01*
X378006979Y-302810747D01*
X378006978Y-302810746D01*
X377850279Y-302498732D01*
X377658406Y-302207002D01*
X377433977Y-301939539D01*
X377433967Y-301939529D01*
X377179999Y-301699920D01*
X377179996Y-301699918D01*
X376899919Y-301491410D01*
X376597542Y-301316832D01*
X376597529Y-301316826D01*
X376276931Y-301178533D01*
X375942432Y-301078391D01*
X375942424Y-301078389D01*
X375598585Y-301017761D01*
X375598574Y-301017760D01*
X375250004Y-300997458D01*
X375249996Y-300997458D01*
X374901425Y-301017760D01*
X374901414Y-301017761D01*
X374557575Y-301078389D01*
X374557567Y-301078391D01*
X374223068Y-301178533D01*
X373902470Y-301316826D01*
X373902457Y-301316832D01*
X373600080Y-301491410D01*
X373320003Y-301699918D01*
X373320000Y-301699920D01*
X373066032Y-301939529D01*
X373066022Y-301939539D01*
X372841593Y-302207002D01*
X372649720Y-302498732D01*
X372493021Y-302810746D01*
X372493020Y-302810747D01*
X372373598Y-303138854D01*
X372373594Y-303138869D01*
X372293075Y-303478598D01*
X372293073Y-303478613D01*
X372252538Y-303825424D01*
X372252538Y-304174575D01*
X354847912Y-304174575D01*
X354850403Y-304000000D01*
X354847875Y-303822862D01*
X354807488Y-303470881D01*
X354727244Y-303125800D01*
X354608188Y-302792124D01*
X354451868Y-302474183D01*
X354451862Y-302474173D01*
X354260335Y-302176150D01*
X354260326Y-302176138D01*
X354036064Y-301901878D01*
X354036051Y-301901864D01*
X353781996Y-301654962D01*
X353781982Y-301654950D01*
X353501437Y-301438619D01*
X353501417Y-301438605D01*
X353198044Y-301255664D01*
X353198034Y-301255659D01*
X352875775Y-301108488D01*
X352538832Y-300999008D01*
X352538810Y-300999002D01*
X352191596Y-300928648D01*
X351838599Y-300898329D01*
X351484478Y-300908446D01*
X351484458Y-300908448D01*
X351133783Y-300958867D01*
X350791145Y-301048930D01*
X350461003Y-301177467D01*
X350460989Y-301177473D01*
X350147655Y-301342802D01*
X349855193Y-301542782D01*
X349587449Y-301774785D01*
X349587448Y-301774786D01*
X349347886Y-302035806D01*
X349347885Y-302035807D01*
X349139652Y-302322415D01*
X349139644Y-302322426D01*
X348965427Y-302630926D01*
X348827517Y-302957259D01*
X348727706Y-303297186D01*
X348727702Y-303297203D01*
X348667289Y-303646294D01*
X348647065Y-304000000D01*
X316750000Y-304000000D01*
X316750000Y-299525734D01*
X326652466Y-299525734D01*
X326691801Y-299774090D01*
X326769508Y-300013244D01*
X326883668Y-300237293D01*
X327031463Y-300440717D01*
X327031467Y-300440722D01*
X327209277Y-300618532D01*
X327209282Y-300618536D01*
X327412706Y-300766331D01*
X327636755Y-300880491D01*
X327875909Y-300958198D01*
X328124266Y-300997534D01*
X328375734Y-300997534D01*
X328624090Y-300958198D01*
X328863244Y-300880491D01*
X329087293Y-300766331D01*
X329290717Y-300618536D01*
X329290722Y-300618532D01*
X329468532Y-300440722D01*
X329468536Y-300440717D01*
X329616331Y-300237293D01*
X329730491Y-300013244D01*
X329808197Y-299774090D01*
X329847534Y-299525725D01*
X329850000Y-299400000D01*
X329847534Y-299274274D01*
X329808197Y-299025909D01*
X329730491Y-298786755D01*
X329616331Y-298562706D01*
X329570773Y-298500000D01*
X424250000Y-298500000D01*
X424250000Y-333000000D01*
X434250000Y-333000000D01*
X434250000Y-300500000D01*
X452750000Y-300500000D01*
X452750000Y-320500000D01*
X472750000Y-320500000D01*
X472750000Y-300500000D01*
X479750000Y-300500000D01*
X479750000Y-320500000D01*
X499750000Y-320500000D01*
X499750000Y-307750000D01*
X526147468Y-307750000D01*
X526167690Y-308103658D01*
X526228095Y-308452704D01*
X526228099Y-308452721D01*
X526327897Y-308792603D01*
X526327898Y-308792604D01*
X526465787Y-309118889D01*
X526465792Y-309118900D01*
X526639983Y-309427354D01*
X526639991Y-309427365D01*
X526848197Y-309713936D01*
X526848198Y-309713937D01*
X527087729Y-309974923D01*
X527087730Y-309974924D01*
X527355439Y-310206897D01*
X527647863Y-310406851D01*
X527961157Y-310572159D01*
X527961171Y-310572165D01*
X528291270Y-310700685D01*
X528633863Y-310790737D01*
X528984493Y-310841149D01*
X528984513Y-310841151D01*
X529338584Y-310851267D01*
X529338591Y-310851267D01*
X529691538Y-310820952D01*
X530038708Y-310750607D01*
X530038730Y-310750601D01*
X530375626Y-310641136D01*
X530697851Y-310493980D01*
X530697855Y-310493978D01*
X531001189Y-310311061D01*
X531001209Y-310311047D01*
X531281717Y-310094744D01*
X531281722Y-310094740D01*
X531535761Y-309847855D01*
X531535762Y-309847855D01*
X531759999Y-309573624D01*
X531760002Y-309573620D01*
X531951517Y-309275618D01*
X532107810Y-308957735D01*
X532107815Y-308957721D01*
X532226859Y-308624079D01*
X532307091Y-308279057D01*
X532347472Y-307927113D01*
X532350000Y-307750000D01*
X532347472Y-307572886D01*
X532307091Y-307220942D01*
X532226859Y-306875920D01*
X532107815Y-306542278D01*
X532107810Y-306542264D01*
X531951517Y-306224381D01*
X531760002Y-305926379D01*
X531759999Y-305926375D01*
X531535761Y-305652144D01*
X531281722Y-305405259D01*
X531281717Y-305405255D01*
X531001209Y-305188952D01*
X531001189Y-305188938D01*
X530697855Y-305006021D01*
X530697851Y-305006019D01*
X530375626Y-304858863D01*
X530038730Y-304749398D01*
X530038708Y-304749392D01*
X529691538Y-304679047D01*
X529338587Y-304648732D01*
X528984513Y-304658848D01*
X528984493Y-304658850D01*
X528633863Y-304709262D01*
X528291270Y-304799314D01*
X527961171Y-304927834D01*
X527961157Y-304927840D01*
X527647863Y-305093148D01*
X527355439Y-305293102D01*
X527087730Y-305525075D01*
X527087729Y-305525076D01*
X526848198Y-305786062D01*
X526848197Y-305786063D01*
X526639991Y-306072634D01*
X526639983Y-306072645D01*
X526465792Y-306381099D01*
X526465787Y-306381110D01*
X526327898Y-306707395D01*
X526327897Y-306707396D01*
X526228099Y-307047278D01*
X526228095Y-307047295D01*
X526167690Y-307396341D01*
X526147468Y-307750000D01*
X499750000Y-307750000D01*
X499750000Y-301000000D01*
X506247511Y-301000000D01*
X506267399Y-301398518D01*
X506326870Y-301793077D01*
X506425330Y-302179755D01*
X506561804Y-302554714D01*
X506734926Y-302914206D01*
X506734928Y-302914210D01*
X506942984Y-303254678D01*
X506942992Y-303254689D01*
X507183907Y-303572741D01*
X507183926Y-303572763D01*
X507455304Y-303865240D01*
X507455315Y-303865250D01*
X507754493Y-304129275D01*
X508078449Y-304362184D01*
X508078475Y-304362201D01*
X508424019Y-304561701D01*
X508787726Y-304725812D01*
X509165961Y-304852892D01*
X509165965Y-304852893D01*
X509554971Y-304941682D01*
X509950901Y-304991298D01*
X510349768Y-305001245D01*
X510349782Y-305001245D01*
X510747675Y-304971427D01*
X510747691Y-304971425D01*
X511140643Y-304902138D01*
X511524730Y-304794071D01*
X511524744Y-304794067D01*
X511896159Y-304648298D01*
X511896171Y-304648293D01*
X512251236Y-304466262D01*
X512251255Y-304466251D01*
X512586426Y-304249774D01*
X512898396Y-304000985D01*
X513184033Y-303722382D01*
X513440517Y-303416715D01*
X513665288Y-303087038D01*
X513856121Y-302736607D01*
X514011111Y-302368927D01*
X514128721Y-301987648D01*
X514128724Y-301987635D01*
X514207782Y-301596554D01*
X514207785Y-301596533D01*
X514247514Y-301199501D01*
X514247514Y-301199502D01*
X514250000Y-301000000D01*
X514247514Y-300800498D01*
X514247514Y-300800499D01*
X514207785Y-300403466D01*
X514207782Y-300403445D01*
X514128724Y-300012364D01*
X514128721Y-300012351D01*
X514011111Y-299631072D01*
X513856121Y-299263392D01*
X513665288Y-298912961D01*
X513440517Y-298583284D01*
X513184033Y-298277617D01*
X513028315Y-298125734D01*
X545402466Y-298125734D01*
X545441801Y-298374090D01*
X545519508Y-298613244D01*
X545633668Y-298837293D01*
X545781463Y-299040717D01*
X545781467Y-299040722D01*
X545959277Y-299218532D01*
X545959282Y-299218536D01*
X546162706Y-299366331D01*
X546386755Y-299480491D01*
X546625909Y-299558198D01*
X546874266Y-299597534D01*
X547125734Y-299597534D01*
X547374090Y-299558198D01*
X547613244Y-299480491D01*
X547837293Y-299366331D01*
X548040717Y-299218536D01*
X548040722Y-299218532D01*
X548218532Y-299040722D01*
X548218536Y-299040717D01*
X548366331Y-298837293D01*
X548480491Y-298613244D01*
X548558197Y-298374090D01*
X548597534Y-298125725D01*
X548600000Y-298000000D01*
X548597534Y-297874274D01*
X548558197Y-297625909D01*
X548480491Y-297386755D01*
X548366331Y-297162706D01*
X548218536Y-296959282D01*
X548218532Y-296959277D01*
X548040722Y-296781467D01*
X548040717Y-296781463D01*
X547837293Y-296633668D01*
X547613244Y-296519508D01*
X547374090Y-296441801D01*
X547125734Y-296402466D01*
X546874266Y-296402466D01*
X546625909Y-296441801D01*
X546386755Y-296519508D01*
X546162706Y-296633668D01*
X545959282Y-296781463D01*
X545959277Y-296781467D01*
X545781467Y-296959277D01*
X545781463Y-296959282D01*
X545633668Y-297162706D01*
X545519508Y-297386755D01*
X545441801Y-297625909D01*
X545402466Y-297874265D01*
X545402466Y-298125734D01*
X513028315Y-298125734D01*
X512898396Y-297999014D01*
X512586426Y-297750225D01*
X512251255Y-297533748D01*
X512251236Y-297533737D01*
X511896171Y-297351706D01*
X511896159Y-297351701D01*
X511524744Y-297205932D01*
X511524730Y-297205928D01*
X511140643Y-297097861D01*
X510747691Y-297028574D01*
X510747675Y-297028572D01*
X510349775Y-296998754D01*
X509950901Y-297008701D01*
X509554971Y-297058317D01*
X509165965Y-297147106D01*
X509165961Y-297147107D01*
X508787726Y-297274187D01*
X508424019Y-297438298D01*
X508078475Y-297637798D01*
X508078449Y-297637815D01*
X507754493Y-297870724D01*
X507455315Y-298134749D01*
X507455304Y-298134759D01*
X507183926Y-298427236D01*
X507183907Y-298427258D01*
X506942992Y-298745310D01*
X506942984Y-298745321D01*
X506734928Y-299085789D01*
X506734926Y-299085793D01*
X506561804Y-299445285D01*
X506425330Y-299820244D01*
X506326870Y-300206922D01*
X506267399Y-300601481D01*
X506247511Y-301000000D01*
X499750000Y-301000000D01*
X499750000Y-300500000D01*
X479750000Y-300500000D01*
X472750000Y-300500000D01*
X452750000Y-300500000D01*
X434250000Y-300500000D01*
X434250000Y-298500000D01*
X424250000Y-298500000D01*
X329570773Y-298500000D01*
X329468536Y-298359282D01*
X329468532Y-298359277D01*
X329290722Y-298181467D01*
X329290717Y-298181463D01*
X329087293Y-298033668D01*
X328863244Y-297919508D01*
X328624090Y-297841801D01*
X328375734Y-297802466D01*
X328124266Y-297802466D01*
X327875909Y-297841801D01*
X327636755Y-297919508D01*
X327412706Y-298033668D01*
X327209282Y-298181463D01*
X327209277Y-298181467D01*
X327031467Y-298359277D01*
X327031463Y-298359282D01*
X326883668Y-298562706D01*
X326769508Y-298786755D01*
X326691801Y-299025909D01*
X326652466Y-299274265D01*
X326652466Y-299525734D01*
X316750000Y-299525734D01*
X316750000Y-296999999D01*
X383697415Y-296999999D01*
X383717906Y-297149087D01*
X383777859Y-297287114D01*
X383777861Y-297287116D01*
X383872828Y-297403845D01*
X383872836Y-297403853D01*
X383995771Y-297490630D01*
X383995775Y-297490632D01*
X384137571Y-297541027D01*
X384287707Y-297551296D01*
X384435048Y-297520680D01*
X384568668Y-297451442D01*
X384568669Y-297451442D01*
X384678647Y-297348728D01*
X384756836Y-297220153D01*
X384797439Y-297075239D01*
X384800000Y-297000001D01*
X384800000Y-296999999D01*
X384797439Y-296924760D01*
X384756836Y-296779846D01*
X384678647Y-296651271D01*
X384568669Y-296548557D01*
X384435048Y-296479319D01*
X384287707Y-296448703D01*
X384137571Y-296458972D01*
X383995775Y-296509367D01*
X383995771Y-296509369D01*
X383872836Y-296596146D01*
X383872828Y-296596154D01*
X383777861Y-296712883D01*
X383777859Y-296712885D01*
X383717906Y-296850912D01*
X383697415Y-296999999D01*
X316750000Y-296999999D01*
X316750000Y-294000000D01*
X296750000Y-294000000D01*
X155200000Y-294000000D01*
X155200000Y-290499998D01*
X155180314Y-290174556D01*
X155121540Y-289853839D01*
X155024550Y-289542585D01*
X155024546Y-289542574D01*
X154890732Y-289245251D01*
X154890731Y-289245249D01*
X154722050Y-288966216D01*
X154520976Y-288709565D01*
X154290434Y-288479023D01*
X154033783Y-288277949D01*
X153754750Y-288109268D01*
X153754748Y-288109267D01*
X153457425Y-287975453D01*
X153457414Y-287975449D01*
X153146160Y-287878459D01*
X152825443Y-287819685D01*
X152500000Y-287800000D01*
X152174556Y-287819685D01*
X151853839Y-287878459D01*
X151542585Y-287975449D01*
X151542574Y-287975453D01*
X151245251Y-288109267D01*
X151245249Y-288109268D01*
X150966216Y-288277949D01*
X150709565Y-288479023D01*
X150479023Y-288709565D01*
X150277949Y-288966216D01*
X150109268Y-289245249D01*
X150109267Y-289245251D01*
X149975453Y-289542574D01*
X149975449Y-289542585D01*
X149878459Y-289853839D01*
X149819685Y-290174556D01*
X149800000Y-290499998D01*
X149800000Y-295500002D01*
X87000000Y-295500002D01*
X87000000Y-282002440D01*
X87000191Y-281997574D01*
X87017701Y-281775076D01*
X87020745Y-281755857D01*
X87071136Y-281545964D01*
X87077149Y-281527458D01*
X87159756Y-281328028D01*
X87168590Y-281310691D01*
X87281375Y-281126644D01*
X87292812Y-281110903D01*
X87433002Y-280946761D01*
X87446761Y-280933002D01*
X87610903Y-280792812D01*
X87626644Y-280781375D01*
X87810691Y-280668590D01*
X87828028Y-280659756D01*
X88027458Y-280577149D01*
X88045964Y-280571136D01*
X88255857Y-280520745D01*
X88275076Y-280517701D01*
X88497574Y-280500191D01*
X88502440Y-280500000D01*
X94500000Y-280500000D01*
X94935775Y-280480973D01*
X95368237Y-280424039D01*
X95368237Y-280424040D01*
X95794101Y-280329628D01*
X96210099Y-280198463D01*
X96613093Y-280031538D01*
X96999995Y-279830129D01*
X96999995Y-279830130D01*
X97367882Y-279595760D01*
X97713932Y-279330227D01*
X98035534Y-279035534D01*
X98330227Y-278713932D01*
X98595760Y-278367882D01*
X98830130Y-277999995D01*
X98830129Y-277999995D01*
X99031538Y-277613093D01*
X99198463Y-277210099D01*
X99329628Y-276794101D01*
X99424040Y-276368237D01*
X99424039Y-276368237D01*
X99480973Y-275935775D01*
X99500000Y-275500000D01*
X99500000Y-275000000D01*
X106000000Y-275000000D01*
X106000000Y-291000000D01*
X136000000Y-291000000D01*
X136000000Y-279750001D01*
X148250000Y-279750001D01*
X148268989Y-279967054D01*
X148268991Y-279967065D01*
X148325381Y-280177517D01*
X148325385Y-280177526D01*
X148417467Y-280374998D01*
X148417468Y-280375000D01*
X148542445Y-280553487D01*
X148696512Y-280707554D01*
X148874999Y-280832531D01*
X148875001Y-280832532D01*
X149072473Y-280924614D01*
X149072482Y-280924618D01*
X149282934Y-280981008D01*
X149282945Y-280981010D01*
X149500000Y-281000000D01*
X155500000Y-281000000D01*
X155717054Y-280981010D01*
X155717065Y-280981008D01*
X155927517Y-280924618D01*
X155927526Y-280924614D01*
X156124998Y-280832532D01*
X156125000Y-280832531D01*
X156303487Y-280707554D01*
X156457554Y-280553487D01*
X156582531Y-280375000D01*
X156582532Y-280374998D01*
X156674614Y-280177526D01*
X156674618Y-280177517D01*
X156731008Y-279967065D01*
X156731010Y-279967054D01*
X156750000Y-279750001D01*
X156750000Y-279749998D01*
X156731010Y-279532945D01*
X156731008Y-279532934D01*
X156674618Y-279322482D01*
X156674614Y-279322473D01*
X156582532Y-279125001D01*
X156582531Y-279124999D01*
X156457554Y-278946512D01*
X156303487Y-278792445D01*
X156125000Y-278667468D01*
X156124998Y-278667467D01*
X155927526Y-278575385D01*
X155927517Y-278575381D01*
X155717065Y-278518991D01*
X155717054Y-278518989D01*
X155500000Y-278500000D01*
X149500000Y-278500000D01*
X149282945Y-278518989D01*
X149282934Y-278518991D01*
X149072482Y-278575381D01*
X149072473Y-278575385D01*
X148875001Y-278667467D01*
X148874999Y-278667468D01*
X148696512Y-278792445D01*
X148542445Y-278946512D01*
X148417468Y-279124999D01*
X148417467Y-279125001D01*
X148325385Y-279322473D01*
X148325381Y-279322482D01*
X148268991Y-279532934D01*
X148268989Y-279532945D01*
X148250000Y-279749998D01*
X148250000Y-279750001D01*
X136000000Y-279750001D01*
X136000000Y-275000000D01*
X169000000Y-275000000D01*
X169000000Y-291000000D01*
X224000000Y-291000000D01*
X224000000Y-275000000D01*
X169000000Y-275000000D01*
X136000000Y-275000000D01*
X106000000Y-275000000D01*
X99500000Y-275000000D01*
X99500000Y-271000000D01*
X231750000Y-271000000D01*
X231750000Y-291000000D01*
X251750000Y-291000000D01*
X251750000Y-275000000D01*
X259250000Y-275000000D01*
X259250000Y-291000000D01*
X289250000Y-291000000D01*
X289250000Y-275000000D01*
X259250000Y-275000000D01*
X251750000Y-275000000D01*
X251750000Y-271000000D01*
X296750000Y-271000000D01*
X296750000Y-291000000D01*
X316750000Y-291000000D01*
X316750000Y-275000000D01*
X324250000Y-275000000D01*
X324250000Y-291000000D01*
X379250000Y-291000000D01*
X379250000Y-275000000D01*
X389250000Y-275000000D01*
X389250000Y-291000000D01*
X444250000Y-291000000D01*
X444250000Y-276500000D01*
X452750000Y-276500000D01*
X452750000Y-296500000D01*
X472750000Y-296500000D01*
X472750000Y-276500000D01*
X479750000Y-276500000D01*
X479750000Y-296500000D01*
X499750000Y-296500000D01*
X499750000Y-276500000D01*
X479750000Y-276500000D01*
X472750000Y-276500000D01*
X452750000Y-276500000D01*
X444250000Y-276500000D01*
X444250000Y-275000000D01*
X508250000Y-275000000D01*
X508250000Y-291000000D01*
X538250000Y-291000000D01*
X538250000Y-275000000D01*
X508250000Y-275000000D01*
X444250000Y-275000000D01*
X389250000Y-275000000D01*
X379250000Y-275000000D01*
X324250000Y-275000000D01*
X316750000Y-275000000D01*
X316750000Y-271000000D01*
X296750000Y-271000000D01*
X251750000Y-271000000D01*
X231750000Y-271000000D01*
X99500000Y-271000000D01*
X99500000Y-270502440D01*
X99500191Y-270497574D01*
X99517701Y-270275076D01*
X99520745Y-270255857D01*
X99571136Y-270045964D01*
X99577149Y-270027458D01*
X99659756Y-269828028D01*
X99668590Y-269810691D01*
X99781375Y-269626644D01*
X99792812Y-269610903D01*
X99933002Y-269446761D01*
X99946761Y-269433002D01*
X100110903Y-269292812D01*
X100126644Y-269281375D01*
X100310691Y-269168590D01*
X100328028Y-269159756D01*
X100527458Y-269077149D01*
X100545964Y-269071136D01*
X100755857Y-269020745D01*
X100775076Y-269017701D01*
X100997574Y-269000191D01*
X101002440Y-269000000D01*
X542997560Y-269000000D01*
X543002426Y-269000191D01*
G37*
M02*
