G04 #@! TF.GenerationSoftware,KiCad,Pcbnew,7.0.9*
G04 #@! TF.CreationDate,2024-04-05T10:46:57+01:00*
G04 #@! TF.ProjectId,mcpElectronicsv2,6d637045-6c65-4637-9472-6f6e69637376,rev?*
G04 #@! TF.SameCoordinates,Original*
G04 #@! TF.FileFunction,Copper,L4,Bot*
G04 #@! TF.FilePolarity,Positive*
%FSLAX46Y46*%
G04 Gerber Fmt 4.6, Leading zero omitted, Abs format (unit mm)*
G04 Created by KiCad (PCBNEW 7.0.9) date 2024-04-05 10:46:57*
%MOMM*%
%LPD*%
G01*
G04 APERTURE LIST*
G04 #@! TA.AperFunction,ComponentPad*
%ADD10R,1.700000X1.700000*%
G04 #@! TD*
G04 #@! TA.AperFunction,ComponentPad*
%ADD11O,1.700000X1.700000*%
G04 #@! TD*
G04 #@! TA.AperFunction,ComponentPad*
%ADD12C,2.000000*%
G04 #@! TD*
G04 #@! TA.AperFunction,ComponentPad*
%ADD13R,1.050000X1.500000*%
G04 #@! TD*
G04 #@! TA.AperFunction,ComponentPad*
%ADD14O,1.050000X1.500000*%
G04 #@! TD*
G04 #@! TA.AperFunction,ComponentPad*
%ADD15R,1.500000X1.050000*%
G04 #@! TD*
G04 #@! TA.AperFunction,ComponentPad*
%ADD16O,1.500000X1.050000*%
G04 #@! TD*
G04 #@! TA.AperFunction,ComponentPad*
%ADD17R,1.905000X2.000000*%
G04 #@! TD*
G04 #@! TA.AperFunction,ComponentPad*
%ADD18O,1.905000X2.000000*%
G04 #@! TD*
G04 #@! TA.AperFunction,ComponentPad*
%ADD19R,2.000000X4.000000*%
G04 #@! TD*
G04 #@! TA.AperFunction,ComponentPad*
%ADD20O,2.000000X3.300000*%
G04 #@! TD*
G04 #@! TA.AperFunction,ComponentPad*
%ADD21O,3.500000X2.000000*%
G04 #@! TD*
G04 #@! TA.AperFunction,ComponentPad*
%ADD22C,7.600000*%
G04 #@! TD*
G04 #@! TA.AperFunction,ComponentPad*
%ADD23R,1.600000X1.600000*%
G04 #@! TD*
G04 #@! TA.AperFunction,ComponentPad*
%ADD24C,1.600000*%
G04 #@! TD*
G04 #@! TA.AperFunction,ComponentPad*
%ADD25O,1.600000X1.600000*%
G04 #@! TD*
G04 #@! TA.AperFunction,ComponentPad*
%ADD26O,2.100000X1.000000*%
G04 #@! TD*
G04 #@! TA.AperFunction,ComponentPad*
%ADD27O,1.600000X1.000000*%
G04 #@! TD*
G04 #@! TA.AperFunction,ViaPad*
%ADD28C,0.450000*%
G04 #@! TD*
G04 #@! TA.AperFunction,Conductor*
%ADD29C,0.300000*%
G04 #@! TD*
G04 #@! TA.AperFunction,Conductor*
%ADD30C,0.200000*%
G04 #@! TD*
G04 #@! TA.AperFunction,Conductor*
%ADD31C,0.500000*%
G04 #@! TD*
G04 APERTURE END LIST*
D10*
X460000000Y-275290000D03*
D11*
X460000000Y-272750000D03*
D12*
X139250000Y-253000000D03*
X145750000Y-253000000D03*
X139250000Y-257500000D03*
X145750000Y-257500000D03*
D10*
X464000000Y-275275000D03*
D11*
X464000000Y-272735000D03*
D13*
X354300000Y-238000000D03*
D14*
X353030000Y-238000000D03*
X351760000Y-238000000D03*
D13*
X534020000Y-239260000D03*
D14*
X532750000Y-239260000D03*
X531480000Y-239260000D03*
D10*
X252300000Y-240500000D03*
D11*
X252300000Y-245580000D03*
X252300000Y-243040000D03*
D10*
X363000000Y-242000000D03*
D11*
X363000000Y-244540000D03*
D13*
X277230000Y-238000000D03*
D14*
X275960000Y-238000000D03*
X274690000Y-238000000D03*
D10*
X229000000Y-219000000D03*
D11*
X229000000Y-221540000D03*
D10*
X192000000Y-211125000D03*
D11*
X192000000Y-213665000D03*
X192000000Y-216205000D03*
X192000000Y-218745000D03*
X192000000Y-221285000D03*
X192000000Y-223825000D03*
X192000000Y-226365000D03*
X192000000Y-228905000D03*
X192000000Y-231445000D03*
D10*
X111250000Y-211125000D03*
D11*
X111250000Y-213665000D03*
X111250000Y-216205000D03*
X111250000Y-218745000D03*
X111250000Y-221285000D03*
X111250000Y-223825000D03*
X111250000Y-226365000D03*
X111250000Y-228905000D03*
X111250000Y-231445000D03*
D10*
X385550000Y-252250000D03*
D11*
X385550000Y-257330000D03*
X385550000Y-254790000D03*
D10*
X177000000Y-241000000D03*
D11*
X177000000Y-243540000D03*
D10*
X507300000Y-240500000D03*
D11*
X507300000Y-245580000D03*
X507300000Y-243040000D03*
D10*
X353000000Y-211125000D03*
D11*
X353000000Y-213665000D03*
X353000000Y-216205000D03*
X353000000Y-218745000D03*
X353000000Y-221285000D03*
X353000000Y-223825000D03*
X353000000Y-226365000D03*
X353000000Y-228905000D03*
X353000000Y-231445000D03*
D10*
X428000000Y-211000000D03*
D11*
X428000000Y-213540000D03*
X428000000Y-216080000D03*
X428000000Y-218620000D03*
X428000000Y-221160000D03*
X428000000Y-223700000D03*
X428000000Y-226240000D03*
X428000000Y-228780000D03*
X428000000Y-231320000D03*
D10*
X306200000Y-273325000D03*
D11*
X306200000Y-275865000D03*
D10*
X108250000Y-264325000D03*
D11*
X108250000Y-266865000D03*
D10*
X238000000Y-273325000D03*
D11*
X238000000Y-275865000D03*
D13*
X248500000Y-238000000D03*
D14*
X247230000Y-238000000D03*
X245960000Y-238000000D03*
D10*
X184000000Y-211125000D03*
D11*
X184000000Y-213665000D03*
X184000000Y-216205000D03*
X184000000Y-218745000D03*
X184000000Y-221285000D03*
X184000000Y-223825000D03*
X184000000Y-226365000D03*
X184000000Y-228905000D03*
X184000000Y-231445000D03*
X184000000Y-233985000D03*
X184000000Y-236525000D03*
X184000000Y-239065000D03*
X184000000Y-241605000D03*
X184000000Y-244145000D03*
D13*
X184520000Y-251500000D03*
D14*
X183250000Y-251500000D03*
X181980000Y-251500000D03*
D13*
X324980000Y-238000000D03*
D14*
X323710000Y-238000000D03*
X322440000Y-238000000D03*
D15*
X315800000Y-264670000D03*
D16*
X315800000Y-263400000D03*
X315800000Y-262130000D03*
D15*
X270000000Y-262270000D03*
D16*
X270000000Y-261000000D03*
X270000000Y-259730000D03*
D10*
X450000000Y-224460000D03*
D11*
X450000000Y-227000000D03*
D15*
X311000000Y-262290000D03*
D16*
X311000000Y-261020000D03*
X311000000Y-259750000D03*
D15*
X320600000Y-262290000D03*
D16*
X320600000Y-261020000D03*
X320600000Y-259750000D03*
D10*
X325400000Y-273325000D03*
D11*
X325400000Y-275865000D03*
D10*
X265400000Y-263125000D03*
D11*
X265400000Y-265665000D03*
D15*
X242800000Y-262270000D03*
D16*
X242800000Y-261000000D03*
X242800000Y-259730000D03*
D10*
X279600000Y-273325000D03*
D11*
X279600000Y-275865000D03*
D10*
X451750000Y-275275000D03*
D11*
X451750000Y-272735000D03*
D10*
X188300000Y-247500000D03*
D11*
X188300000Y-252580000D03*
X188300000Y-250040000D03*
D17*
X90830000Y-266500000D03*
D18*
X88290000Y-266500000D03*
X85750000Y-266500000D03*
D13*
X112790000Y-237250000D03*
D14*
X111520000Y-237250000D03*
X110250000Y-237250000D03*
D19*
X85700000Y-248250000D03*
D20*
X79700000Y-248250000D03*
D21*
X78700000Y-243750000D03*
X78700000Y-252750000D03*
D10*
X329300000Y-240500000D03*
D11*
X329300000Y-245580000D03*
X329300000Y-243040000D03*
D10*
X252400000Y-273325000D03*
D11*
X252400000Y-275865000D03*
D22*
X79000000Y-213000000D03*
D15*
X306200000Y-264670000D03*
D16*
X306200000Y-263400000D03*
X306200000Y-262130000D03*
D15*
X257160000Y-264670000D03*
D16*
X257160000Y-263400000D03*
X257160000Y-262130000D03*
D13*
X429270000Y-238000000D03*
D14*
X428000000Y-238000000D03*
X426730000Y-238000000D03*
D10*
X268000000Y-211125000D03*
D11*
X268000000Y-213665000D03*
X268000000Y-216205000D03*
X268000000Y-218745000D03*
X268000000Y-221285000D03*
X268000000Y-223825000D03*
X268000000Y-226365000D03*
X268000000Y-228905000D03*
X268000000Y-231445000D03*
D10*
X139250000Y-264460000D03*
D11*
X139250000Y-267000000D03*
D13*
X106400000Y-253500000D03*
D14*
X105130000Y-253500000D03*
X103860000Y-253500000D03*
D15*
X289200000Y-262250000D03*
D16*
X289200000Y-260980000D03*
X289200000Y-259710000D03*
D10*
X208000000Y-211125000D03*
D11*
X208000000Y-213665000D03*
X208000000Y-216205000D03*
X208000000Y-218745000D03*
X208000000Y-221285000D03*
X208000000Y-223825000D03*
X208000000Y-226365000D03*
X208000000Y-228905000D03*
X208000000Y-231445000D03*
D10*
X284400000Y-273325000D03*
D11*
X284400000Y-275865000D03*
D10*
X415250000Y-275275000D03*
D11*
X415250000Y-272735000D03*
D10*
X477000000Y-224460000D03*
D11*
X477000000Y-227000000D03*
D15*
X325400000Y-265070000D03*
D16*
X325400000Y-263800000D03*
X325400000Y-262530000D03*
D10*
X491225000Y-254000000D03*
D11*
X493765000Y-254000000D03*
D10*
X226000000Y-263460000D03*
D11*
X226000000Y-266000000D03*
D10*
X419250000Y-275290000D03*
D11*
X419250000Y-272750000D03*
D22*
X79000000Y-273000000D03*
X537000000Y-213000000D03*
D10*
X484000000Y-270040000D03*
D11*
X484000000Y-267500000D03*
D13*
X193270000Y-237250000D03*
D14*
X192000000Y-237250000D03*
X190730000Y-237250000D03*
D10*
X289200000Y-273325000D03*
D11*
X289200000Y-275865000D03*
D15*
X90860000Y-219270000D03*
D16*
X90860000Y-218000000D03*
X90860000Y-216730000D03*
D15*
X330200000Y-262270000D03*
D16*
X330200000Y-261000000D03*
X330200000Y-259730000D03*
D15*
X247600000Y-264670000D03*
D16*
X247600000Y-263400000D03*
X247600000Y-262130000D03*
D13*
X89760000Y-239390000D03*
D14*
X88490000Y-239390000D03*
X87220000Y-239390000D03*
D10*
X315800000Y-273325000D03*
D11*
X315800000Y-275865000D03*
D10*
X206000000Y-244960000D03*
D11*
X206000000Y-247500000D03*
X206000000Y-250040000D03*
X206000000Y-252580000D03*
X206000000Y-255120000D03*
X206000000Y-257660000D03*
D13*
X528000000Y-239250000D03*
D14*
X526730000Y-239250000D03*
X525460000Y-239250000D03*
D10*
X329000000Y-211125000D03*
D11*
X329000000Y-213665000D03*
X329000000Y-216205000D03*
X329000000Y-218745000D03*
X329000000Y-221285000D03*
X329000000Y-223825000D03*
X329000000Y-226365000D03*
X329000000Y-228905000D03*
X329000000Y-231445000D03*
D10*
X477000000Y-248460000D03*
D11*
X477000000Y-251000000D03*
D13*
X437270000Y-238000000D03*
D14*
X436000000Y-238000000D03*
X434730000Y-238000000D03*
D15*
X284400000Y-264870000D03*
D16*
X284400000Y-263600000D03*
X284400000Y-262330000D03*
D13*
X348260000Y-238000000D03*
D14*
X346990000Y-238000000D03*
X345720000Y-238000000D03*
D10*
X412000000Y-211000000D03*
D11*
X412000000Y-213540000D03*
X412000000Y-216080000D03*
X412000000Y-218620000D03*
X412000000Y-221160000D03*
X412000000Y-223700000D03*
X412000000Y-226240000D03*
X412000000Y-228780000D03*
X412000000Y-231320000D03*
D23*
X97294888Y-271500000D03*
D24*
X99294888Y-271500000D03*
D22*
X537000000Y-273000000D03*
D13*
X209270000Y-237250000D03*
D14*
X208000000Y-237250000D03*
X206730000Y-237250000D03*
D10*
X242800000Y-273325000D03*
D11*
X242800000Y-275865000D03*
D10*
X496500000Y-241225000D03*
D11*
X496500000Y-243765000D03*
D15*
X84860000Y-220460000D03*
D16*
X84860000Y-221730000D03*
X84860000Y-223000000D03*
D15*
X90860000Y-234250000D03*
D16*
X90860000Y-232980000D03*
X90860000Y-231710000D03*
D13*
X319270000Y-238000000D03*
D14*
X318000000Y-238000000D03*
X316730000Y-238000000D03*
D10*
X468000000Y-275290000D03*
D11*
X468000000Y-272750000D03*
D13*
X177520000Y-251520000D03*
D14*
X176250000Y-251520000D03*
X174980000Y-251520000D03*
D13*
X82760000Y-239345000D03*
D14*
X81490000Y-239345000D03*
X80220000Y-239345000D03*
D15*
X252350000Y-262250000D03*
D16*
X252350000Y-260980000D03*
X252350000Y-259710000D03*
D10*
X116710000Y-268500000D03*
D11*
X119250000Y-268500000D03*
D23*
X94152651Y-254500000D03*
D24*
X90652651Y-254500000D03*
D10*
X260000000Y-211125000D03*
D11*
X260000000Y-213665000D03*
X260000000Y-216205000D03*
X260000000Y-218745000D03*
X260000000Y-221285000D03*
X260000000Y-223825000D03*
X260000000Y-226365000D03*
X260000000Y-228905000D03*
X260000000Y-231445000D03*
D10*
X257200000Y-273325000D03*
D11*
X257200000Y-275865000D03*
D24*
X481000000Y-258250000D03*
D25*
X470840000Y-258250000D03*
D13*
X313510000Y-238000000D03*
D14*
X312240000Y-238000000D03*
X310970000Y-238000000D03*
D10*
X507000000Y-211000000D03*
D11*
X507000000Y-213540000D03*
X507000000Y-216080000D03*
X507000000Y-218620000D03*
X507000000Y-221160000D03*
X507000000Y-223700000D03*
X507000000Y-226240000D03*
X507000000Y-228780000D03*
X507000000Y-231320000D03*
D10*
X101600000Y-276000000D03*
D11*
X104140000Y-276000000D03*
X106680000Y-276000000D03*
X109220000Y-276000000D03*
D10*
X436000000Y-211000000D03*
D11*
X436000000Y-213540000D03*
X436000000Y-216080000D03*
X436000000Y-218620000D03*
X436000000Y-221160000D03*
X436000000Y-223700000D03*
X436000000Y-226240000D03*
X436000000Y-228780000D03*
X436000000Y-231320000D03*
D10*
X200000000Y-211125000D03*
D11*
X200000000Y-213665000D03*
X200000000Y-216205000D03*
X200000000Y-218745000D03*
X200000000Y-221285000D03*
X200000000Y-223825000D03*
X200000000Y-226365000D03*
X200000000Y-228905000D03*
X200000000Y-231445000D03*
D10*
X431500000Y-275290000D03*
D11*
X431500000Y-272750000D03*
D10*
X337000000Y-211125000D03*
D11*
X337000000Y-213665000D03*
X337000000Y-216205000D03*
X337000000Y-218745000D03*
X337000000Y-221285000D03*
X337000000Y-223825000D03*
X337000000Y-226365000D03*
X337000000Y-228905000D03*
X337000000Y-231445000D03*
D10*
X447750000Y-275275000D03*
D11*
X447750000Y-272735000D03*
D10*
X320600000Y-273325000D03*
D11*
X320600000Y-275865000D03*
D10*
X439500000Y-275275000D03*
D11*
X439500000Y-272735000D03*
D15*
X90860000Y-226750000D03*
D16*
X90860000Y-225480000D03*
X90860000Y-224210000D03*
D10*
X365000000Y-264000000D03*
D11*
X365000000Y-266540000D03*
D10*
X95250000Y-211125000D03*
D11*
X95250000Y-213665000D03*
X95250000Y-216205000D03*
X95250000Y-218745000D03*
X95250000Y-221285000D03*
X95250000Y-223825000D03*
X95250000Y-226365000D03*
X95250000Y-228905000D03*
X95250000Y-231445000D03*
D13*
X540000000Y-239250000D03*
D14*
X538730000Y-239250000D03*
X537460000Y-239250000D03*
D10*
X100400000Y-253000000D03*
D11*
X100400000Y-255540000D03*
D26*
X80530000Y-257430000D03*
D27*
X76350000Y-257430000D03*
D26*
X80530000Y-266070000D03*
D27*
X76350000Y-266070000D03*
D13*
X421270000Y-238000000D03*
D14*
X420000000Y-238000000D03*
X418730000Y-238000000D03*
D10*
X515000000Y-211000000D03*
D11*
X515000000Y-213540000D03*
X515000000Y-216080000D03*
X515000000Y-218620000D03*
X515000000Y-221160000D03*
X515000000Y-223700000D03*
X515000000Y-226240000D03*
X515000000Y-228780000D03*
X515000000Y-231320000D03*
D10*
X455750000Y-275275000D03*
D11*
X455750000Y-272735000D03*
D10*
X345000000Y-211125000D03*
D11*
X345000000Y-213665000D03*
X345000000Y-216205000D03*
X345000000Y-218745000D03*
X345000000Y-221285000D03*
X345000000Y-223825000D03*
X345000000Y-226365000D03*
X345000000Y-228905000D03*
X345000000Y-231445000D03*
D15*
X301400000Y-262270000D03*
D16*
X301400000Y-261000000D03*
X301400000Y-259730000D03*
D10*
X296600000Y-263125000D03*
D11*
X296600000Y-265665000D03*
D15*
X475815000Y-265190000D03*
D16*
X475815000Y-266460000D03*
X475815000Y-267730000D03*
D10*
X103250000Y-211125000D03*
D11*
X103250000Y-213665000D03*
X103250000Y-216205000D03*
X103250000Y-218745000D03*
X103250000Y-221285000D03*
X103250000Y-223825000D03*
X103250000Y-226365000D03*
X103250000Y-228905000D03*
X103250000Y-231445000D03*
D10*
X330200000Y-273325000D03*
D11*
X330200000Y-275865000D03*
D10*
X523000000Y-211000000D03*
D11*
X523000000Y-213540000D03*
X523000000Y-216080000D03*
X523000000Y-218620000D03*
X523000000Y-221160000D03*
X523000000Y-223700000D03*
X523000000Y-226240000D03*
X523000000Y-228780000D03*
X523000000Y-231320000D03*
D10*
X270000000Y-273325000D03*
D11*
X270000000Y-275865000D03*
D17*
X102740000Y-264800000D03*
D18*
X100200000Y-264800000D03*
X97660000Y-264800000D03*
D15*
X90960000Y-212270000D03*
D16*
X90960000Y-211000000D03*
X90960000Y-209730000D03*
D15*
X86000000Y-215500000D03*
D16*
X86000000Y-214230000D03*
X86000000Y-212960000D03*
D10*
X252000000Y-211125000D03*
D11*
X252000000Y-213665000D03*
X252000000Y-216205000D03*
X252000000Y-218745000D03*
X252000000Y-221285000D03*
X252000000Y-223825000D03*
X252000000Y-226365000D03*
X252000000Y-228905000D03*
X252000000Y-231445000D03*
D10*
X301400000Y-273325000D03*
D11*
X301400000Y-275865000D03*
D13*
X271460000Y-237990000D03*
D14*
X270190000Y-237990000D03*
X268920000Y-237990000D03*
D15*
X84860000Y-227960000D03*
D16*
X84860000Y-229230000D03*
X84860000Y-230500000D03*
D10*
X443750000Y-275290000D03*
D11*
X443750000Y-272750000D03*
D10*
X321000000Y-211125000D03*
D11*
X321000000Y-213665000D03*
X321000000Y-216205000D03*
X321000000Y-218745000D03*
X321000000Y-221285000D03*
X321000000Y-223825000D03*
X321000000Y-226365000D03*
X321000000Y-228905000D03*
X321000000Y-231445000D03*
D10*
X435500000Y-275275000D03*
D11*
X435500000Y-272735000D03*
D10*
X404000000Y-211000000D03*
D11*
X404000000Y-213540000D03*
X404000000Y-216080000D03*
X404000000Y-218620000D03*
X404000000Y-221160000D03*
D10*
X420000000Y-211000000D03*
D11*
X420000000Y-213540000D03*
X420000000Y-216080000D03*
X420000000Y-218620000D03*
X420000000Y-221160000D03*
X420000000Y-223700000D03*
X420000000Y-226240000D03*
X420000000Y-228780000D03*
X420000000Y-231320000D03*
D15*
X279600000Y-262270000D03*
D16*
X279600000Y-261000000D03*
X279600000Y-259730000D03*
D10*
X219000000Y-242000000D03*
D11*
X219000000Y-244540000D03*
D10*
X247600000Y-273325000D03*
D11*
X247600000Y-275865000D03*
D10*
X311000000Y-273325000D03*
D11*
X311000000Y-275865000D03*
D10*
X93300000Y-240500000D03*
D11*
X93300000Y-245580000D03*
X93300000Y-243040000D03*
D10*
X274800000Y-273325000D03*
D11*
X274800000Y-275865000D03*
D15*
X238000000Y-264670000D03*
D16*
X238000000Y-263400000D03*
X238000000Y-262130000D03*
D15*
X274750000Y-264740000D03*
D16*
X274750000Y-263470000D03*
X274750000Y-262200000D03*
D10*
X423250000Y-275290000D03*
D11*
X423250000Y-272750000D03*
D13*
X405270000Y-231000000D03*
D14*
X404000000Y-231000000D03*
X402730000Y-231000000D03*
D10*
X339000000Y-264460000D03*
D11*
X339000000Y-267000000D03*
D15*
X406640000Y-273230000D03*
D16*
X406640000Y-274500000D03*
X406640000Y-275770000D03*
D10*
X427250000Y-275290000D03*
D11*
X427250000Y-272750000D03*
D23*
X87794888Y-273500000D03*
D24*
X89794888Y-273500000D03*
D10*
X294000000Y-219000000D03*
D11*
X294000000Y-221540000D03*
D10*
X450000000Y-248000000D03*
D11*
X450000000Y-250540000D03*
D13*
X413270000Y-238000000D03*
D14*
X412000000Y-238000000D03*
X410730000Y-238000000D03*
D10*
X166000000Y-268000000D03*
D11*
X163460000Y-268000000D03*
D13*
X201250000Y-237250000D03*
D14*
X199980000Y-237250000D03*
X198710000Y-237250000D03*
D10*
X294000000Y-242460000D03*
D11*
X294000000Y-245000000D03*
D28*
X320200000Y-234200000D03*
X210100000Y-233400000D03*
X422000000Y-234300000D03*
X419200000Y-267000000D03*
X431400000Y-267900000D03*
X464000000Y-268000000D03*
X349100000Y-234300000D03*
X541000000Y-236800000D03*
X194000000Y-233400000D03*
X438200000Y-234400000D03*
X278300000Y-234200000D03*
X229000000Y-276350000D03*
X439400000Y-267900000D03*
X406600000Y-228000000D03*
X314300000Y-234000000D03*
X83980000Y-236655000D03*
X113400000Y-233500000D03*
X249500000Y-234100000D03*
X467900000Y-268000000D03*
X460000000Y-268000000D03*
X443600000Y-268000000D03*
X456600000Y-268600000D03*
X430300000Y-234400000D03*
X435500000Y-268000000D03*
X415300000Y-267000000D03*
X414600000Y-235000000D03*
X355100000Y-234200000D03*
X428200000Y-267800000D03*
X272300000Y-234000000D03*
X231500000Y-275850000D03*
X447600000Y-268000000D03*
X178800000Y-248600000D03*
X91000000Y-236700000D03*
X451300000Y-268000000D03*
X528900000Y-236900000D03*
X326200000Y-235100000D03*
X423250000Y-267400000D03*
X534900000Y-236900000D03*
X202000000Y-233400000D03*
X185700000Y-248800000D03*
X153400000Y-225800000D03*
X121750000Y-245000000D03*
X321800000Y-234100000D03*
X130500000Y-221500000D03*
X88250000Y-260250000D03*
X83900000Y-260250000D03*
X85050000Y-264000000D03*
X98750000Y-262250000D03*
X115250000Y-251500000D03*
X231500000Y-273150000D03*
X115000000Y-248750000D03*
X97000000Y-262250000D03*
X116500000Y-250250000D03*
X151800000Y-225800000D03*
X245100000Y-234000000D03*
X136100000Y-244900000D03*
X111250000Y-252500000D03*
X91750000Y-262250000D03*
X111500000Y-255250000D03*
X401400000Y-228000000D03*
X109000000Y-233900000D03*
X190100000Y-233400000D03*
X153250000Y-233750000D03*
X273400000Y-234800000D03*
X121750000Y-242050000D03*
X106000000Y-257750000D03*
X267600000Y-234300000D03*
X82650000Y-265700000D03*
X104750000Y-259000000D03*
X137000000Y-222500000D03*
X350900000Y-234300000D03*
X117750000Y-249000000D03*
X109000000Y-257750000D03*
X95250000Y-260250000D03*
X148400000Y-226100000D03*
X142000000Y-222500000D03*
X85900000Y-236800000D03*
X117500000Y-246250000D03*
X114000000Y-252750000D03*
X113750000Y-250000000D03*
X118750000Y-245000000D03*
X97000000Y-260250000D03*
X93500000Y-262250000D03*
X88250000Y-262250000D03*
X149000000Y-229400000D03*
X108750000Y-255000000D03*
X536700000Y-236900000D03*
X315900000Y-234200000D03*
X112750000Y-254000000D03*
X206000000Y-233500000D03*
X85400000Y-262250000D03*
X106250000Y-260500000D03*
X149000000Y-254250000D03*
X112500000Y-251250000D03*
X86500000Y-262250000D03*
X91750000Y-260250000D03*
X103000000Y-260250000D03*
X229000000Y-272750000D03*
X123000000Y-243750000D03*
X131750000Y-221500000D03*
X103000000Y-262250000D03*
X107500000Y-256250000D03*
X149200000Y-237300000D03*
X85400000Y-260250000D03*
X530600000Y-236900000D03*
X130400000Y-231500000D03*
X153750000Y-241750000D03*
X107500000Y-259250000D03*
X82350000Y-257800000D03*
X110000000Y-253750000D03*
X344900000Y-234200000D03*
X141300000Y-244900000D03*
X153300000Y-231600000D03*
X119000000Y-247750000D03*
X98750000Y-260250000D03*
X310100000Y-234200000D03*
X181350000Y-249400000D03*
X130500000Y-237400000D03*
X126500000Y-244750000D03*
X116250000Y-247500000D03*
X149400000Y-248800000D03*
X120000000Y-243750000D03*
X433600000Y-234500000D03*
X213900000Y-250000000D03*
X125500000Y-243800000D03*
X84350000Y-258700000D03*
X78780000Y-236555000D03*
X95250000Y-262250000D03*
X417600000Y-234700000D03*
X86500000Y-260250000D03*
X83900000Y-262250000D03*
X525000000Y-237000000D03*
X101000000Y-260250000D03*
X93500000Y-260250000D03*
X425400000Y-235100000D03*
X198000000Y-233500000D03*
X90000000Y-260250000D03*
X120250000Y-246500000D03*
X101000000Y-262250000D03*
X156200000Y-225800000D03*
X105000000Y-261750000D03*
X409500000Y-235000000D03*
X110250000Y-256500000D03*
X173700000Y-248600000D03*
X90000000Y-262250000D03*
X137750000Y-232250000D03*
X146500000Y-227250000D03*
X146750000Y-228500000D03*
X142250000Y-227000000D03*
X141750000Y-226250000D03*
X136750000Y-226500000D03*
X135750000Y-233250000D03*
X135500000Y-235250000D03*
X135250000Y-234000000D03*
X134500000Y-235250000D03*
X166250000Y-211125000D03*
X165000000Y-212500000D03*
X163750000Y-213750000D03*
X162500000Y-215000000D03*
X161250000Y-216250000D03*
X135000000Y-236750000D03*
X119750000Y-227000000D03*
X86500000Y-211250000D03*
X118750000Y-226750000D03*
X90750000Y-214500000D03*
X87200000Y-217000000D03*
X118000000Y-227750000D03*
X90250000Y-221000000D03*
X117000000Y-228500000D03*
X86250000Y-224500000D03*
X116000000Y-229250000D03*
X89750000Y-228250000D03*
X114750000Y-229500000D03*
X86500000Y-232000000D03*
X113500000Y-229500000D03*
X116750000Y-234250000D03*
X120750000Y-229500000D03*
X106750000Y-241000000D03*
X123750000Y-230500000D03*
X120000000Y-234250000D03*
X86000000Y-241250000D03*
X131000000Y-238750000D03*
X538250000Y-245250000D03*
X532250000Y-245000000D03*
X131750000Y-238250000D03*
X132000000Y-237250000D03*
X526250000Y-245000000D03*
X142750000Y-223500000D03*
X274000000Y-244750000D03*
X143500000Y-226250000D03*
X268500000Y-244500000D03*
X245250000Y-244750000D03*
X145000000Y-223250000D03*
X137750000Y-223250000D03*
X353000000Y-246250000D03*
X347000000Y-245000000D03*
X137750000Y-227500000D03*
X321250000Y-245250000D03*
X138750000Y-222250000D03*
X315500000Y-245250000D03*
X140000000Y-222500000D03*
X309750000Y-245250000D03*
X140750000Y-226500000D03*
X410250000Y-244500000D03*
X134750000Y-223500000D03*
X418500000Y-244250000D03*
X135000000Y-227500000D03*
X427000000Y-244000000D03*
X134250000Y-227000000D03*
X134000000Y-228500000D03*
X435250000Y-244000000D03*
X135500000Y-226250000D03*
X402250000Y-238000000D03*
X109000000Y-250500000D03*
X120250000Y-241750000D03*
X130500000Y-239500000D03*
X401750000Y-275500000D03*
X145750000Y-244750000D03*
X122000000Y-240000000D03*
X116500000Y-264750000D03*
X145750000Y-222000000D03*
X134250000Y-237250000D03*
X133000000Y-237250000D03*
X133000000Y-236250000D03*
X123000000Y-228500000D03*
X122000000Y-229000000D03*
X138750000Y-223250000D03*
X138500000Y-226500000D03*
X137750000Y-233250000D03*
X136750000Y-233250000D03*
X144750000Y-226500000D03*
X144000000Y-223500000D03*
X370100000Y-268500000D03*
X136900000Y-244700000D03*
X269090000Y-266675000D03*
X157000000Y-227500000D03*
X180100000Y-246800000D03*
X327900000Y-248600000D03*
X252600000Y-248600000D03*
X188600000Y-256300000D03*
X126700000Y-238100000D03*
X492700000Y-251300000D03*
X110900000Y-265000000D03*
X498100000Y-238800000D03*
X507500000Y-237100000D03*
X481800000Y-228800000D03*
X137700000Y-268600000D03*
X385900000Y-260700000D03*
X223600000Y-246200000D03*
X505900000Y-249000000D03*
X329700000Y-237200000D03*
X343600000Y-268400000D03*
X299200000Y-223100000D03*
X152250000Y-240500000D03*
X93600000Y-237300000D03*
X147600000Y-226100000D03*
X367600000Y-246200000D03*
X114700000Y-266100000D03*
X149200000Y-230500000D03*
X188600000Y-244100000D03*
X91900000Y-249000000D03*
X130400000Y-232400000D03*
X481800000Y-252900000D03*
X126500000Y-245750000D03*
X148700000Y-236600000D03*
X300600000Y-266200000D03*
X149350000Y-246850000D03*
X149000000Y-228500000D03*
X131500000Y-226200000D03*
X142509380Y-244900000D03*
X299200000Y-246600000D03*
X135500000Y-222250000D03*
X252700000Y-237000000D03*
X158900000Y-268600000D03*
X141000000Y-222250000D03*
X454800000Y-252700000D03*
X385800000Y-249000000D03*
X222600000Y-268500000D03*
X454800000Y-228700000D03*
X234000000Y-223100000D03*
D29*
X402730000Y-231000000D02*
X402730000Y-222430000D01*
X402730000Y-222430000D02*
X404000000Y-221160000D01*
D30*
X129250000Y-265250000D02*
X118500000Y-276000000D01*
X130830000Y-238170000D02*
X130759756Y-238170000D01*
X135929756Y-232250000D02*
X131420000Y-236759756D01*
X137750000Y-232250000D02*
X135929756Y-232250000D01*
X118500000Y-276000000D02*
X109220000Y-276000000D01*
X131420000Y-236759756D02*
X131420000Y-237580000D01*
X129250000Y-239679756D02*
X129250000Y-265250000D01*
X131420000Y-237580000D02*
X130830000Y-238170000D01*
X130759756Y-238170000D02*
X129250000Y-239679756D01*
X146500000Y-227250000D02*
X147349822Y-228099822D01*
X212250000Y-259500000D02*
X220250000Y-251500000D01*
X147349822Y-232099822D02*
X157750000Y-242500000D01*
X157750000Y-247650396D02*
X164849604Y-254750000D01*
X164849604Y-254750000D02*
X172270826Y-254750000D01*
X157750000Y-242500000D02*
X157750000Y-247650396D01*
X220250000Y-251500000D02*
X220250000Y-245790000D01*
X147349822Y-228099822D02*
X147349822Y-232099822D01*
X177020826Y-259500000D02*
X212250000Y-259500000D01*
X220250000Y-245790000D02*
X219000000Y-244540000D01*
X172270826Y-254750000D02*
X177020826Y-259500000D01*
X164683918Y-255150000D02*
X157350000Y-247816081D01*
X229000000Y-221540000D02*
X230750000Y-223290000D01*
X176855140Y-259900000D02*
X172105140Y-255150000D01*
X230750000Y-223290000D02*
X230750000Y-248250000D01*
X146750000Y-232065686D02*
X146750000Y-228500000D01*
X172105140Y-255150000D02*
X164683918Y-255150000D01*
X157350000Y-247816081D02*
X157350000Y-242665686D01*
X157350000Y-242665686D02*
X146750000Y-232065686D01*
X227000000Y-252000000D02*
X220315685Y-252000000D01*
X212415685Y-259900000D02*
X176855140Y-259900000D01*
X230750000Y-248250000D02*
X227000000Y-252000000D01*
X220315685Y-252000000D02*
X212415685Y-259900000D01*
X144200000Y-229657217D02*
X144200000Y-234460153D01*
X142250000Y-227707218D02*
X144200000Y-229657217D01*
X154950000Y-248810198D02*
X163689802Y-257550000D01*
X270500000Y-251750000D02*
X294000000Y-228250000D01*
X154950000Y-245210153D02*
X154950000Y-248810198D01*
X163689802Y-257550000D02*
X171111024Y-257550000D01*
X230644111Y-251750000D02*
X270500000Y-251750000D01*
X221309800Y-254400000D02*
X227994110Y-254400000D01*
X294000000Y-228250000D02*
X294000000Y-221540000D01*
X171111024Y-257550000D02*
X175861024Y-262300000D01*
X142250000Y-227000000D02*
X142250000Y-227707218D01*
X227994110Y-254400000D02*
X230644111Y-251750000D01*
X213409799Y-262300000D02*
X221309800Y-254400000D01*
X175861024Y-262300000D02*
X213409799Y-262300000D01*
X144200000Y-234460153D02*
X154950000Y-245210153D01*
X228159795Y-254800000D02*
X230809797Y-252150000D01*
X141330000Y-226670000D02*
X141330000Y-227352903D01*
X141330000Y-227352903D02*
X143800000Y-229822903D01*
X154550000Y-248975883D02*
X163524116Y-257950000D01*
X221475486Y-254800000D02*
X228159795Y-254800000D01*
X289350000Y-252150000D02*
X294000000Y-247500000D01*
X170945338Y-257950000D02*
X175695338Y-262700000D01*
X163524116Y-257950000D02*
X170945338Y-257950000D01*
X141750000Y-226250000D02*
X141330000Y-226670000D01*
X230809797Y-252150000D02*
X289350000Y-252150000D01*
X154550000Y-245375839D02*
X154550000Y-248975883D01*
X175695338Y-262700000D02*
X213575484Y-262700000D01*
X213575484Y-262700000D02*
X221475486Y-254800000D01*
X143800000Y-234625839D02*
X154550000Y-245375839D01*
X294000000Y-247500000D02*
X294000000Y-245000000D01*
X143800000Y-229822903D02*
X143800000Y-234625839D01*
X151350000Y-250301372D02*
X162198628Y-261150000D01*
X140500000Y-235851326D02*
X151350000Y-246701326D01*
X138798673Y-229650000D02*
X140500000Y-231351330D01*
X363000000Y-251750000D02*
X363000000Y-244540000D01*
X137762904Y-229650000D02*
X138798673Y-229650000D01*
X359400000Y-255350000D02*
X363000000Y-251750000D01*
X136750000Y-226500000D02*
X136500000Y-226750000D01*
X169619850Y-261150000D02*
X174369850Y-265900000D01*
X136500000Y-226750000D02*
X136500000Y-228387096D01*
X151350000Y-246701326D02*
X151350000Y-250301372D01*
X136500000Y-228387096D02*
X137762904Y-229650000D01*
X229485284Y-258000000D02*
X232135285Y-255350000D01*
X162198628Y-261150000D02*
X169619850Y-261150000D01*
X140500000Y-231351330D02*
X140500000Y-235851326D01*
X214900973Y-265900000D02*
X222800974Y-258000000D01*
X232135285Y-255350000D02*
X359400000Y-255350000D01*
X222800974Y-258000000D02*
X229485284Y-258000000D01*
X174369850Y-265900000D02*
X214900973Y-265900000D01*
X443950000Y-244300000D02*
X420664999Y-267585001D01*
X403933142Y-268405001D02*
X403258143Y-269080000D01*
X412188144Y-268405000D02*
X403933142Y-268405001D01*
X137336860Y-269180000D02*
X134900000Y-266743140D01*
X224120244Y-267800000D02*
X222740244Y-269180000D01*
X420664999Y-267585001D02*
X413008143Y-267585001D01*
X134900000Y-266743140D02*
X134900000Y-244625488D01*
X413008143Y-267585001D02*
X412188144Y-268405000D01*
X222740244Y-269180000D02*
X137336860Y-269180000D01*
X450000000Y-227000000D02*
X443950000Y-233050000D01*
X339453654Y-269080000D02*
X338173654Y-267800000D01*
X403258143Y-269080000D02*
X339453654Y-269080000D01*
X137100000Y-234600000D02*
X135750000Y-233250000D01*
X137100000Y-242425488D02*
X137100000Y-234600000D01*
X338173654Y-267800000D02*
X224120244Y-267800000D01*
X134900000Y-244625488D02*
X137100000Y-242425488D01*
X443950000Y-233050000D02*
X443950000Y-244300000D01*
X137005489Y-269980000D02*
X223071616Y-269980000D01*
X135500000Y-235250000D02*
X136250000Y-236000000D01*
X404264513Y-269205001D02*
X412519514Y-269205000D01*
X413339513Y-268385001D02*
X431064757Y-268385001D01*
X134100000Y-267074512D02*
X137005489Y-269980000D01*
X337842282Y-268600000D02*
X339122282Y-269880000D01*
X403589513Y-269880000D02*
X404264513Y-269205001D01*
X339122282Y-269880000D02*
X403589513Y-269880000D01*
X134100000Y-244294116D02*
X134100000Y-267074512D01*
X430820000Y-268140244D02*
X430820000Y-266180000D01*
X446460000Y-250540000D02*
X450000000Y-250540000D01*
X412519514Y-269205000D02*
X413339513Y-268385001D01*
X136250000Y-242144116D02*
X134100000Y-244294116D01*
X136250000Y-236000000D02*
X136250000Y-242144116D01*
X430820000Y-266180000D02*
X446460000Y-250540000D01*
X223071616Y-269980000D02*
X224451616Y-268600000D01*
X224451616Y-268600000D02*
X337842282Y-268600000D01*
X431064757Y-268385001D02*
X430820000Y-268140244D01*
X134500000Y-244459802D02*
X134500000Y-266908826D01*
X467411522Y-227750000D02*
X476250000Y-227750000D01*
X476250000Y-227750000D02*
X477000000Y-227000000D01*
X403423828Y-269480000D02*
X404098828Y-268805001D01*
X338007968Y-268200000D02*
X339287968Y-269480000D01*
X137171174Y-269580000D02*
X222905930Y-269580000D01*
X134500000Y-266908826D02*
X137171174Y-269580000D01*
X136700000Y-235450000D02*
X136700000Y-242259802D01*
X413173828Y-267985001D02*
X427176521Y-267985001D01*
X412353829Y-268805000D02*
X413173828Y-267985001D01*
X136700000Y-242259802D02*
X134500000Y-244459802D01*
X404098828Y-268805001D02*
X412353829Y-268805000D01*
X222905930Y-269580000D02*
X224285930Y-268200000D01*
X339287968Y-269480000D02*
X403423828Y-269480000D01*
X135250000Y-234000000D02*
X136700000Y-235450000D01*
X427176521Y-267985001D02*
X467411522Y-227750000D01*
X224285930Y-268200000D02*
X338007968Y-268200000D01*
X136839804Y-270380000D02*
X223237302Y-270380000D01*
X413505199Y-268785001D02*
X456020000Y-268785001D01*
X338956596Y-270280000D02*
X403755198Y-270280000D01*
X135750000Y-242078430D02*
X133700000Y-244128430D01*
X134500000Y-235250000D02*
X135750000Y-236500000D01*
X473000000Y-251000000D02*
X477000000Y-251000000D01*
X133700000Y-244128430D02*
X133700000Y-267240198D01*
X403755198Y-270280000D02*
X404430199Y-269605001D01*
X135750000Y-236500000D02*
X135750000Y-242078430D01*
X337676596Y-269000000D02*
X338956596Y-270280000D01*
X456020000Y-267980000D02*
X473000000Y-251000000D01*
X133700000Y-267240198D02*
X136839804Y-270380000D01*
X224617302Y-269000000D02*
X337676596Y-269000000D01*
X404430199Y-269605001D02*
X412685200Y-269605000D01*
X223237302Y-270380000D02*
X224617302Y-269000000D01*
X456020000Y-268785001D02*
X456020000Y-267980000D01*
X412685200Y-269605000D02*
X413505199Y-268785001D01*
D31*
X166250000Y-211155000D02*
X166250000Y-211125000D01*
X184000000Y-228905000D02*
X166250000Y-211155000D01*
X184000000Y-231445000D02*
X165055000Y-212500000D01*
X165055000Y-212500000D02*
X165000000Y-212500000D01*
X184000000Y-233985000D02*
X163765000Y-213750000D01*
X163765000Y-213750000D02*
X163750000Y-213750000D01*
X162500000Y-215025000D02*
X162500000Y-215000000D01*
X184000000Y-236525000D02*
X162500000Y-215025000D01*
X161250000Y-216315000D02*
X161250000Y-216250000D01*
X184000000Y-239065000D02*
X161250000Y-216315000D01*
D30*
X338790911Y-270680000D02*
X403920883Y-270680000D01*
X413670884Y-269185001D02*
X469379313Y-269185001D01*
X337510911Y-269400000D02*
X338790911Y-270680000D01*
X135000000Y-236750000D02*
X135000000Y-242262744D01*
X133300000Y-243962744D02*
X133300000Y-267405884D01*
X491225000Y-256275000D02*
X491225000Y-254000000D01*
X224782988Y-269400000D02*
X337510911Y-269400000D01*
X403920883Y-270680000D02*
X404595884Y-270005001D01*
X223402988Y-270780000D02*
X224782988Y-269400000D01*
X412850885Y-270005000D02*
X413670884Y-269185001D01*
X469379313Y-269185001D02*
X475964315Y-262600000D01*
X133300000Y-267405884D02*
X136674119Y-270780000D01*
X135000000Y-242262744D02*
X133300000Y-243962744D01*
X136674119Y-270780000D02*
X223402988Y-270780000D01*
X484900000Y-262600000D02*
X491225000Y-256275000D01*
X404595884Y-270005001D02*
X412850885Y-270005000D01*
X475964315Y-262600000D02*
X484900000Y-262600000D01*
X94088654Y-213200000D02*
X88450000Y-213200000D01*
X88450000Y-213200000D02*
X86500000Y-211250000D01*
X119750000Y-227000000D02*
X119750000Y-220000000D01*
X119750000Y-220000000D02*
X112265000Y-212515000D01*
X94773654Y-212515000D02*
X94088654Y-213200000D01*
X112265000Y-212515000D02*
X94773654Y-212515000D01*
X91250000Y-215000000D02*
X90750000Y-214500000D01*
X111911346Y-215000000D02*
X91250000Y-215000000D01*
X118750000Y-226750000D02*
X118750000Y-221838654D01*
X118750000Y-221838654D02*
X111911346Y-215000000D01*
X94095000Y-217595000D02*
X111845000Y-217595000D01*
X118000000Y-223750000D02*
X118000000Y-227750000D01*
X111845000Y-217595000D02*
X118000000Y-223750000D01*
X88295000Y-215905000D02*
X92405000Y-215905000D01*
X92405000Y-215905000D02*
X94095000Y-217595000D01*
X87200000Y-217000000D02*
X88295000Y-215905000D01*
X91115000Y-220135000D02*
X90250000Y-221000000D01*
X117000000Y-225408654D02*
X111726346Y-220135000D01*
X111726346Y-220135000D02*
X91115000Y-220135000D01*
X117000000Y-228500000D02*
X117000000Y-225408654D01*
X111551346Y-222500000D02*
X111250000Y-222500000D01*
X88250000Y-222500000D02*
X86250000Y-224500000D01*
X116000000Y-229250000D02*
X116000000Y-226948654D01*
X116000000Y-226948654D02*
X111551346Y-222500000D01*
X111250000Y-222500000D02*
X88250000Y-222500000D01*
X114750000Y-229500000D02*
X114750000Y-228238654D01*
X95250000Y-225215000D02*
X94270000Y-225215000D01*
X94270000Y-225215000D02*
X91235000Y-228250000D01*
X114750000Y-228238654D02*
X111726346Y-225215000D01*
X91235000Y-228250000D02*
X89750000Y-228250000D01*
X111726346Y-225215000D02*
X95250000Y-225215000D01*
X111726346Y-227755000D02*
X113471346Y-229500000D01*
X86500000Y-232000000D02*
X89178274Y-232000000D01*
X111250000Y-227755000D02*
X111726346Y-227755000D01*
X89178274Y-232000000D02*
X93423274Y-227755000D01*
X113471346Y-229500000D02*
X113500000Y-229500000D01*
X93423274Y-227755000D02*
X111250000Y-227755000D01*
X116750000Y-234250000D02*
X116750000Y-232750000D01*
X120000000Y-229500000D02*
X120750000Y-229500000D01*
X116750000Y-232750000D02*
X120000000Y-229500000D01*
X111080000Y-241000000D02*
X121580000Y-230500000D01*
X121580000Y-230500000D02*
X123750000Y-230500000D01*
X106750000Y-241000000D02*
X111080000Y-241000000D01*
X91750000Y-247000000D02*
X107250000Y-247000000D01*
X107250000Y-247000000D02*
X120000000Y-234250000D01*
X86000000Y-241250000D02*
X91750000Y-247000000D01*
X475980685Y-271585000D02*
X414665000Y-271585000D01*
X130900000Y-242000000D02*
X131080000Y-241820000D01*
X135680001Y-273180000D02*
X130900000Y-268400000D01*
X131080000Y-238830000D02*
X131000000Y-238750000D01*
X404914999Y-273080000D02*
X337796801Y-273080000D01*
X414665000Y-271585000D02*
X413845000Y-272405000D01*
X482255686Y-265310000D02*
X475980685Y-271585000D01*
X405590000Y-272405000D02*
X404914999Y-273080000D01*
X413845000Y-272405000D02*
X405590000Y-272405000D01*
X130900000Y-268400000D02*
X130900000Y-242000000D01*
X337796801Y-273080000D02*
X336516801Y-271800000D01*
X131080000Y-241820000D02*
X131080000Y-238830000D01*
X518190000Y-265310000D02*
X482255686Y-265310000D01*
X336516801Y-271800000D02*
X225777100Y-271800000D01*
X538250000Y-245250000D02*
X518190000Y-265310000D01*
X224397100Y-273180000D02*
X135680001Y-273180000D01*
X225777100Y-271800000D02*
X224397100Y-273180000D01*
X404749314Y-272680000D02*
X405424314Y-272005000D01*
X131750000Y-238250000D02*
X131750000Y-241715686D01*
X405424314Y-272005000D02*
X413679314Y-272005000D01*
X336682486Y-271400000D02*
X337962486Y-272680000D01*
X135845687Y-272780000D02*
X224231415Y-272780000D01*
X413679314Y-272005000D02*
X414499314Y-271185000D01*
X475815000Y-271185000D02*
X482090000Y-264910000D01*
X482090000Y-264910000D02*
X512340000Y-264910000D01*
X414499314Y-271185000D02*
X475815000Y-271185000D01*
X224231415Y-272780000D02*
X225611415Y-271400000D01*
X131300000Y-242165686D02*
X131300000Y-268234314D01*
X131300000Y-268234314D02*
X135845687Y-272780000D01*
X337962486Y-272680000D02*
X404749314Y-272680000D01*
X512340000Y-264910000D02*
X532250000Y-245000000D01*
X131750000Y-241715686D02*
X131300000Y-242165686D01*
X225611415Y-271400000D02*
X336682486Y-271400000D01*
X131700000Y-243300000D02*
X132330000Y-242670000D01*
X413513628Y-271605000D02*
X405258628Y-271605000D01*
X404583628Y-272280000D02*
X338128171Y-272280000D01*
X225445729Y-271000000D02*
X224065729Y-272380000D01*
X405258628Y-271605000D02*
X404583628Y-272280000D01*
X414333628Y-270785000D02*
X413513628Y-271605000D01*
X481924314Y-264510000D02*
X475649314Y-270785000D01*
X526250000Y-245000000D02*
X526250000Y-245250000D01*
X132330000Y-237580000D02*
X132000000Y-237250000D01*
X136011373Y-272380000D02*
X131700000Y-268068628D01*
X475649314Y-270785000D02*
X414333628Y-270785000D01*
X336848171Y-271000000D02*
X225445729Y-271000000D01*
X506990000Y-264510000D02*
X481924314Y-264510000D01*
X338128171Y-272280000D02*
X336848171Y-271000000D01*
X131700000Y-268068628D02*
X131700000Y-243300000D01*
X526250000Y-245250000D02*
X506990000Y-264510000D01*
X132330000Y-242670000D02*
X132330000Y-237580000D01*
X224065729Y-272380000D02*
X136011373Y-272380000D01*
X171276710Y-257150000D02*
X176026710Y-261900000D01*
X163855488Y-257150000D02*
X171276710Y-257150000D01*
X155350000Y-245044467D02*
X155350000Y-248644512D01*
X227828425Y-254000000D02*
X230478425Y-251350000D01*
X267400000Y-251350000D02*
X274000000Y-244750000D01*
X144600000Y-234294467D02*
X155350000Y-245044467D01*
X213244114Y-261900000D02*
X221144114Y-254000000D01*
X176026710Y-261900000D02*
X213244114Y-261900000D01*
X155350000Y-248644512D02*
X163855488Y-257150000D01*
X143054234Y-227945766D02*
X144600000Y-229491532D01*
X142750000Y-223500000D02*
X142750000Y-226500000D01*
X144600000Y-229491532D02*
X144600000Y-234294467D01*
X143054234Y-226804234D02*
X143054234Y-227945766D01*
X221144114Y-254000000D02*
X227828425Y-254000000D01*
X230478425Y-251350000D02*
X267400000Y-251350000D01*
X142750000Y-226500000D02*
X143054234Y-226804234D01*
X171442396Y-256750000D02*
X164021174Y-256750000D01*
X155750000Y-248478823D02*
X155750000Y-244878781D01*
X220978429Y-253600000D02*
X213078429Y-261500000D01*
X227662740Y-253600000D02*
X220978429Y-253600000D01*
X230312742Y-250950000D02*
X227662740Y-253600000D01*
X145000000Y-234128781D02*
X145000000Y-229325846D01*
X155750000Y-244878781D02*
X145000000Y-234128781D01*
X145000000Y-229325846D02*
X143500000Y-227825846D01*
X262050000Y-250950000D02*
X230312742Y-250950000D01*
X213078429Y-261500000D02*
X176192396Y-261500000D01*
X176192396Y-261500000D02*
X171442396Y-256750000D01*
X143500000Y-227825846D02*
X143500000Y-226250000D01*
X164021174Y-256750000D02*
X155750000Y-248478823D01*
X268500000Y-244500000D02*
X262050000Y-250950000D01*
X145330000Y-223580000D02*
X145330000Y-227958788D01*
X212581370Y-260300000D02*
X220481371Y-252400000D01*
X227165685Y-252400000D02*
X229815685Y-249750000D01*
X164518232Y-255550000D02*
X171939454Y-255550000D01*
X146200000Y-232081372D02*
X156950000Y-242831372D01*
X171939454Y-255550000D02*
X176689454Y-260300000D01*
X145000000Y-223250000D02*
X145330000Y-223580000D01*
X156950000Y-247981767D02*
X164518232Y-255550000D01*
X229815685Y-249750000D02*
X240250000Y-249750000D01*
X220481371Y-252400000D02*
X227165685Y-252400000D01*
X156950000Y-242831372D02*
X156950000Y-247981767D01*
X145330000Y-227958788D02*
X146200000Y-228828790D01*
X146200000Y-228828790D02*
X146200000Y-232081372D01*
X240250000Y-249750000D02*
X245250000Y-244750000D01*
X176689454Y-260300000D02*
X212581370Y-260300000D01*
X353000000Y-246250000D02*
X344300000Y-254950000D01*
X151750000Y-246535640D02*
X140900000Y-235685640D01*
X174535536Y-265500000D02*
X169785536Y-260750000D01*
X229319595Y-257600000D02*
X222635288Y-257600000D01*
X214735288Y-265500000D02*
X174535536Y-265500000D01*
X151750000Y-250135683D02*
X151750000Y-246535640D01*
X162364314Y-260750000D02*
X151750000Y-250135683D01*
X138964359Y-229250001D02*
X138000001Y-229250001D01*
X137330000Y-226740244D02*
X137330000Y-223670000D01*
X137000000Y-228250000D02*
X137000000Y-227070244D01*
X137330000Y-223670000D02*
X137750000Y-223250000D01*
X169785536Y-260750000D02*
X162364314Y-260750000D01*
X140900000Y-231185645D02*
X138964359Y-229250001D01*
X344300000Y-254950000D02*
X231969599Y-254950000D01*
X138000001Y-229250001D02*
X137000000Y-228250000D01*
X140900000Y-235685640D02*
X140900000Y-231185645D01*
X231969599Y-254950000D02*
X229319595Y-257600000D01*
X222635288Y-257600000D02*
X214735288Y-265500000D01*
X137000000Y-227070244D02*
X137330000Y-226740244D01*
X141300000Y-235519954D02*
X152150000Y-246369954D01*
X222469602Y-257200000D02*
X229153910Y-257200000D01*
X137750000Y-227500000D02*
X137750000Y-228000000D01*
X214569599Y-265100000D02*
X222469602Y-257200000D01*
X231803913Y-254550000D02*
X337450000Y-254550000D01*
X141300000Y-231019960D02*
X141300000Y-235519954D01*
X162530000Y-260350000D02*
X169951222Y-260350000D01*
X138500000Y-228750000D02*
X139030040Y-228750000D01*
X229153910Y-257200000D02*
X231803913Y-254550000D01*
X174701222Y-265100000D02*
X214569599Y-265100000D01*
X152150000Y-249969998D02*
X162530000Y-260350000D01*
X139030040Y-228750000D02*
X141300000Y-231019960D01*
X169951222Y-260350000D02*
X174701222Y-265100000D01*
X137750000Y-228000000D02*
X138500000Y-228750000D01*
X337450000Y-254550000D02*
X347000000Y-245000000D01*
X152150000Y-246369954D02*
X152150000Y-249969998D01*
X170448280Y-259150000D02*
X163027058Y-259150000D01*
X321250000Y-245250000D02*
X313150000Y-253350000D01*
X228656855Y-256000000D02*
X221972544Y-256000000D01*
X142500000Y-235022897D02*
X142500000Y-230219958D01*
X175198280Y-263900000D02*
X170448280Y-259150000D01*
X142500000Y-230219958D02*
X139500000Y-227219958D01*
X139500000Y-227219958D02*
X139500000Y-223000000D01*
X153350000Y-249472940D02*
X153350000Y-245872897D01*
X139500000Y-223000000D02*
X138750000Y-222250000D01*
X153350000Y-245872897D02*
X142500000Y-235022897D01*
X231306855Y-253350000D02*
X228656855Y-256000000D01*
X313150000Y-253350000D02*
X231306855Y-253350000D01*
X221972544Y-256000000D02*
X214072544Y-263900000D01*
X214072544Y-263900000D02*
X175198280Y-263900000D01*
X163027058Y-259150000D02*
X153350000Y-249472940D01*
X163192744Y-258750000D02*
X170613966Y-258750000D01*
X153750000Y-249307255D02*
X163192744Y-258750000D01*
X143000000Y-230154273D02*
X143000000Y-234957211D01*
X228491165Y-255600000D02*
X231141169Y-252950000D01*
X143000000Y-234957211D02*
X153750000Y-245707211D01*
X221806858Y-255600000D02*
X228491165Y-255600000D01*
X140000000Y-227154273D02*
X143000000Y-230154273D01*
X140000000Y-222500000D02*
X140000000Y-227154273D01*
X307800000Y-252950000D02*
X315500000Y-245250000D01*
X170613966Y-258750000D02*
X175363966Y-263500000D01*
X213906854Y-263500000D02*
X221806858Y-255600000D01*
X175363966Y-263500000D02*
X213906854Y-263500000D01*
X231141169Y-252950000D02*
X307800000Y-252950000D01*
X153750000Y-245707211D02*
X153750000Y-249307255D01*
X213741169Y-263100000D02*
X221641172Y-255200000D01*
X170779652Y-258350000D02*
X175529652Y-263100000D01*
X143400000Y-229988588D02*
X143400000Y-234791525D01*
X140750000Y-227338587D02*
X143400000Y-229988588D01*
X154150000Y-245541525D02*
X154150000Y-249141569D01*
X143400000Y-234791525D02*
X154150000Y-245541525D01*
X230975483Y-252550000D02*
X302450000Y-252550000D01*
X175529652Y-263100000D02*
X213741169Y-263100000D01*
X221641172Y-255200000D02*
X228325480Y-255200000D01*
X228325480Y-255200000D02*
X230975483Y-252550000D01*
X302450000Y-252550000D02*
X309750000Y-245250000D01*
X163358430Y-258350000D02*
X170779652Y-258350000D01*
X140750000Y-226500000D02*
X140750000Y-227338587D01*
X154150000Y-249141569D02*
X163358430Y-258350000D01*
X169288478Y-261950000D02*
X174038478Y-266700000D01*
X229816654Y-258800000D02*
X232466655Y-256150000D01*
X135580000Y-227259756D02*
X135580000Y-229330000D01*
X135580000Y-229330000D02*
X136700000Y-230450000D01*
X385652942Y-246150000D02*
X408600000Y-246150000D01*
X138467302Y-230450000D02*
X139700000Y-231682700D01*
X150550000Y-247032698D02*
X150550000Y-250632743D01*
X139700000Y-231682700D02*
X139700000Y-236182698D01*
X232466655Y-256150000D02*
X375652941Y-256150000D01*
X134750000Y-226429756D02*
X135580000Y-227259756D01*
X223132346Y-258800000D02*
X229816654Y-258800000D01*
X134750000Y-223500000D02*
X134750000Y-226429756D01*
X408600000Y-246150000D02*
X410250000Y-244500000D01*
X150550000Y-250632743D02*
X161867256Y-261950000D01*
X136700000Y-230450000D02*
X138467302Y-230450000D01*
X139700000Y-236182698D02*
X150550000Y-247032698D01*
X161867256Y-261950000D02*
X169288478Y-261950000D01*
X375652941Y-256150000D02*
X385652942Y-246150000D01*
X215232343Y-266700000D02*
X223132346Y-258800000D01*
X174038478Y-266700000D02*
X215232343Y-266700000D01*
X416200000Y-246550000D02*
X418500000Y-244250000D01*
X170362742Y-264850000D02*
X172612744Y-267100000D01*
X215398032Y-267100000D02*
X223298032Y-259200000D01*
X150481372Y-264850000D02*
X170362742Y-264850000D01*
X135000000Y-227500000D02*
X135000000Y-229524192D01*
X172612744Y-267100000D02*
X215398032Y-267100000D01*
X148050000Y-262418628D02*
X150481372Y-264850000D01*
X148050000Y-245098385D02*
X148050000Y-262418628D01*
X229982339Y-259200000D02*
X232632340Y-256550000D01*
X139300000Y-231848385D02*
X139300000Y-236348384D01*
X138301616Y-230850000D02*
X139300000Y-231848385D01*
X232632340Y-256550000D02*
X375818628Y-256550000D01*
X135000000Y-229524192D02*
X136325808Y-230850000D01*
X136325808Y-230850000D02*
X138301616Y-230850000D01*
X139300000Y-236348384D02*
X148050000Y-245098385D01*
X385818628Y-246550000D02*
X416200000Y-246550000D01*
X375818628Y-256550000D02*
X385818628Y-246550000D01*
X223298032Y-259200000D02*
X229982339Y-259200000D01*
X134580000Y-229830000D02*
X134580000Y-228259756D01*
X147650000Y-245264070D02*
X138900000Y-236514070D01*
X170197056Y-265250000D02*
X150315686Y-265250000D01*
X136000000Y-231250000D02*
X134580000Y-229830000D01*
X427000000Y-244000000D02*
X424050000Y-246950000D01*
X385984314Y-246950000D02*
X375984314Y-256950000D01*
X150315686Y-265250000D02*
X147650000Y-262584314D01*
X232798025Y-256950000D02*
X230148024Y-259600000D01*
X375984314Y-256950000D02*
X232798025Y-256950000D01*
X138900000Y-236514070D02*
X138900000Y-232014070D01*
X134250000Y-227929756D02*
X134250000Y-227000000D01*
X215563717Y-267500000D02*
X172447058Y-267500000D01*
X138135930Y-231250000D02*
X136000000Y-231250000D01*
X147650000Y-262584314D02*
X147650000Y-245264070D01*
X424050000Y-246950000D02*
X385984314Y-246950000D01*
X172447058Y-267500000D02*
X170197056Y-265250000D01*
X138900000Y-232014070D02*
X138135930Y-231250000D01*
X223463718Y-259600000D02*
X215563717Y-267500000D01*
X230148024Y-259600000D02*
X223463718Y-259600000D01*
X134580000Y-228259756D02*
X134250000Y-227929756D01*
X147250000Y-245429756D02*
X138500000Y-236679756D01*
X215729402Y-267900000D02*
X172281372Y-267900000D01*
X232963710Y-257350000D02*
X230313709Y-260000000D01*
X223629403Y-260000000D02*
X215729402Y-267900000D01*
X147250000Y-262750000D02*
X147250000Y-245429756D01*
X386150000Y-247350000D02*
X376149999Y-257350000D01*
X138500000Y-232179756D02*
X137990244Y-231670000D01*
X431900000Y-247350000D02*
X386150000Y-247350000D01*
X435250000Y-244000000D02*
X431900000Y-247350000D01*
X150150000Y-265650000D02*
X147250000Y-262750000D01*
X230313709Y-260000000D02*
X223629403Y-260000000D01*
X137990244Y-231670000D02*
X135170000Y-231670000D01*
X170031371Y-265650000D02*
X150150000Y-265650000D01*
X134000000Y-230500000D02*
X134000000Y-228500000D01*
X135170000Y-231670000D02*
X134000000Y-230500000D01*
X172281372Y-267900000D02*
X170031371Y-265650000D01*
X138500000Y-236679756D02*
X138500000Y-232179756D01*
X376149999Y-257350000D02*
X232963710Y-257350000D01*
X138632987Y-230050000D02*
X137300000Y-230050000D01*
X215066658Y-266300000D02*
X174204164Y-266300000D01*
X229650969Y-258400000D02*
X222966660Y-258400000D01*
X385487256Y-245750000D02*
X375487256Y-255750000D01*
X140100000Y-231517015D02*
X138632987Y-230050000D01*
X402250000Y-238000000D02*
X394500000Y-245750000D01*
X140100000Y-236017012D02*
X140100000Y-231517015D01*
X232300970Y-255750000D02*
X229650969Y-258400000D01*
X174204164Y-266300000D02*
X169454164Y-261550000D01*
X150950000Y-246867012D02*
X140100000Y-236017012D01*
X137300000Y-230050000D02*
X135980000Y-228730000D01*
X222966660Y-258400000D02*
X215066658Y-266300000D01*
X135980000Y-226730000D02*
X135500000Y-226250000D01*
X169454164Y-261550000D02*
X162032942Y-261550000D01*
X135980000Y-228730000D02*
X135980000Y-226730000D01*
X375487256Y-255750000D02*
X232300970Y-255750000D01*
X394500000Y-245750000D02*
X385487256Y-245750000D01*
X162032942Y-261550000D02*
X150950000Y-250467057D01*
X150950000Y-250467057D02*
X150950000Y-246867012D01*
X120250000Y-241750000D02*
X111500000Y-250500000D01*
X111500000Y-250500000D02*
X109000000Y-250500000D01*
X135900000Y-277400000D02*
X400350000Y-277400000D01*
X401750000Y-276000000D02*
X401750000Y-275500000D01*
X400350000Y-277400000D02*
X401750000Y-276000000D01*
X130500000Y-272000000D02*
X135900000Y-277400000D01*
X130500000Y-239500000D02*
X130500000Y-272000000D01*
X139250000Y-253000000D02*
X145750000Y-253000000D01*
X145750000Y-253000000D02*
X145750000Y-244750000D01*
X122000000Y-240000000D02*
X121000000Y-241000000D01*
X121000000Y-260250000D02*
X116500000Y-264750000D01*
X121000000Y-241000000D02*
X121000000Y-260250000D01*
X108100000Y-258100000D02*
X108250000Y-258250000D01*
X145750000Y-222000000D02*
X143750000Y-220000000D01*
X127750000Y-220000000D02*
X124500000Y-223250000D01*
X124500000Y-230750000D02*
X108100000Y-247150000D01*
X143750000Y-220000000D02*
X127750000Y-220000000D01*
X124500000Y-223250000D02*
X124500000Y-230750000D01*
X108250000Y-258250000D02*
X108250000Y-264325000D01*
X108100000Y-247150000D02*
X108100000Y-258100000D01*
X476130000Y-263000000D02*
X496000000Y-263000000D01*
X413836570Y-269585001D02*
X469544999Y-269585001D01*
X404086571Y-271080000D02*
X404761570Y-270405001D01*
X223568674Y-271180000D02*
X224948674Y-269800000D01*
X132900000Y-267571570D02*
X136508430Y-271180000D01*
X338625226Y-271080000D02*
X404086571Y-271080000D01*
X337345226Y-269800000D02*
X338625226Y-271080000D01*
X136508430Y-271180000D02*
X223568674Y-271180000D01*
X497650000Y-261350000D02*
X497650000Y-242375000D01*
X134250000Y-242447058D02*
X132900000Y-243797058D01*
X413016571Y-270405000D02*
X413836570Y-269585001D01*
X496000000Y-263000000D02*
X497650000Y-261350000D01*
X224948674Y-269800000D02*
X337345226Y-269800000D01*
X404761570Y-270405001D02*
X413016571Y-270405000D01*
X497650000Y-242375000D02*
X496500000Y-241225000D01*
X134250000Y-237250000D02*
X134250000Y-242447058D01*
X469544999Y-269585001D02*
X476130000Y-263000000D01*
X132900000Y-243797058D02*
X132900000Y-267571570D01*
X507300000Y-240500000D02*
X509795584Y-242995584D01*
X132100000Y-267902942D02*
X132100000Y-243465686D01*
X502250000Y-264110000D02*
X481758628Y-264110000D01*
X338293856Y-271880000D02*
X337013856Y-270600000D01*
X475483628Y-270385000D02*
X414167942Y-270385000D01*
X136177059Y-271980000D02*
X132100000Y-267902942D01*
X404417941Y-271880000D02*
X338293856Y-271880000D01*
X223900044Y-271980000D02*
X136177059Y-271980000D01*
X481758628Y-264110000D02*
X475483628Y-270385000D01*
X132100000Y-243465686D02*
X133000000Y-242565686D01*
X337013856Y-270600000D02*
X225280044Y-270600000D01*
X405092943Y-271205000D02*
X404417941Y-271880000D01*
X414167942Y-270385000D02*
X413347943Y-271205000D01*
X225280044Y-270600000D02*
X223900044Y-271980000D01*
X509795584Y-256564416D02*
X502250000Y-264110000D01*
X133000000Y-242565686D02*
X133000000Y-237250000D01*
X413347943Y-271205000D02*
X405092943Y-271205000D01*
X509795584Y-242995584D02*
X509795584Y-256564416D01*
X132500000Y-267737256D02*
X136342745Y-271580000D01*
X414002256Y-269985001D02*
X475317941Y-269985001D01*
X413182257Y-270805000D02*
X414002256Y-269985001D01*
X223734359Y-271580000D02*
X225114359Y-270200000D01*
X475317941Y-269985001D02*
X481592943Y-263710000D01*
X133580000Y-242551372D02*
X132500000Y-243631372D01*
X404252256Y-271480000D02*
X404927256Y-270805001D01*
X481592943Y-263710000D02*
X496040000Y-263710000D01*
X337179541Y-270200000D02*
X338459541Y-271480000D01*
X133580000Y-236830000D02*
X133580000Y-242551372D01*
X496040000Y-263710000D02*
X507300000Y-252450000D01*
X507300000Y-252450000D02*
X507300000Y-245580000D01*
X133000000Y-236250000D02*
X133580000Y-236830000D01*
X225114359Y-270200000D02*
X337179541Y-270200000D01*
X136342745Y-271580000D02*
X223734359Y-271580000D01*
X338459541Y-271480000D02*
X404252256Y-271480000D01*
X404927256Y-270805001D02*
X413182257Y-270805000D01*
X132500000Y-243631372D02*
X132500000Y-267737256D01*
X123000000Y-228500000D02*
X122920000Y-228420000D01*
X119580000Y-228420000D02*
X113500000Y-234500000D01*
X113500000Y-234500000D02*
X99300000Y-234500000D01*
X122920000Y-228420000D02*
X119580000Y-228420000D01*
X99300000Y-234500000D02*
X93300000Y-240500000D01*
X122000000Y-229000000D02*
X121920000Y-228920000D01*
X93500000Y-245500000D02*
X93300000Y-245500000D01*
X102800000Y-236200000D02*
X93500000Y-245500000D01*
X121920000Y-228920000D02*
X120014314Y-228920000D01*
X120014314Y-228920000D02*
X112750000Y-236184314D01*
X112750000Y-236200000D02*
X102800000Y-236200000D01*
X112750000Y-236184314D02*
X112750000Y-236200000D01*
X142100000Y-235188583D02*
X152950000Y-246038583D01*
X152950000Y-249638626D02*
X162861372Y-259550000D01*
X139080000Y-226009756D02*
X139080000Y-227365644D01*
X222138230Y-256400000D02*
X228822540Y-256400000D01*
X142100000Y-230385644D02*
X142100000Y-235188583D01*
X175032594Y-264300000D02*
X214238229Y-264300000D01*
X316850000Y-253750000D02*
X329300000Y-241300000D01*
X138750000Y-225679756D02*
X139080000Y-226009756D01*
X231472541Y-253750000D02*
X316850000Y-253750000D01*
X329300000Y-241300000D02*
X329300000Y-240500000D01*
X162861372Y-259550000D02*
X170282594Y-259550000D01*
X138750000Y-223250000D02*
X138750000Y-225679756D01*
X170282594Y-259550000D02*
X175032594Y-264300000D01*
X228822540Y-256400000D02*
X231472541Y-253750000D01*
X139080000Y-227365644D02*
X142100000Y-230385644D01*
X214238229Y-264300000D02*
X222138230Y-256400000D01*
X152950000Y-246038583D02*
X152950000Y-249638626D01*
X162695686Y-259950000D02*
X170116908Y-259950000D01*
X231638227Y-254150000D02*
X325785000Y-254150000D01*
X325785000Y-254150000D02*
X329300000Y-250635000D01*
X228988225Y-256800000D02*
X231638227Y-254150000D01*
X174866908Y-264700000D02*
X214403914Y-264700000D01*
X214403914Y-264700000D02*
X222303916Y-256800000D01*
X138500000Y-226500000D02*
X138500000Y-227500000D01*
X222303916Y-256800000D02*
X228988225Y-256800000D01*
X141700000Y-235354269D02*
X152550000Y-246204269D01*
X152550000Y-249804312D02*
X162695686Y-259950000D01*
X141700000Y-230700000D02*
X141700000Y-235354269D01*
X138500000Y-227500000D02*
X141700000Y-230700000D01*
X152550000Y-246204269D02*
X152550000Y-249804312D01*
X329300000Y-250635000D02*
X329300000Y-245580000D01*
X170116908Y-259950000D02*
X174866908Y-264700000D01*
X233129396Y-257750000D02*
X230479394Y-260400000D01*
X380050000Y-257750000D02*
X233129396Y-257750000D01*
X230479394Y-260400000D02*
X223795089Y-260400000D01*
X172115686Y-268300000D02*
X169865686Y-266050000D01*
X144615686Y-266050000D02*
X137900000Y-259334314D01*
X169865686Y-266050000D02*
X144615686Y-266050000D01*
X137900000Y-259334314D02*
X137900000Y-233400000D01*
X215895087Y-268300000D02*
X172115686Y-268300000D01*
X137900000Y-233400000D02*
X137750000Y-233250000D01*
X385550000Y-252250000D02*
X380050000Y-257750000D01*
X223795089Y-260400000D02*
X215895087Y-268300000D01*
X169700000Y-266450000D02*
X171950000Y-268700000D01*
X137500000Y-259500000D02*
X144450000Y-266450000D01*
X216060773Y-268700000D02*
X223960775Y-260800000D01*
X137500000Y-234000000D02*
X137500000Y-259500000D01*
X144450000Y-266450000D02*
X169700000Y-266450000D01*
X171950000Y-268700000D02*
X216060773Y-268700000D01*
X230645080Y-260800000D02*
X233295082Y-258150000D01*
X223960775Y-260800000D02*
X230645080Y-260800000D01*
X233295082Y-258150000D02*
X384730000Y-258150000D01*
X136750000Y-233250000D02*
X137500000Y-234000000D01*
X384730000Y-258150000D02*
X385550000Y-257330000D01*
X385550000Y-257330000D02*
X385550000Y-257250000D01*
X145800000Y-232247057D02*
X145800000Y-228994475D01*
X252300000Y-241300000D02*
X243450000Y-250150000D01*
X156550000Y-248147452D02*
X156550000Y-242997058D01*
X252300000Y-240500000D02*
X252300000Y-241300000D01*
X227331370Y-252800000D02*
X220647057Y-252800000D01*
X156550000Y-242997058D02*
X145800000Y-232247057D01*
X145800000Y-228994475D02*
X144750000Y-227944474D01*
X220647057Y-252800000D02*
X212747055Y-260700000D01*
X229981370Y-250150000D02*
X227331370Y-252800000D01*
X212747055Y-260700000D02*
X176523768Y-260700000D01*
X171773768Y-255950000D02*
X164352546Y-255950000D01*
X243450000Y-250150000D02*
X229981370Y-250150000D01*
X176523768Y-260700000D02*
X171773768Y-255950000D01*
X164352546Y-255950000D02*
X156550000Y-248147452D01*
X144750000Y-227944474D02*
X144750000Y-226500000D01*
X156150000Y-243162744D02*
X156150000Y-248313138D01*
X164186860Y-256350000D02*
X171608082Y-256350000D01*
X249035000Y-250550000D02*
X252300000Y-247285000D01*
X144000000Y-223500000D02*
X144119920Y-223619920D01*
X227497055Y-253200000D02*
X230147056Y-250550000D01*
X176358082Y-261100000D02*
X212912740Y-261100000D01*
X144119920Y-223619920D02*
X144119920Y-227880080D01*
X230147056Y-250550000D02*
X249035000Y-250550000D01*
X145400000Y-232412743D02*
X156150000Y-243162744D01*
X252300000Y-247285000D02*
X252300000Y-245580000D01*
X145400000Y-229160161D02*
X145400000Y-232412743D01*
X220812743Y-253200000D02*
X227497055Y-253200000D01*
X212912740Y-261100000D02*
X220812743Y-253200000D01*
X171608082Y-256350000D02*
X176358082Y-261100000D01*
X156150000Y-248313138D02*
X164186860Y-256350000D01*
X144119920Y-227880080D02*
X145400000Y-229160161D01*
M02*
