G04 #@! TF.GenerationSoftware,KiCad,Pcbnew,7.0.9*
G04 #@! TF.CreationDate,2024-04-05T10:46:58+01:00*
G04 #@! TF.ProjectId,mcpElectronicsv2,6d637045-6c65-4637-9472-6f6e69637376,rev?*
G04 #@! TF.SameCoordinates,Original*
G04 #@! TF.FileFunction,Soldermask,Top*
G04 #@! TF.FilePolarity,Negative*
%FSLAX46Y46*%
G04 Gerber Fmt 4.6, Leading zero omitted, Abs format (unit mm)*
G04 Created by KiCad (PCBNEW 7.0.9) date 2024-04-05 10:46:58*
%MOMM*%
%LPD*%
G01*
G04 APERTURE LIST*
G04 Aperture macros list*
%AMRoundRect*
0 Rectangle with rounded corners*
0 $1 Rounding radius*
0 $2 $3 $4 $5 $6 $7 $8 $9 X,Y pos of 4 corners*
0 Add a 4 corners polygon primitive as box body*
4,1,4,$2,$3,$4,$5,$6,$7,$8,$9,$2,$3,0*
0 Add four circle primitives for the rounded corners*
1,1,$1+$1,$2,$3*
1,1,$1+$1,$4,$5*
1,1,$1+$1,$6,$7*
1,1,$1+$1,$8,$9*
0 Add four rect primitives between the rounded corners*
20,1,$1+$1,$2,$3,$4,$5,0*
20,1,$1+$1,$4,$5,$6,$7,0*
20,1,$1+$1,$6,$7,$8,$9,0*
20,1,$1+$1,$8,$9,$2,$3,0*%
G04 Aperture macros list end*
%ADD10R,1.700000X1.700000*%
%ADD11O,1.700000X1.700000*%
%ADD12RoundRect,0.135000X-0.185000X0.135000X-0.185000X-0.135000X0.185000X-0.135000X0.185000X0.135000X0*%
%ADD13RoundRect,0.135000X0.135000X0.185000X-0.135000X0.185000X-0.135000X-0.185000X0.135000X-0.185000X0*%
%ADD14RoundRect,0.140000X0.170000X-0.140000X0.170000X0.140000X-0.170000X0.140000X-0.170000X-0.140000X0*%
%ADD15C,2.000000*%
%ADD16RoundRect,0.135000X-0.135000X-0.185000X0.135000X-0.185000X0.135000X0.185000X-0.135000X0.185000X0*%
%ADD17RoundRect,0.135000X0.185000X-0.135000X0.185000X0.135000X-0.185000X0.135000X-0.185000X-0.135000X0*%
%ADD18RoundRect,0.140000X0.140000X0.170000X-0.140000X0.170000X-0.140000X-0.170000X0.140000X-0.170000X0*%
%ADD19R,1.050000X1.500000*%
%ADD20O,1.050000X1.500000*%
%ADD21RoundRect,0.140000X-0.170000X0.140000X-0.170000X-0.140000X0.170000X-0.140000X0.170000X0.140000X0*%
%ADD22RoundRect,0.140000X-0.140000X-0.170000X0.140000X-0.170000X0.140000X0.170000X-0.140000X0.170000X0*%
%ADD23R,1.500000X1.050000*%
%ADD24O,1.500000X1.050000*%
%ADD25R,1.905000X2.000000*%
%ADD26O,1.905000X2.000000*%
%ADD27C,1.600000*%
%ADD28R,2.000000X4.000000*%
%ADD29O,2.000000X3.300000*%
%ADD30O,3.500000X2.000000*%
%ADD31C,7.600000*%
%ADD32RoundRect,0.075000X0.662500X0.075000X-0.662500X0.075000X-0.662500X-0.075000X0.662500X-0.075000X0*%
%ADD33RoundRect,0.075000X0.075000X0.662500X-0.075000X0.662500X-0.075000X-0.662500X0.075000X-0.662500X0*%
%ADD34R,1.600000X1.600000*%
%ADD35RoundRect,0.225000X-0.225000X-0.250000X0.225000X-0.250000X0.225000X0.250000X-0.225000X0.250000X0*%
%ADD36O,1.600000X1.600000*%
%ADD37C,0.650000*%
%ADD38R,1.450000X0.600000*%
%ADD39R,1.450000X0.300000*%
%ADD40O,2.100000X1.000000*%
%ADD41O,1.600000X1.000000*%
%ADD42RoundRect,0.225000X0.250000X-0.225000X0.250000X0.225000X-0.250000X0.225000X-0.250000X-0.225000X0*%
%ADD43RoundRect,0.147500X-0.147500X-0.172500X0.147500X-0.172500X0.147500X0.172500X-0.147500X0.172500X0*%
G04 APERTURE END LIST*
G36*
X433770473Y-256420567D02*
G01*
X434436154Y-256427339D01*
X434541243Y-256865489D01*
X434646331Y-257303639D01*
X434440711Y-257299271D01*
X434352658Y-257296826D01*
X434224996Y-257292510D01*
X434068867Y-257286738D01*
X433895411Y-257279926D01*
X433715770Y-257272489D01*
X433669942Y-257270526D01*
X433104792Y-257246149D01*
X433104792Y-256829972D01*
X433104792Y-256413795D01*
X433770473Y-256420567D01*
G37*
G36*
X432794273Y-256826972D02*
G01*
X432787292Y-257240139D01*
X432203092Y-257269329D01*
X431957534Y-257281414D01*
X431757983Y-257290642D01*
X431599723Y-257296962D01*
X431478039Y-257300325D01*
X431388215Y-257300679D01*
X431325534Y-257297975D01*
X431285283Y-257292162D01*
X431262744Y-257283190D01*
X431253203Y-257271009D01*
X431251752Y-257259189D01*
X431257988Y-257220147D01*
X431274446Y-257141369D01*
X431299000Y-257032395D01*
X431329526Y-256902765D01*
X431349335Y-256821039D01*
X431445758Y-256427339D01*
X432123506Y-256420572D01*
X432801254Y-256413806D01*
X432794273Y-256826972D01*
G37*
G36*
X435482288Y-256803557D02*
G01*
X435537942Y-256942035D01*
X435586717Y-257063786D01*
X435625566Y-257161172D01*
X435651442Y-257226552D01*
X435661273Y-257252201D01*
X435645890Y-257274769D01*
X435602192Y-257319319D01*
X435556151Y-257361477D01*
X435447248Y-257457416D01*
X435381194Y-257272577D01*
X435290914Y-257017350D01*
X435218115Y-256805883D01*
X435163020Y-256638881D01*
X435125855Y-256517052D01*
X435106848Y-256441103D01*
X435105983Y-256411925D01*
X435141233Y-256397751D01*
X435204212Y-256383869D01*
X435215588Y-256382052D01*
X435307085Y-256368250D01*
X435482288Y-256803557D01*
G37*
G36*
X430665020Y-256382251D02*
G01*
X430729961Y-256395471D01*
X430770804Y-256410042D01*
X430773409Y-256411934D01*
X430770036Y-256438503D01*
X430752688Y-256504310D01*
X430724215Y-256600660D01*
X430687465Y-256718860D01*
X430645287Y-256850213D01*
X430600533Y-256986026D01*
X430556051Y-257117604D01*
X430514690Y-257236251D01*
X430479299Y-257333274D01*
X430452730Y-257399978D01*
X430442758Y-257420862D01*
X430422409Y-257433598D01*
X430386728Y-257414354D01*
X430328764Y-257359838D01*
X430275686Y-257301260D01*
X430241443Y-257255371D01*
X430234398Y-257239068D01*
X430243417Y-257208683D01*
X430268576Y-257139264D01*
X430306831Y-257038815D01*
X430355139Y-256915341D01*
X430404476Y-256791693D01*
X430574748Y-256368648D01*
X430665020Y-256382251D01*
G37*
G36*
X435134685Y-256961453D02*
G01*
X435187774Y-257118345D01*
X435234141Y-257258476D01*
X435271596Y-257374962D01*
X435297946Y-257460918D01*
X435311000Y-257509459D01*
X435311761Y-257517680D01*
X435285296Y-257513373D01*
X435223678Y-257493608D01*
X435138720Y-257462282D01*
X435111392Y-257451587D01*
X435019216Y-257413477D01*
X434945066Y-257379908D01*
X434902053Y-257356898D01*
X434897742Y-257353540D01*
X434884651Y-257322457D01*
X434862043Y-257248957D01*
X434831781Y-257140133D01*
X434795725Y-257003079D01*
X434755736Y-256844887D01*
X434713676Y-256672650D01*
X434671404Y-256493460D01*
X434666397Y-256471789D01*
X434662466Y-256439755D01*
X434676903Y-256422663D01*
X434720658Y-256415847D01*
X434800482Y-256414639D01*
X434947741Y-256414639D01*
X435134685Y-256961453D01*
G37*
G36*
X431164901Y-256415939D02*
G01*
X431207662Y-256422756D01*
X431221142Y-256439761D01*
X431216096Y-256471535D01*
X431216030Y-256471789D01*
X431205161Y-256515528D01*
X431185066Y-256598741D01*
X431158131Y-256711449D01*
X431126748Y-256843671D01*
X431108093Y-256922639D01*
X431074669Y-257058882D01*
X431042884Y-257178535D01*
X431015367Y-257272413D01*
X430994748Y-257331332D01*
X430986867Y-257345995D01*
X430950078Y-257370128D01*
X430880815Y-257404972D01*
X430794021Y-257443013D01*
X430793392Y-257443271D01*
X430706220Y-257479027D01*
X430635637Y-257508074D01*
X430596764Y-257524189D01*
X430596542Y-257524283D01*
X430567700Y-257524017D01*
X430564339Y-257515906D01*
X430572104Y-257486540D01*
X430594106Y-257416305D01*
X430628002Y-257312351D01*
X430671445Y-257181827D01*
X430722092Y-257031882D01*
X430748489Y-256954477D01*
X430933092Y-256414816D01*
X431082104Y-256414727D01*
X431164901Y-256415939D01*
G37*
G36*
X430856570Y-255102900D02*
G01*
X430893336Y-255134931D01*
X430885065Y-255186067D01*
X430831396Y-255256988D01*
X430731964Y-255348369D01*
X430719397Y-255358734D01*
X430459985Y-255593787D01*
X430215939Y-255859320D01*
X429993856Y-256146049D01*
X429800335Y-256444691D01*
X429641975Y-256745963D01*
X429526559Y-257036939D01*
X429433701Y-257402544D01*
X429390128Y-257777234D01*
X429395830Y-258157826D01*
X429450794Y-258541140D01*
X429532983Y-258856418D01*
X429553688Y-258938451D01*
X429551685Y-258986691D01*
X429541602Y-259002468D01*
X429490922Y-259029570D01*
X429444689Y-259006645D01*
X429409721Y-258947364D01*
X429365994Y-258821200D01*
X429323547Y-258660146D01*
X429285838Y-258480064D01*
X429256324Y-258296816D01*
X429243108Y-258182839D01*
X429233024Y-257809768D01*
X429272744Y-257437486D01*
X429361300Y-257068460D01*
X429497721Y-256705152D01*
X429681041Y-256350027D01*
X429910289Y-256005548D01*
X430184498Y-255674181D01*
X430261593Y-255591979D01*
X430421901Y-255429818D01*
X430561770Y-255297737D01*
X430678693Y-255197800D01*
X430770159Y-255132068D01*
X430833660Y-255102604D01*
X430856570Y-255102900D01*
G37*
G36*
X435115967Y-255136861D02*
G01*
X435194263Y-255190998D01*
X435275282Y-255259152D01*
X435379638Y-255354838D01*
X435496878Y-255467656D01*
X435616551Y-255587203D01*
X435728205Y-255703078D01*
X435821388Y-255804880D01*
X435875089Y-255868539D01*
X436121130Y-256216664D01*
X436324967Y-256583970D01*
X436483789Y-256964618D01*
X436594785Y-257352769D01*
X436599196Y-257373047D01*
X436620073Y-257508615D01*
X436634163Y-257678666D01*
X436641262Y-257867310D01*
X436641164Y-258058658D01*
X436633664Y-258236820D01*
X436618555Y-258385909D01*
X436612757Y-258421239D01*
X436589163Y-258535606D01*
X436559540Y-258658922D01*
X436527267Y-258779168D01*
X436495726Y-258884323D01*
X436468297Y-258962369D01*
X436450238Y-258999089D01*
X436404967Y-259028498D01*
X436359218Y-259018522D01*
X436339247Y-258991359D01*
X436339118Y-258951117D01*
X436351017Y-258874703D01*
X436372698Y-258774694D01*
X436390269Y-258705609D01*
X436468692Y-258321769D01*
X436496573Y-257942546D01*
X436473998Y-257568335D01*
X436401049Y-257199531D01*
X436277810Y-256836530D01*
X436104364Y-256479727D01*
X435880796Y-256129517D01*
X435831397Y-256062069D01*
X435695461Y-255892861D01*
X435537147Y-255716052D01*
X435370599Y-255546413D01*
X435209956Y-255398715D01*
X435143142Y-255343169D01*
X435057305Y-255268276D01*
X435002297Y-255206544D01*
X434984392Y-255167054D01*
X434999322Y-255116261D01*
X435043491Y-255106232D01*
X435115967Y-255136861D01*
G37*
G36*
X422126300Y-260171246D02*
G01*
X422297588Y-260202122D01*
X422360592Y-260221033D01*
X422622531Y-260338551D01*
X422871099Y-260499970D01*
X423100875Y-260699014D01*
X423306439Y-260929409D01*
X423482372Y-261184881D01*
X423623252Y-261459156D01*
X423723661Y-261745959D01*
X423742123Y-261820283D01*
X423771568Y-262009485D01*
X423781569Y-262220005D01*
X423773212Y-262437606D01*
X423747582Y-262648047D01*
X423705767Y-262837092D01*
X423653625Y-262980539D01*
X423548941Y-263148300D01*
X423403734Y-263290238D01*
X423217049Y-263406856D01*
X422987931Y-263498658D01*
X422715426Y-263566147D01*
X422474892Y-263601922D01*
X422343127Y-263612507D01*
X422174227Y-263619644D01*
X421981736Y-263623347D01*
X421779201Y-263623630D01*
X421580166Y-263620505D01*
X421398179Y-263613986D01*
X421246785Y-263604086D01*
X421211341Y-263600670D01*
X420925861Y-263555600D01*
X420674091Y-263485134D01*
X420458857Y-263390753D01*
X420282990Y-263273937D01*
X420149315Y-263136164D01*
X420071110Y-263003984D01*
X420013194Y-262832380D01*
X419972661Y-262626948D01*
X419950337Y-262401883D01*
X419947047Y-262171381D01*
X419963617Y-261949639D01*
X419998751Y-261759052D01*
X420094443Y-261474124D01*
X420230643Y-261201517D01*
X420401843Y-260947386D01*
X420602532Y-260717885D01*
X420827200Y-260519170D01*
X421070335Y-260357395D01*
X421326428Y-260238715D01*
X421374925Y-260221929D01*
X421538968Y-260183161D01*
X421730123Y-260161781D01*
X421931523Y-260157804D01*
X422126300Y-260171246D01*
G37*
G36*
X444147979Y-260163440D02*
G01*
X444258943Y-260168883D01*
X444349388Y-260180624D01*
X444434417Y-260200445D01*
X444504458Y-260221929D01*
X444762176Y-260331847D01*
X445008117Y-260485948D01*
X445236694Y-260677998D01*
X445442322Y-260901758D01*
X445619413Y-261150992D01*
X445762382Y-261419462D01*
X445865643Y-261700933D01*
X445881243Y-261759052D01*
X445910308Y-261919543D01*
X445927413Y-262111841D01*
X445932108Y-262318276D01*
X445923944Y-262521175D01*
X445904867Y-262688439D01*
X445849349Y-262905017D01*
X445756576Y-263090641D01*
X445625085Y-263246649D01*
X445453415Y-263374380D01*
X445240103Y-263475174D01*
X444983688Y-263550370D01*
X444957727Y-263556082D01*
X444861489Y-263574205D01*
X444756903Y-263588240D01*
X444635005Y-263598837D01*
X444486829Y-263606651D01*
X444303411Y-263612334D01*
X444141092Y-263615528D01*
X443960666Y-263617309D01*
X443785306Y-263616880D01*
X443625470Y-263614430D01*
X443491618Y-263610147D01*
X443394208Y-263604219D01*
X443369444Y-263601640D01*
X443072931Y-263551089D01*
X442820633Y-263478238D01*
X442610270Y-263381250D01*
X442439560Y-263258291D01*
X442306223Y-263107522D01*
X442207977Y-262927108D01*
X442142541Y-262715211D01*
X442121401Y-262596788D01*
X442097806Y-262259551D01*
X442123636Y-261932869D01*
X442198243Y-261618753D01*
X442320977Y-261319210D01*
X442491187Y-261036249D01*
X442708225Y-260771879D01*
X442713442Y-260766371D01*
X442902318Y-260583319D01*
X443087656Y-260438984D01*
X443282999Y-260324243D01*
X443501890Y-260229970D01*
X443518792Y-260223775D01*
X443600404Y-260197082D01*
X443679398Y-260179397D01*
X443769948Y-260168921D01*
X443886229Y-260163854D01*
X444001392Y-260162509D01*
X444147979Y-260163440D01*
G37*
G36*
X433224584Y-257300563D02*
G01*
X433519220Y-257362334D01*
X433800674Y-257466925D01*
X434062222Y-257614340D01*
X434087548Y-257631805D01*
X434311226Y-257819024D01*
X434496273Y-258038446D01*
X434641386Y-258287816D01*
X434745257Y-258564877D01*
X434806582Y-258867373D01*
X434807736Y-258876694D01*
X434820428Y-259176698D01*
X434789624Y-259486434D01*
X434718756Y-259798454D01*
X434611255Y-260105306D01*
X434470553Y-260399540D01*
X434300079Y-260673706D01*
X434103267Y-260920354D01*
X433883546Y-261132033D01*
X433709740Y-261260795D01*
X433542208Y-261359308D01*
X433384940Y-261425676D01*
X433219644Y-261465541D01*
X433028029Y-261484545D01*
X432977792Y-261486575D01*
X432844485Y-261488886D01*
X432743713Y-261484492D01*
X432657419Y-261471283D01*
X432567547Y-261447151D01*
X432526177Y-261433844D01*
X432288576Y-261329698D01*
X432059932Y-261180016D01*
X431844486Y-260989845D01*
X431646480Y-260764230D01*
X431470157Y-260508216D01*
X431319758Y-260226850D01*
X431199526Y-259925177D01*
X431165132Y-259814954D01*
X431091777Y-259487451D01*
X431062787Y-259169080D01*
X431063556Y-259152696D01*
X431169680Y-259152696D01*
X431194756Y-259453494D01*
X431261008Y-259762452D01*
X431369283Y-260075917D01*
X431453832Y-260262739D01*
X431599552Y-260519426D01*
X431769865Y-260753007D01*
X431959158Y-260958248D01*
X432161819Y-261129916D01*
X432372238Y-261262776D01*
X432584802Y-261351597D01*
X432637043Y-261366163D01*
X432750393Y-261382695D01*
X432893934Y-261386839D01*
X433049996Y-261379727D01*
X433200907Y-261362493D01*
X433328998Y-261336270D01*
X433383679Y-261318282D01*
X433622811Y-261195606D01*
X433847287Y-261029216D01*
X434053554Y-260824970D01*
X434238057Y-260588726D01*
X434397242Y-260326342D01*
X434527557Y-260043675D01*
X434625448Y-259746584D01*
X434687359Y-259440927D01*
X434709739Y-259132562D01*
X434709739Y-259132439D01*
X434696062Y-258844853D01*
X434650218Y-258591077D01*
X434569215Y-258363335D01*
X434450061Y-258153848D01*
X434289762Y-257954841D01*
X434234475Y-257897297D01*
X434121599Y-257789035D01*
X434023245Y-257708662D01*
X433922795Y-257643931D01*
X433814565Y-257587819D01*
X433640196Y-257509756D01*
X433484977Y-257455234D01*
X433332089Y-257420566D01*
X433164716Y-257402064D01*
X432966041Y-257396040D01*
X432939692Y-257395980D01*
X432734776Y-257400894D01*
X432563349Y-257418020D01*
X432408835Y-257450936D01*
X432254662Y-257503222D01*
X432084256Y-257578454D01*
X432075849Y-257582480D01*
X431836434Y-257723863D01*
X431632261Y-257898979D01*
X431464176Y-258104176D01*
X431333028Y-258335799D01*
X431239664Y-258590196D01*
X431184932Y-258863713D01*
X431169680Y-259152696D01*
X431063556Y-259152696D01*
X431077131Y-258863447D01*
X431133777Y-258574160D01*
X431231694Y-258304824D01*
X431369851Y-258059045D01*
X431547216Y-257840429D01*
X431762758Y-257652583D01*
X431788982Y-257633793D01*
X432048682Y-257481555D01*
X432328815Y-257372107D01*
X432622658Y-257305455D01*
X432923489Y-257281605D01*
X433224584Y-257300563D01*
G37*
G36*
X433024800Y-240380152D02*
G01*
X433115707Y-240437727D01*
X433136897Y-240456588D01*
X433172060Y-240490191D01*
X433201446Y-240521440D01*
X433225659Y-240555050D01*
X433245304Y-240595737D01*
X433260986Y-240648216D01*
X433273308Y-240717201D01*
X433282877Y-240807410D01*
X433290295Y-240923556D01*
X433296169Y-241070355D01*
X433301101Y-241252523D01*
X433305698Y-241474775D01*
X433310563Y-241741826D01*
X433312003Y-241822339D01*
X433314587Y-241966522D01*
X433318024Y-242158255D01*
X433322255Y-242394294D01*
X433327223Y-242671397D01*
X433332869Y-242986321D01*
X433339134Y-243335824D01*
X433345962Y-243716663D01*
X433353293Y-244125595D01*
X433361070Y-244559377D01*
X433369234Y-245014768D01*
X433377728Y-245488523D01*
X433386492Y-245977401D01*
X433395470Y-246478160D01*
X433404603Y-246987555D01*
X433413833Y-247502345D01*
X433421291Y-247918339D01*
X433430392Y-248423878D01*
X433439399Y-248920201D01*
X433448259Y-249404545D01*
X433456920Y-249874146D01*
X433465327Y-250326242D01*
X433473428Y-250758070D01*
X433481169Y-251166869D01*
X433488498Y-251549874D01*
X433495361Y-251904323D01*
X433501704Y-252227453D01*
X433507476Y-252516503D01*
X433512622Y-252768708D01*
X433517089Y-252981307D01*
X433520825Y-253151537D01*
X433523776Y-253276634D01*
X433525888Y-253353837D01*
X433525969Y-253356327D01*
X433541844Y-253841315D01*
X433799568Y-253886336D01*
X434180263Y-253970980D01*
X434553585Y-254088997D01*
X434909190Y-254236147D01*
X435236736Y-254408189D01*
X435505652Y-254585732D01*
X435633213Y-254680342D01*
X436153352Y-254633617D01*
X436230791Y-254626656D01*
X436356106Y-254615386D01*
X436526579Y-254600050D01*
X436739491Y-254580895D01*
X436992123Y-254558164D01*
X437281756Y-254532102D01*
X437605673Y-254502954D01*
X437961153Y-254470964D01*
X438345478Y-254436378D01*
X438755929Y-254399439D01*
X439189787Y-254360393D01*
X439644334Y-254319484D01*
X440116851Y-254276957D01*
X440604619Y-254233056D01*
X441104919Y-254188027D01*
X441615032Y-254142113D01*
X441778892Y-254127364D01*
X442386915Y-254072629D01*
X442946406Y-254022276D01*
X443459431Y-253976167D01*
X443928054Y-253934163D01*
X444354341Y-253896127D01*
X444740359Y-253861918D01*
X445088173Y-253831400D01*
X445399849Y-253804434D01*
X445677452Y-253780880D01*
X445923048Y-253760600D01*
X446138704Y-253743456D01*
X446326484Y-253729309D01*
X446488455Y-253718021D01*
X446626682Y-253709453D01*
X446743231Y-253703466D01*
X446840168Y-253699923D01*
X446919558Y-253698684D01*
X446983468Y-253699611D01*
X447033962Y-253702565D01*
X447073107Y-253707408D01*
X447102969Y-253714002D01*
X447125612Y-253722207D01*
X447143104Y-253731886D01*
X447157509Y-253742899D01*
X447170894Y-253755108D01*
X447181567Y-253765023D01*
X447224403Y-253830933D01*
X447221869Y-253904661D01*
X447177854Y-253981608D01*
X447096248Y-254057176D01*
X446980941Y-254126767D01*
X446835822Y-254185781D01*
X446821871Y-254190278D01*
X446702279Y-254225303D01*
X446550065Y-254265044D01*
X446364312Y-254309671D01*
X446144104Y-254359356D01*
X445888524Y-254414267D01*
X445596655Y-254474576D01*
X445267581Y-254540452D01*
X444900385Y-254612065D01*
X444494151Y-254689586D01*
X444047960Y-254773185D01*
X443560898Y-254863032D01*
X443032047Y-254959298D01*
X442460490Y-255062151D01*
X441845311Y-255171764D01*
X441185593Y-255288305D01*
X440480420Y-255411945D01*
X439728875Y-255542854D01*
X438930040Y-255681202D01*
X438083000Y-255827160D01*
X437186837Y-255980898D01*
X437054492Y-256003550D01*
X436942438Y-256022830D01*
X436866411Y-256041305D01*
X436823293Y-256067228D01*
X436809965Y-256108852D01*
X436823308Y-256174428D01*
X436860205Y-256272211D01*
X436908763Y-256389239D01*
X437011769Y-256672868D01*
X437101765Y-256992269D01*
X437174834Y-257333236D01*
X437185327Y-257392539D01*
X437206372Y-257556775D01*
X437221097Y-257758698D01*
X437229504Y-257985589D01*
X437231594Y-258224729D01*
X437227368Y-258463400D01*
X437216828Y-258688882D01*
X437199976Y-258888458D01*
X437185137Y-259001462D01*
X437168306Y-259116596D01*
X437156820Y-259212417D01*
X437151771Y-259278391D01*
X437153753Y-259303666D01*
X437180461Y-259305669D01*
X437254837Y-259307989D01*
X437373750Y-259310587D01*
X437534068Y-259313424D01*
X437732662Y-259316459D01*
X437966399Y-259319654D01*
X438232148Y-259322968D01*
X438526780Y-259326362D01*
X438847161Y-259329797D01*
X439190163Y-259333232D01*
X439552653Y-259336629D01*
X439931501Y-259339948D01*
X440201058Y-259342174D01*
X443234282Y-259366600D01*
X443382887Y-259306669D01*
X443424886Y-259290315D01*
X443465088Y-259277226D01*
X443509536Y-259267019D01*
X443564275Y-259259317D01*
X443635348Y-259253737D01*
X443728799Y-259249899D01*
X443850671Y-259247424D01*
X444007009Y-259245931D01*
X444203855Y-259245039D01*
X444369692Y-259244567D01*
X444478944Y-259244201D01*
X444582341Y-259243577D01*
X444682629Y-259242525D01*
X444782550Y-259240875D01*
X444884851Y-259238457D01*
X444992276Y-259235103D01*
X445107569Y-259230642D01*
X445233476Y-259224905D01*
X445372740Y-259217721D01*
X445528106Y-259208923D01*
X445702319Y-259198339D01*
X445898123Y-259185800D01*
X446118264Y-259171137D01*
X446365485Y-259154180D01*
X446642532Y-259134759D01*
X446952148Y-259112705D01*
X447297080Y-259087848D01*
X447680070Y-259060018D01*
X448103864Y-259029046D01*
X448571207Y-258994762D01*
X448628820Y-258990526D01*
X450660954Y-258990526D01*
X450767205Y-259084052D01*
X450842167Y-259165080D01*
X450910644Y-259263474D01*
X450934662Y-259308254D01*
X450995867Y-259438930D01*
X451099079Y-259424924D01*
X451141010Y-259420354D01*
X451229246Y-259411618D01*
X451359499Y-259399117D01*
X451527481Y-259383249D01*
X451728904Y-259364416D01*
X451959478Y-259343015D01*
X452214915Y-259319448D01*
X452490928Y-259294113D01*
X452783226Y-259267411D01*
X453031092Y-259244862D01*
X453652461Y-259188371D01*
X454224155Y-259136248D01*
X454747102Y-259088404D01*
X455222230Y-259044751D01*
X455650467Y-259005203D01*
X456032743Y-258969670D01*
X456369985Y-258938066D01*
X456663122Y-258910302D01*
X456913083Y-258886291D01*
X457120796Y-258865945D01*
X457287189Y-258849177D01*
X457413191Y-258835897D01*
X457499731Y-258826020D01*
X457547737Y-258819456D01*
X457558931Y-258816766D01*
X457548180Y-258794378D01*
X457508495Y-258745754D01*
X457447488Y-258679943D01*
X457422265Y-258654281D01*
X457272892Y-258504505D01*
X455659992Y-258624418D01*
X455321019Y-258649569D01*
X454942954Y-258677530D01*
X454537370Y-258707451D01*
X454115844Y-258738481D01*
X453689951Y-258769769D01*
X453271264Y-258800464D01*
X452871360Y-258829716D01*
X452501813Y-258856674D01*
X452354023Y-258867429D01*
X450660954Y-258990526D01*
X448628820Y-258990526D01*
X449084843Y-258956997D01*
X449411592Y-258932949D01*
X449881061Y-258898390D01*
X450343899Y-258864320D01*
X450796893Y-258830975D01*
X451236829Y-258798591D01*
X451660494Y-258767406D01*
X452064675Y-258737655D01*
X452446160Y-258709575D01*
X452801734Y-258683403D01*
X453128186Y-258659375D01*
X453422303Y-258637728D01*
X453680870Y-258618698D01*
X453900676Y-258602521D01*
X454078507Y-258589434D01*
X454211150Y-258579674D01*
X454275692Y-258574926D01*
X454369847Y-258568021D01*
X454511726Y-258557647D01*
X454698386Y-258544017D01*
X454926883Y-258527346D01*
X455194274Y-258507848D01*
X455255823Y-258503362D01*
X457437432Y-258503362D01*
X457520262Y-258597303D01*
X457581809Y-258668586D01*
X457638046Y-258736085D01*
X457653892Y-258755854D01*
X457704692Y-258820465D01*
X458873092Y-258710222D01*
X459079876Y-258690767D01*
X459330976Y-258667237D01*
X459620120Y-258640217D01*
X459941038Y-258610288D01*
X460287458Y-258578034D01*
X460653110Y-258544038D01*
X461031722Y-258508883D01*
X461417024Y-258473154D01*
X461802746Y-258437432D01*
X462182615Y-258402301D01*
X462390992Y-258383053D01*
X462733832Y-258351345D01*
X463063931Y-258320711D01*
X463377557Y-258291504D01*
X463670978Y-258264075D01*
X463940461Y-258238777D01*
X464182275Y-258215961D01*
X464392688Y-258195981D01*
X464567968Y-258179189D01*
X464704382Y-258165936D01*
X464798200Y-258156575D01*
X464845688Y-258151459D01*
X464848442Y-258151099D01*
X464916185Y-258144315D01*
X464947618Y-258152223D01*
X464956223Y-258179455D01*
X464956392Y-258188198D01*
X464946304Y-258223446D01*
X464907754Y-258244121D01*
X464848442Y-258255310D01*
X464812407Y-258259159D01*
X464729325Y-258267339D01*
X464602734Y-258279521D01*
X464436173Y-258295377D01*
X464233181Y-258314577D01*
X463997296Y-258336793D01*
X463732056Y-258361694D01*
X463441000Y-258388953D01*
X463127668Y-258418240D01*
X462795596Y-258449225D01*
X462448324Y-258481580D01*
X462089390Y-258514976D01*
X461722334Y-258549084D01*
X461350693Y-258583574D01*
X460978005Y-258618117D01*
X460607811Y-258652385D01*
X460243647Y-258686048D01*
X459889053Y-258718777D01*
X459547568Y-258750244D01*
X459222729Y-258780118D01*
X458918075Y-258808071D01*
X458637146Y-258833774D01*
X458383478Y-258856898D01*
X458229717Y-258870858D01*
X457738743Y-258915346D01*
X457753467Y-258988967D01*
X457764578Y-259063606D01*
X457768192Y-259117813D01*
X457775784Y-259155264D01*
X457808355Y-259166955D01*
X457850742Y-259164596D01*
X457887186Y-259160654D01*
X457970584Y-259151497D01*
X458097400Y-259137519D01*
X458264096Y-259119110D01*
X458467138Y-259096662D01*
X458702988Y-259070566D01*
X458968110Y-259041213D01*
X459258969Y-259008995D01*
X459572027Y-258974303D01*
X459903749Y-258937528D01*
X460250598Y-258899062D01*
X460447892Y-258877175D01*
X461025573Y-258812944D01*
X461554801Y-258753771D01*
X462037643Y-258699378D01*
X462476163Y-258649487D01*
X462872427Y-258603819D01*
X463228502Y-258562096D01*
X463546452Y-258524037D01*
X463828345Y-258489366D01*
X464076245Y-258457802D01*
X464292218Y-258429068D01*
X464478331Y-258402884D01*
X464636649Y-258378972D01*
X464769238Y-258357053D01*
X464878163Y-258336848D01*
X464965491Y-258318079D01*
X465033288Y-258300467D01*
X465083618Y-258283733D01*
X465118548Y-258267599D01*
X465140144Y-258251785D01*
X465147076Y-258243141D01*
X465139161Y-258212431D01*
X465086280Y-258174294D01*
X464993312Y-258131100D01*
X464865136Y-258085220D01*
X464753080Y-258051658D01*
X464505004Y-257982374D01*
X461104848Y-258227996D01*
X460691409Y-258257901D01*
X460290403Y-258286982D01*
X459904913Y-258315010D01*
X459538023Y-258341761D01*
X459192816Y-258367005D01*
X458872375Y-258390515D01*
X458579783Y-258412065D01*
X458318123Y-258431427D01*
X458090479Y-258448374D01*
X457899933Y-258462678D01*
X457749569Y-258474113D01*
X457642470Y-258482451D01*
X457581719Y-258487464D01*
X457571062Y-258488490D01*
X457437432Y-258503362D01*
X455255823Y-258503362D01*
X455497617Y-258485739D01*
X455833968Y-258461231D01*
X456200385Y-258434540D01*
X456593925Y-258405879D01*
X457011644Y-258375464D01*
X457450600Y-258343508D01*
X457907850Y-258310226D01*
X458380451Y-258275832D01*
X458865460Y-258240541D01*
X459359934Y-258204567D01*
X459720578Y-258178333D01*
X464505064Y-257830316D01*
X464724378Y-257885050D01*
X464880237Y-257930180D01*
X465023420Y-257983261D01*
X465144985Y-258040036D01*
X465235994Y-258096248D01*
X465287504Y-258147640D01*
X465291452Y-258155063D01*
X465310273Y-258239291D01*
X465284005Y-258313321D01*
X465211246Y-258378462D01*
X465090596Y-258436023D01*
X464941369Y-258482049D01*
X464879948Y-258495578D01*
X464788996Y-258511883D01*
X464667441Y-258531087D01*
X464514210Y-258553317D01*
X464328230Y-258578695D01*
X464108427Y-258607348D01*
X463853729Y-258639399D01*
X463563061Y-258674974D01*
X463235352Y-258714196D01*
X462869528Y-258757191D01*
X462464516Y-258804083D01*
X462019243Y-258854997D01*
X461532636Y-258910057D01*
X461003621Y-258969388D01*
X460431125Y-259033115D01*
X459814076Y-259101362D01*
X459151400Y-259174253D01*
X458442024Y-259251914D01*
X457684875Y-259334469D01*
X456878880Y-259422043D01*
X456396592Y-259474318D01*
X455990938Y-259518240D01*
X455632830Y-259557017D01*
X455319313Y-259591016D01*
X455047431Y-259620603D01*
X454814231Y-259646143D01*
X454616758Y-259668001D01*
X454452056Y-259686544D01*
X454317170Y-259702138D01*
X454209147Y-259715146D01*
X454125031Y-259725937D01*
X454061868Y-259734874D01*
X454016702Y-259742324D01*
X453986579Y-259748652D01*
X453968544Y-259754224D01*
X453959643Y-259759406D01*
X453956920Y-259764563D01*
X453957421Y-259770061D01*
X453958192Y-259776061D01*
X453947779Y-259812396D01*
X453920182Y-259880863D01*
X453880867Y-259968123D01*
X453871026Y-259988856D01*
X453797136Y-260119827D01*
X453723104Y-260202137D01*
X453646120Y-260237855D01*
X453563373Y-260229049D01*
X453551024Y-260224320D01*
X453478935Y-260172725D01*
X453406998Y-260083424D01*
X453344283Y-259968721D01*
X453321986Y-259913489D01*
X453291987Y-259853127D01*
X453259699Y-259820257D01*
X453251608Y-259818238D01*
X453220801Y-259820886D01*
X453143636Y-259828532D01*
X453024263Y-259840735D01*
X452866831Y-259857052D01*
X452675489Y-259877041D01*
X452454387Y-259900259D01*
X452207675Y-259926264D01*
X451939502Y-259954612D01*
X451654018Y-259984861D01*
X451355373Y-260016570D01*
X451047715Y-260049294D01*
X450735195Y-260082593D01*
X450421962Y-260116022D01*
X450112165Y-260149140D01*
X449809955Y-260181504D01*
X449519481Y-260212671D01*
X449244891Y-260242199D01*
X448990337Y-260269646D01*
X448759967Y-260294568D01*
X448557931Y-260316523D01*
X448388379Y-260335069D01*
X448255460Y-260349763D01*
X448163323Y-260360163D01*
X448116119Y-260365826D01*
X448112601Y-260366325D01*
X448059378Y-260378375D01*
X448024349Y-260402563D01*
X447995934Y-260451525D01*
X447967305Y-260524855D01*
X447899646Y-260674283D01*
X447823306Y-260780847D01*
X447741244Y-260842921D01*
X447656416Y-260858877D01*
X447571782Y-260827090D01*
X447513288Y-260774485D01*
X447456358Y-260696026D01*
X447403760Y-260602015D01*
X447390007Y-260571380D01*
X447354401Y-260501996D01*
X447318840Y-260459891D01*
X447303392Y-260453340D01*
X447269022Y-260455939D01*
X447190982Y-260463320D01*
X447076105Y-260474791D01*
X446931223Y-260489656D01*
X446763171Y-260507223D01*
X446578782Y-260526796D01*
X446554092Y-260529439D01*
X446368487Y-260549205D01*
X446198699Y-260567065D01*
X446051483Y-260582325D01*
X445933593Y-260594294D01*
X445851783Y-260602277D01*
X445812810Y-260605582D01*
X445811194Y-260605632D01*
X445809647Y-260624017D01*
X445834281Y-260672682D01*
X445879970Y-260741900D01*
X445891150Y-260757309D01*
X446083115Y-261055510D01*
X446239037Y-261376353D01*
X446352711Y-261706509D01*
X446376271Y-261799439D01*
X446398613Y-261935276D01*
X446412899Y-262106824D01*
X446419113Y-262299633D01*
X446417234Y-262499254D01*
X446407246Y-262691236D01*
X446389129Y-262861131D01*
X446377705Y-262929739D01*
X446320265Y-263148059D01*
X446235846Y-263340244D01*
X446122266Y-263507343D01*
X445977343Y-263650408D01*
X445798895Y-263770487D01*
X445584739Y-263868633D01*
X445332693Y-263945895D01*
X445040576Y-264003324D01*
X444706205Y-264041970D01*
X444327397Y-264062884D01*
X444014092Y-264067564D01*
X443604667Y-264059310D01*
X443240913Y-264033379D01*
X442920490Y-263988696D01*
X442641058Y-263924187D01*
X442400278Y-263838778D01*
X442195808Y-263731395D01*
X442025311Y-263600963D01*
X441886446Y-263446407D01*
X441776873Y-263266655D01*
X441694253Y-263060630D01*
X441674290Y-262993239D01*
X441656617Y-262917052D01*
X441643834Y-262830283D01*
X441635250Y-262723509D01*
X441630175Y-262587310D01*
X441627916Y-262412263D01*
X441627702Y-262358239D01*
X441627923Y-262332839D01*
X441734956Y-262332839D01*
X441743619Y-262610160D01*
X441769621Y-262845376D01*
X441814825Y-263044765D01*
X441881094Y-263214606D01*
X441970292Y-263361180D01*
X442076148Y-263482800D01*
X442197622Y-263587143D01*
X442337509Y-263675770D01*
X442501222Y-263750455D01*
X442694172Y-263812969D01*
X442921772Y-263865088D01*
X443189434Y-263908584D01*
X443480692Y-263943018D01*
X443577813Y-263948749D01*
X443715214Y-263951146D01*
X443882509Y-263950542D01*
X444069308Y-263947268D01*
X444265226Y-263941656D01*
X444459874Y-263934038D01*
X444642865Y-263924745D01*
X444803812Y-263914109D01*
X444932327Y-263902462D01*
X444991992Y-263894751D01*
X445303219Y-263831439D01*
X445569164Y-263745292D01*
X445789953Y-263636246D01*
X445965713Y-263504237D01*
X446096570Y-263349202D01*
X446102528Y-263339909D01*
X446179749Y-263182059D01*
X446239762Y-262986304D01*
X446281703Y-262762837D01*
X446304712Y-262521853D01*
X446307923Y-262273543D01*
X446290475Y-262028102D01*
X446251505Y-261795723D01*
X446237984Y-261739642D01*
X446132577Y-261426669D01*
X445982546Y-261121723D01*
X445793775Y-260832302D01*
X445572146Y-260565904D01*
X445323542Y-260330026D01*
X445053847Y-260132165D01*
X444929423Y-260059539D01*
X445167850Y-260059539D01*
X445315698Y-260167112D01*
X445408483Y-260239003D01*
X445500468Y-260317320D01*
X445561073Y-260374561D01*
X445625057Y-260434111D01*
X445674832Y-260461428D01*
X445726856Y-260464778D01*
X445738045Y-260463430D01*
X445778866Y-260458611D01*
X445864879Y-260449090D01*
X445990751Y-260435438D01*
X446018380Y-260432473D01*
X447460320Y-260432473D01*
X447498127Y-260522958D01*
X447556431Y-260641780D01*
X447612244Y-260711169D01*
X447667339Y-260732317D01*
X447723488Y-260706411D01*
X447742985Y-260687260D01*
X447771325Y-260646208D01*
X447806584Y-260582638D01*
X447841796Y-260511147D01*
X447869995Y-260446333D01*
X447884217Y-260402792D01*
X447883364Y-260393065D01*
X447855983Y-260393214D01*
X447790570Y-260398132D01*
X447699564Y-260406830D01*
X447667606Y-260410193D01*
X447460320Y-260432473D01*
X446018380Y-260432473D01*
X446151150Y-260418225D01*
X446340743Y-260398021D01*
X446554196Y-260375396D01*
X446786176Y-260350922D01*
X447023992Y-260325938D01*
X447312449Y-260295660D01*
X447623968Y-260262896D01*
X447946853Y-260228880D01*
X448269405Y-260194847D01*
X448579930Y-260162030D01*
X448866730Y-260131665D01*
X449118109Y-260104985D01*
X449182992Y-260098085D01*
X449410703Y-260073897D01*
X449633766Y-260050290D01*
X449844420Y-260028079D01*
X450034904Y-260008078D01*
X450197457Y-259991103D01*
X450324320Y-259977969D01*
X450402192Y-259970043D01*
X450519448Y-259957687D01*
X450622891Y-259945647D01*
X450698801Y-259935579D01*
X450727685Y-259930708D01*
X450760963Y-259908644D01*
X450910192Y-259908644D01*
X450932175Y-259910938D01*
X450985799Y-259905858D01*
X450992742Y-259904899D01*
X451031283Y-259900304D01*
X451116074Y-259890808D01*
X451242848Y-259876872D01*
X451407338Y-259858959D01*
X451605278Y-259837528D01*
X451832401Y-259813041D01*
X451974377Y-259797786D01*
X453400777Y-259797786D01*
X453437504Y-259885685D01*
X453483856Y-259979365D01*
X453535654Y-260057582D01*
X453584361Y-260108943D01*
X453615292Y-260123039D01*
X453652379Y-260103976D01*
X453696484Y-260057503D01*
X453700713Y-260051724D01*
X453735093Y-259995228D01*
X453771445Y-259923303D01*
X453803443Y-259850488D01*
X453824763Y-259791323D01*
X453829077Y-259760346D01*
X453828021Y-259759122D01*
X453800138Y-259758794D01*
X453734256Y-259763354D01*
X453642841Y-259771874D01*
X453609634Y-259775350D01*
X453400777Y-259797786D01*
X451974377Y-259797786D01*
X452084440Y-259785960D01*
X452357128Y-259756745D01*
X452646199Y-259725857D01*
X452865992Y-259702425D01*
X453342510Y-259651627D01*
X453807338Y-259601990D01*
X454257763Y-259553808D01*
X454691070Y-259507373D01*
X455104545Y-259462980D01*
X455495474Y-259420922D01*
X455861144Y-259381493D01*
X456198839Y-259344985D01*
X456505847Y-259311694D01*
X456779453Y-259281911D01*
X457016943Y-259255931D01*
X457215602Y-259234048D01*
X457372718Y-259216554D01*
X457485575Y-259203743D01*
X457551460Y-259195910D01*
X457561815Y-259194552D01*
X457672939Y-259179174D01*
X457656956Y-259062564D01*
X457645552Y-258991336D01*
X457635011Y-258944754D01*
X457631328Y-258936309D01*
X457604837Y-258936577D01*
X457532933Y-258941223D01*
X457420774Y-258949817D01*
X457273521Y-258961927D01*
X457096331Y-258977122D01*
X456894363Y-258994969D01*
X456672777Y-259015038D01*
X456507488Y-259030295D01*
X456297580Y-259049760D01*
X456044007Y-259073176D01*
X455753694Y-259099908D01*
X455433568Y-259129321D01*
X455090556Y-259160780D01*
X454731585Y-259193650D01*
X454363580Y-259227298D01*
X453993470Y-259261087D01*
X453628179Y-259294383D01*
X453310492Y-259323292D01*
X452987288Y-259352731D01*
X452676530Y-259381142D01*
X452382246Y-259408149D01*
X452108461Y-259433378D01*
X451859201Y-259456456D01*
X451638493Y-259477007D01*
X451450362Y-259494658D01*
X451298834Y-259509034D01*
X451187937Y-259519761D01*
X451121695Y-259526465D01*
X451107042Y-259528132D01*
X451034436Y-259539548D01*
X450999010Y-259556835D01*
X450987436Y-259591347D01*
X450986392Y-259630938D01*
X450975968Y-259715749D01*
X450950642Y-259803666D01*
X450948292Y-259809456D01*
X450923980Y-259869494D01*
X450910909Y-259905381D01*
X450910192Y-259908644D01*
X450760963Y-259908644D01*
X450777675Y-259897564D01*
X450825411Y-259829247D01*
X450863096Y-259741082D01*
X450882933Y-259648393D01*
X450884234Y-259622985D01*
X450880564Y-259568244D01*
X450858063Y-259549501D01*
X450802242Y-259553308D01*
X450761464Y-259557655D01*
X450671018Y-259566369D01*
X450531842Y-259579367D01*
X450344871Y-259596563D01*
X450111043Y-259617874D01*
X449831293Y-259643215D01*
X449506560Y-259672501D01*
X449137779Y-259705649D01*
X448725888Y-259742575D01*
X448271823Y-259783193D01*
X447776521Y-259827419D01*
X447240918Y-259875169D01*
X446665952Y-259926359D01*
X446089571Y-259977615D01*
X445167850Y-260059539D01*
X444929423Y-260059539D01*
X444911321Y-260048973D01*
X444679304Y-259941049D01*
X444451496Y-259870953D01*
X444269380Y-259842665D01*
X444763392Y-259842665D01*
X444884042Y-259905761D01*
X444971742Y-259944844D01*
X445050972Y-259959410D01*
X445144392Y-259955808D01*
X445194491Y-259951252D01*
X445290330Y-259942655D01*
X445427042Y-259930451D01*
X445599764Y-259915072D01*
X445803631Y-259896950D01*
X446033778Y-259876517D01*
X446285342Y-259854207D01*
X446553458Y-259830451D01*
X446833261Y-259805682D01*
X446833492Y-259805661D01*
X447356805Y-259759350D01*
X447831867Y-259717291D01*
X448261030Y-259679274D01*
X448646646Y-259645087D01*
X448991067Y-259614517D01*
X449296646Y-259587352D01*
X449565734Y-259563381D01*
X449800685Y-259542392D01*
X450003849Y-259524173D01*
X450177580Y-259508512D01*
X450324229Y-259495197D01*
X450446149Y-259484016D01*
X450545691Y-259474757D01*
X450625208Y-259467209D01*
X450687052Y-259461159D01*
X450733576Y-259456396D01*
X450767131Y-259452708D01*
X450790070Y-259449882D01*
X450802177Y-259448129D01*
X450884662Y-259434961D01*
X450836153Y-259340850D01*
X450756385Y-259225553D01*
X450647442Y-259119539D01*
X450537364Y-259046672D01*
X450522501Y-259040495D01*
X450502630Y-259035473D01*
X450474909Y-259031765D01*
X450436496Y-259029532D01*
X450384549Y-259028934D01*
X450316225Y-259030130D01*
X450228682Y-259033280D01*
X450119078Y-259038545D01*
X449984570Y-259046083D01*
X449822317Y-259056056D01*
X449629475Y-259068622D01*
X449403203Y-259083942D01*
X449140658Y-259102176D01*
X448838998Y-259123483D01*
X448495381Y-259148023D01*
X448106964Y-259175957D01*
X447670905Y-259207443D01*
X447641764Y-259209550D01*
X447267956Y-259236658D01*
X446908128Y-259262907D01*
X446565550Y-259288050D01*
X446243486Y-259311841D01*
X445945204Y-259334033D01*
X445673969Y-259354380D01*
X445433049Y-259372636D01*
X445225709Y-259388554D01*
X445055217Y-259401887D01*
X444924838Y-259412389D01*
X444837840Y-259419813D01*
X444797488Y-259423913D01*
X444795142Y-259424363D01*
X444776943Y-259453362D01*
X444766517Y-259526636D01*
X444763392Y-259639154D01*
X444763392Y-259842665D01*
X444269380Y-259842665D01*
X444207499Y-259833053D01*
X444102992Y-259825755D01*
X443797992Y-259834487D01*
X443503624Y-259891893D01*
X443219028Y-259998343D01*
X442943347Y-260154202D01*
X442675721Y-260359837D01*
X442524908Y-260501003D01*
X442274634Y-260785964D01*
X442065717Y-261098398D01*
X441900561Y-261434172D01*
X441786773Y-261769582D01*
X441763777Y-261866745D01*
X441748376Y-261965449D01*
X441739325Y-262079225D01*
X441735379Y-262221601D01*
X441734956Y-262332839D01*
X441627923Y-262332839D01*
X441629575Y-262143009D01*
X441638219Y-261965669D01*
X441656331Y-261813470D01*
X441686607Y-261673665D01*
X441731745Y-261533507D01*
X441794439Y-261380248D01*
X441868555Y-261219634D01*
X441993540Y-260957329D01*
X441822716Y-260974054D01*
X441618832Y-260994834D01*
X441394062Y-261019168D01*
X441155419Y-261046177D01*
X440909912Y-261074982D01*
X440664553Y-261104706D01*
X440426354Y-261134469D01*
X440202325Y-261163393D01*
X439999478Y-261190599D01*
X439824825Y-261215209D01*
X439685375Y-261236344D01*
X439588142Y-261253126D01*
X439575442Y-261255663D01*
X439505592Y-261270075D01*
X439505592Y-261803168D01*
X439505819Y-261980514D01*
X439506867Y-262113237D01*
X439509287Y-262207513D01*
X439513629Y-262269517D01*
X439520444Y-262305426D01*
X439530281Y-262321416D01*
X439543691Y-262323662D01*
X439551793Y-262321598D01*
X439603929Y-262313250D01*
X439691719Y-262307114D01*
X439801204Y-262303321D01*
X439918422Y-262301999D01*
X440029412Y-262303278D01*
X440120213Y-262307287D01*
X440176863Y-262314155D01*
X440182516Y-262315760D01*
X440214333Y-262332277D01*
X440237133Y-262362281D01*
X440253998Y-262415219D01*
X440268011Y-262500539D01*
X440281325Y-262618589D01*
X440298910Y-262790039D01*
X440194834Y-262790039D01*
X440133759Y-262786660D01*
X440097026Y-262769203D01*
X440076233Y-262726685D01*
X440062975Y-262648122D01*
X440058802Y-262612239D01*
X440051692Y-262548739D01*
X439772292Y-262549949D01*
X439550371Y-262559100D01*
X439370421Y-262584153D01*
X439235059Y-262624652D01*
X439181742Y-262652579D01*
X439157390Y-262671399D01*
X439141148Y-262696765D01*
X439131384Y-262738316D01*
X439126464Y-262805691D01*
X439124755Y-262908527D01*
X439124592Y-262989891D01*
X439124591Y-263290173D01*
X439226248Y-263193470D01*
X439349749Y-263104973D01*
X439485824Y-263057649D01*
X439622632Y-263055501D01*
X439630286Y-263056837D01*
X439763380Y-263100483D01*
X439881452Y-263174101D01*
X439967329Y-263266844D01*
X439970396Y-263271671D01*
X439986279Y-263299062D01*
X439998913Y-263328454D01*
X440008741Y-263365830D01*
X440016208Y-263417174D01*
X440021756Y-263488471D01*
X440025830Y-263585702D01*
X440028873Y-263714854D01*
X440031329Y-263881908D01*
X440033640Y-264092849D01*
X440034015Y-264129889D01*
X440041738Y-264898239D01*
X443228065Y-264898239D01*
X443700167Y-264898290D01*
X444124005Y-264898463D01*
X444502115Y-264898790D01*
X444837033Y-264899299D01*
X445131295Y-264900023D01*
X445387438Y-264900990D01*
X445607996Y-264902231D01*
X445795507Y-264903776D01*
X445952506Y-264905656D01*
X446081529Y-264907902D01*
X446185112Y-264910543D01*
X446265792Y-264913609D01*
X446326103Y-264917132D01*
X446368583Y-264921141D01*
X446395767Y-264925667D01*
X446410191Y-264930739D01*
X446414392Y-264936339D01*
X446410504Y-264939156D01*
X446398017Y-264941833D01*
X446375693Y-264944373D01*
X446342297Y-264946780D01*
X446296591Y-264949058D01*
X446237339Y-264951209D01*
X446163305Y-264953238D01*
X446073251Y-264955147D01*
X445965942Y-264956941D01*
X445840140Y-264958623D01*
X445694609Y-264960196D01*
X445528112Y-264961664D01*
X445339413Y-264963030D01*
X445127275Y-264964298D01*
X444890461Y-264965471D01*
X444627736Y-264966554D01*
X444337862Y-264967548D01*
X444019602Y-264968458D01*
X443671721Y-264969288D01*
X443292981Y-264970040D01*
X442882145Y-264970719D01*
X442437978Y-264971327D01*
X441959243Y-264971869D01*
X441444703Y-264972347D01*
X440893121Y-264972766D01*
X440303261Y-264973129D01*
X439673887Y-264973438D01*
X439003761Y-264973699D01*
X438291646Y-264973914D01*
X437536308Y-264974086D01*
X436736508Y-264974220D01*
X435891010Y-264974319D01*
X434998578Y-264974386D01*
X434057975Y-264974424D01*
X433067964Y-264974438D01*
X432939692Y-264974439D01*
X431943369Y-264974428D01*
X430996611Y-264974392D01*
X430098179Y-264974329D01*
X429246837Y-264974235D01*
X428441349Y-264974105D01*
X427680478Y-264973938D01*
X426962987Y-264973729D01*
X426287640Y-264973474D01*
X425653200Y-264973170D01*
X425058431Y-264972815D01*
X424502095Y-264972403D01*
X423982957Y-264971933D01*
X423499780Y-264971399D01*
X423051327Y-264970799D01*
X422636361Y-264970130D01*
X422253646Y-264969387D01*
X421901946Y-264968567D01*
X421580023Y-264967667D01*
X421286641Y-264966684D01*
X421020564Y-264965613D01*
X420780554Y-264964451D01*
X420565376Y-264963195D01*
X420373793Y-264961841D01*
X420204567Y-264960387D01*
X420056463Y-264958827D01*
X419928244Y-264957159D01*
X419818673Y-264955380D01*
X419726514Y-264953485D01*
X419650530Y-264951471D01*
X419589484Y-264949336D01*
X419542140Y-264947074D01*
X419507261Y-264944683D01*
X419483611Y-264942160D01*
X419469953Y-264939500D01*
X419465050Y-264936701D01*
X419464992Y-264936339D01*
X419469269Y-264930695D01*
X419483791Y-264925628D01*
X419511093Y-264921107D01*
X419553712Y-264917103D01*
X419614181Y-264913584D01*
X419695037Y-264910522D01*
X419798816Y-264907885D01*
X419928052Y-264905642D01*
X420085281Y-264903765D01*
X420273039Y-264902222D01*
X420493861Y-264900983D01*
X420750282Y-264900018D01*
X421044838Y-264899296D01*
X421380065Y-264898788D01*
X421758498Y-264898462D01*
X422182672Y-264898289D01*
X422652692Y-264898239D01*
X425840392Y-264898239D01*
X425941992Y-264898239D01*
X426324045Y-264898239D01*
X426706099Y-264898239D01*
X426698695Y-264125548D01*
X426691292Y-263352857D01*
X426627792Y-263284934D01*
X426519533Y-263196239D01*
X426397565Y-263152595D01*
X426310292Y-263145639D01*
X426169782Y-263166004D01*
X426059113Y-263226462D01*
X425991763Y-263305622D01*
X425977532Y-263331859D01*
X425966306Y-263362559D01*
X425957732Y-263403701D01*
X425951454Y-263461263D01*
X425947117Y-263541224D01*
X425944367Y-263649565D01*
X425942848Y-263792264D01*
X425942206Y-263975300D01*
X425942086Y-264142589D01*
X425941992Y-264898239D01*
X425840392Y-264898239D01*
X425840533Y-264180689D01*
X425841485Y-263981093D01*
X425844110Y-263797932D01*
X425848187Y-263638166D01*
X425853492Y-263508753D01*
X425859804Y-263416654D01*
X425866437Y-263370389D01*
X425914027Y-263276536D01*
X425996440Y-263185634D01*
X426098810Y-263111215D01*
X426197413Y-263069056D01*
X426348599Y-263053033D01*
X426492943Y-263084369D01*
X426621589Y-263159664D01*
X426722437Y-263270649D01*
X426738772Y-263296155D01*
X426751695Y-263322689D01*
X426761605Y-263356178D01*
X426768902Y-263402550D01*
X426773986Y-263467734D01*
X426777256Y-263557658D01*
X426779113Y-263678250D01*
X426779955Y-263835438D01*
X426780183Y-264035150D01*
X426780192Y-264127295D01*
X426780192Y-264898239D01*
X426996092Y-264898239D01*
X427211992Y-264898239D01*
X427211992Y-264466303D01*
X427290964Y-264466303D01*
X427291399Y-264615796D01*
X427292759Y-264735976D01*
X427294994Y-264820049D01*
X427298054Y-264861219D01*
X427298623Y-264863386D01*
X427314686Y-264877418D01*
X427354783Y-264887337D01*
X427425518Y-264893724D01*
X427533497Y-264897163D01*
X427685324Y-264898236D01*
X427693794Y-264898239D01*
X428075592Y-264898239D01*
X428075552Y-264167989D01*
X428075244Y-263952129D01*
X428074124Y-263780964D01*
X428071862Y-263648390D01*
X428068125Y-263548304D01*
X428062583Y-263474601D01*
X428054904Y-263421179D01*
X428044757Y-263381934D01*
X428031810Y-263350763D01*
X428031102Y-263349345D01*
X427954167Y-263247281D01*
X427850359Y-263179611D01*
X427730695Y-263146892D01*
X427606192Y-263149684D01*
X427487870Y-263188543D01*
X427386745Y-263264028D01*
X427346722Y-263314690D01*
X427333154Y-263339703D01*
X427322373Y-263372709D01*
X427313970Y-263419705D01*
X427307541Y-263486691D01*
X427302677Y-263579663D01*
X427298974Y-263704620D01*
X427296024Y-263867561D01*
X427293422Y-264074482D01*
X427293070Y-264106551D01*
X427291505Y-264294289D01*
X427290964Y-264466303D01*
X427211992Y-264466303D01*
X427211992Y-264156958D01*
X427212170Y-263942151D01*
X427212969Y-263771857D01*
X427214780Y-263639790D01*
X427217997Y-263539664D01*
X427223013Y-263465192D01*
X427230221Y-263410087D01*
X427240014Y-263368065D01*
X427252786Y-263332837D01*
X427265231Y-263305699D01*
X427345569Y-263192833D01*
X427454542Y-263113687D01*
X427582103Y-263069051D01*
X427718208Y-263059714D01*
X427852811Y-263086464D01*
X427975866Y-263150090D01*
X428070675Y-263242439D01*
X428139092Y-263332091D01*
X428146481Y-264115165D01*
X428153871Y-264898239D01*
X429994331Y-264898239D01*
X431834792Y-264898239D01*
X431834792Y-264415639D01*
X432672992Y-264415639D01*
X432672992Y-264657798D01*
X432672992Y-264899957D01*
X432946042Y-264892748D01*
X433219092Y-264885539D01*
X433226395Y-264650589D01*
X433233698Y-264415639D01*
X432953345Y-264415639D01*
X432672992Y-264415639D01*
X431834792Y-264415639D01*
X431834792Y-264314039D01*
X432645056Y-264314039D01*
X432939692Y-264314039D01*
X433234327Y-264314039D01*
X433226709Y-264167989D01*
X433221108Y-264085735D01*
X433210276Y-264041341D01*
X433186670Y-264021919D01*
X433142744Y-264014583D01*
X433136542Y-264013979D01*
X433053992Y-264006020D01*
X433053992Y-263601229D01*
X433053992Y-263377924D01*
X433158469Y-263377924D01*
X433160162Y-263503712D01*
X433161261Y-263561146D01*
X433166383Y-263707787D01*
X433174713Y-263817581D01*
X433185347Y-263888170D01*
X433197379Y-263917195D01*
X433209904Y-263902298D01*
X433222015Y-263841121D01*
X433231792Y-263744839D01*
X433253611Y-263606643D01*
X433294596Y-263512855D01*
X433297097Y-263509368D01*
X433392358Y-263419104D01*
X433510495Y-263365970D01*
X433640021Y-263349677D01*
X433769452Y-263369940D01*
X433887302Y-263426471D01*
X433982086Y-263518983D01*
X433987442Y-263526626D01*
X434004970Y-263554031D01*
X434018492Y-263582917D01*
X434028527Y-263619898D01*
X434035595Y-263671583D01*
X434040213Y-263744586D01*
X434042902Y-263845518D01*
X434044181Y-263980991D01*
X434044569Y-264157617D01*
X434044592Y-264254295D01*
X434044592Y-264898239D01*
X435886092Y-264898239D01*
X437727592Y-264898239D01*
X437727872Y-264390239D01*
X438667392Y-264390239D01*
X438667392Y-264644239D01*
X438667392Y-264898239D01*
X438883292Y-264898239D01*
X439099192Y-264898239D01*
X439099192Y-264644239D01*
X439099192Y-264390239D01*
X438883292Y-264390239D01*
X438667392Y-264390239D01*
X437727872Y-264390239D01*
X437728009Y-264142589D01*
X437728016Y-264136239D01*
X438667392Y-264136239D01*
X438670748Y-264227446D01*
X438679743Y-264290469D01*
X438692767Y-264314038D01*
X438692792Y-264314039D01*
X438792070Y-264314039D01*
X438882131Y-264314039D01*
X438972192Y-264314039D01*
X438972192Y-264136239D01*
X439048392Y-264136239D01*
X439051748Y-264227446D01*
X439060743Y-264290469D01*
X439073767Y-264314038D01*
X439073792Y-264314039D01*
X439086821Y-264290546D01*
X439095824Y-264227580D01*
X439099191Y-264136411D01*
X439099192Y-264136239D01*
X439095835Y-264045031D01*
X439086840Y-263982008D01*
X439073816Y-263958439D01*
X439073792Y-263958439D01*
X439060762Y-263981931D01*
X439051759Y-264044897D01*
X439048392Y-264136066D01*
X439048392Y-264136239D01*
X438972192Y-264136239D01*
X438972192Y-264134629D01*
X438972192Y-263955220D01*
X438889642Y-263963179D01*
X438807092Y-263971139D01*
X438799581Y-264142589D01*
X438792070Y-264314039D01*
X438692792Y-264314039D01*
X438705821Y-264290546D01*
X438714824Y-264227580D01*
X438718191Y-264136411D01*
X438718192Y-264136239D01*
X438714835Y-264045031D01*
X438705840Y-263982008D01*
X438692816Y-263958439D01*
X438692792Y-263958439D01*
X438679762Y-263981931D01*
X438670759Y-264044897D01*
X438667392Y-264136066D01*
X438667392Y-264136239D01*
X437728016Y-264136239D01*
X437728254Y-263926423D01*
X437728993Y-263754928D01*
X437729041Y-263751005D01*
X438667392Y-263751005D01*
X438671737Y-263824828D01*
X438682881Y-263872432D01*
X438692306Y-263882239D01*
X438704972Y-263859182D01*
X438705167Y-263796642D01*
X438701427Y-263761589D01*
X438688131Y-263674130D01*
X438677898Y-263637045D01*
X438670988Y-263650416D01*
X438667662Y-263714322D01*
X438667392Y-263751005D01*
X437729041Y-263751005D01*
X437730635Y-263621974D01*
X437733437Y-263526639D01*
X438753405Y-263526639D01*
X438777473Y-263704439D01*
X438801541Y-263882239D01*
X438884634Y-263882239D01*
X438937354Y-263878239D01*
X438964588Y-263856886D01*
X438967037Y-263848081D01*
X439062370Y-263848081D01*
X439071133Y-263880540D01*
X439075388Y-263882239D01*
X439090047Y-263859642D01*
X439098429Y-263802936D01*
X439099192Y-263776405D01*
X439096817Y-263705693D01*
X439090011Y-263685390D01*
X439079247Y-263715344D01*
X439066284Y-263786989D01*
X439062370Y-263848081D01*
X438967037Y-263848081D01*
X438979254Y-263804146D01*
X438984019Y-263774289D01*
X438997795Y-263687492D01*
X439011238Y-263609514D01*
X439013669Y-263596489D01*
X439019022Y-263556263D01*
X439007557Y-263535508D01*
X438967889Y-263527781D01*
X438890217Y-263526639D01*
X438753405Y-263526639D01*
X437733437Y-263526639D01*
X437733590Y-263521433D01*
X437738265Y-263447176D01*
X437745070Y-263393073D01*
X437754413Y-263352995D01*
X437766702Y-263320813D01*
X437782346Y-263290399D01*
X437785159Y-263285339D01*
X437840849Y-263209835D01*
X437921768Y-263147200D01*
X437990925Y-263109271D01*
X438075260Y-263069302D01*
X438135687Y-263050274D01*
X438192908Y-263048824D01*
X438267624Y-263061589D01*
X438274979Y-263063124D01*
X438419457Y-263107472D01*
X438524961Y-263174137D01*
X438594671Y-263258852D01*
X438641802Y-263336139D01*
X438641897Y-263024989D01*
X438639944Y-262889253D01*
X438634298Y-262788604D01*
X438625419Y-262728680D01*
X438616592Y-262713839D01*
X438743592Y-262713839D01*
X438743592Y-263065205D01*
X438744754Y-263193992D01*
X438747944Y-263304103D01*
X438752712Y-263385802D01*
X438758612Y-263429348D01*
X438760525Y-263433505D01*
X438793947Y-263443437D01*
X438859716Y-263449529D01*
X438900225Y-263450439D01*
X439022992Y-263450439D01*
X439022992Y-263082139D01*
X439022992Y-262713839D01*
X438883292Y-262713839D01*
X438743592Y-262713839D01*
X438616592Y-262713839D01*
X438597930Y-262691907D01*
X438590483Y-262643989D01*
X438583435Y-262614537D01*
X438560406Y-262573574D01*
X438517807Y-262516835D01*
X438452046Y-262440054D01*
X438359531Y-262338967D01*
X438236673Y-262209308D01*
X438139633Y-262108505D01*
X437689492Y-261642872D01*
X437346592Y-261757388D01*
X437137446Y-261829163D01*
X436975481Y-261889161D01*
X436858674Y-261938242D01*
X436785004Y-261977268D01*
X436752447Y-262007098D01*
X436750981Y-262010845D01*
X436679449Y-262202048D01*
X436583308Y-262359925D01*
X436466608Y-262479436D01*
X436333403Y-262555544D01*
X436305147Y-262565112D01*
X436262302Y-262574368D01*
X436198158Y-262581957D01*
X436108399Y-262588011D01*
X435988708Y-262592663D01*
X435834769Y-262596046D01*
X435642265Y-262598293D01*
X435406879Y-262599536D01*
X435174892Y-262599902D01*
X434948526Y-262600528D01*
X434734753Y-262602159D01*
X434539666Y-262604671D01*
X434369361Y-262607941D01*
X434229932Y-262611847D01*
X434127475Y-262616265D01*
X434068083Y-262621073D01*
X434060249Y-262622415D01*
X433961606Y-262644565D01*
X433978861Y-262901452D01*
X433987823Y-263022430D01*
X433997628Y-263134988D01*
X434006761Y-263222491D01*
X434010900Y-263253589D01*
X434016782Y-263313063D01*
X434005299Y-263341573D01*
X433968061Y-263341708D01*
X433896680Y-263316054D01*
X433859409Y-263300318D01*
X433795852Y-263270808D01*
X433760292Y-263241090D01*
X433742076Y-263195081D01*
X433730550Y-263116699D01*
X433729007Y-263103468D01*
X433716240Y-262994541D01*
X433702954Y-262882907D01*
X433696938Y-262833093D01*
X433682077Y-262711047D01*
X433539484Y-262726479D01*
X433423729Y-262739348D01*
X433349260Y-262752047D01*
X433306990Y-262770979D01*
X433287833Y-262802547D01*
X433282702Y-262853154D01*
X433282592Y-262907506D01*
X433277307Y-263002514D01*
X433257225Y-263068998D01*
X433218411Y-263125680D01*
X433193141Y-263157600D01*
X433175760Y-263189276D01*
X433165020Y-263230215D01*
X433159672Y-263289928D01*
X433158469Y-263377924D01*
X433053992Y-263377924D01*
X433053992Y-263196439D01*
X432939692Y-263196439D01*
X432825392Y-263196439D01*
X432825392Y-263601229D01*
X432825392Y-264006020D01*
X432742842Y-264013979D01*
X432696300Y-264020787D01*
X432670885Y-264038304D01*
X432659050Y-264079417D01*
X432653250Y-264157016D01*
X432652674Y-264167989D01*
X432645056Y-264314039D01*
X431834792Y-264314039D01*
X431834792Y-264275123D01*
X431835395Y-264059791D01*
X431837966Y-263888963D01*
X431843648Y-263756353D01*
X431853584Y-263655670D01*
X431868916Y-263580626D01*
X431890787Y-263524933D01*
X431920341Y-263482303D01*
X431958719Y-263446447D01*
X431989587Y-263423333D01*
X432095935Y-263372682D01*
X432221073Y-263350461D01*
X432346358Y-263357428D01*
X432453148Y-263394341D01*
X432468418Y-263403850D01*
X432563697Y-263490029D01*
X432625941Y-263600849D01*
X432660267Y-263746049D01*
X432663802Y-263775882D01*
X432676298Y-263869173D01*
X432688614Y-263914313D01*
X432700071Y-263913947D01*
X432709990Y-263870722D01*
X432717690Y-263787283D01*
X432722492Y-263666276D01*
X432723792Y-263542267D01*
X432723451Y-263399586D01*
X432721518Y-263298613D01*
X432716624Y-263230257D01*
X432707401Y-263185427D01*
X432692482Y-263155032D01*
X432670498Y-263129981D01*
X432660292Y-263120239D01*
X432622738Y-263076488D01*
X432603532Y-263024369D01*
X432597078Y-262945630D01*
X432596792Y-262913095D01*
X432596471Y-262866239D01*
X432698392Y-262866239D01*
X432698392Y-262946788D01*
X432711580Y-263031283D01*
X432755173Y-263085372D01*
X432835207Y-263113476D01*
X432935278Y-263120239D01*
X433046473Y-263113210D01*
X433116833Y-263090979D01*
X433134541Y-263078202D01*
X433170097Y-263018241D01*
X433180992Y-262951202D01*
X433180992Y-262866239D01*
X432939692Y-262866239D01*
X432698392Y-262866239D01*
X432596471Y-262866239D01*
X432596302Y-262841520D01*
X432588787Y-262794671D01*
X432565173Y-262765964D01*
X432516390Y-262748817D01*
X432433364Y-262736647D01*
X432339548Y-262726435D01*
X432196605Y-262710959D01*
X432180239Y-262858449D01*
X432163881Y-263006587D01*
X432151111Y-263112479D01*
X432139133Y-263184276D01*
X432125156Y-263230128D01*
X432106384Y-263258186D01*
X432080025Y-263276603D01*
X432043283Y-263293528D01*
X432028920Y-263299941D01*
X431940270Y-263336679D01*
X431888467Y-263346493D01*
X431866373Y-263327883D01*
X431866855Y-263279347D01*
X431868967Y-263266289D01*
X431876647Y-263206203D01*
X431885768Y-263110513D01*
X431886439Y-263102053D01*
X431993480Y-263102053D01*
X431997420Y-263169366D01*
X432007217Y-263196306D01*
X432008164Y-263196439D01*
X432030460Y-263174260D01*
X432047881Y-263120229D01*
X432048984Y-263113889D01*
X432076504Y-262923849D01*
X432092878Y-262766712D01*
X432097873Y-262646897D01*
X432091257Y-262568823D01*
X432079082Y-262540843D01*
X432059139Y-262528264D01*
X432232362Y-262528264D01*
X432277054Y-262540876D01*
X432372446Y-262556171D01*
X432396916Y-262559426D01*
X432483502Y-262570759D01*
X432549203Y-262579562D01*
X432577742Y-262583618D01*
X432594577Y-262566140D01*
X432596792Y-262548739D01*
X432586955Y-262528830D01*
X432551359Y-262517054D01*
X432480871Y-262511623D01*
X432402058Y-262510639D01*
X432294907Y-262512734D01*
X432238327Y-262518746D01*
X432232362Y-262528264D01*
X432059139Y-262528264D01*
X432056607Y-262526667D01*
X432042243Y-262546155D01*
X432030661Y-262607415D01*
X432029421Y-262616363D01*
X432013367Y-262751522D01*
X432001796Y-262883766D01*
X431995053Y-263003731D01*
X431993480Y-263102053D01*
X431886439Y-263102053D01*
X431894979Y-262994338D01*
X431900430Y-262914122D01*
X431917464Y-262644506D01*
X431818978Y-262622386D01*
X431772238Y-262617502D01*
X431680792Y-262612973D01*
X431550735Y-262608923D01*
X431388159Y-262605474D01*
X431199158Y-262602749D01*
X430989827Y-262600872D01*
X430766258Y-262599965D01*
X430704492Y-262599902D01*
X430428918Y-262599380D01*
X430199902Y-262597943D01*
X430013210Y-262595461D01*
X429864605Y-262591806D01*
X429749852Y-262586847D01*
X429664714Y-262580457D01*
X429604958Y-262572505D01*
X429574192Y-262565422D01*
X429452384Y-262505654D01*
X429338129Y-262406984D01*
X429242435Y-262281191D01*
X429176309Y-262140054D01*
X429176119Y-262139474D01*
X429152549Y-262075431D01*
X429124294Y-262023834D01*
X429084517Y-261980411D01*
X429026381Y-261940890D01*
X428943049Y-261901000D01*
X428827686Y-261856467D01*
X428673454Y-261803022D01*
X428596292Y-261777172D01*
X428202858Y-261656979D01*
X427760708Y-261542251D01*
X427271662Y-261433311D01*
X426737541Y-261330482D01*
X426160168Y-261234084D01*
X425541364Y-261144441D01*
X424882950Y-261061876D01*
X424186749Y-260986710D01*
X424056667Y-260973904D01*
X423885843Y-260957329D01*
X424010730Y-261219634D01*
X424098293Y-261413041D01*
X424162263Y-261581219D01*
X424206570Y-261740410D01*
X424235140Y-261906856D01*
X424251900Y-262096796D01*
X424258435Y-262243939D01*
X424256958Y-262555087D01*
X424229648Y-262832380D01*
X424174596Y-263077278D01*
X424089894Y-263291243D01*
X423973635Y-263475736D01*
X423823911Y-263632221D01*
X423638814Y-263762157D01*
X423416435Y-263867007D01*
X423154868Y-263948232D01*
X422852203Y-264007294D01*
X422506534Y-264045654D01*
X422115953Y-264064775D01*
X421877992Y-264067623D01*
X421523758Y-264062959D01*
X421213530Y-264047846D01*
X420941419Y-264021382D01*
X420701535Y-263982669D01*
X420487989Y-263930806D01*
X420294892Y-263864894D01*
X420158079Y-263804796D01*
X419971114Y-263698167D01*
X419817002Y-263572798D01*
X419693640Y-263424326D01*
X419598926Y-263248384D01*
X419530759Y-263040607D01*
X419487038Y-262796630D01*
X419465659Y-262512087D01*
X419463023Y-262376134D01*
X419571210Y-262376134D01*
X419581219Y-262584873D01*
X419603428Y-262790073D01*
X419636136Y-262975151D01*
X419669475Y-263099897D01*
X419749233Y-263283898D01*
X419860704Y-263442759D01*
X420006373Y-263577837D01*
X420188726Y-263690489D01*
X420410248Y-263782071D01*
X420673425Y-263853942D01*
X420980742Y-263907456D01*
X421193623Y-263931925D01*
X421333133Y-263941170D01*
X421509034Y-263946464D01*
X421710180Y-263948051D01*
X421925424Y-263946177D01*
X422143619Y-263941087D01*
X422353620Y-263933027D01*
X422544280Y-263922242D01*
X422704453Y-263908978D01*
X422805092Y-263896444D01*
X423110275Y-263836494D01*
X423370016Y-263757366D01*
X423587037Y-263655885D01*
X423764062Y-263528871D01*
X423903814Y-263373147D01*
X424009017Y-263185537D01*
X424082393Y-262962862D01*
X424126667Y-262701945D01*
X424144561Y-262399608D01*
X424145217Y-262332839D01*
X424141267Y-262120703D01*
X424125930Y-261941291D01*
X424095797Y-261777156D01*
X424047458Y-261610851D01*
X423977504Y-261424930D01*
X423959001Y-261379965D01*
X423836929Y-261134384D01*
X423677215Y-260885928D01*
X423489860Y-260646993D01*
X423284863Y-260429973D01*
X423102224Y-260273040D01*
X423313092Y-260273040D01*
X423429405Y-260394889D01*
X423510645Y-260482840D01*
X423600821Y-260584671D01*
X423662341Y-260656819D01*
X423778962Y-260796899D01*
X424371527Y-260854910D01*
X424893625Y-260910401D01*
X425408085Y-260973623D01*
X425910452Y-261043722D01*
X426396272Y-261119846D01*
X426861089Y-261201140D01*
X427300449Y-261286751D01*
X427709897Y-261375825D01*
X428084978Y-261467509D01*
X428421238Y-261560950D01*
X428714220Y-261655293D01*
X428888392Y-261720300D01*
X428979565Y-261756020D01*
X429052341Y-261783168D01*
X429094091Y-261797075D01*
X429098392Y-261797953D01*
X429104781Y-261774919D01*
X429107392Y-261711246D01*
X429106115Y-261616963D01*
X429101519Y-261513689D01*
X429093642Y-261398037D01*
X429084736Y-261301763D01*
X429075964Y-261235781D01*
X429069318Y-261211482D01*
X429036318Y-261194929D01*
X428963053Y-261167766D01*
X428858279Y-261132704D01*
X428730753Y-261092453D01*
X428589233Y-261049727D01*
X428442474Y-261007235D01*
X428299233Y-260967689D01*
X428189892Y-260939197D01*
X427757158Y-260836399D01*
X427313322Y-260743464D01*
X426852614Y-260659548D01*
X426369267Y-260583805D01*
X425857513Y-260515389D01*
X425311584Y-260453456D01*
X424725712Y-260397160D01*
X424189392Y-260352907D01*
X424003973Y-260338397D01*
X423830260Y-260324370D01*
X423676220Y-260311503D01*
X423549822Y-260300474D01*
X423459036Y-260291960D01*
X423414692Y-260287054D01*
X423313092Y-260273040D01*
X423102224Y-260273040D01*
X423072226Y-260247264D01*
X423006986Y-260199988D01*
X422722145Y-260030751D01*
X422431176Y-259911255D01*
X422211141Y-259858916D01*
X422639992Y-259858916D01*
X422760642Y-259916788D01*
X422847771Y-259962236D01*
X422951925Y-260021686D01*
X423033692Y-260071702D01*
X423113601Y-260119779D01*
X423181213Y-260150357D01*
X423254550Y-260168821D01*
X423351638Y-260180561D01*
X423414692Y-260185591D01*
X424006328Y-260231139D01*
X424550421Y-260277127D01*
X425050228Y-260323885D01*
X425509006Y-260371741D01*
X425930012Y-260421022D01*
X426316502Y-260472058D01*
X426456519Y-260492204D01*
X426752806Y-260539076D01*
X427062843Y-260593963D01*
X427378372Y-260655023D01*
X427691134Y-260720413D01*
X427992873Y-260788291D01*
X428275331Y-260856816D01*
X428530249Y-260924145D01*
X428749369Y-260988437D01*
X428888392Y-261034673D01*
X428967399Y-261061947D01*
X429026953Y-261080819D01*
X429049401Y-261086383D01*
X429055416Y-261063036D01*
X429058648Y-260997205D01*
X429059036Y-260897133D01*
X429056516Y-260771063D01*
X429052612Y-260662789D01*
X429047211Y-260542139D01*
X429190189Y-260542139D01*
X429204391Y-260707239D01*
X429210280Y-260785833D01*
X429217993Y-260903662D01*
X429226830Y-261049222D01*
X429236093Y-261211012D01*
X429244563Y-261367639D01*
X429256647Y-261585895D01*
X429268340Y-261760206D01*
X429280954Y-261897400D01*
X429295801Y-262004302D01*
X429314192Y-262087739D01*
X429337438Y-262154538D01*
X429366850Y-262211525D01*
X429403739Y-262265528D01*
X429421454Y-262288549D01*
X429483834Y-262354013D01*
X429556401Y-262396542D01*
X429654401Y-262423178D01*
X429739292Y-262435342D01*
X429820588Y-262441630D01*
X429940112Y-262446884D01*
X430088100Y-262451045D01*
X430254792Y-262454052D01*
X430430425Y-262455845D01*
X430605238Y-262456363D01*
X430769471Y-262455547D01*
X430913360Y-262453336D01*
X431027145Y-262449670D01*
X431101063Y-262444489D01*
X431106683Y-262443777D01*
X431223864Y-262427715D01*
X431066475Y-262353282D01*
X430710852Y-262158978D01*
X430367804Y-261920356D01*
X430044048Y-261643558D01*
X429746307Y-261334729D01*
X429481297Y-261000010D01*
X429321566Y-260758039D01*
X429190189Y-260542139D01*
X429047211Y-260542139D01*
X429045571Y-260505517D01*
X429038108Y-260385138D01*
X429027702Y-260287790D01*
X429011834Y-260199611D01*
X428987980Y-260106735D01*
X428953621Y-259995302D01*
X428906235Y-259851447D01*
X428903639Y-259843639D01*
X428772763Y-259449939D01*
X428265427Y-259465548D01*
X428124128Y-259469142D01*
X427941165Y-259472624D01*
X427725674Y-259475883D01*
X427486793Y-259478810D01*
X427233656Y-259481293D01*
X426975401Y-259483223D01*
X426721163Y-259484489D01*
X426689126Y-259484598D01*
X426449212Y-259485607D01*
X426168396Y-259487191D01*
X425856568Y-259489270D01*
X425523622Y-259491766D01*
X425179451Y-259494602D01*
X424833947Y-259497698D01*
X424497002Y-259500976D01*
X424178509Y-259504357D01*
X424130076Y-259504900D01*
X422639992Y-259521762D01*
X422639992Y-259690339D01*
X422639992Y-259858916D01*
X422211141Y-259858916D01*
X422136587Y-259841182D01*
X421840885Y-259820213D01*
X421546577Y-259848030D01*
X421256171Y-259924314D01*
X420972175Y-260048745D01*
X420697095Y-260221005D01*
X420433438Y-260440776D01*
X420333635Y-260539936D01*
X420091899Y-260824394D01*
X419894120Y-261127195D01*
X419741891Y-261444895D01*
X419636806Y-261774048D01*
X419580456Y-262111209D01*
X419575104Y-262180439D01*
X419571210Y-262376134D01*
X419463023Y-262376134D01*
X419462720Y-262360524D01*
X419478092Y-262022802D01*
X419529442Y-261711728D01*
X419619849Y-261417822D01*
X419752395Y-261131603D01*
X419930157Y-260843589D01*
X419977046Y-260777089D01*
X420030237Y-260699401D01*
X420065576Y-260640073D01*
X420077714Y-260608449D01*
X420075161Y-260605639D01*
X420044214Y-260603043D01*
X419969411Y-260595713D01*
X419857407Y-260584333D01*
X419714854Y-260569586D01*
X419548408Y-260552156D01*
X419364722Y-260532727D01*
X419333800Y-260529439D01*
X419147045Y-260509711D01*
X418975631Y-260491888D01*
X418826389Y-260476656D01*
X418706149Y-260464704D01*
X418621743Y-260456719D01*
X418580002Y-260453389D01*
X418577864Y-260453334D01*
X418543663Y-260476101D01*
X418505088Y-260536747D01*
X418489376Y-260571380D01*
X418443031Y-260663067D01*
X418385354Y-260750731D01*
X418366095Y-260774485D01*
X418283388Y-260841296D01*
X418198431Y-260859178D01*
X418114140Y-260829740D01*
X418033427Y-260754591D01*
X417959208Y-260635340D01*
X417911634Y-260523639D01*
X417886909Y-260457484D01*
X417868499Y-260422374D01*
X418003459Y-260422374D01*
X418015788Y-260471620D01*
X418055437Y-260555218D01*
X418061572Y-260567539D01*
X418122933Y-260669724D01*
X418181230Y-260721412D01*
X418238196Y-260722678D01*
X418295563Y-260673599D01*
X418352097Y-260580239D01*
X418385775Y-260506562D01*
X418404031Y-260453696D01*
X418403691Y-260434466D01*
X418371343Y-260429075D01*
X418302107Y-260420283D01*
X418209637Y-260409800D01*
X418188459Y-260407534D01*
X418083988Y-260397654D01*
X418024257Y-260400160D01*
X418003459Y-260422374D01*
X417868499Y-260422374D01*
X417863602Y-260413036D01*
X417831436Y-260384749D01*
X417780135Y-260367078D01*
X417699424Y-260354477D01*
X417579026Y-260341401D01*
X417572692Y-260340732D01*
X417123944Y-260293182D01*
X416631352Y-260240843D01*
X416101573Y-260184422D01*
X415541263Y-260124631D01*
X414957080Y-260062179D01*
X414355681Y-259997776D01*
X414225213Y-259983790D01*
X413949548Y-259954311D01*
X413688200Y-259926510D01*
X413445662Y-259900857D01*
X413226426Y-259877820D01*
X413034984Y-259857866D01*
X412875829Y-259841464D01*
X412753452Y-259829081D01*
X412672346Y-259821186D01*
X412637002Y-259818247D01*
X412636466Y-259818239D01*
X412594781Y-259842843D01*
X412558724Y-259913489D01*
X412501558Y-260041636D01*
X412430598Y-260144798D01*
X412354042Y-260211772D01*
X412332513Y-260222600D01*
X412251011Y-260239064D01*
X412176615Y-260214866D01*
X412105178Y-260147035D01*
X412032550Y-260032599D01*
X412012021Y-259992972D01*
X411969185Y-259903358D01*
X411937228Y-259828901D01*
X411921805Y-259782999D01*
X411921192Y-259777877D01*
X411918332Y-259764141D01*
X411910100Y-259756383D01*
X412048192Y-259756383D01*
X412058825Y-259798328D01*
X412085505Y-259867264D01*
X412120400Y-259945343D01*
X412155676Y-260014716D01*
X412176386Y-260048517D01*
X412230316Y-260107340D01*
X412278908Y-260118533D01*
X412329933Y-260083549D01*
X412334958Y-260078132D01*
X412368481Y-260030794D01*
X412404540Y-259964970D01*
X412436600Y-259895244D01*
X412458124Y-259836200D01*
X412462577Y-259802420D01*
X412459846Y-259799466D01*
X412427687Y-259793919D01*
X412362711Y-259785692D01*
X412279313Y-259776291D01*
X412191888Y-259767222D01*
X412114830Y-259759994D01*
X412062533Y-259756110D01*
X412048192Y-259756383D01*
X411910100Y-259756383D01*
X411905941Y-259752464D01*
X411878299Y-259741863D01*
X411829686Y-259731358D01*
X411754384Y-259719968D01*
X411646673Y-259706712D01*
X411500833Y-259690608D01*
X411311147Y-259670675D01*
X411273492Y-259666770D01*
X411012652Y-259639504D01*
X410709426Y-259607388D01*
X410368139Y-259570902D01*
X409993117Y-259530524D01*
X409588687Y-259486735D01*
X409159173Y-259440013D01*
X408708902Y-259390839D01*
X408242199Y-259339690D01*
X407763391Y-259287048D01*
X407276804Y-259233390D01*
X406786763Y-259179197D01*
X406297594Y-259124948D01*
X405813623Y-259071123D01*
X405339177Y-259018200D01*
X404878580Y-258966659D01*
X404436159Y-258916980D01*
X404016240Y-258869641D01*
X403623149Y-258825123D01*
X403261211Y-258783904D01*
X402934752Y-258746465D01*
X402648099Y-258713283D01*
X402405577Y-258684840D01*
X402307292Y-258673152D01*
X402002650Y-258636417D01*
X401743856Y-258604413D01*
X401526255Y-258576361D01*
X401345193Y-258551482D01*
X401196017Y-258528997D01*
X401074074Y-258508128D01*
X400974710Y-258488094D01*
X400893270Y-258468118D01*
X400825103Y-258447420D01*
X400765553Y-258425222D01*
X400727087Y-258408636D01*
X400626937Y-258348220D01*
X400575927Y-258278768D01*
X400574101Y-258230739D01*
X400736000Y-258230739D01*
X400742445Y-258245686D01*
X400758838Y-258260682D01*
X400786991Y-258275964D01*
X400828711Y-258291770D01*
X400885808Y-258308337D01*
X400960091Y-258325902D01*
X401053370Y-258344704D01*
X401167453Y-258364979D01*
X401304150Y-258386965D01*
X401465269Y-258410901D01*
X401652620Y-258437022D01*
X401868012Y-258465568D01*
X402113254Y-258496774D01*
X402390155Y-258530880D01*
X402700525Y-258568122D01*
X403046172Y-258608738D01*
X403428907Y-258652965D01*
X403850536Y-258701042D01*
X404312871Y-258753205D01*
X404817720Y-258809692D01*
X405366893Y-258870740D01*
X405962198Y-258936588D01*
X406605444Y-259007472D01*
X406891992Y-259038984D01*
X408098492Y-259171597D01*
X408103213Y-259141162D01*
X408214130Y-259141162D01*
X408226518Y-259172733D01*
X408269656Y-259187122D01*
X408305064Y-259192834D01*
X408347475Y-259198198D01*
X408435709Y-259208444D01*
X408565075Y-259223056D01*
X408730886Y-259241514D01*
X408928451Y-259263304D01*
X409153081Y-259287906D01*
X409400086Y-259314805D01*
X409664777Y-259343483D01*
X409942465Y-259373423D01*
X409952692Y-259374523D01*
X410223909Y-259403714D01*
X410515814Y-259435175D01*
X410824584Y-259468491D01*
X411146392Y-259503247D01*
X411477416Y-259539028D01*
X411813832Y-259575420D01*
X412151814Y-259612007D01*
X412487539Y-259648374D01*
X412817183Y-259684108D01*
X413136921Y-259718791D01*
X413442929Y-259752011D01*
X413731383Y-259783351D01*
X413998460Y-259812398D01*
X414240334Y-259838735D01*
X414453181Y-259861948D01*
X414633178Y-259881622D01*
X414776500Y-259897343D01*
X414879323Y-259908694D01*
X414937823Y-259915262D01*
X414950142Y-259916748D01*
X414969177Y-259910617D01*
X414969192Y-259910240D01*
X414960342Y-259882928D01*
X414938360Y-259827030D01*
X414931092Y-259809456D01*
X414904954Y-259722738D01*
X414893060Y-259635575D01*
X414892992Y-259630111D01*
X414891123Y-259600205D01*
X414995131Y-259600205D01*
X414995149Y-259621088D01*
X415006358Y-259697179D01*
X415033632Y-259785561D01*
X415044031Y-259810378D01*
X415083352Y-259881273D01*
X415127553Y-259917482D01*
X415176823Y-259931343D01*
X415214124Y-259936107D01*
X415298213Y-259945779D01*
X415425360Y-259959953D01*
X415591832Y-259978227D01*
X415793896Y-260000198D01*
X416027820Y-260025463D01*
X416289872Y-260053619D01*
X416576319Y-260084263D01*
X416883429Y-260116990D01*
X417207469Y-260151400D01*
X417544708Y-260187087D01*
X417547292Y-260187360D01*
X417985244Y-260233654D01*
X418375145Y-260274932D01*
X418719469Y-260311464D01*
X419020690Y-260343517D01*
X419281280Y-260371361D01*
X419503713Y-260395262D01*
X419690464Y-260415490D01*
X419844005Y-260432312D01*
X419966811Y-260445997D01*
X420061354Y-260456813D01*
X420130109Y-260465029D01*
X420175548Y-260470911D01*
X420200147Y-260474730D01*
X420203189Y-260475361D01*
X420227832Y-260460744D01*
X420272684Y-260420144D01*
X420292089Y-260400391D01*
X420348405Y-260347275D01*
X420429899Y-260277557D01*
X420520773Y-260204659D01*
X420538733Y-260190841D01*
X420710775Y-260059539D01*
X420373633Y-260028208D01*
X420299352Y-260021407D01*
X420178599Y-260010483D01*
X420015506Y-259995804D01*
X419814202Y-259977739D01*
X419578817Y-259956659D01*
X419313481Y-259932933D01*
X419022324Y-259906928D01*
X418709476Y-259879016D01*
X418379067Y-259849565D01*
X418035227Y-259818944D01*
X417682086Y-259787522D01*
X417610792Y-259781182D01*
X417262715Y-259750178D01*
X416927620Y-259720227D01*
X416609151Y-259691661D01*
X416310950Y-259664811D01*
X416036661Y-259640009D01*
X415789925Y-259617585D01*
X415574387Y-259597872D01*
X415393688Y-259581200D01*
X415251472Y-259567901D01*
X415151382Y-259558307D01*
X415097060Y-259552749D01*
X415089842Y-259551863D01*
X415027794Y-259545562D01*
X415001145Y-259558079D01*
X414995131Y-259600205D01*
X414891123Y-259600205D01*
X414889511Y-259574412D01*
X414869677Y-259546333D01*
X414819402Y-259532495D01*
X414785042Y-259527610D01*
X414741599Y-259522891D01*
X414652067Y-259514036D01*
X414520951Y-259501464D01*
X414352755Y-259485596D01*
X414151986Y-259466850D01*
X413923149Y-259445648D01*
X413670748Y-259422409D01*
X413399291Y-259397552D01*
X413113281Y-259371499D01*
X412987992Y-259360127D01*
X412640730Y-259328588D01*
X412262035Y-259294096D01*
X411862846Y-259257654D01*
X411454098Y-259220263D01*
X411046730Y-259182925D01*
X410651679Y-259146643D01*
X410279884Y-259112418D01*
X409942281Y-259081252D01*
X409789834Y-259067140D01*
X409475335Y-259038417D01*
X409190468Y-259013253D01*
X408938075Y-258991863D01*
X408720993Y-258974464D01*
X408542064Y-258961271D01*
X408404127Y-258952501D01*
X408310023Y-258948370D01*
X408262590Y-258949093D01*
X408257479Y-258950591D01*
X408239443Y-258989074D01*
X408223582Y-259055743D01*
X408220510Y-259075827D01*
X408214130Y-259141162D01*
X408103213Y-259141162D01*
X408117891Y-259046534D01*
X408127793Y-258973956D01*
X408131701Y-258926420D01*
X408130591Y-258916536D01*
X408104786Y-258913376D01*
X408032914Y-258906042D01*
X407919499Y-258894962D01*
X407769065Y-258880566D01*
X407586137Y-258863280D01*
X407375239Y-258843533D01*
X407140896Y-258821753D01*
X407096893Y-258817690D01*
X408321376Y-258817690D01*
X408347685Y-258821583D01*
X408420801Y-258829728D01*
X408536941Y-258841758D01*
X408692323Y-258857308D01*
X408883165Y-258876011D01*
X409105683Y-258897499D01*
X409356095Y-258921406D01*
X409630618Y-258947367D01*
X409925471Y-258975014D01*
X410236869Y-259003980D01*
X410386850Y-259017852D01*
X410686896Y-259045576D01*
X411002175Y-259074751D01*
X411328690Y-259105002D01*
X411662444Y-259135959D01*
X411999441Y-259167248D01*
X412335683Y-259198496D01*
X412667174Y-259229331D01*
X412989916Y-259259380D01*
X413299912Y-259288271D01*
X413593165Y-259315631D01*
X413865678Y-259341088D01*
X414113455Y-259364269D01*
X414332498Y-259384801D01*
X414518810Y-259402311D01*
X414668395Y-259416428D01*
X414777255Y-259426778D01*
X414841393Y-259432989D01*
X414854892Y-259434366D01*
X414855095Y-259434203D01*
X414995108Y-259434203D01*
X415102800Y-259448833D01*
X415142803Y-259453104D01*
X415229843Y-259461542D01*
X415360355Y-259473823D01*
X415530775Y-259489622D01*
X415737538Y-259508615D01*
X415977079Y-259530477D01*
X416245835Y-259554882D01*
X416540240Y-259581507D01*
X416856731Y-259610026D01*
X417191742Y-259640115D01*
X417541710Y-259671448D01*
X417763192Y-259691229D01*
X418234703Y-259733308D01*
X418657976Y-259771099D01*
X419035373Y-259804816D01*
X419369258Y-259834672D01*
X419661992Y-259860877D01*
X419915937Y-259883646D01*
X420133456Y-259903190D01*
X420316911Y-259919722D01*
X420468666Y-259933455D01*
X420591081Y-259944600D01*
X420686520Y-259953372D01*
X420757345Y-259959981D01*
X420805918Y-259964640D01*
X420831086Y-259967185D01*
X420870568Y-259958267D01*
X420937400Y-259931652D01*
X420989836Y-259906711D01*
X421115992Y-259842783D01*
X421115992Y-259798761D01*
X421217592Y-259798761D01*
X421287442Y-259782635D01*
X421346729Y-259769892D01*
X421437154Y-259751502D01*
X421539942Y-259731277D01*
X421547792Y-259729760D01*
X421697613Y-259706060D01*
X421839223Y-259696450D01*
X421985147Y-259701670D01*
X422147911Y-259722461D01*
X422340040Y-259759562D01*
X422443142Y-259782635D01*
X422512992Y-259798761D01*
X422512992Y-259634961D01*
X422512992Y-259471162D01*
X422417742Y-259438316D01*
X422353375Y-259424853D01*
X422249206Y-259412888D01*
X422116223Y-259402844D01*
X421965411Y-259395143D01*
X421807758Y-259390209D01*
X421654250Y-259388465D01*
X421515875Y-259390332D01*
X421403618Y-259396235D01*
X421380809Y-259398403D01*
X421217592Y-259415882D01*
X421217592Y-259607321D01*
X421217592Y-259798761D01*
X421115992Y-259798761D01*
X421115992Y-259627311D01*
X421115288Y-259522825D01*
X421111348Y-259459087D01*
X421101429Y-259426045D01*
X421082788Y-259413649D01*
X421057189Y-259411839D01*
X421021891Y-259410017D01*
X420940491Y-259404769D01*
X420817553Y-259396416D01*
X420657636Y-259385281D01*
X420465301Y-259371686D01*
X420245110Y-259355954D01*
X420001623Y-259338407D01*
X419739401Y-259319367D01*
X419463006Y-259299158D01*
X419450639Y-259298251D01*
X418921766Y-259259422D01*
X418441209Y-259224128D01*
X418006618Y-259192224D01*
X417615643Y-259163565D01*
X417265933Y-259138007D01*
X416955138Y-259115405D01*
X416680907Y-259095615D01*
X416440891Y-259078492D01*
X416232739Y-259063892D01*
X416054101Y-259051670D01*
X415902626Y-259041681D01*
X415775964Y-259033782D01*
X415671765Y-259027827D01*
X415587678Y-259023672D01*
X415521353Y-259021173D01*
X415470440Y-259020184D01*
X415432589Y-259020562D01*
X415405448Y-259022161D01*
X415386669Y-259024838D01*
X415373899Y-259028448D01*
X415364790Y-259032846D01*
X415356991Y-259037887D01*
X415348151Y-259043428D01*
X415343905Y-259045697D01*
X415224709Y-259125589D01*
X415116433Y-259233229D01*
X415043424Y-259340471D01*
X414995108Y-259434203D01*
X414855095Y-259434203D01*
X414878961Y-259415049D01*
X414916400Y-259361978D01*
X414953906Y-259296235D01*
X415013105Y-259201797D01*
X415085536Y-259111549D01*
X415129928Y-259067695D01*
X415232335Y-258980039D01*
X415119813Y-258978450D01*
X415080739Y-258976402D01*
X414994164Y-258970811D01*
X414863249Y-258961906D01*
X414691154Y-258949913D01*
X414481039Y-258935060D01*
X414236064Y-258917574D01*
X413959389Y-258897681D01*
X413654174Y-258875610D01*
X413323579Y-258851587D01*
X412970764Y-258825840D01*
X412598888Y-258798595D01*
X412211113Y-258770080D01*
X411810598Y-258740523D01*
X411806892Y-258740249D01*
X408606492Y-258503637D01*
X408458718Y-258655447D01*
X408392513Y-258725801D01*
X408344319Y-258781547D01*
X408321770Y-258813669D01*
X408321376Y-258817690D01*
X407096893Y-258817690D01*
X406887630Y-258798368D01*
X406688792Y-258780108D01*
X406059566Y-258722422D01*
X405460619Y-258667447D01*
X404893332Y-258615312D01*
X404359083Y-258566144D01*
X403859254Y-258520072D01*
X403395224Y-258477223D01*
X402968374Y-258437726D01*
X402580084Y-258401710D01*
X402231733Y-258369301D01*
X401924703Y-258340629D01*
X401660374Y-258315821D01*
X401440125Y-258295006D01*
X401265336Y-258278311D01*
X401137389Y-258265866D01*
X401057663Y-258257797D01*
X401030942Y-258254777D01*
X400960787Y-258240502D01*
X400929045Y-258217658D01*
X400922992Y-258188699D01*
X400928038Y-258158174D01*
X400951784Y-258145879D01*
X401007141Y-258147906D01*
X401043642Y-258152177D01*
X401095816Y-258157872D01*
X401192203Y-258167551D01*
X401326424Y-258180608D01*
X401492097Y-258196432D01*
X401682845Y-258214416D01*
X401892287Y-258233950D01*
X402114045Y-258254426D01*
X402142192Y-258257010D01*
X402314009Y-258272797D01*
X402530899Y-258292760D01*
X402787352Y-258316391D01*
X403077858Y-258343180D01*
X403396906Y-258372620D01*
X403738986Y-258404202D01*
X404098588Y-258437417D01*
X404470202Y-258471756D01*
X404848317Y-258506710D01*
X405227423Y-258541771D01*
X405581024Y-258574488D01*
X405931134Y-258606810D01*
X406267979Y-258637754D01*
X406587978Y-258666998D01*
X406887550Y-258694222D01*
X407163114Y-258719107D01*
X407411088Y-258741332D01*
X407627893Y-258760576D01*
X407809947Y-258776518D01*
X407953669Y-258788840D01*
X408055478Y-258797220D01*
X408111794Y-258801338D01*
X408121024Y-258801719D01*
X408168513Y-258794720D01*
X408213161Y-258768744D01*
X408266153Y-258715285D01*
X408318484Y-258651551D01*
X408436877Y-258501902D01*
X408293084Y-258486941D01*
X408250500Y-258483300D01*
X408160355Y-258476229D01*
X408025754Y-258465956D01*
X407849803Y-258452711D01*
X407635609Y-258436723D01*
X407386278Y-258418221D01*
X407104916Y-258397435D01*
X406794629Y-258374594D01*
X406458524Y-258349928D01*
X406099706Y-258323665D01*
X405721282Y-258296035D01*
X405326358Y-258267268D01*
X404918040Y-258237592D01*
X404771092Y-258226928D01*
X401392892Y-257981877D01*
X401179539Y-258037741D01*
X401045127Y-258076861D01*
X400925118Y-258119083D01*
X400827964Y-258160730D01*
X400762114Y-258198125D01*
X400736020Y-258227592D01*
X400736000Y-258230739D01*
X400574101Y-258230739D01*
X400572861Y-258198103D01*
X400587931Y-258155063D01*
X400632746Y-258104575D01*
X400719021Y-258049012D01*
X400838229Y-257992357D01*
X400981844Y-257938589D01*
X401141339Y-257891692D01*
X401164292Y-257885940D01*
X401392892Y-257829887D01*
X407031692Y-258240743D01*
X407843845Y-258299917D01*
X408607714Y-258355571D01*
X409325681Y-258407879D01*
X410000126Y-258457013D01*
X410633433Y-258503147D01*
X411227981Y-258546455D01*
X411786153Y-258587110D01*
X412310331Y-258625284D01*
X412802895Y-258661153D01*
X413266228Y-258694888D01*
X413702710Y-258726663D01*
X414114724Y-258756653D01*
X414504650Y-258785029D01*
X414874871Y-258811966D01*
X415227769Y-258837637D01*
X415565723Y-258862215D01*
X415891117Y-258885874D01*
X416206331Y-258908787D01*
X416513748Y-258931127D01*
X416815748Y-258953069D01*
X416848792Y-258955469D01*
X417094477Y-258973412D01*
X417380146Y-258994438D01*
X417695130Y-259017751D01*
X418028761Y-259042559D01*
X418370372Y-259068065D01*
X418709292Y-259093476D01*
X419034856Y-259117997D01*
X419287192Y-259137096D01*
X419610350Y-259161363D01*
X419890097Y-259181689D01*
X420133639Y-259198421D01*
X420348184Y-259211908D01*
X420540939Y-259222497D01*
X420719111Y-259230537D01*
X420889907Y-259236376D01*
X421060534Y-259240363D01*
X421238199Y-259242844D01*
X421430110Y-259244168D01*
X421509692Y-259244445D01*
X421738666Y-259245177D01*
X421922881Y-259246241D01*
X422068378Y-259248016D01*
X422181197Y-259250882D01*
X422267380Y-259255217D01*
X422332968Y-259261402D01*
X422384000Y-259269816D01*
X422426519Y-259280838D01*
X422466565Y-259294848D01*
X422495755Y-259306392D01*
X422643618Y-259366045D01*
X425035755Y-259350488D01*
X425397713Y-259348015D01*
X425757682Y-259345329D01*
X426110742Y-259342479D01*
X426451976Y-259339514D01*
X426776465Y-259336484D01*
X427079291Y-259333437D01*
X427355536Y-259330424D01*
X427600282Y-259327494D01*
X427808609Y-259324696D01*
X427975601Y-259322079D01*
X428088905Y-259319865D01*
X428749919Y-259304799D01*
X428705916Y-259047169D01*
X428655453Y-258638868D01*
X428639353Y-258216658D01*
X428649672Y-257960261D01*
X428820085Y-257960261D01*
X428820454Y-258395839D01*
X428862701Y-258883869D01*
X428947470Y-259352310D01*
X429073361Y-259798788D01*
X429238975Y-260220935D01*
X429442915Y-260616378D01*
X429683782Y-260982746D01*
X429960175Y-261317669D01*
X430270698Y-261618776D01*
X430613951Y-261883696D01*
X430988535Y-262110057D01*
X431021931Y-262127524D01*
X431134522Y-262182437D01*
X431265507Y-262241128D01*
X431404987Y-262299740D01*
X431543063Y-262354418D01*
X431669838Y-262401303D01*
X431775415Y-262436539D01*
X431849894Y-262456269D01*
X431872892Y-262459120D01*
X431893375Y-262437259D01*
X431909054Y-262409039D01*
X432698392Y-262409039D01*
X432698392Y-262599539D01*
X432698392Y-262790039D01*
X432939692Y-262790039D01*
X433180992Y-262790039D01*
X433180992Y-262605625D01*
X433782901Y-262605625D01*
X433784350Y-262674005D01*
X433793265Y-262777719D01*
X433804315Y-262878939D01*
X433817848Y-262997004D01*
X433829121Y-263094865D01*
X433836979Y-263162526D01*
X433840268Y-263189994D01*
X433840283Y-263190089D01*
X433861536Y-263196153D01*
X433870064Y-263196439D01*
X433883044Y-263179217D01*
X433888514Y-263124381D01*
X433886682Y-263027168D01*
X433881482Y-262936089D01*
X433869866Y-262774533D01*
X433858961Y-262658406D01*
X433847700Y-262582365D01*
X433835011Y-262541071D01*
X433819825Y-262529183D01*
X433802183Y-262540186D01*
X433788864Y-262563908D01*
X433782901Y-262605625D01*
X433180992Y-262605625D01*
X433180992Y-262599539D01*
X433180992Y-262542651D01*
X433281931Y-262542651D01*
X433295017Y-262565398D01*
X433324679Y-262568832D01*
X433388231Y-262565747D01*
X433469457Y-262557991D01*
X433552141Y-262547416D01*
X433620068Y-262535873D01*
X433657022Y-262525212D01*
X433658820Y-262523877D01*
X433642026Y-262517652D01*
X433585628Y-262513000D01*
X433500816Y-262510736D01*
X433477325Y-262510639D01*
X433366674Y-262513826D01*
X433302774Y-262524127D01*
X433281931Y-262542651D01*
X433180992Y-262542651D01*
X433180992Y-262409039D01*
X432939692Y-262409039D01*
X432698392Y-262409039D01*
X431909054Y-262409039D01*
X431925801Y-262378897D01*
X431964265Y-262295099D01*
X431977699Y-262262706D01*
X432021194Y-262155039D01*
X432698392Y-262155039D01*
X432698392Y-262243939D01*
X432698392Y-262332839D01*
X432939692Y-262332839D01*
X433180992Y-262332839D01*
X433180992Y-262243939D01*
X433180992Y-262155039D01*
X432939692Y-262155039D01*
X432698392Y-262155039D01*
X432021194Y-262155039D01*
X432057107Y-262066139D01*
X432941895Y-262066139D01*
X433826683Y-262066139D01*
X433903887Y-262262903D01*
X433942571Y-262353137D01*
X433978165Y-262421607D01*
X434004632Y-262457151D01*
X434010383Y-262459753D01*
X434045177Y-262451884D01*
X434116689Y-262430515D01*
X434148787Y-262420131D01*
X434718178Y-262420131D01*
X434731545Y-262434437D01*
X434776987Y-262443932D01*
X434857790Y-262449444D01*
X434977242Y-262451802D01*
X435138628Y-262451832D01*
X435345235Y-262450364D01*
X435517792Y-262448894D01*
X435734326Y-262446621D01*
X435906107Y-262443583D01*
X436039181Y-262439426D01*
X436139593Y-262433799D01*
X436213389Y-262426347D01*
X436266613Y-262416717D01*
X436305311Y-262404556D01*
X436309967Y-262402609D01*
X436407891Y-262336084D01*
X436493712Y-262232793D01*
X436557479Y-262106722D01*
X436582261Y-262019831D01*
X436591823Y-261952663D01*
X436602751Y-261845404D01*
X436611520Y-261740293D01*
X436764814Y-261740293D01*
X436765153Y-261788706D01*
X436769375Y-261799439D01*
X436797735Y-261790950D01*
X436862296Y-261768159D01*
X436951872Y-261735077D01*
X437007863Y-261713905D01*
X437285398Y-261617458D01*
X437819075Y-261617458D01*
X437832141Y-261641004D01*
X437875853Y-261695795D01*
X437945568Y-261776540D01*
X438036642Y-261877942D01*
X438144431Y-261994708D01*
X438225687Y-262081008D01*
X438344773Y-262207840D01*
X438452684Y-262325304D01*
X438544217Y-262427532D01*
X438614171Y-262508655D01*
X438657345Y-262562808D01*
X438668474Y-262580489D01*
X438686164Y-262611315D01*
X438716457Y-262628561D01*
X438772269Y-262636057D01*
X438861081Y-262637639D01*
X438988820Y-262629945D01*
X439094907Y-262603052D01*
X439160160Y-262575017D01*
X439302044Y-262522109D01*
X439478774Y-262484846D01*
X439695745Y-262462298D01*
X439856371Y-262455209D01*
X439979699Y-262454088D01*
X440061042Y-262461326D01*
X440109064Y-262481392D01*
X440132430Y-262518758D01*
X440139806Y-262577895D01*
X440140203Y-262601655D01*
X440145491Y-262662158D01*
X440157525Y-262696905D01*
X440190908Y-262713941D01*
X440206601Y-262687010D01*
X440204520Y-262643989D01*
X440192851Y-262569748D01*
X440179459Y-262484351D01*
X440178604Y-262478889D01*
X440163690Y-262383639D01*
X439925784Y-262383639D01*
X439796966Y-262387523D01*
X439641320Y-262397989D01*
X439482124Y-262413251D01*
X439388217Y-262424836D01*
X439248693Y-262442370D01*
X439153973Y-262450125D01*
X439099054Y-262448306D01*
X439079057Y-262437536D01*
X439048668Y-262422217D01*
X438972627Y-262412192D01*
X438855868Y-262408096D01*
X438849425Y-262408059D01*
X438629292Y-262407080D01*
X438565186Y-262335374D01*
X438743592Y-262335374D01*
X438889642Y-262327756D01*
X439035692Y-262320139D01*
X439042650Y-261863792D01*
X439043248Y-261810061D01*
X439124592Y-261810061D01*
X439125338Y-261965303D01*
X439127415Y-262104599D01*
X439130583Y-262219395D01*
X439134600Y-262301138D01*
X439139225Y-262341275D01*
X439139589Y-262342367D01*
X439175063Y-262367240D01*
X439248864Y-262366988D01*
X439346842Y-262344138D01*
X439358163Y-262327848D01*
X439366676Y-262283538D01*
X439372674Y-262206294D01*
X439376448Y-262091199D01*
X439378291Y-261933337D01*
X439378592Y-261809761D01*
X439378592Y-261285089D01*
X439299217Y-261300964D01*
X439226933Y-261312452D01*
X439172217Y-261316839D01*
X439155810Y-261319561D01*
X439143669Y-261332139D01*
X439135156Y-261361190D01*
X439129631Y-261413330D01*
X439126455Y-261495176D01*
X439124991Y-261613343D01*
X439124598Y-261774450D01*
X439124592Y-261810061D01*
X439043248Y-261810061D01*
X439044301Y-261715394D01*
X439044607Y-261583909D01*
X439043642Y-261478044D01*
X439041477Y-261406506D01*
X439038597Y-261378752D01*
X439015315Y-261363947D01*
X438957582Y-261364773D01*
X438885589Y-261375795D01*
X438743592Y-261401533D01*
X438743592Y-261868453D01*
X438743592Y-262335374D01*
X438565186Y-262335374D01*
X438266840Y-262001659D01*
X438179229Y-261904641D01*
X438286392Y-261904641D01*
X438457842Y-262094078D01*
X438629292Y-262283515D01*
X438636630Y-262066877D01*
X438639319Y-261929158D01*
X438639327Y-261775864D01*
X438636655Y-261640047D01*
X438636630Y-261639352D01*
X438629292Y-261428465D01*
X438457842Y-261465089D01*
X438286392Y-261501714D01*
X438286392Y-261703177D01*
X438286392Y-261904641D01*
X438179229Y-261904641D01*
X438136513Y-261857339D01*
X438034801Y-261748622D01*
X437957755Y-261672122D01*
X437901428Y-261624452D01*
X437861871Y-261602222D01*
X437835137Y-261602047D01*
X437819075Y-261617458D01*
X437285398Y-261617458D01*
X437327912Y-261602684D01*
X437468654Y-261561273D01*
X438025023Y-261561273D01*
X438030552Y-261586835D01*
X438057023Y-261635066D01*
X438093304Y-261689239D01*
X438128266Y-261732626D01*
X438149706Y-261748639D01*
X438155774Y-261726077D01*
X438159146Y-261669724D01*
X438159392Y-261647039D01*
X438155716Y-261581366D01*
X438139212Y-261552197D01*
X438101661Y-261545442D01*
X438100125Y-261545439D01*
X438047297Y-261551555D01*
X438025023Y-261561273D01*
X437468654Y-261561273D01*
X437696168Y-261494331D01*
X438110087Y-261389411D01*
X438567128Y-261288491D01*
X439064749Y-261192136D01*
X439600408Y-261100911D01*
X440102492Y-261025149D01*
X440273682Y-261001573D01*
X440466949Y-260976337D01*
X440675096Y-260950257D01*
X440890925Y-260924144D01*
X441107239Y-260898815D01*
X441316841Y-260875082D01*
X441512534Y-260853759D01*
X441687120Y-260835661D01*
X441833402Y-260821601D01*
X441944184Y-260812394D01*
X442012267Y-260808853D01*
X442015128Y-260808839D01*
X442049972Y-260802620D01*
X442089947Y-260780207D01*
X442141491Y-260735962D01*
X442211046Y-260664248D01*
X442305053Y-260559428D01*
X442321454Y-260540737D01*
X442413576Y-260435120D01*
X442475389Y-260362046D01*
X442510184Y-260315960D01*
X442521255Y-260291305D01*
X442511894Y-260282526D01*
X442485394Y-260284068D01*
X442472376Y-260286066D01*
X442416934Y-260292748D01*
X442322620Y-260301827D01*
X442201247Y-260312252D01*
X442064626Y-260322974D01*
X442020192Y-260326254D01*
X441321272Y-260381896D01*
X440669448Y-260443965D01*
X440061371Y-260512899D01*
X439493691Y-260589130D01*
X438963059Y-260673094D01*
X438466126Y-260765225D01*
X438185440Y-260824016D01*
X437965700Y-260874276D01*
X437739011Y-260929973D01*
X437515970Y-260988224D01*
X437307179Y-261046147D01*
X437123236Y-261100858D01*
X436974741Y-261149477D01*
X436932595Y-261164710D01*
X436787792Y-261218888D01*
X436787571Y-261375813D01*
X436784568Y-261489216D01*
X436777132Y-261607284D01*
X436771333Y-261666089D01*
X436764814Y-261740293D01*
X436611520Y-261740293D01*
X436614154Y-261708716D01*
X436625141Y-261553258D01*
X436634643Y-261393039D01*
X436643899Y-261225305D01*
X436653437Y-261061864D01*
X436656530Y-261011751D01*
X436818065Y-261011751D01*
X436818815Y-261071605D01*
X436821132Y-261088239D01*
X436848247Y-261080801D01*
X436913389Y-261060631D01*
X437006353Y-261030939D01*
X437100948Y-261000180D01*
X437367579Y-260919449D01*
X437676518Y-260837467D01*
X438019368Y-260756065D01*
X438387731Y-260677074D01*
X438773210Y-260602324D01*
X439167406Y-260533646D01*
X439432215Y-260491940D01*
X439638763Y-260461668D01*
X439843404Y-260433502D01*
X440051620Y-260406882D01*
X440268896Y-260381249D01*
X440500716Y-260356041D01*
X440752564Y-260330698D01*
X441029924Y-260304660D01*
X441338281Y-260277367D01*
X441683119Y-260248259D01*
X442069921Y-260216774D01*
X442320859Y-260196791D01*
X442710427Y-260165978D01*
X442871030Y-260060494D01*
X442966793Y-260000563D01*
X443062306Y-259945598D01*
X443135512Y-259908166D01*
X443239392Y-259861323D01*
X443239392Y-259815985D01*
X443366392Y-259815985D01*
X443473241Y-259778286D01*
X443548059Y-259757769D01*
X443654328Y-259735938D01*
X443772952Y-259716565D01*
X443813117Y-259711156D01*
X443939585Y-259697816D01*
X444044911Y-259694740D01*
X444151923Y-259702538D01*
X444283447Y-259721818D01*
X444296818Y-259724061D01*
X444410163Y-259743843D01*
X444509721Y-259762372D01*
X444581401Y-259776972D01*
X444604642Y-259782581D01*
X444633632Y-259788312D01*
X444650668Y-259778615D01*
X444658923Y-259743755D01*
X444661572Y-259673997D01*
X444661792Y-259607323D01*
X444661792Y-259415882D01*
X444498574Y-259398403D01*
X444394609Y-259391419D01*
X444261765Y-259388578D01*
X444111026Y-259389454D01*
X443953381Y-259393627D01*
X443799816Y-259400672D01*
X443661319Y-259410167D01*
X443548875Y-259421689D01*
X443473471Y-259434815D01*
X443461642Y-259438316D01*
X443366392Y-259471162D01*
X443366392Y-259643573D01*
X443366392Y-259815985D01*
X443239392Y-259815985D01*
X443239392Y-259691543D01*
X443239392Y-259521762D01*
X441749307Y-259504900D01*
X441435288Y-259501525D01*
X441101738Y-259498263D01*
X440758467Y-259495189D01*
X440415286Y-259492379D01*
X440082004Y-259489909D01*
X439768433Y-259487856D01*
X439484382Y-259486294D01*
X439239662Y-259485301D01*
X439202957Y-259485194D01*
X438950052Y-259484128D01*
X438690860Y-259482333D01*
X438434791Y-259479923D01*
X438191255Y-259477011D01*
X437969662Y-259473711D01*
X437779421Y-259470135D01*
X437629943Y-259466397D01*
X437621648Y-259466144D01*
X437096605Y-259449939D01*
X437052580Y-259615039D01*
X437021816Y-259719631D01*
X436980230Y-259847043D01*
X436935839Y-259972914D01*
X436927224Y-259996039D01*
X436897080Y-260079017D01*
X436874893Y-260151208D01*
X436858981Y-260223691D01*
X436847663Y-260307549D01*
X436839259Y-260413863D01*
X436832089Y-260553714D01*
X436828014Y-260650089D01*
X436822793Y-260792819D01*
X436819433Y-260916098D01*
X436818065Y-261011751D01*
X436656530Y-261011751D01*
X436662529Y-260914548D01*
X436670447Y-260795188D01*
X436676092Y-260719939D01*
X436691059Y-260542139D01*
X436565159Y-260749863D01*
X436320203Y-261107179D01*
X436028478Y-261448633D01*
X435856278Y-261621639D01*
X435583879Y-261863756D01*
X435312576Y-262066762D01*
X435029071Y-262240265D01*
X434919717Y-262298245D01*
X434837654Y-262340072D01*
X434774519Y-262373777D01*
X434733598Y-262400187D01*
X434718178Y-262420131D01*
X434148787Y-262420131D01*
X434213754Y-262399114D01*
X434302483Y-262369037D01*
X434719974Y-262199039D01*
X435107916Y-261988739D01*
X435464951Y-261740093D01*
X435789723Y-261455058D01*
X436080873Y-261135590D01*
X436337046Y-260783648D01*
X436556882Y-260401187D01*
X436739025Y-259990164D01*
X436882117Y-259552536D01*
X436984802Y-259090261D01*
X437045721Y-258605295D01*
X437058503Y-258395839D01*
X437056790Y-257900649D01*
X437009184Y-257423714D01*
X436916137Y-256966443D01*
X436778103Y-256530246D01*
X436595534Y-256116533D01*
X436368882Y-255726711D01*
X436299252Y-255632804D01*
X436537397Y-255632804D01*
X436545364Y-255665596D01*
X436571201Y-255710622D01*
X436602854Y-255760589D01*
X436650721Y-255833992D01*
X436689072Y-255886433D01*
X436709657Y-255906637D01*
X436709723Y-255906639D01*
X436737149Y-255902486D01*
X436809859Y-255890568D01*
X436923067Y-255871691D01*
X437071987Y-255846661D01*
X437251832Y-255816287D01*
X437457816Y-255781375D01*
X437685151Y-255742733D01*
X437929052Y-255701167D01*
X437994987Y-255689913D01*
X438785126Y-255554509D01*
X439546696Y-255423011D01*
X440278368Y-255295668D01*
X440978810Y-255172725D01*
X441646692Y-255054430D01*
X442280684Y-254941030D01*
X442879454Y-254832772D01*
X443441671Y-254729904D01*
X443966006Y-254632673D01*
X444451127Y-254541326D01*
X444895704Y-254456109D01*
X445298406Y-254377271D01*
X445657902Y-254305058D01*
X445972862Y-254239718D01*
X446241954Y-254181498D01*
X446463849Y-254130645D01*
X446637216Y-254087406D01*
X446671472Y-254078184D01*
X446763288Y-254050184D01*
X446847774Y-254019587D01*
X446915648Y-253990534D01*
X446957631Y-253967164D01*
X446964442Y-253953617D01*
X446954698Y-253951855D01*
X446926821Y-253955664D01*
X446851214Y-253967042D01*
X446730321Y-253985606D01*
X446566586Y-254010971D01*
X446362454Y-254042756D01*
X446120368Y-254080574D01*
X445842772Y-254124044D01*
X445532111Y-254172781D01*
X445190827Y-254226401D01*
X444821365Y-254284521D01*
X444426169Y-254346756D01*
X444007683Y-254412724D01*
X443568351Y-254482041D01*
X443110617Y-254554322D01*
X442636924Y-254629184D01*
X442149717Y-254706244D01*
X442103298Y-254713589D01*
X441610020Y-254791641D01*
X441127224Y-254868027D01*
X440657558Y-254942328D01*
X440203673Y-255014125D01*
X439768218Y-255082999D01*
X439353842Y-255148531D01*
X438963194Y-255210303D01*
X438598924Y-255267895D01*
X438263681Y-255320889D01*
X437960115Y-255368866D01*
X437690875Y-255411407D01*
X437458611Y-255448093D01*
X437265971Y-255478506D01*
X437115605Y-255502226D01*
X437010164Y-255518835D01*
X436952892Y-255527820D01*
X436791245Y-255552814D01*
X436674224Y-255572252D01*
X436596476Y-255589690D01*
X436552651Y-255608688D01*
X436537397Y-255632804D01*
X436299252Y-255632804D01*
X436098600Y-255362191D01*
X436075148Y-255334213D01*
X435797641Y-255044460D01*
X435518743Y-254814439D01*
X435828963Y-254814439D01*
X435839581Y-254831409D01*
X435879785Y-254877840D01*
X435943501Y-254947011D01*
X436024654Y-255032202D01*
X436041295Y-255049389D01*
X436137030Y-255149762D01*
X436227964Y-255248197D01*
X436303680Y-255333227D01*
X436352908Y-255392289D01*
X436403111Y-255452548D01*
X436442591Y-255491732D01*
X436457237Y-255500239D01*
X436483981Y-255496325D01*
X436558557Y-255484831D01*
X436678624Y-255466126D01*
X436841840Y-255440579D01*
X437045863Y-255408558D01*
X437288352Y-255370434D01*
X437566965Y-255326576D01*
X437879359Y-255277352D01*
X438223194Y-255223133D01*
X438596128Y-255164287D01*
X438995818Y-255101183D01*
X439419924Y-255034191D01*
X439866103Y-254963680D01*
X440332014Y-254890020D01*
X440815315Y-254813578D01*
X441313665Y-254734726D01*
X441693853Y-254674549D01*
X442201991Y-254594078D01*
X442696867Y-254515647D01*
X443176135Y-254439630D01*
X443637451Y-254366401D01*
X444078470Y-254296334D01*
X444496848Y-254229803D01*
X444890240Y-254167183D01*
X445256300Y-254108848D01*
X445592686Y-254055171D01*
X445897050Y-254006526D01*
X446167050Y-253963288D01*
X446400340Y-253925831D01*
X446594576Y-253894529D01*
X446638934Y-253887339D01*
X447049392Y-253887339D01*
X447062092Y-253900039D01*
X447074792Y-253887339D01*
X447062092Y-253874639D01*
X447049392Y-253887339D01*
X446638934Y-253887339D01*
X446747412Y-253869756D01*
X446856505Y-253851886D01*
X446919509Y-253841292D01*
X446935092Y-253838354D01*
X446936262Y-253829119D01*
X446913010Y-253825844D01*
X446882463Y-253827803D01*
X446803038Y-253834205D01*
X446674645Y-253845057D01*
X446497192Y-253860369D01*
X446270587Y-253880147D01*
X445994738Y-253904401D01*
X445669552Y-253933139D01*
X445294938Y-253966368D01*
X444870805Y-254004097D01*
X444397059Y-254046335D01*
X443873610Y-254093088D01*
X443300365Y-254144367D01*
X442677232Y-254200178D01*
X442004120Y-254260530D01*
X441280936Y-254325431D01*
X440507588Y-254394889D01*
X439683985Y-254468913D01*
X438810035Y-254547511D01*
X437885646Y-254630691D01*
X437249692Y-254687940D01*
X436987752Y-254711499D01*
X436741129Y-254733632D01*
X436514434Y-254753929D01*
X436312280Y-254771980D01*
X436139280Y-254787372D01*
X436000047Y-254799697D01*
X435899192Y-254808542D01*
X435841329Y-254813498D01*
X435828963Y-254814439D01*
X435518743Y-254814439D01*
X435482247Y-254784339D01*
X435134136Y-254556530D01*
X434758479Y-254363713D01*
X434360448Y-254208565D01*
X433945214Y-254093766D01*
X433549292Y-254025703D01*
X433372838Y-254010240D01*
X433163146Y-254001532D01*
X432936086Y-253999436D01*
X432707530Y-254003814D01*
X432493348Y-254014522D01*
X432309412Y-254031422D01*
X432266592Y-254037086D01*
X431811623Y-254126150D01*
X431382668Y-254257785D01*
X430981263Y-254430051D01*
X430608941Y-254641005D01*
X430267239Y-254888707D01*
X429957690Y-255171215D01*
X429681829Y-255486587D01*
X429441193Y-255832883D01*
X429237315Y-256208161D01*
X429071730Y-256610479D01*
X428945973Y-257037896D01*
X428861580Y-257488470D01*
X428820085Y-257960261D01*
X428649672Y-257960261D01*
X428656525Y-257790003D01*
X428705875Y-257368367D01*
X428786312Y-256961216D01*
X428896743Y-256578011D01*
X429029722Y-256241973D01*
X429074227Y-256136863D01*
X429092232Y-256072630D01*
X429084323Y-256047174D01*
X429084151Y-256047119D01*
X429054122Y-256041240D01*
X428978539Y-256027674D01*
X428861939Y-256007206D01*
X428708854Y-255980619D01*
X428523822Y-255948695D01*
X428311378Y-255912217D01*
X428076056Y-255871968D01*
X427822392Y-255828731D01*
X427605692Y-255791903D01*
X426825774Y-255658974D01*
X426074560Y-255529818D01*
X425353328Y-255404677D01*
X424663354Y-255283789D01*
X424005916Y-255167395D01*
X423382290Y-255055735D01*
X422793754Y-254949048D01*
X422241584Y-254847576D01*
X421727058Y-254751557D01*
X421251452Y-254661231D01*
X420816044Y-254576839D01*
X420422111Y-254498621D01*
X420070929Y-254426817D01*
X419763776Y-254361666D01*
X419501929Y-254303408D01*
X419286664Y-254252285D01*
X419119259Y-254208535D01*
X419017663Y-254178023D01*
X418888841Y-254123682D01*
X418780068Y-254055125D01*
X418699940Y-253979543D01*
X418688421Y-253959288D01*
X418911688Y-253959288D01*
X418934171Y-253977063D01*
X418992298Y-254002796D01*
X419079325Y-254034003D01*
X419188513Y-254068199D01*
X419313117Y-254102900D01*
X419401492Y-254125104D01*
X419621572Y-254175878D01*
X419890053Y-254234222D01*
X420205154Y-254299807D01*
X420565094Y-254372304D01*
X420968091Y-254451382D01*
X421412365Y-254536711D01*
X421896134Y-254627963D01*
X422417618Y-254724807D01*
X422975035Y-254826913D01*
X423566604Y-254933953D01*
X424190544Y-255045596D01*
X424845075Y-255161512D01*
X425528414Y-255281373D01*
X426238782Y-255404847D01*
X426974396Y-255531607D01*
X427313592Y-255589701D01*
X427572249Y-255633980D01*
X427823636Y-255677126D01*
X428061749Y-255718103D01*
X428280585Y-255755872D01*
X428474142Y-255789395D01*
X428636417Y-255817635D01*
X428761406Y-255839553D01*
X428843107Y-255854111D01*
X428850292Y-255855419D01*
X428961696Y-255875308D01*
X429057048Y-255891455D01*
X429123513Y-255901732D01*
X429144956Y-255904246D01*
X429179574Y-255884799D01*
X429228670Y-255830142D01*
X429276772Y-255760589D01*
X429323904Y-255682120D01*
X429345323Y-255635370D01*
X429344033Y-255610156D01*
X429325008Y-255597073D01*
X429296374Y-255591570D01*
X429220423Y-255578634D01*
X429100021Y-255558719D01*
X428938035Y-255532280D01*
X428737331Y-255499769D01*
X428500777Y-255461641D01*
X428231240Y-255418349D01*
X427931585Y-255370347D01*
X427604679Y-255318089D01*
X427253389Y-255262029D01*
X426880583Y-255202620D01*
X426489126Y-255140316D01*
X426081885Y-255075570D01*
X425661728Y-255008838D01*
X425231520Y-254940571D01*
X424794128Y-254871225D01*
X424352420Y-254801253D01*
X423909261Y-254731108D01*
X423467519Y-254661245D01*
X423030060Y-254592116D01*
X422599751Y-254524177D01*
X422179459Y-254457880D01*
X421772050Y-254393680D01*
X421380391Y-254332029D01*
X421007349Y-254273383D01*
X420655790Y-254218194D01*
X420328581Y-254166917D01*
X420028589Y-254120004D01*
X419758681Y-254077911D01*
X419521723Y-254041090D01*
X419320582Y-254009996D01*
X419158125Y-253985082D01*
X419037217Y-253966802D01*
X418960727Y-253955609D01*
X418931592Y-253951955D01*
X418911688Y-253959288D01*
X418688421Y-253959288D01*
X418657052Y-253904126D01*
X418654490Y-253887339D01*
X418804592Y-253887339D01*
X418817292Y-253900039D01*
X418829992Y-253887339D01*
X418817292Y-253874639D01*
X418804592Y-253887339D01*
X418654490Y-253887339D01*
X418652192Y-253872286D01*
X418666242Y-253830661D01*
X418958654Y-253830661D01*
X418962873Y-253838051D01*
X419008469Y-253850210D01*
X419086497Y-253864949D01*
X419122092Y-253870663D01*
X419167257Y-253877737D01*
X419260089Y-253892386D01*
X419398081Y-253914213D01*
X419578729Y-253942820D01*
X419799528Y-253977810D01*
X420057974Y-254018786D01*
X420351561Y-254065350D01*
X420677784Y-254117104D01*
X421034139Y-254173652D01*
X421418121Y-254234595D01*
X421827225Y-254299537D01*
X422258946Y-254368080D01*
X422710780Y-254439825D01*
X423180221Y-254514377D01*
X423664765Y-254591337D01*
X424161906Y-254670309D01*
X424341792Y-254698886D01*
X424840248Y-254778053D01*
X425325558Y-254855087D01*
X425795319Y-254929611D01*
X426247129Y-255001244D01*
X426678587Y-255069606D01*
X427087292Y-255134319D01*
X427470841Y-255195004D01*
X427826834Y-255251280D01*
X428152868Y-255302769D01*
X428446542Y-255349090D01*
X428705454Y-255389865D01*
X428927204Y-255424715D01*
X429109388Y-255453259D01*
X429249606Y-255475119D01*
X429345456Y-255489915D01*
X429394536Y-255497267D01*
X429400607Y-255498043D01*
X429438980Y-255480453D01*
X429491699Y-255432968D01*
X429526475Y-255392289D01*
X429577480Y-255331158D01*
X429653777Y-255245551D01*
X429744859Y-255147034D01*
X429835981Y-255051538D01*
X430061935Y-254818737D01*
X429926013Y-254803434D01*
X429879430Y-254798775D01*
X429786432Y-254789999D01*
X429651204Y-254777487D01*
X429477933Y-254761619D01*
X429270804Y-254742773D01*
X429034003Y-254721330D01*
X428771716Y-254697669D01*
X428488128Y-254672170D01*
X428187425Y-254645213D01*
X427873792Y-254617177D01*
X427808892Y-254611385D01*
X426815317Y-254522712D01*
X425863938Y-254437733D01*
X424946347Y-254355696D01*
X424054134Y-254275846D01*
X423178890Y-254197432D01*
X422312207Y-254119701D01*
X421445675Y-254041899D01*
X420838254Y-253987313D01*
X420536944Y-253960392D01*
X420249917Y-253935069D01*
X419981260Y-253911684D01*
X419735058Y-253890577D01*
X419515398Y-253872089D01*
X419326365Y-253856562D01*
X419172046Y-253844334D01*
X419056526Y-253835747D01*
X418983891Y-253831142D01*
X418958654Y-253830661D01*
X418666242Y-253830661D01*
X418676184Y-253801204D01*
X418743087Y-253741109D01*
X418845293Y-253697669D01*
X418904374Y-253684446D01*
X418944835Y-253684059D01*
X419031448Y-253688049D01*
X419159785Y-253696074D01*
X419325416Y-253707794D01*
X419523914Y-253722867D01*
X419750850Y-253740954D01*
X420001794Y-253761713D01*
X420272320Y-253784805D01*
X420557998Y-253809888D01*
X420697202Y-253822354D01*
X420928426Y-253843168D01*
X421205609Y-253868077D01*
X421524111Y-253896665D01*
X421879291Y-253928517D01*
X422266509Y-253963218D01*
X422681125Y-254000353D01*
X423118497Y-254039505D01*
X423573986Y-254080261D01*
X424042952Y-254122204D01*
X424520754Y-254164919D01*
X425002751Y-254207991D01*
X425484303Y-254251004D01*
X425960770Y-254293543D01*
X426234092Y-254317936D01*
X426671998Y-254357043D01*
X427096900Y-254395051D01*
X427505965Y-254431702D01*
X427896360Y-254466742D01*
X428265252Y-254499914D01*
X428609807Y-254530960D01*
X428927194Y-254559626D01*
X429214578Y-254585654D01*
X429469126Y-254608789D01*
X429688005Y-254628773D01*
X429868383Y-254645352D01*
X430007426Y-254658267D01*
X430102301Y-254667264D01*
X430150175Y-254672086D01*
X430154679Y-254672639D01*
X430211913Y-254673889D01*
X430268527Y-254655009D01*
X430340636Y-254609668D01*
X430370579Y-254587820D01*
X430649651Y-254404597D01*
X430967414Y-254239231D01*
X431313633Y-254095901D01*
X431678077Y-253978785D01*
X432050512Y-253892060D01*
X432094449Y-253884036D01*
X432337833Y-253840912D01*
X432338506Y-253823839D01*
X432475641Y-253823839D01*
X432675916Y-253823839D01*
X432876192Y-253823839D01*
X433003192Y-253823839D01*
X433204968Y-253823839D01*
X433406744Y-253823839D01*
X433395837Y-253563489D01*
X433391445Y-253448808D01*
X433386277Y-253298299D01*
X433380817Y-253126919D01*
X433375545Y-252949623D01*
X433372312Y-252833239D01*
X433364948Y-252613287D01*
X433355021Y-252431703D01*
X433341184Y-252276070D01*
X433322089Y-252133970D01*
X433296388Y-251992985D01*
X433266157Y-251855339D01*
X433231160Y-251728757D01*
X433186553Y-251601561D01*
X433137593Y-251486088D01*
X433089541Y-251394672D01*
X433047654Y-251339651D01*
X433045576Y-251337878D01*
X433035967Y-251332674D01*
X433027924Y-251336899D01*
X433021309Y-251354551D01*
X433015984Y-251389628D01*
X433011810Y-251446131D01*
X433008649Y-251528056D01*
X433006363Y-251639403D01*
X433004813Y-251784172D01*
X433003862Y-251966359D01*
X433003370Y-252189965D01*
X433003201Y-252458988D01*
X433003192Y-252563428D01*
X433003192Y-253823839D01*
X432876192Y-253823839D01*
X432876192Y-252565039D01*
X432875693Y-252245772D01*
X432874209Y-251972432D01*
X432871755Y-251745802D01*
X432868346Y-251566664D01*
X432863998Y-251435802D01*
X432858728Y-251353997D01*
X432852551Y-251322032D01*
X432851093Y-251321752D01*
X432812878Y-251363773D01*
X432766112Y-251442267D01*
X432716865Y-251545055D01*
X432671207Y-251659958D01*
X432648459Y-251728339D01*
X432603853Y-251895893D01*
X432568607Y-252079519D01*
X432541822Y-252286939D01*
X432522595Y-252525876D01*
X432510026Y-252804051D01*
X432506227Y-252947539D01*
X432502178Y-253122281D01*
X432497798Y-253290115D01*
X432493392Y-253440775D01*
X432489265Y-253563999D01*
X432485722Y-253649522D01*
X432484890Y-253665089D01*
X432475641Y-253823839D01*
X432338506Y-253823839D01*
X432352947Y-253457725D01*
X432355037Y-253390791D01*
X432357953Y-253275979D01*
X432361639Y-253116204D01*
X432366038Y-252914380D01*
X432371092Y-252673422D01*
X432376744Y-252396244D01*
X432382937Y-252085762D01*
X432389615Y-251744889D01*
X432390914Y-251677539D01*
X432519959Y-251677539D01*
X432571710Y-251554192D01*
X432619887Y-251454544D01*
X432679082Y-251351554D01*
X432699984Y-251319623D01*
X432753285Y-251250584D01*
X432804351Y-251197862D01*
X432826350Y-251181726D01*
X432832079Y-251178029D01*
X432837351Y-251171963D01*
X432842186Y-251161494D01*
X432846601Y-251144585D01*
X432850618Y-251119200D01*
X432854253Y-251083304D01*
X432857526Y-251034860D01*
X432860457Y-250971833D01*
X432863063Y-250892187D01*
X432865365Y-250793886D01*
X432867381Y-250674895D01*
X432869129Y-250533177D01*
X432870630Y-250366697D01*
X432871901Y-250173418D01*
X432872963Y-249951306D01*
X432873833Y-249698323D01*
X432874531Y-249412435D01*
X432875075Y-249091605D01*
X432875486Y-248733798D01*
X432875781Y-248336978D01*
X432875980Y-247899109D01*
X432876101Y-247418154D01*
X432876165Y-246892079D01*
X432876188Y-246318848D01*
X432876192Y-245831535D01*
X432876167Y-245216554D01*
X432876085Y-244650399D01*
X432875930Y-244131095D01*
X432875687Y-243656668D01*
X432875341Y-243225142D01*
X432874878Y-242834543D01*
X432874282Y-242482897D01*
X432873539Y-242168229D01*
X432872634Y-241888564D01*
X432871552Y-241641929D01*
X432870279Y-241426348D01*
X432868799Y-241239846D01*
X432867097Y-241080450D01*
X432865159Y-240946185D01*
X432862970Y-240835076D01*
X432860515Y-240745149D01*
X432857779Y-240674428D01*
X432854748Y-240620941D01*
X432851406Y-240582711D01*
X432847739Y-240557765D01*
X432843731Y-240544127D01*
X432839368Y-240539824D01*
X432836417Y-240541028D01*
X432795803Y-240587551D01*
X432760064Y-240644772D01*
X432755878Y-240652482D01*
X432751995Y-240660049D01*
X432748369Y-240669375D01*
X432744953Y-240682365D01*
X432741703Y-240700921D01*
X432738572Y-240726947D01*
X432735516Y-240762346D01*
X432732487Y-240809021D01*
X432729441Y-240868876D01*
X432726332Y-240943814D01*
X432723114Y-241035738D01*
X432719741Y-241146551D01*
X432716167Y-241278157D01*
X432712348Y-241432459D01*
X432708237Y-241611360D01*
X432703789Y-241816764D01*
X432698957Y-242050573D01*
X432693696Y-242314692D01*
X432687961Y-242611023D01*
X432681706Y-242941469D01*
X432674885Y-243307935D01*
X432667452Y-243712322D01*
X432659361Y-244156535D01*
X432650568Y-244642477D01*
X432641025Y-245172051D01*
X432630688Y-245747160D01*
X432619511Y-246369708D01*
X432610405Y-246876939D01*
X432602670Y-247306817D01*
X432595002Y-247731289D01*
X432587469Y-248146668D01*
X432580138Y-248549266D01*
X432573078Y-248935398D01*
X432566358Y-249301376D01*
X432560044Y-249643514D01*
X432554205Y-249958126D01*
X432548910Y-250241525D01*
X432544226Y-250490024D01*
X432540221Y-250699937D01*
X432536964Y-250867578D01*
X432534523Y-250989258D01*
X432533940Y-251017139D01*
X432519959Y-251677539D01*
X432390914Y-251677539D01*
X432396719Y-251376540D01*
X432404194Y-250983630D01*
X432411981Y-250569073D01*
X432420025Y-250135783D01*
X432428267Y-249686677D01*
X432436651Y-249224666D01*
X432445120Y-248752668D01*
X432445504Y-248731139D01*
X432454433Y-248230364D01*
X432463491Y-247722408D01*
X432472600Y-247211581D01*
X432481685Y-246702189D01*
X432490667Y-246198541D01*
X432499471Y-245704945D01*
X432508020Y-245225710D01*
X432516235Y-244765144D01*
X432524042Y-244327554D01*
X432531362Y-243917251D01*
X432538120Y-243538541D01*
X432544237Y-243195733D01*
X432549638Y-242893135D01*
X432554245Y-242635055D01*
X432556062Y-242533289D01*
X432562434Y-242174389D01*
X432568060Y-241862704D01*
X432573256Y-241594659D01*
X432578342Y-241366679D01*
X432583635Y-241175190D01*
X432589454Y-241016618D01*
X432596116Y-240887388D01*
X432603941Y-240783926D01*
X432613246Y-240702657D01*
X432624349Y-240640007D01*
X432637569Y-240592401D01*
X432653224Y-240556265D01*
X432671632Y-240528025D01*
X432693110Y-240504106D01*
X432694626Y-240502693D01*
X433003192Y-240502693D01*
X433003192Y-245816397D01*
X433003192Y-251130102D01*
X433113681Y-251240591D01*
X433217188Y-251372835D01*
X433284446Y-251506528D01*
X433315978Y-251584125D01*
X433340377Y-251637306D01*
X433352235Y-251654461D01*
X433352541Y-251628710D01*
X433351967Y-251554592D01*
X433350551Y-251434531D01*
X433348333Y-251270953D01*
X433345353Y-251066281D01*
X433341649Y-250822941D01*
X433337262Y-250543356D01*
X433332231Y-250229952D01*
X433326595Y-249885154D01*
X433320394Y-249511385D01*
X433313666Y-249111071D01*
X433306452Y-248686635D01*
X433298791Y-248240503D01*
X433290722Y-247775100D01*
X433282285Y-247292849D01*
X433273518Y-246796176D01*
X433270623Y-246633043D01*
X433261527Y-246124421D01*
X433252491Y-245625022D01*
X433243569Y-245137591D01*
X433234814Y-244664873D01*
X433226280Y-244209611D01*
X433218022Y-243774550D01*
X433210093Y-243362433D01*
X433202549Y-242976006D01*
X433195442Y-242618012D01*
X433188827Y-242291195D01*
X433182758Y-241998299D01*
X433177289Y-241742069D01*
X433172474Y-241525248D01*
X433168368Y-241350582D01*
X433165024Y-241220813D01*
X433162496Y-241138687D01*
X433162194Y-241130747D01*
X433155367Y-240961998D01*
X433149319Y-240836373D01*
X433142828Y-240746232D01*
X433134675Y-240683937D01*
X433123640Y-240641851D01*
X433108503Y-240612335D01*
X433088046Y-240587752D01*
X433073042Y-240572524D01*
X433003192Y-240502693D01*
X432694626Y-240502693D01*
X432717978Y-240480934D01*
X432740574Y-240460488D01*
X432801445Y-240409323D01*
X432855704Y-240371382D01*
X432861356Y-240368220D01*
X432935448Y-240355518D01*
X433024800Y-240380152D01*
G37*
D10*
X460000000Y-275290000D03*
D11*
X460000000Y-272750000D03*
D12*
X447750000Y-268740000D03*
X447750000Y-269760000D03*
D13*
X492000000Y-250750000D03*
X490980000Y-250750000D03*
D14*
X131600000Y-223360000D03*
X131600000Y-222400000D03*
D15*
X139250000Y-253000000D03*
X145750000Y-253000000D03*
X139250000Y-257500000D03*
X145750000Y-257500000D03*
D16*
X539490000Y-236250000D03*
X540510000Y-236250000D03*
D13*
X497270000Y-238750000D03*
X496250000Y-238750000D03*
D12*
X435500000Y-268740000D03*
X435500000Y-269760000D03*
D10*
X464000000Y-275275000D03*
D11*
X464000000Y-272735000D03*
D17*
X88490000Y-243900000D03*
X88490000Y-242880000D03*
D13*
X105910000Y-250500000D03*
X104890000Y-250500000D03*
D17*
X208000000Y-242020000D03*
X208000000Y-241000000D03*
D18*
X182520000Y-248500000D03*
X181560000Y-248500000D03*
D19*
X354300000Y-238000000D03*
D20*
X353030000Y-238000000D03*
X351760000Y-238000000D03*
D12*
X245600000Y-258690000D03*
X245600000Y-259710000D03*
D19*
X534020000Y-239260000D03*
D20*
X532750000Y-239260000D03*
X531480000Y-239260000D03*
D13*
X209770000Y-245000000D03*
X208750000Y-245000000D03*
D10*
X252300000Y-240500000D03*
D11*
X252300000Y-245580000D03*
X252300000Y-243040000D03*
D10*
X363000000Y-242000000D03*
D11*
X363000000Y-244540000D03*
D17*
X176230000Y-256290000D03*
X176230000Y-255270000D03*
D12*
X270000000Y-269490000D03*
X270000000Y-270510000D03*
D21*
X153170000Y-226630000D03*
X153170000Y-227590000D03*
D14*
X299850000Y-265280000D03*
X299850000Y-264320000D03*
D19*
X277230000Y-238000000D03*
D20*
X275960000Y-238000000D03*
X274690000Y-238000000D03*
D14*
X127500000Y-237980000D03*
X127500000Y-237020000D03*
D10*
X229000000Y-219000000D03*
D11*
X229000000Y-221540000D03*
D10*
X192000000Y-211125000D03*
D11*
X192000000Y-213665000D03*
X192000000Y-216205000D03*
X192000000Y-218745000D03*
X192000000Y-221285000D03*
X192000000Y-223825000D03*
X192000000Y-226365000D03*
X192000000Y-228905000D03*
X192000000Y-231445000D03*
D14*
X222750000Y-243500000D03*
X222750000Y-242540000D03*
D10*
X111250000Y-211125000D03*
D11*
X111250000Y-213665000D03*
X111250000Y-216205000D03*
X111250000Y-218745000D03*
X111250000Y-221285000D03*
X111250000Y-223825000D03*
X111250000Y-226365000D03*
X111250000Y-228905000D03*
X111250000Y-231445000D03*
D10*
X385550000Y-252250000D03*
D11*
X385550000Y-257330000D03*
X385550000Y-254790000D03*
D12*
X279600000Y-269490000D03*
X279600000Y-270510000D03*
X330200000Y-269690000D03*
X330200000Y-270710000D03*
D13*
X84310000Y-263750000D03*
X83290000Y-263750000D03*
D10*
X177000000Y-241000000D03*
D11*
X177000000Y-243540000D03*
D18*
X137320000Y-248000000D03*
X136360000Y-248000000D03*
D12*
X306200000Y-269690000D03*
X306200000Y-270710000D03*
D17*
X298250000Y-246760000D03*
X298250000Y-245740000D03*
D16*
X347750000Y-235000000D03*
X348770000Y-235000000D03*
D10*
X507300000Y-240500000D03*
D11*
X507300000Y-245580000D03*
X507300000Y-243040000D03*
D12*
X323600000Y-258690000D03*
X323600000Y-259710000D03*
D16*
X200740000Y-234250000D03*
X201760000Y-234250000D03*
D10*
X353000000Y-211125000D03*
D11*
X353000000Y-213665000D03*
X353000000Y-216205000D03*
X353000000Y-218745000D03*
X353000000Y-221285000D03*
X353000000Y-223825000D03*
X353000000Y-226365000D03*
X353000000Y-228905000D03*
X353000000Y-231445000D03*
D10*
X428000000Y-211000000D03*
D11*
X428000000Y-213540000D03*
X428000000Y-216080000D03*
X428000000Y-218620000D03*
X428000000Y-221160000D03*
X428000000Y-223700000D03*
X428000000Y-226240000D03*
X428000000Y-228780000D03*
X428000000Y-231320000D03*
D10*
X306200000Y-273325000D03*
D11*
X306200000Y-275865000D03*
D12*
X443750000Y-268740000D03*
X443750000Y-269760000D03*
D10*
X108250000Y-264325000D03*
D11*
X108250000Y-266865000D03*
D10*
X238000000Y-273325000D03*
D11*
X238000000Y-275865000D03*
D19*
X248500000Y-238000000D03*
D20*
X247230000Y-238000000D03*
X245960000Y-238000000D03*
D10*
X184000000Y-211125000D03*
D11*
X184000000Y-213665000D03*
X184000000Y-216205000D03*
X184000000Y-218745000D03*
X184000000Y-221285000D03*
X184000000Y-223825000D03*
X184000000Y-226365000D03*
X184000000Y-228905000D03*
X184000000Y-231445000D03*
X184000000Y-233985000D03*
X184000000Y-236525000D03*
X184000000Y-239065000D03*
X184000000Y-241605000D03*
X184000000Y-244145000D03*
D19*
X184520000Y-251500000D03*
D20*
X183250000Y-251500000D03*
X181980000Y-251500000D03*
D17*
X270210000Y-242770000D03*
X270210000Y-241750000D03*
D22*
X473020000Y-262750000D03*
X473980000Y-262750000D03*
D19*
X324980000Y-238000000D03*
D20*
X323710000Y-238000000D03*
X322440000Y-238000000D03*
D23*
X315800000Y-264670000D03*
D24*
X315800000Y-263400000D03*
X315800000Y-262130000D03*
D17*
X538730000Y-244010000D03*
X538730000Y-242990000D03*
D12*
X239200000Y-258690000D03*
X239200000Y-259710000D03*
D16*
X428740000Y-235000000D03*
X429760000Y-235000000D03*
D12*
X460000000Y-268730000D03*
X460000000Y-269750000D03*
D17*
X404000000Y-235770000D03*
X404000000Y-234750000D03*
D23*
X270000000Y-262270000D03*
D24*
X270000000Y-261000000D03*
X270000000Y-259730000D03*
D16*
X312980000Y-234980000D03*
X314000000Y-234980000D03*
D10*
X450000000Y-224460000D03*
D11*
X450000000Y-227000000D03*
D23*
X311000000Y-262290000D03*
D24*
X311000000Y-261020000D03*
X311000000Y-259750000D03*
D17*
X312240000Y-242750000D03*
X312240000Y-241730000D03*
D23*
X320600000Y-262290000D03*
D24*
X320600000Y-261020000D03*
X320600000Y-259750000D03*
D10*
X325400000Y-273325000D03*
D11*
X325400000Y-275865000D03*
D16*
X86110000Y-218000000D03*
X87130000Y-218000000D03*
X89230000Y-236640000D03*
X90250000Y-236640000D03*
D18*
X207250000Y-234240000D03*
X206290000Y-234240000D03*
D10*
X265400000Y-263125000D03*
D11*
X265400000Y-265665000D03*
D17*
X369250000Y-268760000D03*
X369250000Y-267740000D03*
D23*
X242800000Y-262270000D03*
D24*
X242800000Y-261000000D03*
X242800000Y-259730000D03*
D17*
X187750000Y-256010000D03*
X187750000Y-254990000D03*
D10*
X279600000Y-273325000D03*
D11*
X279600000Y-275865000D03*
D10*
X451750000Y-275275000D03*
D11*
X451750000Y-272735000D03*
D17*
X183270000Y-256270000D03*
X183270000Y-255250000D03*
D18*
X246500000Y-235000000D03*
X245540000Y-235000000D03*
D12*
X272800000Y-258690000D03*
X272800000Y-259710000D03*
D13*
X84710000Y-259400000D03*
X83690000Y-259400000D03*
D10*
X188300000Y-247500000D03*
D11*
X188300000Y-252580000D03*
X188300000Y-250040000D03*
D25*
X90830000Y-266500000D03*
D26*
X88290000Y-266500000D03*
X85750000Y-266500000D03*
D19*
X112790000Y-237250000D03*
D20*
X111520000Y-237250000D03*
X110250000Y-237250000D03*
D27*
X76700000Y-248250000D03*
D28*
X85700000Y-248250000D03*
D29*
X79700000Y-248250000D03*
D30*
X78700000Y-243750000D03*
X78700000Y-252750000D03*
D12*
X423250000Y-268750000D03*
X423250000Y-269770000D03*
X266400000Y-258690000D03*
X266400000Y-259710000D03*
D14*
X268000000Y-265880000D03*
X268000000Y-264920000D03*
D10*
X329300000Y-240500000D03*
D11*
X329300000Y-245580000D03*
X329300000Y-243040000D03*
D10*
X252400000Y-273325000D03*
D11*
X252400000Y-275865000D03*
D31*
X79000000Y-213000000D03*
D16*
X248000000Y-235000000D03*
X249020000Y-235000000D03*
D17*
X251750000Y-249010000D03*
X251750000Y-247990000D03*
D23*
X306200000Y-264670000D03*
D24*
X306200000Y-263400000D03*
X306200000Y-262130000D03*
D23*
X257160000Y-264670000D03*
D24*
X257160000Y-263400000D03*
X257160000Y-262130000D03*
D17*
X136750000Y-268760000D03*
X136750000Y-267740000D03*
D19*
X429270000Y-238000000D03*
D20*
X428000000Y-238000000D03*
X426730000Y-238000000D03*
D18*
X317250000Y-235020000D03*
X316290000Y-235020000D03*
D10*
X268000000Y-211125000D03*
D11*
X268000000Y-213665000D03*
X268000000Y-216205000D03*
X268000000Y-218745000D03*
X268000000Y-221285000D03*
X268000000Y-223825000D03*
X268000000Y-226365000D03*
X268000000Y-228905000D03*
X268000000Y-231445000D03*
D10*
X139250000Y-264460000D03*
D11*
X139250000Y-267000000D03*
D19*
X106400000Y-253500000D03*
D20*
X105130000Y-253500000D03*
X103860000Y-253500000D03*
D12*
X252400000Y-269490000D03*
X252400000Y-270510000D03*
X301400000Y-269690000D03*
X301400000Y-270710000D03*
D13*
X89620000Y-221730000D03*
X88600000Y-221730000D03*
D21*
X152280000Y-230540000D03*
X152280000Y-231500000D03*
D12*
X385000000Y-248740000D03*
X385000000Y-249760000D03*
D17*
X92750000Y-249010000D03*
X92750000Y-247990000D03*
D21*
X148590000Y-247640000D03*
X148590000Y-248600000D03*
D16*
X86100000Y-225480000D03*
X87120000Y-225480000D03*
D12*
X282600000Y-258690000D03*
X282600000Y-259710000D03*
D16*
X412750000Y-235000000D03*
X413770000Y-235000000D03*
D13*
X209760000Y-247500000D03*
X208740000Y-247500000D03*
D12*
X92750000Y-236990000D03*
X92750000Y-238010000D03*
D23*
X289200000Y-262250000D03*
D24*
X289200000Y-260980000D03*
X289200000Y-259710000D03*
D18*
X199250000Y-234250000D03*
X198290000Y-234250000D03*
D16*
X176970000Y-248520000D03*
X177990000Y-248520000D03*
D10*
X208000000Y-211125000D03*
D11*
X208000000Y-213665000D03*
X208000000Y-216205000D03*
X208000000Y-218745000D03*
X208000000Y-221285000D03*
X208000000Y-223825000D03*
X208000000Y-226365000D03*
X208000000Y-228905000D03*
X208000000Y-231445000D03*
D12*
X148250000Y-252990000D03*
X148250000Y-254010000D03*
D10*
X284400000Y-273325000D03*
D11*
X284400000Y-275865000D03*
D12*
X276000000Y-258690000D03*
X276000000Y-259710000D03*
D32*
X150500000Y-244250000D03*
X150500000Y-243750000D03*
X150500000Y-243250000D03*
X150500000Y-242750000D03*
X150500000Y-242250000D03*
X150500000Y-241750000D03*
X150500000Y-241250000D03*
X150500000Y-240750000D03*
X150500000Y-240250000D03*
X150500000Y-239750000D03*
X150500000Y-239250000D03*
X150500000Y-238750000D03*
X150500000Y-238250000D03*
X150500000Y-237750000D03*
X150500000Y-237250000D03*
X150500000Y-236750000D03*
X150500000Y-236250000D03*
X150500000Y-235750000D03*
X150500000Y-235250000D03*
X150500000Y-234750000D03*
X150500000Y-234250000D03*
X150500000Y-233750000D03*
X150500000Y-233250000D03*
X150500000Y-232750000D03*
X150500000Y-232250000D03*
X150500000Y-231750000D03*
X150500000Y-231250000D03*
X150500000Y-230750000D03*
X150500000Y-230250000D03*
X150500000Y-229750000D03*
X150500000Y-229250000D03*
X150500000Y-228750000D03*
X150500000Y-228250000D03*
X150500000Y-227750000D03*
X150500000Y-227250000D03*
X150500000Y-226750000D03*
D33*
X148587500Y-224837500D03*
X148087500Y-224837500D03*
X147587500Y-224837500D03*
X147087500Y-224837500D03*
X146587500Y-224837500D03*
X146087500Y-224837500D03*
X145587500Y-224837500D03*
X145087500Y-224837500D03*
X144587500Y-224837500D03*
X144087500Y-224837500D03*
X143587500Y-224837500D03*
X143087500Y-224837500D03*
X142587500Y-224837500D03*
X142087500Y-224837500D03*
X141587500Y-224837500D03*
X141087500Y-224837500D03*
X140587500Y-224837500D03*
X140087500Y-224837500D03*
X139587500Y-224837500D03*
X139087500Y-224837500D03*
X138587500Y-224837500D03*
X138087500Y-224837500D03*
X137587500Y-224837500D03*
X137087500Y-224837500D03*
X136587500Y-224837500D03*
X136087500Y-224837500D03*
X135587500Y-224837500D03*
X135087500Y-224837500D03*
X134587500Y-224837500D03*
X134087500Y-224837500D03*
X133587500Y-224837500D03*
X133087500Y-224837500D03*
X132587500Y-224837500D03*
X132087500Y-224837500D03*
X131587500Y-224837500D03*
X131087500Y-224837500D03*
D32*
X129175000Y-226750000D03*
X129175000Y-227250000D03*
X129175000Y-227750000D03*
X129175000Y-228250000D03*
X129175000Y-228750000D03*
X129175000Y-229250000D03*
X129175000Y-229750000D03*
X129175000Y-230250000D03*
X129175000Y-230750000D03*
X129175000Y-231250000D03*
X129175000Y-231750000D03*
X129175000Y-232250000D03*
X129175000Y-232750000D03*
X129175000Y-233250000D03*
X129175000Y-233750000D03*
X129175000Y-234250000D03*
X129175000Y-234750000D03*
X129175000Y-235250000D03*
X129175000Y-235750000D03*
X129175000Y-236250000D03*
X129175000Y-236750000D03*
X129175000Y-237250000D03*
X129175000Y-237750000D03*
X129175000Y-238250000D03*
X129175000Y-238750000D03*
X129175000Y-239250000D03*
X129175000Y-239750000D03*
X129175000Y-240250000D03*
X129175000Y-240750000D03*
X129175000Y-241250000D03*
X129175000Y-241750000D03*
X129175000Y-242250000D03*
X129175000Y-242750000D03*
X129175000Y-243250000D03*
X129175000Y-243750000D03*
X129175000Y-244250000D03*
D33*
X131087500Y-246162500D03*
X131587500Y-246162500D03*
X132087500Y-246162500D03*
X132587500Y-246162500D03*
X133087500Y-246162500D03*
X133587500Y-246162500D03*
X134087500Y-246162500D03*
X134587500Y-246162500D03*
X135087500Y-246162500D03*
X135587500Y-246162500D03*
X136087500Y-246162500D03*
X136587500Y-246162500D03*
X137087500Y-246162500D03*
X137587500Y-246162500D03*
X138087500Y-246162500D03*
X138587500Y-246162500D03*
X139087500Y-246162500D03*
X139587500Y-246162500D03*
X140087500Y-246162500D03*
X140587500Y-246162500D03*
X141087500Y-246162500D03*
X141587500Y-246162500D03*
X142087500Y-246162500D03*
X142587500Y-246162500D03*
X143087500Y-246162500D03*
X143587500Y-246162500D03*
X144087500Y-246162500D03*
X144587500Y-246162500D03*
X145087500Y-246162500D03*
X145587500Y-246162500D03*
X146087500Y-246162500D03*
X146587500Y-246162500D03*
X147087500Y-246162500D03*
X147587500Y-246162500D03*
X148087500Y-246162500D03*
X148587500Y-246162500D03*
D17*
X221750000Y-268760000D03*
X221750000Y-267740000D03*
X526730000Y-244010000D03*
X526730000Y-242990000D03*
X481000000Y-252760000D03*
X481000000Y-251740000D03*
D10*
X415250000Y-275275000D03*
D11*
X415250000Y-272735000D03*
D16*
X276690000Y-235000000D03*
X277710000Y-235000000D03*
X402490000Y-274750000D03*
X403510000Y-274750000D03*
D17*
X233250000Y-223260000D03*
X233250000Y-222240000D03*
D16*
X86100000Y-210460000D03*
X87120000Y-210460000D03*
D10*
X477000000Y-224460000D03*
D11*
X477000000Y-227000000D03*
D17*
X428000000Y-242760000D03*
X428000000Y-241740000D03*
D12*
X317000000Y-258690000D03*
X317000000Y-259710000D03*
X326600000Y-258690000D03*
X326600000Y-259710000D03*
D23*
X325400000Y-265070000D03*
D24*
X325400000Y-263800000D03*
X325400000Y-262530000D03*
D12*
X307380000Y-258690000D03*
X307380000Y-259710000D03*
X247600000Y-269490000D03*
X247600000Y-270510000D03*
D16*
X471990000Y-266500000D03*
X473010000Y-266500000D03*
D10*
X491225000Y-254000000D03*
D11*
X493765000Y-254000000D03*
D18*
X531960000Y-236250000D03*
X531000000Y-236250000D03*
D10*
X226000000Y-263460000D03*
D11*
X226000000Y-266000000D03*
D10*
X419250000Y-275290000D03*
D11*
X419250000Y-272750000D03*
D18*
X127480000Y-243570000D03*
X126520000Y-243570000D03*
D17*
X481000000Y-228760000D03*
X481000000Y-227740000D03*
D14*
X180750000Y-243500000D03*
X180750000Y-242540000D03*
D31*
X79000000Y-273000000D03*
X537000000Y-213000000D03*
D10*
X484000000Y-270040000D03*
D11*
X484000000Y-267500000D03*
D19*
X193270000Y-237250000D03*
D20*
X192000000Y-237250000D03*
X190730000Y-237250000D03*
D10*
X289200000Y-273325000D03*
D11*
X289200000Y-275865000D03*
D23*
X90860000Y-219270000D03*
D24*
X90860000Y-218000000D03*
X90860000Y-216730000D03*
D18*
X80680000Y-236615000D03*
X79720000Y-236615000D03*
D14*
X127500000Y-245480000D03*
X127500000Y-244520000D03*
D22*
X135850000Y-223330000D03*
X136810000Y-223330000D03*
D23*
X330200000Y-262270000D03*
D24*
X330200000Y-261000000D03*
X330200000Y-259730000D03*
D18*
X411250000Y-235000000D03*
X410290000Y-235000000D03*
D17*
X506750000Y-249000000D03*
X506750000Y-247980000D03*
D23*
X247600000Y-264670000D03*
D24*
X247600000Y-263400000D03*
X247600000Y-262130000D03*
D18*
X403250000Y-228000000D03*
X402290000Y-228000000D03*
D17*
X347010000Y-242770000D03*
X347010000Y-241750000D03*
D19*
X89760000Y-239390000D03*
D20*
X88490000Y-239390000D03*
X87220000Y-239390000D03*
D17*
X342750000Y-268760000D03*
X342750000Y-267740000D03*
X328750000Y-249010000D03*
X328750000Y-247990000D03*
D14*
X342750000Y-265980000D03*
X342750000Y-265020000D03*
D10*
X315800000Y-273325000D03*
D11*
X315800000Y-275865000D03*
D16*
X527490000Y-236250000D03*
X528510000Y-236250000D03*
D10*
X206000000Y-244960000D03*
D11*
X206000000Y-247500000D03*
X206000000Y-250040000D03*
X206000000Y-252580000D03*
X206000000Y-255120000D03*
X206000000Y-257660000D03*
D17*
X318020000Y-242770000D03*
X318020000Y-241750000D03*
D19*
X528000000Y-239250000D03*
D20*
X526730000Y-239250000D03*
X525460000Y-239250000D03*
D10*
X329000000Y-211125000D03*
D11*
X329000000Y-213665000D03*
X329000000Y-216205000D03*
X329000000Y-218745000D03*
X329000000Y-221285000D03*
X329000000Y-223825000D03*
X329000000Y-226365000D03*
X329000000Y-228905000D03*
X329000000Y-231445000D03*
D10*
X477000000Y-248460000D03*
D11*
X477000000Y-251000000D03*
D13*
X89620000Y-229230000D03*
X88600000Y-229230000D03*
D19*
X437270000Y-238000000D03*
D20*
X436000000Y-238000000D03*
X434730000Y-238000000D03*
D16*
X115475000Y-266000000D03*
X116495000Y-266000000D03*
D17*
X180750000Y-246260000D03*
X180750000Y-245240000D03*
D23*
X284400000Y-264870000D03*
D24*
X284400000Y-263600000D03*
X284400000Y-262330000D03*
D19*
X348260000Y-238000000D03*
D20*
X346990000Y-238000000D03*
X345720000Y-238000000D03*
D14*
X298250000Y-220480000D03*
X298250000Y-219520000D03*
D10*
X412000000Y-211000000D03*
D11*
X412000000Y-213540000D03*
X412000000Y-216080000D03*
X412000000Y-218620000D03*
X412000000Y-221160000D03*
X412000000Y-223700000D03*
X412000000Y-226240000D03*
X412000000Y-228780000D03*
X412000000Y-231320000D03*
D16*
X533490000Y-236250000D03*
X534510000Y-236250000D03*
D34*
X97294888Y-271500000D03*
D27*
X99294888Y-271500000D03*
D31*
X537000000Y-273000000D03*
D18*
X275190000Y-235000000D03*
X274230000Y-235000000D03*
D16*
X353760000Y-235000000D03*
X354780000Y-235000000D03*
D19*
X209270000Y-237250000D03*
D20*
X208000000Y-237250000D03*
X206730000Y-237250000D03*
D10*
X242800000Y-273325000D03*
D11*
X242800000Y-275865000D03*
D10*
X496500000Y-241225000D03*
D11*
X496500000Y-243765000D03*
D23*
X84860000Y-220460000D03*
D24*
X84860000Y-221730000D03*
X84860000Y-223000000D03*
D23*
X90860000Y-234250000D03*
D24*
X90860000Y-232980000D03*
X90860000Y-231710000D03*
D12*
X248800000Y-258690000D03*
X248800000Y-259710000D03*
D14*
X481000000Y-249960000D03*
X481000000Y-249000000D03*
D17*
X436000000Y-242760000D03*
X436000000Y-241740000D03*
D19*
X319270000Y-238000000D03*
D20*
X318000000Y-238000000D03*
X316730000Y-238000000D03*
D10*
X468000000Y-275290000D03*
D11*
X468000000Y-272750000D03*
D19*
X177520000Y-251520000D03*
D20*
X176250000Y-251520000D03*
X174980000Y-251520000D03*
D12*
X251750000Y-237000000D03*
X251750000Y-238020000D03*
D35*
X472725000Y-261000000D03*
X474275000Y-261000000D03*
D12*
X314000000Y-258690000D03*
X314000000Y-259710000D03*
D17*
X247230000Y-242760000D03*
X247230000Y-241740000D03*
D19*
X82760000Y-239345000D03*
D20*
X81490000Y-239345000D03*
X80220000Y-239345000D03*
D21*
X156070000Y-226630000D03*
X156070000Y-227590000D03*
D17*
X159750000Y-268760000D03*
X159750000Y-267740000D03*
D16*
X318750000Y-235000000D03*
X319770000Y-235000000D03*
D23*
X252350000Y-262250000D03*
D24*
X252350000Y-260980000D03*
X252350000Y-259710000D03*
D10*
X116710000Y-268500000D03*
D11*
X119250000Y-268500000D03*
D12*
X315800000Y-269690000D03*
X315800000Y-270710000D03*
D21*
X153260000Y-228640000D03*
X153260000Y-229600000D03*
D12*
X297800000Y-258690000D03*
X297800000Y-259710000D03*
D34*
X94152651Y-254500000D03*
D27*
X90652651Y-254500000D03*
D10*
X260000000Y-211125000D03*
D11*
X260000000Y-213665000D03*
X260000000Y-216205000D03*
X260000000Y-218745000D03*
X260000000Y-221285000D03*
X260000000Y-223825000D03*
X260000000Y-226365000D03*
X260000000Y-228905000D03*
X260000000Y-231445000D03*
D12*
X468000000Y-268730000D03*
X468000000Y-269750000D03*
D18*
X191250000Y-234250000D03*
X190290000Y-234250000D03*
X322960000Y-235000000D03*
X322000000Y-235000000D03*
D17*
X385000000Y-260760000D03*
X385000000Y-259740000D03*
D10*
X257200000Y-273325000D03*
D11*
X257200000Y-275865000D03*
D27*
X481000000Y-258250000D03*
D36*
X470840000Y-258250000D03*
D19*
X313510000Y-238000000D03*
D20*
X312240000Y-238000000D03*
X310970000Y-238000000D03*
D10*
X507000000Y-211000000D03*
D11*
X507000000Y-213540000D03*
X507000000Y-216080000D03*
X507000000Y-218620000D03*
X507000000Y-221160000D03*
X507000000Y-223700000D03*
X507000000Y-226240000D03*
X507000000Y-228780000D03*
X507000000Y-231320000D03*
D14*
X130620000Y-223360000D03*
X130620000Y-222400000D03*
D18*
X526000000Y-236250000D03*
X525040000Y-236250000D03*
D16*
X404750000Y-228000000D03*
X405770000Y-228000000D03*
D22*
X147360000Y-222340000D03*
X148320000Y-222340000D03*
D10*
X101600000Y-276000000D03*
D11*
X104140000Y-276000000D03*
X106680000Y-276000000D03*
X109220000Y-276000000D03*
D10*
X436000000Y-211000000D03*
D11*
X436000000Y-213540000D03*
X436000000Y-216080000D03*
X436000000Y-218620000D03*
X436000000Y-221160000D03*
X436000000Y-223700000D03*
X436000000Y-226240000D03*
X436000000Y-228780000D03*
X436000000Y-231320000D03*
D14*
X369250000Y-265980000D03*
X369250000Y-265020000D03*
D13*
X269000000Y-267475000D03*
X267980000Y-267475000D03*
D12*
X431500000Y-268740000D03*
X431500000Y-269760000D03*
D14*
X221750000Y-265980000D03*
X221750000Y-265020000D03*
D17*
X412000000Y-242770000D03*
X412000000Y-241750000D03*
D18*
X419250000Y-235000000D03*
X418290000Y-235000000D03*
D10*
X200000000Y-211125000D03*
D11*
X200000000Y-213665000D03*
X200000000Y-216205000D03*
X200000000Y-218745000D03*
X200000000Y-221285000D03*
X200000000Y-223825000D03*
X200000000Y-226365000D03*
X200000000Y-228905000D03*
X200000000Y-231445000D03*
D10*
X431500000Y-275290000D03*
D11*
X431500000Y-272750000D03*
D10*
X337000000Y-211125000D03*
D11*
X337000000Y-213665000D03*
X337000000Y-216205000D03*
X337000000Y-218745000D03*
X337000000Y-221285000D03*
X337000000Y-223825000D03*
X337000000Y-226365000D03*
X337000000Y-228905000D03*
X337000000Y-231445000D03*
D10*
X447750000Y-275275000D03*
D11*
X447750000Y-272735000D03*
D16*
X324450000Y-235000000D03*
X325470000Y-235000000D03*
X82210000Y-236605000D03*
X83230000Y-236605000D03*
X112240000Y-234290000D03*
X113260000Y-234290000D03*
D10*
X320600000Y-273325000D03*
D11*
X320600000Y-275865000D03*
D12*
X311000000Y-269690000D03*
X311000000Y-270710000D03*
D17*
X532750000Y-244010000D03*
X532750000Y-242990000D03*
D21*
X152190000Y-226630000D03*
X152190000Y-227590000D03*
D16*
X86100000Y-232980000D03*
X87120000Y-232980000D03*
D10*
X439500000Y-275275000D03*
D11*
X439500000Y-272735000D03*
D21*
X152010000Y-236020000D03*
X152010000Y-236980000D03*
D23*
X90860000Y-226750000D03*
D24*
X90860000Y-225480000D03*
X90860000Y-224210000D03*
D17*
X420020000Y-242760000D03*
X420020000Y-241740000D03*
D10*
X365000000Y-264000000D03*
D11*
X365000000Y-266540000D03*
D14*
X233250000Y-220480000D03*
X233250000Y-219520000D03*
D10*
X95250000Y-211125000D03*
D11*
X95250000Y-213665000D03*
X95250000Y-216205000D03*
X95250000Y-218745000D03*
X95250000Y-221285000D03*
X95250000Y-223825000D03*
X95250000Y-226365000D03*
X95250000Y-228905000D03*
X95250000Y-231445000D03*
D19*
X540000000Y-239250000D03*
D20*
X538730000Y-239250000D03*
X537460000Y-239250000D03*
D13*
X300710000Y-267000000D03*
X299690000Y-267000000D03*
D17*
X454000000Y-228760000D03*
X454000000Y-227740000D03*
D12*
X427250000Y-268730000D03*
X427250000Y-269750000D03*
X506750000Y-236980000D03*
X506750000Y-238000000D03*
X415250000Y-268740000D03*
X415250000Y-269760000D03*
D17*
X353030000Y-242770000D03*
X353030000Y-241750000D03*
D18*
X346260000Y-235000000D03*
X345300000Y-235000000D03*
D10*
X100400000Y-253000000D03*
D11*
X100400000Y-255540000D03*
D37*
X80000000Y-258860000D03*
X80000000Y-264640000D03*
D38*
X81445000Y-258500000D03*
X81445000Y-259300000D03*
D39*
X81445000Y-260500000D03*
X81445000Y-261500000D03*
X81445000Y-262000000D03*
X81445000Y-263000000D03*
D38*
X81445000Y-264200000D03*
X81445000Y-265000000D03*
X81445000Y-265000000D03*
X81445000Y-264200000D03*
D39*
X81445000Y-263500000D03*
X81445000Y-262500000D03*
X81445000Y-261000000D03*
X81445000Y-260000000D03*
D38*
X81445000Y-259300000D03*
X81445000Y-258500000D03*
D40*
X80530000Y-257430000D03*
D41*
X76350000Y-257430000D03*
D40*
X80530000Y-266070000D03*
D41*
X76350000Y-266070000D03*
D19*
X421270000Y-238000000D03*
D20*
X420000000Y-238000000D03*
X418730000Y-238000000D03*
D17*
X222750000Y-246260000D03*
X222750000Y-245240000D03*
X192000000Y-242010000D03*
X192000000Y-240990000D03*
D10*
X515000000Y-211000000D03*
D11*
X515000000Y-213540000D03*
X515000000Y-216080000D03*
X515000000Y-218620000D03*
X515000000Y-221160000D03*
X515000000Y-223700000D03*
X515000000Y-226240000D03*
X515000000Y-228780000D03*
X515000000Y-231320000D03*
D10*
X455750000Y-275275000D03*
D11*
X455750000Y-272735000D03*
D14*
X298270000Y-243980000D03*
X298270000Y-243020000D03*
D10*
X345000000Y-211125000D03*
D11*
X345000000Y-213665000D03*
X345000000Y-216205000D03*
X345000000Y-218745000D03*
X345000000Y-221285000D03*
X345000000Y-223825000D03*
X345000000Y-226365000D03*
X345000000Y-228905000D03*
X345000000Y-231445000D03*
D13*
X89620000Y-214230000D03*
X88600000Y-214230000D03*
D17*
X200000000Y-242020000D03*
X200000000Y-241000000D03*
D12*
X255200000Y-258640000D03*
X255200000Y-259660000D03*
X187750000Y-243990000D03*
X187750000Y-245010000D03*
D22*
X151980000Y-241750000D03*
X152940000Y-241750000D03*
D12*
X325400000Y-269690000D03*
X325400000Y-270710000D03*
D23*
X301400000Y-262270000D03*
D24*
X301400000Y-261000000D03*
X301400000Y-259730000D03*
D12*
X328750000Y-236980000D03*
X328750000Y-238000000D03*
D10*
X296600000Y-263125000D03*
D11*
X296600000Y-265665000D03*
D13*
X209750000Y-252750000D03*
X208730000Y-252750000D03*
D14*
X136750000Y-265960000D03*
X136750000Y-265000000D03*
D12*
X289200000Y-269490000D03*
X289200000Y-270510000D03*
D23*
X475815000Y-265190000D03*
D24*
X475815000Y-266460000D03*
X475815000Y-267730000D03*
D10*
X103250000Y-211125000D03*
D11*
X103250000Y-213665000D03*
X103250000Y-216205000D03*
X103250000Y-218745000D03*
X103250000Y-221285000D03*
X103250000Y-223825000D03*
X103250000Y-226365000D03*
X103250000Y-228905000D03*
X103250000Y-231445000D03*
D18*
X142320000Y-248000000D03*
X141360000Y-248000000D03*
D12*
X242800000Y-269490000D03*
X242800000Y-270510000D03*
D16*
X436740000Y-235000000D03*
X437760000Y-235000000D03*
D17*
X111000000Y-264310000D03*
X111000000Y-263290000D03*
D10*
X330200000Y-273325000D03*
D11*
X330200000Y-275865000D03*
D10*
X523000000Y-211000000D03*
D11*
X523000000Y-213540000D03*
X523000000Y-216080000D03*
X523000000Y-218620000D03*
X523000000Y-221160000D03*
X523000000Y-223700000D03*
X523000000Y-226240000D03*
X523000000Y-228780000D03*
X523000000Y-231320000D03*
D42*
X229000000Y-275375000D03*
X229000000Y-273825000D03*
D10*
X270000000Y-273325000D03*
D11*
X270000000Y-275865000D03*
D25*
X102740000Y-264800000D03*
D26*
X100200000Y-264800000D03*
X97660000Y-264800000D03*
D23*
X90960000Y-212270000D03*
D24*
X90960000Y-211000000D03*
X90960000Y-209730000D03*
D16*
X420740000Y-235000000D03*
X421760000Y-235000000D03*
D12*
X257200000Y-269490000D03*
X257200000Y-270510000D03*
D14*
X454000000Y-249980000D03*
X454000000Y-249020000D03*
D12*
X284400000Y-269490000D03*
X284400000Y-270510000D03*
D23*
X86000000Y-215500000D03*
D24*
X86000000Y-214230000D03*
X86000000Y-212960000D03*
D10*
X252000000Y-211125000D03*
D11*
X252000000Y-213665000D03*
X252000000Y-216205000D03*
X252000000Y-218745000D03*
X252000000Y-221285000D03*
X252000000Y-223825000D03*
X252000000Y-226365000D03*
X252000000Y-228905000D03*
X252000000Y-231445000D03*
D12*
X274800000Y-269490000D03*
X274800000Y-270510000D03*
X419250000Y-268740000D03*
X419250000Y-269760000D03*
D10*
X301400000Y-273325000D03*
D11*
X301400000Y-275865000D03*
D16*
X208750000Y-234250000D03*
X209770000Y-234250000D03*
D17*
X298250000Y-223260000D03*
X298250000Y-222240000D03*
D12*
X320600000Y-269690000D03*
X320600000Y-270710000D03*
D19*
X271460000Y-237990000D03*
D20*
X270190000Y-237990000D03*
X268920000Y-237990000D03*
D16*
X270960000Y-235000000D03*
X271980000Y-235000000D03*
D23*
X84860000Y-227960000D03*
D24*
X84860000Y-229230000D03*
X84860000Y-230500000D03*
D12*
X464000000Y-268740000D03*
X464000000Y-269760000D03*
D10*
X443750000Y-275290000D03*
D11*
X443750000Y-272750000D03*
D10*
X321000000Y-211125000D03*
D11*
X321000000Y-213665000D03*
X321000000Y-216205000D03*
X321000000Y-218745000D03*
X321000000Y-221285000D03*
X321000000Y-223825000D03*
X321000000Y-226365000D03*
X321000000Y-228905000D03*
X321000000Y-231445000D03*
D10*
X435500000Y-275275000D03*
D11*
X435500000Y-272735000D03*
D10*
X404000000Y-211000000D03*
D11*
X404000000Y-213540000D03*
X404000000Y-216080000D03*
X404000000Y-218620000D03*
X404000000Y-221160000D03*
D10*
X420000000Y-211000000D03*
D11*
X420000000Y-213540000D03*
X420000000Y-216080000D03*
X420000000Y-218620000D03*
X420000000Y-221160000D03*
X420000000Y-223700000D03*
X420000000Y-226240000D03*
X420000000Y-228780000D03*
X420000000Y-231320000D03*
D22*
X140860000Y-223330000D03*
X141820000Y-223330000D03*
D18*
X311490000Y-235000000D03*
X310530000Y-235000000D03*
D17*
X454000000Y-252760000D03*
X454000000Y-251740000D03*
D16*
X192750000Y-234250000D03*
X193770000Y-234250000D03*
D18*
X175480000Y-248500000D03*
X174520000Y-248500000D03*
D13*
X209760000Y-255250000D03*
X208740000Y-255250000D03*
D18*
X427230000Y-235000000D03*
X426270000Y-235000000D03*
D23*
X279600000Y-262270000D03*
D24*
X279600000Y-261000000D03*
X279600000Y-259730000D03*
D10*
X219000000Y-242000000D03*
D11*
X219000000Y-244540000D03*
D12*
X285600000Y-258690000D03*
X285600000Y-259710000D03*
D10*
X247600000Y-273325000D03*
D11*
X247600000Y-275865000D03*
D18*
X110730000Y-234290000D03*
X109770000Y-234290000D03*
D43*
X154135000Y-227550000D03*
X155105000Y-227550000D03*
D10*
X311000000Y-273325000D03*
D11*
X311000000Y-275865000D03*
D14*
X481000000Y-225980000D03*
X481000000Y-225020000D03*
D10*
X93300000Y-240500000D03*
D11*
X93300000Y-245580000D03*
X93300000Y-243040000D03*
D12*
X304400000Y-258710000D03*
X304400000Y-259730000D03*
X238000000Y-269490000D03*
X238000000Y-270510000D03*
X85000000Y-240490000D03*
X85000000Y-241510000D03*
D14*
X454000000Y-225980000D03*
X454000000Y-225020000D03*
D17*
X111500000Y-242050000D03*
X111500000Y-241030000D03*
D12*
X455750000Y-268730000D03*
X455750000Y-269750000D03*
D10*
X274800000Y-273325000D03*
D11*
X274800000Y-275865000D03*
D14*
X231500000Y-275080000D03*
X231500000Y-274120000D03*
D23*
X238000000Y-264670000D03*
D24*
X238000000Y-263400000D03*
X238000000Y-262130000D03*
D18*
X435230000Y-235000000D03*
X434270000Y-235000000D03*
D21*
X152250000Y-232770000D03*
X152250000Y-233730000D03*
D14*
X159750000Y-265980000D03*
X159750000Y-265020000D03*
D23*
X274750000Y-264740000D03*
D24*
X274750000Y-263470000D03*
X274750000Y-262200000D03*
D12*
X451750000Y-268730000D03*
X451750000Y-269750000D03*
D10*
X423250000Y-275290000D03*
D11*
X423250000Y-272750000D03*
D19*
X405270000Y-231000000D03*
D20*
X404000000Y-231000000D03*
X402730000Y-231000000D03*
D10*
X339000000Y-264460000D03*
D11*
X339000000Y-267000000D03*
D18*
X269460000Y-235000000D03*
X268500000Y-235000000D03*
D12*
X234600000Y-261490000D03*
X234600000Y-262510000D03*
D17*
X323710000Y-242770000D03*
X323710000Y-241750000D03*
D23*
X406640000Y-273230000D03*
D24*
X406640000Y-274500000D03*
X406640000Y-275770000D03*
D18*
X87700000Y-236640000D03*
X86740000Y-236640000D03*
D14*
X127250000Y-232480000D03*
X127250000Y-231520000D03*
D16*
X211990000Y-250000000D03*
X213010000Y-250000000D03*
D22*
X147360000Y-223320000D03*
X148320000Y-223320000D03*
D12*
X439500000Y-268730000D03*
X439500000Y-269750000D03*
D13*
X209760000Y-250000000D03*
X208740000Y-250000000D03*
D18*
X352240000Y-235000000D03*
X351280000Y-235000000D03*
D14*
X366750000Y-243480000D03*
X366750000Y-242520000D03*
D17*
X275980000Y-242760000D03*
X275980000Y-241740000D03*
D10*
X427250000Y-275290000D03*
D11*
X427250000Y-272750000D03*
D34*
X87794888Y-273500000D03*
D27*
X89794888Y-273500000D03*
D10*
X294000000Y-219000000D03*
D11*
X294000000Y-221540000D03*
D10*
X450000000Y-248000000D03*
D11*
X450000000Y-250540000D03*
D17*
X366750000Y-246260000D03*
X366750000Y-245240000D03*
D18*
X537980000Y-236250000D03*
X537020000Y-236250000D03*
D16*
X184020000Y-248500000D03*
X185040000Y-248500000D03*
D19*
X413270000Y-238000000D03*
D20*
X412000000Y-238000000D03*
X410730000Y-238000000D03*
D10*
X166000000Y-268000000D03*
D11*
X163460000Y-268000000D03*
D19*
X201250000Y-237250000D03*
D20*
X199980000Y-237250000D03*
X198710000Y-237250000D03*
D10*
X294000000Y-242460000D03*
D11*
X294000000Y-245000000D03*
D21*
X152280000Y-228640000D03*
X152280000Y-229600000D03*
M02*
