G04 #@! TF.GenerationSoftware,KiCad,Pcbnew,7.0.9*
G04 #@! TF.CreationDate,2024-04-05T10:46:58+01:00*
G04 #@! TF.ProjectId,mcpElectronicsv2,6d637045-6c65-4637-9472-6f6e69637376,rev?*
G04 #@! TF.SameCoordinates,Original*
G04 #@! TF.FileFunction,Soldermask,Bot*
G04 #@! TF.FilePolarity,Negative*
%FSLAX46Y46*%
G04 Gerber Fmt 4.6, Leading zero omitted, Abs format (unit mm)*
G04 Created by KiCad (PCBNEW 7.0.9) date 2024-04-05 10:46:58*
%MOMM*%
%LPD*%
G01*
G04 APERTURE LIST*
%ADD10R,1.700000X1.700000*%
%ADD11O,1.700000X1.700000*%
%ADD12C,2.000000*%
%ADD13R,1.050000X1.500000*%
%ADD14O,1.050000X1.500000*%
%ADD15R,1.500000X1.050000*%
%ADD16O,1.500000X1.050000*%
%ADD17R,1.905000X2.000000*%
%ADD18O,1.905000X2.000000*%
%ADD19C,1.600000*%
%ADD20R,2.000000X4.000000*%
%ADD21O,2.000000X3.300000*%
%ADD22O,3.500000X2.000000*%
%ADD23C,7.600000*%
%ADD24R,1.600000X1.600000*%
%ADD25O,1.600000X1.600000*%
%ADD26C,0.650000*%
%ADD27O,2.100000X1.000000*%
%ADD28O,1.600000X1.000000*%
G04 APERTURE END LIST*
D10*
X460000000Y-275290000D03*
D11*
X460000000Y-272750000D03*
D12*
X139250000Y-253000000D03*
X145750000Y-253000000D03*
X139250000Y-257500000D03*
X145750000Y-257500000D03*
D10*
X464000000Y-275275000D03*
D11*
X464000000Y-272735000D03*
D13*
X354300000Y-238000000D03*
D14*
X353030000Y-238000000D03*
X351760000Y-238000000D03*
D13*
X534020000Y-239260000D03*
D14*
X532750000Y-239260000D03*
X531480000Y-239260000D03*
D10*
X252300000Y-240500000D03*
D11*
X252300000Y-245580000D03*
X252300000Y-243040000D03*
D10*
X363000000Y-242000000D03*
D11*
X363000000Y-244540000D03*
D13*
X277230000Y-238000000D03*
D14*
X275960000Y-238000000D03*
X274690000Y-238000000D03*
D10*
X229000000Y-219000000D03*
D11*
X229000000Y-221540000D03*
D10*
X192000000Y-211125000D03*
D11*
X192000000Y-213665000D03*
X192000000Y-216205000D03*
X192000000Y-218745000D03*
X192000000Y-221285000D03*
X192000000Y-223825000D03*
X192000000Y-226365000D03*
X192000000Y-228905000D03*
X192000000Y-231445000D03*
D10*
X111250000Y-211125000D03*
D11*
X111250000Y-213665000D03*
X111250000Y-216205000D03*
X111250000Y-218745000D03*
X111250000Y-221285000D03*
X111250000Y-223825000D03*
X111250000Y-226365000D03*
X111250000Y-228905000D03*
X111250000Y-231445000D03*
D10*
X385550000Y-252250000D03*
D11*
X385550000Y-257330000D03*
X385550000Y-254790000D03*
D10*
X177000000Y-241000000D03*
D11*
X177000000Y-243540000D03*
D10*
X507300000Y-240500000D03*
D11*
X507300000Y-245580000D03*
X507300000Y-243040000D03*
D10*
X353000000Y-211125000D03*
D11*
X353000000Y-213665000D03*
X353000000Y-216205000D03*
X353000000Y-218745000D03*
X353000000Y-221285000D03*
X353000000Y-223825000D03*
X353000000Y-226365000D03*
X353000000Y-228905000D03*
X353000000Y-231445000D03*
D10*
X428000000Y-211000000D03*
D11*
X428000000Y-213540000D03*
X428000000Y-216080000D03*
X428000000Y-218620000D03*
X428000000Y-221160000D03*
X428000000Y-223700000D03*
X428000000Y-226240000D03*
X428000000Y-228780000D03*
X428000000Y-231320000D03*
D10*
X306200000Y-273325000D03*
D11*
X306200000Y-275865000D03*
D10*
X108250000Y-264325000D03*
D11*
X108250000Y-266865000D03*
D10*
X238000000Y-273325000D03*
D11*
X238000000Y-275865000D03*
D13*
X248500000Y-238000000D03*
D14*
X247230000Y-238000000D03*
X245960000Y-238000000D03*
D10*
X184000000Y-211125000D03*
D11*
X184000000Y-213665000D03*
X184000000Y-216205000D03*
X184000000Y-218745000D03*
X184000000Y-221285000D03*
X184000000Y-223825000D03*
X184000000Y-226365000D03*
X184000000Y-228905000D03*
X184000000Y-231445000D03*
X184000000Y-233985000D03*
X184000000Y-236525000D03*
X184000000Y-239065000D03*
X184000000Y-241605000D03*
X184000000Y-244145000D03*
D13*
X184520000Y-251500000D03*
D14*
X183250000Y-251500000D03*
X181980000Y-251500000D03*
D13*
X324980000Y-238000000D03*
D14*
X323710000Y-238000000D03*
X322440000Y-238000000D03*
D15*
X315800000Y-264670000D03*
D16*
X315800000Y-263400000D03*
X315800000Y-262130000D03*
D15*
X270000000Y-262270000D03*
D16*
X270000000Y-261000000D03*
X270000000Y-259730000D03*
D10*
X450000000Y-224460000D03*
D11*
X450000000Y-227000000D03*
D15*
X311000000Y-262290000D03*
D16*
X311000000Y-261020000D03*
X311000000Y-259750000D03*
D15*
X320600000Y-262290000D03*
D16*
X320600000Y-261020000D03*
X320600000Y-259750000D03*
D10*
X325400000Y-273325000D03*
D11*
X325400000Y-275865000D03*
D10*
X265400000Y-263125000D03*
D11*
X265400000Y-265665000D03*
D15*
X242800000Y-262270000D03*
D16*
X242800000Y-261000000D03*
X242800000Y-259730000D03*
D10*
X279600000Y-273325000D03*
D11*
X279600000Y-275865000D03*
D10*
X451750000Y-275275000D03*
D11*
X451750000Y-272735000D03*
D10*
X188300000Y-247500000D03*
D11*
X188300000Y-252580000D03*
X188300000Y-250040000D03*
D17*
X90830000Y-266500000D03*
D18*
X88290000Y-266500000D03*
X85750000Y-266500000D03*
D13*
X112790000Y-237250000D03*
D14*
X111520000Y-237250000D03*
X110250000Y-237250000D03*
D19*
X76700000Y-248250000D03*
D20*
X85700000Y-248250000D03*
D21*
X79700000Y-248250000D03*
D22*
X78700000Y-243750000D03*
X78700000Y-252750000D03*
D10*
X329300000Y-240500000D03*
D11*
X329300000Y-245580000D03*
X329300000Y-243040000D03*
D10*
X252400000Y-273325000D03*
D11*
X252400000Y-275865000D03*
D23*
X79000000Y-213000000D03*
D15*
X306200000Y-264670000D03*
D16*
X306200000Y-263400000D03*
X306200000Y-262130000D03*
D15*
X257160000Y-264670000D03*
D16*
X257160000Y-263400000D03*
X257160000Y-262130000D03*
D13*
X429270000Y-238000000D03*
D14*
X428000000Y-238000000D03*
X426730000Y-238000000D03*
D10*
X268000000Y-211125000D03*
D11*
X268000000Y-213665000D03*
X268000000Y-216205000D03*
X268000000Y-218745000D03*
X268000000Y-221285000D03*
X268000000Y-223825000D03*
X268000000Y-226365000D03*
X268000000Y-228905000D03*
X268000000Y-231445000D03*
D10*
X139250000Y-264460000D03*
D11*
X139250000Y-267000000D03*
D13*
X106400000Y-253500000D03*
D14*
X105130000Y-253500000D03*
X103860000Y-253500000D03*
D15*
X289200000Y-262250000D03*
D16*
X289200000Y-260980000D03*
X289200000Y-259710000D03*
D10*
X208000000Y-211125000D03*
D11*
X208000000Y-213665000D03*
X208000000Y-216205000D03*
X208000000Y-218745000D03*
X208000000Y-221285000D03*
X208000000Y-223825000D03*
X208000000Y-226365000D03*
X208000000Y-228905000D03*
X208000000Y-231445000D03*
D10*
X284400000Y-273325000D03*
D11*
X284400000Y-275865000D03*
D10*
X415250000Y-275275000D03*
D11*
X415250000Y-272735000D03*
D10*
X477000000Y-224460000D03*
D11*
X477000000Y-227000000D03*
D15*
X325400000Y-265070000D03*
D16*
X325400000Y-263800000D03*
X325400000Y-262530000D03*
D10*
X491225000Y-254000000D03*
D11*
X493765000Y-254000000D03*
D10*
X226000000Y-263460000D03*
D11*
X226000000Y-266000000D03*
D10*
X419250000Y-275290000D03*
D11*
X419250000Y-272750000D03*
D23*
X79000000Y-273000000D03*
X537000000Y-213000000D03*
D10*
X484000000Y-270040000D03*
D11*
X484000000Y-267500000D03*
D13*
X193270000Y-237250000D03*
D14*
X192000000Y-237250000D03*
X190730000Y-237250000D03*
D10*
X289200000Y-273325000D03*
D11*
X289200000Y-275865000D03*
D15*
X90860000Y-219270000D03*
D16*
X90860000Y-218000000D03*
X90860000Y-216730000D03*
D15*
X330200000Y-262270000D03*
D16*
X330200000Y-261000000D03*
X330200000Y-259730000D03*
D15*
X247600000Y-264670000D03*
D16*
X247600000Y-263400000D03*
X247600000Y-262130000D03*
D13*
X89760000Y-239390000D03*
D14*
X88490000Y-239390000D03*
X87220000Y-239390000D03*
D10*
X315800000Y-273325000D03*
D11*
X315800000Y-275865000D03*
D10*
X206000000Y-244960000D03*
D11*
X206000000Y-247500000D03*
X206000000Y-250040000D03*
X206000000Y-252580000D03*
X206000000Y-255120000D03*
X206000000Y-257660000D03*
D13*
X528000000Y-239250000D03*
D14*
X526730000Y-239250000D03*
X525460000Y-239250000D03*
D10*
X329000000Y-211125000D03*
D11*
X329000000Y-213665000D03*
X329000000Y-216205000D03*
X329000000Y-218745000D03*
X329000000Y-221285000D03*
X329000000Y-223825000D03*
X329000000Y-226365000D03*
X329000000Y-228905000D03*
X329000000Y-231445000D03*
D10*
X477000000Y-248460000D03*
D11*
X477000000Y-251000000D03*
D13*
X437270000Y-238000000D03*
D14*
X436000000Y-238000000D03*
X434730000Y-238000000D03*
D15*
X284400000Y-264870000D03*
D16*
X284400000Y-263600000D03*
X284400000Y-262330000D03*
D13*
X348260000Y-238000000D03*
D14*
X346990000Y-238000000D03*
X345720000Y-238000000D03*
D10*
X412000000Y-211000000D03*
D11*
X412000000Y-213540000D03*
X412000000Y-216080000D03*
X412000000Y-218620000D03*
X412000000Y-221160000D03*
X412000000Y-223700000D03*
X412000000Y-226240000D03*
X412000000Y-228780000D03*
X412000000Y-231320000D03*
D24*
X97294888Y-271500000D03*
D19*
X99294888Y-271500000D03*
D23*
X537000000Y-273000000D03*
D13*
X209270000Y-237250000D03*
D14*
X208000000Y-237250000D03*
X206730000Y-237250000D03*
D10*
X242800000Y-273325000D03*
D11*
X242800000Y-275865000D03*
D10*
X496500000Y-241225000D03*
D11*
X496500000Y-243765000D03*
D15*
X84860000Y-220460000D03*
D16*
X84860000Y-221730000D03*
X84860000Y-223000000D03*
D15*
X90860000Y-234250000D03*
D16*
X90860000Y-232980000D03*
X90860000Y-231710000D03*
D13*
X319270000Y-238000000D03*
D14*
X318000000Y-238000000D03*
X316730000Y-238000000D03*
D10*
X468000000Y-275290000D03*
D11*
X468000000Y-272750000D03*
D13*
X177520000Y-251520000D03*
D14*
X176250000Y-251520000D03*
X174980000Y-251520000D03*
D13*
X82760000Y-239345000D03*
D14*
X81490000Y-239345000D03*
X80220000Y-239345000D03*
D15*
X252350000Y-262250000D03*
D16*
X252350000Y-260980000D03*
X252350000Y-259710000D03*
D10*
X116710000Y-268500000D03*
D11*
X119250000Y-268500000D03*
D24*
X94152651Y-254500000D03*
D19*
X90652651Y-254500000D03*
D10*
X260000000Y-211125000D03*
D11*
X260000000Y-213665000D03*
X260000000Y-216205000D03*
X260000000Y-218745000D03*
X260000000Y-221285000D03*
X260000000Y-223825000D03*
X260000000Y-226365000D03*
X260000000Y-228905000D03*
X260000000Y-231445000D03*
D10*
X257200000Y-273325000D03*
D11*
X257200000Y-275865000D03*
D19*
X481000000Y-258250000D03*
D25*
X470840000Y-258250000D03*
D13*
X313510000Y-238000000D03*
D14*
X312240000Y-238000000D03*
X310970000Y-238000000D03*
D10*
X507000000Y-211000000D03*
D11*
X507000000Y-213540000D03*
X507000000Y-216080000D03*
X507000000Y-218620000D03*
X507000000Y-221160000D03*
X507000000Y-223700000D03*
X507000000Y-226240000D03*
X507000000Y-228780000D03*
X507000000Y-231320000D03*
D10*
X101600000Y-276000000D03*
D11*
X104140000Y-276000000D03*
X106680000Y-276000000D03*
X109220000Y-276000000D03*
D10*
X436000000Y-211000000D03*
D11*
X436000000Y-213540000D03*
X436000000Y-216080000D03*
X436000000Y-218620000D03*
X436000000Y-221160000D03*
X436000000Y-223700000D03*
X436000000Y-226240000D03*
X436000000Y-228780000D03*
X436000000Y-231320000D03*
D10*
X200000000Y-211125000D03*
D11*
X200000000Y-213665000D03*
X200000000Y-216205000D03*
X200000000Y-218745000D03*
X200000000Y-221285000D03*
X200000000Y-223825000D03*
X200000000Y-226365000D03*
X200000000Y-228905000D03*
X200000000Y-231445000D03*
D10*
X431500000Y-275290000D03*
D11*
X431500000Y-272750000D03*
D10*
X337000000Y-211125000D03*
D11*
X337000000Y-213665000D03*
X337000000Y-216205000D03*
X337000000Y-218745000D03*
X337000000Y-221285000D03*
X337000000Y-223825000D03*
X337000000Y-226365000D03*
X337000000Y-228905000D03*
X337000000Y-231445000D03*
D10*
X447750000Y-275275000D03*
D11*
X447750000Y-272735000D03*
D10*
X320600000Y-273325000D03*
D11*
X320600000Y-275865000D03*
D10*
X439500000Y-275275000D03*
D11*
X439500000Y-272735000D03*
D15*
X90860000Y-226750000D03*
D16*
X90860000Y-225480000D03*
X90860000Y-224210000D03*
D10*
X365000000Y-264000000D03*
D11*
X365000000Y-266540000D03*
D10*
X95250000Y-211125000D03*
D11*
X95250000Y-213665000D03*
X95250000Y-216205000D03*
X95250000Y-218745000D03*
X95250000Y-221285000D03*
X95250000Y-223825000D03*
X95250000Y-226365000D03*
X95250000Y-228905000D03*
X95250000Y-231445000D03*
D13*
X540000000Y-239250000D03*
D14*
X538730000Y-239250000D03*
X537460000Y-239250000D03*
D10*
X100400000Y-253000000D03*
D11*
X100400000Y-255540000D03*
D26*
X80000000Y-258860000D03*
X80000000Y-264640000D03*
D27*
X80530000Y-257430000D03*
D28*
X76350000Y-257430000D03*
D27*
X80530000Y-266070000D03*
D28*
X76350000Y-266070000D03*
D13*
X421270000Y-238000000D03*
D14*
X420000000Y-238000000D03*
X418730000Y-238000000D03*
D10*
X515000000Y-211000000D03*
D11*
X515000000Y-213540000D03*
X515000000Y-216080000D03*
X515000000Y-218620000D03*
X515000000Y-221160000D03*
X515000000Y-223700000D03*
X515000000Y-226240000D03*
X515000000Y-228780000D03*
X515000000Y-231320000D03*
D10*
X455750000Y-275275000D03*
D11*
X455750000Y-272735000D03*
D10*
X345000000Y-211125000D03*
D11*
X345000000Y-213665000D03*
X345000000Y-216205000D03*
X345000000Y-218745000D03*
X345000000Y-221285000D03*
X345000000Y-223825000D03*
X345000000Y-226365000D03*
X345000000Y-228905000D03*
X345000000Y-231445000D03*
D15*
X301400000Y-262270000D03*
D16*
X301400000Y-261000000D03*
X301400000Y-259730000D03*
D10*
X296600000Y-263125000D03*
D11*
X296600000Y-265665000D03*
D15*
X475815000Y-265190000D03*
D16*
X475815000Y-266460000D03*
X475815000Y-267730000D03*
D10*
X103250000Y-211125000D03*
D11*
X103250000Y-213665000D03*
X103250000Y-216205000D03*
X103250000Y-218745000D03*
X103250000Y-221285000D03*
X103250000Y-223825000D03*
X103250000Y-226365000D03*
X103250000Y-228905000D03*
X103250000Y-231445000D03*
D10*
X330200000Y-273325000D03*
D11*
X330200000Y-275865000D03*
D10*
X523000000Y-211000000D03*
D11*
X523000000Y-213540000D03*
X523000000Y-216080000D03*
X523000000Y-218620000D03*
X523000000Y-221160000D03*
X523000000Y-223700000D03*
X523000000Y-226240000D03*
X523000000Y-228780000D03*
X523000000Y-231320000D03*
D10*
X270000000Y-273325000D03*
D11*
X270000000Y-275865000D03*
D17*
X102740000Y-264800000D03*
D18*
X100200000Y-264800000D03*
X97660000Y-264800000D03*
D15*
X90960000Y-212270000D03*
D16*
X90960000Y-211000000D03*
X90960000Y-209730000D03*
D15*
X86000000Y-215500000D03*
D16*
X86000000Y-214230000D03*
X86000000Y-212960000D03*
D10*
X252000000Y-211125000D03*
D11*
X252000000Y-213665000D03*
X252000000Y-216205000D03*
X252000000Y-218745000D03*
X252000000Y-221285000D03*
X252000000Y-223825000D03*
X252000000Y-226365000D03*
X252000000Y-228905000D03*
X252000000Y-231445000D03*
D10*
X301400000Y-273325000D03*
D11*
X301400000Y-275865000D03*
D13*
X271460000Y-237990000D03*
D14*
X270190000Y-237990000D03*
X268920000Y-237990000D03*
D15*
X84860000Y-227960000D03*
D16*
X84860000Y-229230000D03*
X84860000Y-230500000D03*
D10*
X443750000Y-275290000D03*
D11*
X443750000Y-272750000D03*
D10*
X321000000Y-211125000D03*
D11*
X321000000Y-213665000D03*
X321000000Y-216205000D03*
X321000000Y-218745000D03*
X321000000Y-221285000D03*
X321000000Y-223825000D03*
X321000000Y-226365000D03*
X321000000Y-228905000D03*
X321000000Y-231445000D03*
D10*
X435500000Y-275275000D03*
D11*
X435500000Y-272735000D03*
D10*
X404000000Y-211000000D03*
D11*
X404000000Y-213540000D03*
X404000000Y-216080000D03*
X404000000Y-218620000D03*
X404000000Y-221160000D03*
D10*
X420000000Y-211000000D03*
D11*
X420000000Y-213540000D03*
X420000000Y-216080000D03*
X420000000Y-218620000D03*
X420000000Y-221160000D03*
X420000000Y-223700000D03*
X420000000Y-226240000D03*
X420000000Y-228780000D03*
X420000000Y-231320000D03*
D15*
X279600000Y-262270000D03*
D16*
X279600000Y-261000000D03*
X279600000Y-259730000D03*
D10*
X219000000Y-242000000D03*
D11*
X219000000Y-244540000D03*
D10*
X247600000Y-273325000D03*
D11*
X247600000Y-275865000D03*
D10*
X311000000Y-273325000D03*
D11*
X311000000Y-275865000D03*
D10*
X93300000Y-240500000D03*
D11*
X93300000Y-245580000D03*
X93300000Y-243040000D03*
D10*
X274800000Y-273325000D03*
D11*
X274800000Y-275865000D03*
D15*
X238000000Y-264670000D03*
D16*
X238000000Y-263400000D03*
X238000000Y-262130000D03*
D15*
X274750000Y-264740000D03*
D16*
X274750000Y-263470000D03*
X274750000Y-262200000D03*
D10*
X423250000Y-275290000D03*
D11*
X423250000Y-272750000D03*
D13*
X405270000Y-231000000D03*
D14*
X404000000Y-231000000D03*
X402730000Y-231000000D03*
D10*
X339000000Y-264460000D03*
D11*
X339000000Y-267000000D03*
D15*
X406640000Y-273230000D03*
D16*
X406640000Y-274500000D03*
X406640000Y-275770000D03*
D10*
X427250000Y-275290000D03*
D11*
X427250000Y-272750000D03*
D24*
X87794888Y-273500000D03*
D19*
X89794888Y-273500000D03*
D10*
X294000000Y-219000000D03*
D11*
X294000000Y-221540000D03*
D10*
X450000000Y-248000000D03*
D11*
X450000000Y-250540000D03*
D13*
X413270000Y-238000000D03*
D14*
X412000000Y-238000000D03*
X410730000Y-238000000D03*
D10*
X166000000Y-268000000D03*
D11*
X163460000Y-268000000D03*
D13*
X201250000Y-237250000D03*
D14*
X199980000Y-237250000D03*
X198710000Y-237250000D03*
D10*
X294000000Y-242460000D03*
D11*
X294000000Y-245000000D03*
M02*
