G04 #@! TF.GenerationSoftware,KiCad,Pcbnew,7.0.9*
G04 #@! TF.CreationDate,2024-04-05T10:46:58+01:00*
G04 #@! TF.ProjectId,mcpElectronicsv2,6d637045-6c65-4637-9472-6f6e69637376,rev?*
G04 #@! TF.SameCoordinates,Original*
G04 #@! TF.FileFunction,Legend,Bot*
G04 #@! TF.FilePolarity,Positive*
%FSLAX46Y46*%
G04 Gerber Fmt 4.6, Leading zero omitted, Abs format (unit mm)*
G04 Created by KiCad (PCBNEW 7.0.9) date 2024-04-05 10:46:58*
%MOMM*%
%LPD*%
G01*
G04 APERTURE LIST*
%ADD10C,0.150000*%
%ADD11R,1.700000X1.700000*%
%ADD12O,1.700000X1.700000*%
%ADD13C,2.000000*%
%ADD14R,1.050000X1.500000*%
%ADD15O,1.050000X1.500000*%
%ADD16R,1.500000X1.050000*%
%ADD17O,1.500000X1.050000*%
%ADD18R,1.905000X2.000000*%
%ADD19O,1.905000X2.000000*%
%ADD20C,1.600000*%
%ADD21R,2.000000X4.000000*%
%ADD22O,2.000000X3.300000*%
%ADD23O,3.500000X2.000000*%
%ADD24C,7.600000*%
%ADD25R,1.600000X1.600000*%
%ADD26O,1.600000X1.600000*%
%ADD27C,0.650000*%
%ADD28O,2.100000X1.000000*%
%ADD29O,1.600000X1.000000*%
G04 APERTURE END LIST*
D10*
G36*
X88283133Y-245293824D02*
G01*
X88834633Y-245293824D01*
X88834633Y-244742323D01*
X89165338Y-244742323D01*
X89165338Y-245293824D01*
X89710000Y-245293824D01*
X89710000Y-245624040D01*
X89165338Y-245624040D01*
X89165338Y-246176029D01*
X88834633Y-246176029D01*
X88834633Y-245624040D01*
X88283133Y-245624040D01*
X88283133Y-245293824D01*
G37*
G36*
X87942658Y-246950767D02*
G01*
X89710000Y-246950767D01*
X89710000Y-247362561D01*
X87584110Y-247362561D01*
X87584110Y-246673796D01*
X87942658Y-246673796D01*
X87942658Y-246950767D01*
G37*
G36*
X89351939Y-248694661D02*
G01*
X88992903Y-249005338D01*
X88972039Y-249023410D01*
X88951114Y-249041336D01*
X88930115Y-249059089D01*
X88909029Y-249076640D01*
X88887843Y-249093961D01*
X88866544Y-249111025D01*
X88845120Y-249127803D01*
X88823558Y-249144266D01*
X88801845Y-249160388D01*
X88779968Y-249176140D01*
X88757915Y-249191493D01*
X88735672Y-249206420D01*
X88713227Y-249220893D01*
X88690567Y-249234884D01*
X88667679Y-249248363D01*
X88644551Y-249261304D01*
X88621170Y-249273679D01*
X88597522Y-249285458D01*
X88573596Y-249296615D01*
X88549378Y-249307121D01*
X88524855Y-249316948D01*
X88500015Y-249326067D01*
X88474845Y-249334452D01*
X88449332Y-249342073D01*
X88423464Y-249348902D01*
X88397227Y-249354912D01*
X88370609Y-249360075D01*
X88343597Y-249364362D01*
X88316178Y-249367745D01*
X88288340Y-249370196D01*
X88260069Y-249371687D01*
X88231353Y-249372191D01*
X88195583Y-249371320D01*
X88160380Y-249368734D01*
X88125781Y-249364470D01*
X88091823Y-249358569D01*
X88058544Y-249351070D01*
X88025981Y-249342010D01*
X87994171Y-249331429D01*
X87963152Y-249319366D01*
X87932960Y-249305859D01*
X87903634Y-249290948D01*
X87875211Y-249274672D01*
X87847727Y-249257069D01*
X87821220Y-249238179D01*
X87795728Y-249218040D01*
X87771287Y-249196691D01*
X87747936Y-249174171D01*
X87725710Y-249150519D01*
X87704648Y-249125774D01*
X87684788Y-249099975D01*
X87666165Y-249073160D01*
X87648818Y-249045369D01*
X87632783Y-249016641D01*
X87618099Y-248987014D01*
X87604802Y-248956528D01*
X87592929Y-248925220D01*
X87582519Y-248893131D01*
X87573608Y-248860299D01*
X87566233Y-248826763D01*
X87560433Y-248792562D01*
X87556243Y-248757734D01*
X87553702Y-248722320D01*
X87552847Y-248686357D01*
X87553760Y-248646237D01*
X87556473Y-248607303D01*
X87560943Y-248569554D01*
X87567130Y-248532990D01*
X87574993Y-248497613D01*
X87584490Y-248463422D01*
X87595579Y-248430418D01*
X87608221Y-248398601D01*
X87622373Y-248367970D01*
X87637995Y-248338527D01*
X87655044Y-248310272D01*
X87673481Y-248283204D01*
X87693263Y-248257325D01*
X87714349Y-248232634D01*
X87736699Y-248209132D01*
X87760270Y-248186819D01*
X87785022Y-248165695D01*
X87810913Y-248145761D01*
X87837903Y-248127016D01*
X87865950Y-248109462D01*
X87895012Y-248093098D01*
X87925049Y-248077924D01*
X87956019Y-248063941D01*
X87987881Y-248051150D01*
X88020594Y-248039550D01*
X88054117Y-248029141D01*
X88088408Y-248019925D01*
X88123426Y-248011900D01*
X88159129Y-248005068D01*
X88195478Y-247999429D01*
X88232430Y-247994983D01*
X88269944Y-247991730D01*
X88269944Y-248428925D01*
X88239835Y-248428366D01*
X88209097Y-248429994D01*
X88178084Y-248433822D01*
X88147151Y-248439862D01*
X88116653Y-248448126D01*
X88086945Y-248458626D01*
X88058382Y-248471374D01*
X88031318Y-248486383D01*
X88006110Y-248503664D01*
X87983111Y-248523230D01*
X87962677Y-248545093D01*
X87945162Y-248569265D01*
X87930921Y-248595759D01*
X87920310Y-248624585D01*
X87913683Y-248655758D01*
X87911395Y-248689288D01*
X87913555Y-248720915D01*
X87919812Y-248750746D01*
X87929833Y-248778747D01*
X87943284Y-248804883D01*
X87959832Y-248829122D01*
X87979144Y-248851430D01*
X88000886Y-248871772D01*
X88024724Y-248890116D01*
X88050325Y-248906428D01*
X88077356Y-248920674D01*
X88105484Y-248932821D01*
X88134374Y-248942835D01*
X88163693Y-248950682D01*
X88193108Y-248956328D01*
X88222286Y-248959741D01*
X88250893Y-248960886D01*
X88273379Y-248959989D01*
X88296561Y-248957355D01*
X88320383Y-248953072D01*
X88344788Y-248947226D01*
X88369719Y-248939905D01*
X88395120Y-248931194D01*
X88420933Y-248921181D01*
X88447104Y-248909953D01*
X88473574Y-248897597D01*
X88500287Y-248884199D01*
X88527187Y-248869846D01*
X88554217Y-248854626D01*
X88581320Y-248838624D01*
X88608440Y-248821928D01*
X88635520Y-248804625D01*
X88662503Y-248786802D01*
X88689333Y-248768544D01*
X88715954Y-248749940D01*
X88742308Y-248731077D01*
X88768339Y-248712040D01*
X88793991Y-248692916D01*
X88819206Y-248673794D01*
X88843929Y-248654759D01*
X88868102Y-248635898D01*
X88891669Y-248617298D01*
X88914573Y-248599047D01*
X88936758Y-248581230D01*
X88958168Y-248563935D01*
X88978744Y-248547248D01*
X88998431Y-248531257D01*
X89017173Y-248516049D01*
X89034912Y-248501709D01*
X89710000Y-247963886D01*
X89710000Y-249386357D01*
X89351939Y-249386357D01*
X89351939Y-248694661D01*
G37*
G36*
X87584110Y-249906594D02*
G01*
X87584110Y-249464026D01*
X89772526Y-250270516D01*
X89772526Y-250511339D01*
X87584110Y-251331995D01*
X87584110Y-250889427D01*
X89020746Y-250419016D01*
X89020746Y-250413642D01*
X87584110Y-249906594D01*
G37*
%LPC*%
D11*
X460000000Y-275290000D03*
D12*
X460000000Y-272750000D03*
D13*
X139250000Y-253000000D03*
X145750000Y-253000000D03*
X139250000Y-257500000D03*
X145750000Y-257500000D03*
D11*
X464000000Y-275275000D03*
D12*
X464000000Y-272735000D03*
D14*
X354300000Y-238000000D03*
D15*
X353030000Y-238000000D03*
X351760000Y-238000000D03*
D14*
X534020000Y-239260000D03*
D15*
X532750000Y-239260000D03*
X531480000Y-239260000D03*
D11*
X252300000Y-240500000D03*
D12*
X252300000Y-245580000D03*
X252300000Y-243040000D03*
D11*
X363000000Y-242000000D03*
D12*
X363000000Y-244540000D03*
D14*
X277230000Y-238000000D03*
D15*
X275960000Y-238000000D03*
X274690000Y-238000000D03*
D11*
X229000000Y-219000000D03*
D12*
X229000000Y-221540000D03*
D11*
X192000000Y-211125000D03*
D12*
X192000000Y-213665000D03*
X192000000Y-216205000D03*
X192000000Y-218745000D03*
X192000000Y-221285000D03*
X192000000Y-223825000D03*
X192000000Y-226365000D03*
X192000000Y-228905000D03*
X192000000Y-231445000D03*
D11*
X111250000Y-211125000D03*
D12*
X111250000Y-213665000D03*
X111250000Y-216205000D03*
X111250000Y-218745000D03*
X111250000Y-221285000D03*
X111250000Y-223825000D03*
X111250000Y-226365000D03*
X111250000Y-228905000D03*
X111250000Y-231445000D03*
D11*
X385550000Y-252250000D03*
D12*
X385550000Y-257330000D03*
X385550000Y-254790000D03*
D11*
X177000000Y-241000000D03*
D12*
X177000000Y-243540000D03*
D11*
X507300000Y-240500000D03*
D12*
X507300000Y-245580000D03*
X507300000Y-243040000D03*
D11*
X353000000Y-211125000D03*
D12*
X353000000Y-213665000D03*
X353000000Y-216205000D03*
X353000000Y-218745000D03*
X353000000Y-221285000D03*
X353000000Y-223825000D03*
X353000000Y-226365000D03*
X353000000Y-228905000D03*
X353000000Y-231445000D03*
D11*
X428000000Y-211000000D03*
D12*
X428000000Y-213540000D03*
X428000000Y-216080000D03*
X428000000Y-218620000D03*
X428000000Y-221160000D03*
X428000000Y-223700000D03*
X428000000Y-226240000D03*
X428000000Y-228780000D03*
X428000000Y-231320000D03*
D11*
X306200000Y-273325000D03*
D12*
X306200000Y-275865000D03*
D11*
X108250000Y-264325000D03*
D12*
X108250000Y-266865000D03*
D11*
X238000000Y-273325000D03*
D12*
X238000000Y-275865000D03*
D14*
X248500000Y-238000000D03*
D15*
X247230000Y-238000000D03*
X245960000Y-238000000D03*
D11*
X184000000Y-211125000D03*
D12*
X184000000Y-213665000D03*
X184000000Y-216205000D03*
X184000000Y-218745000D03*
X184000000Y-221285000D03*
X184000000Y-223825000D03*
X184000000Y-226365000D03*
X184000000Y-228905000D03*
X184000000Y-231445000D03*
X184000000Y-233985000D03*
X184000000Y-236525000D03*
X184000000Y-239065000D03*
X184000000Y-241605000D03*
X184000000Y-244145000D03*
D14*
X184520000Y-251500000D03*
D15*
X183250000Y-251500000D03*
X181980000Y-251500000D03*
D14*
X324980000Y-238000000D03*
D15*
X323710000Y-238000000D03*
X322440000Y-238000000D03*
D16*
X315800000Y-264670000D03*
D17*
X315800000Y-263400000D03*
X315800000Y-262130000D03*
D16*
X270000000Y-262270000D03*
D17*
X270000000Y-261000000D03*
X270000000Y-259730000D03*
D11*
X450000000Y-224460000D03*
D12*
X450000000Y-227000000D03*
D16*
X311000000Y-262290000D03*
D17*
X311000000Y-261020000D03*
X311000000Y-259750000D03*
D16*
X320600000Y-262290000D03*
D17*
X320600000Y-261020000D03*
X320600000Y-259750000D03*
D11*
X325400000Y-273325000D03*
D12*
X325400000Y-275865000D03*
D11*
X265400000Y-263125000D03*
D12*
X265400000Y-265665000D03*
D16*
X242800000Y-262270000D03*
D17*
X242800000Y-261000000D03*
X242800000Y-259730000D03*
D11*
X279600000Y-273325000D03*
D12*
X279600000Y-275865000D03*
D11*
X451750000Y-275275000D03*
D12*
X451750000Y-272735000D03*
D11*
X188300000Y-247500000D03*
D12*
X188300000Y-252580000D03*
X188300000Y-250040000D03*
D18*
X90830000Y-266500000D03*
D19*
X88290000Y-266500000D03*
X85750000Y-266500000D03*
D14*
X112790000Y-237250000D03*
D15*
X111520000Y-237250000D03*
X110250000Y-237250000D03*
D20*
X76700000Y-248250000D03*
D21*
X85700000Y-248250000D03*
D22*
X79700000Y-248250000D03*
D23*
X78700000Y-243750000D03*
X78700000Y-252750000D03*
D11*
X329300000Y-240500000D03*
D12*
X329300000Y-245580000D03*
X329300000Y-243040000D03*
D11*
X252400000Y-273325000D03*
D12*
X252400000Y-275865000D03*
D24*
X79000000Y-213000000D03*
D16*
X306200000Y-264670000D03*
D17*
X306200000Y-263400000D03*
X306200000Y-262130000D03*
D16*
X257160000Y-264670000D03*
D17*
X257160000Y-263400000D03*
X257160000Y-262130000D03*
D14*
X429270000Y-238000000D03*
D15*
X428000000Y-238000000D03*
X426730000Y-238000000D03*
D11*
X268000000Y-211125000D03*
D12*
X268000000Y-213665000D03*
X268000000Y-216205000D03*
X268000000Y-218745000D03*
X268000000Y-221285000D03*
X268000000Y-223825000D03*
X268000000Y-226365000D03*
X268000000Y-228905000D03*
X268000000Y-231445000D03*
D11*
X139250000Y-264460000D03*
D12*
X139250000Y-267000000D03*
D14*
X106400000Y-253500000D03*
D15*
X105130000Y-253500000D03*
X103860000Y-253500000D03*
D16*
X289200000Y-262250000D03*
D17*
X289200000Y-260980000D03*
X289200000Y-259710000D03*
D11*
X208000000Y-211125000D03*
D12*
X208000000Y-213665000D03*
X208000000Y-216205000D03*
X208000000Y-218745000D03*
X208000000Y-221285000D03*
X208000000Y-223825000D03*
X208000000Y-226365000D03*
X208000000Y-228905000D03*
X208000000Y-231445000D03*
D11*
X284400000Y-273325000D03*
D12*
X284400000Y-275865000D03*
D11*
X415250000Y-275275000D03*
D12*
X415250000Y-272735000D03*
D11*
X477000000Y-224460000D03*
D12*
X477000000Y-227000000D03*
D16*
X325400000Y-265070000D03*
D17*
X325400000Y-263800000D03*
X325400000Y-262530000D03*
D11*
X491225000Y-254000000D03*
D12*
X493765000Y-254000000D03*
D11*
X226000000Y-263460000D03*
D12*
X226000000Y-266000000D03*
D11*
X419250000Y-275290000D03*
D12*
X419250000Y-272750000D03*
D24*
X79000000Y-273000000D03*
X537000000Y-213000000D03*
D11*
X484000000Y-270040000D03*
D12*
X484000000Y-267500000D03*
D14*
X193270000Y-237250000D03*
D15*
X192000000Y-237250000D03*
X190730000Y-237250000D03*
D11*
X289200000Y-273325000D03*
D12*
X289200000Y-275865000D03*
D16*
X90860000Y-219270000D03*
D17*
X90860000Y-218000000D03*
X90860000Y-216730000D03*
D16*
X330200000Y-262270000D03*
D17*
X330200000Y-261000000D03*
X330200000Y-259730000D03*
D16*
X247600000Y-264670000D03*
D17*
X247600000Y-263400000D03*
X247600000Y-262130000D03*
D14*
X89760000Y-239390000D03*
D15*
X88490000Y-239390000D03*
X87220000Y-239390000D03*
D11*
X315800000Y-273325000D03*
D12*
X315800000Y-275865000D03*
D11*
X206000000Y-244960000D03*
D12*
X206000000Y-247500000D03*
X206000000Y-250040000D03*
X206000000Y-252580000D03*
X206000000Y-255120000D03*
X206000000Y-257660000D03*
D14*
X528000000Y-239250000D03*
D15*
X526730000Y-239250000D03*
X525460000Y-239250000D03*
D11*
X329000000Y-211125000D03*
D12*
X329000000Y-213665000D03*
X329000000Y-216205000D03*
X329000000Y-218745000D03*
X329000000Y-221285000D03*
X329000000Y-223825000D03*
X329000000Y-226365000D03*
X329000000Y-228905000D03*
X329000000Y-231445000D03*
D11*
X477000000Y-248460000D03*
D12*
X477000000Y-251000000D03*
D14*
X437270000Y-238000000D03*
D15*
X436000000Y-238000000D03*
X434730000Y-238000000D03*
D16*
X284400000Y-264870000D03*
D17*
X284400000Y-263600000D03*
X284400000Y-262330000D03*
D14*
X348260000Y-238000000D03*
D15*
X346990000Y-238000000D03*
X345720000Y-238000000D03*
D11*
X412000000Y-211000000D03*
D12*
X412000000Y-213540000D03*
X412000000Y-216080000D03*
X412000000Y-218620000D03*
X412000000Y-221160000D03*
X412000000Y-223700000D03*
X412000000Y-226240000D03*
X412000000Y-228780000D03*
X412000000Y-231320000D03*
D25*
X97294888Y-271500000D03*
D20*
X99294888Y-271500000D03*
D24*
X537000000Y-273000000D03*
D14*
X209270000Y-237250000D03*
D15*
X208000000Y-237250000D03*
X206730000Y-237250000D03*
D11*
X242800000Y-273325000D03*
D12*
X242800000Y-275865000D03*
D11*
X496500000Y-241225000D03*
D12*
X496500000Y-243765000D03*
D16*
X84860000Y-220460000D03*
D17*
X84860000Y-221730000D03*
X84860000Y-223000000D03*
D16*
X90860000Y-234250000D03*
D17*
X90860000Y-232980000D03*
X90860000Y-231710000D03*
D14*
X319270000Y-238000000D03*
D15*
X318000000Y-238000000D03*
X316730000Y-238000000D03*
D11*
X468000000Y-275290000D03*
D12*
X468000000Y-272750000D03*
D14*
X177520000Y-251520000D03*
D15*
X176250000Y-251520000D03*
X174980000Y-251520000D03*
D14*
X82760000Y-239345000D03*
D15*
X81490000Y-239345000D03*
X80220000Y-239345000D03*
D16*
X252350000Y-262250000D03*
D17*
X252350000Y-260980000D03*
X252350000Y-259710000D03*
D11*
X116710000Y-268500000D03*
D12*
X119250000Y-268500000D03*
D25*
X94152651Y-254500000D03*
D20*
X90652651Y-254500000D03*
D11*
X260000000Y-211125000D03*
D12*
X260000000Y-213665000D03*
X260000000Y-216205000D03*
X260000000Y-218745000D03*
X260000000Y-221285000D03*
X260000000Y-223825000D03*
X260000000Y-226365000D03*
X260000000Y-228905000D03*
X260000000Y-231445000D03*
D11*
X257200000Y-273325000D03*
D12*
X257200000Y-275865000D03*
D20*
X481000000Y-258250000D03*
D26*
X470840000Y-258250000D03*
D14*
X313510000Y-238000000D03*
D15*
X312240000Y-238000000D03*
X310970000Y-238000000D03*
D11*
X507000000Y-211000000D03*
D12*
X507000000Y-213540000D03*
X507000000Y-216080000D03*
X507000000Y-218620000D03*
X507000000Y-221160000D03*
X507000000Y-223700000D03*
X507000000Y-226240000D03*
X507000000Y-228780000D03*
X507000000Y-231320000D03*
D11*
X101600000Y-276000000D03*
D12*
X104140000Y-276000000D03*
X106680000Y-276000000D03*
X109220000Y-276000000D03*
D11*
X436000000Y-211000000D03*
D12*
X436000000Y-213540000D03*
X436000000Y-216080000D03*
X436000000Y-218620000D03*
X436000000Y-221160000D03*
X436000000Y-223700000D03*
X436000000Y-226240000D03*
X436000000Y-228780000D03*
X436000000Y-231320000D03*
D11*
X200000000Y-211125000D03*
D12*
X200000000Y-213665000D03*
X200000000Y-216205000D03*
X200000000Y-218745000D03*
X200000000Y-221285000D03*
X200000000Y-223825000D03*
X200000000Y-226365000D03*
X200000000Y-228905000D03*
X200000000Y-231445000D03*
D11*
X431500000Y-275290000D03*
D12*
X431500000Y-272750000D03*
D11*
X337000000Y-211125000D03*
D12*
X337000000Y-213665000D03*
X337000000Y-216205000D03*
X337000000Y-218745000D03*
X337000000Y-221285000D03*
X337000000Y-223825000D03*
X337000000Y-226365000D03*
X337000000Y-228905000D03*
X337000000Y-231445000D03*
D11*
X447750000Y-275275000D03*
D12*
X447750000Y-272735000D03*
D11*
X320600000Y-273325000D03*
D12*
X320600000Y-275865000D03*
D11*
X439500000Y-275275000D03*
D12*
X439500000Y-272735000D03*
D16*
X90860000Y-226750000D03*
D17*
X90860000Y-225480000D03*
X90860000Y-224210000D03*
D11*
X365000000Y-264000000D03*
D12*
X365000000Y-266540000D03*
D11*
X95250000Y-211125000D03*
D12*
X95250000Y-213665000D03*
X95250000Y-216205000D03*
X95250000Y-218745000D03*
X95250000Y-221285000D03*
X95250000Y-223825000D03*
X95250000Y-226365000D03*
X95250000Y-228905000D03*
X95250000Y-231445000D03*
D14*
X540000000Y-239250000D03*
D15*
X538730000Y-239250000D03*
X537460000Y-239250000D03*
D11*
X100400000Y-253000000D03*
D12*
X100400000Y-255540000D03*
D27*
X80000000Y-258860000D03*
X80000000Y-264640000D03*
D28*
X80530000Y-257430000D03*
D29*
X76350000Y-257430000D03*
D28*
X80530000Y-266070000D03*
D29*
X76350000Y-266070000D03*
D14*
X421270000Y-238000000D03*
D15*
X420000000Y-238000000D03*
X418730000Y-238000000D03*
D11*
X515000000Y-211000000D03*
D12*
X515000000Y-213540000D03*
X515000000Y-216080000D03*
X515000000Y-218620000D03*
X515000000Y-221160000D03*
X515000000Y-223700000D03*
X515000000Y-226240000D03*
X515000000Y-228780000D03*
X515000000Y-231320000D03*
D11*
X455750000Y-275275000D03*
D12*
X455750000Y-272735000D03*
D11*
X345000000Y-211125000D03*
D12*
X345000000Y-213665000D03*
X345000000Y-216205000D03*
X345000000Y-218745000D03*
X345000000Y-221285000D03*
X345000000Y-223825000D03*
X345000000Y-226365000D03*
X345000000Y-228905000D03*
X345000000Y-231445000D03*
D16*
X301400000Y-262270000D03*
D17*
X301400000Y-261000000D03*
X301400000Y-259730000D03*
D11*
X296600000Y-263125000D03*
D12*
X296600000Y-265665000D03*
D16*
X475815000Y-265190000D03*
D17*
X475815000Y-266460000D03*
X475815000Y-267730000D03*
D11*
X103250000Y-211125000D03*
D12*
X103250000Y-213665000D03*
X103250000Y-216205000D03*
X103250000Y-218745000D03*
X103250000Y-221285000D03*
X103250000Y-223825000D03*
X103250000Y-226365000D03*
X103250000Y-228905000D03*
X103250000Y-231445000D03*
D11*
X330200000Y-273325000D03*
D12*
X330200000Y-275865000D03*
D11*
X523000000Y-211000000D03*
D12*
X523000000Y-213540000D03*
X523000000Y-216080000D03*
X523000000Y-218620000D03*
X523000000Y-221160000D03*
X523000000Y-223700000D03*
X523000000Y-226240000D03*
X523000000Y-228780000D03*
X523000000Y-231320000D03*
D11*
X270000000Y-273325000D03*
D12*
X270000000Y-275865000D03*
D18*
X102740000Y-264800000D03*
D19*
X100200000Y-264800000D03*
X97660000Y-264800000D03*
D16*
X90960000Y-212270000D03*
D17*
X90960000Y-211000000D03*
X90960000Y-209730000D03*
D16*
X86000000Y-215500000D03*
D17*
X86000000Y-214230000D03*
X86000000Y-212960000D03*
D11*
X252000000Y-211125000D03*
D12*
X252000000Y-213665000D03*
X252000000Y-216205000D03*
X252000000Y-218745000D03*
X252000000Y-221285000D03*
X252000000Y-223825000D03*
X252000000Y-226365000D03*
X252000000Y-228905000D03*
X252000000Y-231445000D03*
D11*
X301400000Y-273325000D03*
D12*
X301400000Y-275865000D03*
D14*
X271460000Y-237990000D03*
D15*
X270190000Y-237990000D03*
X268920000Y-237990000D03*
D16*
X84860000Y-227960000D03*
D17*
X84860000Y-229230000D03*
X84860000Y-230500000D03*
D11*
X443750000Y-275290000D03*
D12*
X443750000Y-272750000D03*
D11*
X321000000Y-211125000D03*
D12*
X321000000Y-213665000D03*
X321000000Y-216205000D03*
X321000000Y-218745000D03*
X321000000Y-221285000D03*
X321000000Y-223825000D03*
X321000000Y-226365000D03*
X321000000Y-228905000D03*
X321000000Y-231445000D03*
D11*
X435500000Y-275275000D03*
D12*
X435500000Y-272735000D03*
D11*
X404000000Y-211000000D03*
D12*
X404000000Y-213540000D03*
X404000000Y-216080000D03*
X404000000Y-218620000D03*
X404000000Y-221160000D03*
D11*
X420000000Y-211000000D03*
D12*
X420000000Y-213540000D03*
X420000000Y-216080000D03*
X420000000Y-218620000D03*
X420000000Y-221160000D03*
X420000000Y-223700000D03*
X420000000Y-226240000D03*
X420000000Y-228780000D03*
X420000000Y-231320000D03*
D16*
X279600000Y-262270000D03*
D17*
X279600000Y-261000000D03*
X279600000Y-259730000D03*
D11*
X219000000Y-242000000D03*
D12*
X219000000Y-244540000D03*
D11*
X247600000Y-273325000D03*
D12*
X247600000Y-275865000D03*
D11*
X311000000Y-273325000D03*
D12*
X311000000Y-275865000D03*
D11*
X93300000Y-240500000D03*
D12*
X93300000Y-245580000D03*
X93300000Y-243040000D03*
D11*
X274800000Y-273325000D03*
D12*
X274800000Y-275865000D03*
D16*
X238000000Y-264670000D03*
D17*
X238000000Y-263400000D03*
X238000000Y-262130000D03*
D16*
X274750000Y-264740000D03*
D17*
X274750000Y-263470000D03*
X274750000Y-262200000D03*
D11*
X423250000Y-275290000D03*
D12*
X423250000Y-272750000D03*
D14*
X405270000Y-231000000D03*
D15*
X404000000Y-231000000D03*
X402730000Y-231000000D03*
D11*
X339000000Y-264460000D03*
D12*
X339000000Y-267000000D03*
D16*
X406640000Y-273230000D03*
D17*
X406640000Y-274500000D03*
X406640000Y-275770000D03*
D11*
X427250000Y-275290000D03*
D12*
X427250000Y-272750000D03*
D25*
X87794888Y-273500000D03*
D20*
X89794888Y-273500000D03*
D11*
X294000000Y-219000000D03*
D12*
X294000000Y-221540000D03*
D11*
X450000000Y-248000000D03*
D12*
X450000000Y-250540000D03*
D14*
X413270000Y-238000000D03*
D15*
X412000000Y-238000000D03*
X410730000Y-238000000D03*
D11*
X166000000Y-268000000D03*
D12*
X163460000Y-268000000D03*
D14*
X201250000Y-237250000D03*
D15*
X199980000Y-237250000D03*
X198710000Y-237250000D03*
D11*
X294000000Y-242460000D03*
D12*
X294000000Y-245000000D03*
%LPD*%
M02*
